<svg id="4315638f-ebdc-4931-af93-b2a429a5deeb" data-name="e8b549fe-f525-4c4e-9a67-1556e466d510" xmlns="http://www.w3.org/2000/svg" width="91.47" height="3264.67" viewBox="0 0 91.47 3264.67"><title>sprite-temps-92</title><rect y="2390.67" width="91.47" height="73.17" style="fill:#fff;fill-opacity:0"/><rect y="1956.02" width="91.47" height="72" style="fill:#fff;fill-opacity:0"/><rect y="1665.95" width="91.47" height="72" style="fill:#fff;fill-opacity:0"/><rect y="941.35" width="91.47" height="72" style="fill:#fff;fill-opacity:0"/><rect width="91.47" height="72" style="fill:#fff;fill-opacity:0"/><rect y="72.27" width="91.47" height="72" style="fill:#fff;fill-opacity:0"/><rect y="145.05" width="91.47" height="72" style="fill:#fff;fill-opacity:0"/><circle cx="45.74" cy="36" r="26.14" style="fill:#efeb60;opacity:0.5099999904632568;isolation:isolate"/><circle cx="45.74" cy="36" r="19.94" style="fill:#f6b31a;stroke:#feea02;stroke-miterlimit:10"/><circle cx="47.04" cy="108.85" r="26.14" style="fill:#43444d;opacity:0.18000000715255737;isolation:isolate"/><path d="M46.52,90.73a17.58,17.58,0,0,1,6.2-.32,17.58,17.58,0,0,0,7.57,32.2A17.58,17.58,0,1,1,46.52,90.73Z" style="fill:#626472;opacity:0.18000000715255737;isolation:isolate"/><path d="M41,92a17.58,17.58,0,0,1,6.14-.33,17.58,17.58,0,0,0,7.57,32.19A17.58,17.58,0,1,1,41,92Z" style="fill:#fdfce9"/><path d="M58.81,114.29a1,1,0,0,0,1-1v-3.46a1,1,0,1,0-2.07,0v3.46a1,1,0,0,0,1,1Z" style="fill:#fff"/><path d="M61.56,111.53a1,1,0,0,0-1-1H57.08a1,1,0,1,0,0,2.07h3.46a1,1,0,0,0,1-1S61.56,111.61,61.56,111.53Z" style="fill:#fff"/><path d="M26,97.21a1,1,0,0,0,1-1V92.68a1,1,0,0,0-2.07,0v3.46a1,1,0,0,0,.94,1.06H26Z" style="fill:#fff"/><path d="M28.75,92.45a1,1,0,0,0-1-1H24.26a1,1,0,1,0,0,2.07h3.46a1,1,0,0,0,1-1v-.07Z" style="fill:#fff"/><path d="M54.73,92.45a1,1,0,0,0,1-1V88a1,1,0,1,0-2.07,0v3.46a1,1,0,0,0,1,1Z" style="fill:#fff"/><path d="M57.49,89.61a1,1,0,0,0-1-1H53a1,1,0,1,0,0,2.07h3.46a1,1,0,0,0,1-1v-.07Z" style="fill:#fff"/><rect y="652.11" width="91.47" height="72" style="fill:#fff;fill-opacity:0"/><rect y="578.88" width="91.47" height="72" style="fill:#fff;fill-opacity:0"/><rect y="362.11" width="91.47" height="72" style="fill:#fff;fill-opacity:0"/><rect y="434.5" width="91.47" height="72" style="fill:#fff;fill-opacity:0"/><rect y="506.83" width="91.47" height="72" style="fill:#fff;fill-opacity:0"/><rect y="217.4" width="91.47" height="72" style="fill:#fff;fill-opacity:0"/><rect y="290.1" width="91.47" height="72" style="fill:#fff;fill-opacity:0"/><circle cx="47.04" cy="253.99" r="26.14" style="fill:#43444d;opacity:0.18000000715255737;isolation:isolate"/><path d="M58.81,257.41a1,1,0,0,0,1-1v-3.46a1,1,0,1,0-2.07,0v3.46a1,1,0,0,0,1,1Z" style="fill:#fff"/><path d="M61.56,254.61a1,1,0,0,0-1-1H57.08a1,1,0,1,0,0,2.07h3.46a1,1,0,0,0,1-1S61.56,254.69,61.56,254.61Z" style="fill:#fff"/><path d="M26,241.35a1,1,0,0,0,1-1v-3.46a1,1,0,1,0-2.07,0v3.46a1,1,0,0,0,1,1Z" style="fill:#fff"/><path d="M28.75,238.61a1,1,0,0,0-1-1H24.26a1,1,0,1,0,0,2.07h3.46a1,1,0,0,0,1-1v-.07Z" style="fill:#fff"/><path d="M54.73,238.61a1,1,0,0,0,1-1v-3.46a1,1,0,1,0-2.07,0v3.46a1,1,0,0,0,1,1Z" style="fill:#fff"/><path d="M57.49,235.84a1,1,0,0,0-1-1H53a1,1,0,0,0,0,2.07h3.46a1,1,0,0,0,1-1v-.07Z" style="fill:#fff"/><path d="M47.86,237a17.57,17.57,0,0,1,6.14-.32,17.58,17.58,0,0,0,7.57,32.19A17.58,17.58,0,1,1,47.86,237Z" style="fill:#626472;opacity:0.18000000715255737;isolation:isolate"/><path d="M42.39,237.17a17.57,17.57,0,0,1,6.14-.32A17.58,17.58,0,0,0,56.1,269a17.58,17.58,0,1,1-13.71-31.87Z" style="fill:#fdfce9"/><g style="opacity:0.8999999761581421"><rect x="14.11" y="246.65" width="44.75" height="5.97" rx="1.67" ry="1.67" style="fill:#f4f4f4"/><rect x="32.61" y="258.48" width="44.75" height="5.97" rx="1.67" ry="1.67" style="fill:#f4f4f4"/></g><circle cx="45.74" cy="182.43" r="26.14" style="fill:#efeb60;opacity:0.5099999904632568;isolation:isolate"/><circle cx="45.74" cy="182.43" r="19.94" style="fill:#f6b31a;stroke:#feea02;stroke-miterlimit:10"/><g style="opacity:0.8999999761581421"><rect x="14.11" y="174.05" width="44.75" height="5.97" rx="1.67" ry="1.67" style="fill:#f4f4f4"/><rect x="32.61" y="185.88" width="44.75" height="5.97" rx="1.67" ry="1.67" style="fill:#f4f4f4"/></g><circle cx="45.6" cy="324.8" r="22.87" style="fill:#efeb60;opacity:0.5099999904632568;isolation:isolate"/><circle cx="45.6" cy="324.8" r="17.45" style="fill:#f6b31a;stroke:#feea02;stroke-miterlimit:10"/><path d="M71.47,328.61a14.78,14.78,0,0,0-27.17,5.53,8.53,8.53,0,0,0,.21,17H70.25a11.37,11.37,0,0,0,1.22-22.53Z" style="fill:#fff;opacity:0.800000011920929;isolation:isolate"/><path d="M15.32,316a8,8,0,0,1,6.74-3.59,7.84,7.84,0,0,1,7.84,6.43,4.38,4.38,0,0,1,.3,8.76H16a5.81,5.81,0,0,1-.66-11.6Z" style="fill:#fff;opacity:0.800000011920929;isolation:isolate"/><circle cx="47.04" cy="398.17" r="26.14" style="fill:#43444d;opacity:0.18000000715255737;isolation:isolate"/><path d="M58.81,401.61a1,1,0,0,0,1-1v-3.46a1,1,0,1,0-2.07,0h0v3.46a1,1,0,0,0,1,1Z" style="fill:#fff"/><path d="M61.56,398.83a1,1,0,0,0-1-1H57.08a1,1,0,1,0,0,2.07h3.46a1,1,0,0,0,1-1A.2.2,0,0,0,61.56,398.83Z" style="fill:#fff"/><path d="M26,384.52a1,1,0,0,0,1-1v-3.46a1,1,0,1,0-2.07,0v3.46a1,1,0,0,0,1,1Z" style="fill:#fff"/><path d="M28.75,381.77a1,1,0,0,0-1-1H24.26a1,1,0,1,0,0,2.07h3.46a1,1,0,0,0,1-1v-.07Z" style="fill:#fff"/><path d="M54.73,381.77a1,1,0,0,0,1-1v-3.46a1,1,0,1,0-2.07,0v3.46a1,1,0,0,0,1,1Z" style="fill:#fff"/><path d="M57.49,379a1,1,0,0,0-1-1H53a1,1,0,1,0,0,2.07h3.46a1,1,0,0,0,1-1V379Z" style="fill:#fff"/><path d="M45.67,381.68a17.58,17.58,0,0,1,6.14-.32,17.58,17.58,0,0,0,7.57,32.19,17.58,17.58,0,1,1-13.71-31.87Z" style="fill:#626472;opacity:0.18000000715255737;isolation:isolate"/><path d="M42.39,381.36a17.58,17.58,0,0,1,6.14-.32,17.58,17.58,0,0,0,7.57,32.19,17.58,17.58,0,1,1-13.71-31.87Z" style="fill:#fdfce9"/><path d="M71.47,402.74a14.78,14.78,0,0,0-27.17,5.53,8.53,8.53,0,0,0,.21,17H70.25a11.37,11.37,0,0,0,1.23-22.58Z" style="fill:#fff;opacity:0.800000011920929;isolation:isolate"/><path d="M15.32,390.09a8,8,0,0,1,6.74-3.59,7.84,7.84,0,0,1,7.84,6.43,4.38,4.38,0,0,1,.3,8.76H16a5.81,5.81,0,0,1-.66-11.59Z" style="fill:#fff;opacity:0.800000011920929;isolation:isolate"/><g style="opacity:0.30000001192092896"><path d="M72.59,467.9a14.77,14.77,0,0,0-27.1,4.91A8.63,8.63,0,0,1,52.13,477l-1.14.64c-2-3.42-5.82-3.85-8.47-3.67a8.52,8.52,0,0,0,3,16.48H71.34a11.37,11.37,0,0,0,1.23-22.58Z" style="fill:#231f20"/><path d="M36.81,461.92a9.3,9.3,0,0,0-9.3-7.65A9.56,9.56,0,0,0,20,457.88c2,.32,4.53,1.21,5.63,3.64l-1.19.54c-1.36-3-6-3.1-6.71-3.1a6.93,6.93,0,0,0-4.7,6.46,7.08,7.08,0,0,0,7.23,6.93H36.68a5.21,5.21,0,0,0,.13-10.42Z" style="fill:#231f20"/></g><path d="M70,465.28a14.77,14.77,0,0,0-27,4.91,8.63,8.63,0,0,1,6.63,4.23l-1.14.64c-2-3.42-5.82-3.85-8.47-3.67a8.52,8.52,0,0,0,3,16.47H68.73A11.37,11.37,0,0,0,70,465.28Z" style="fill:#d8d9d8"/><path d="M34.2,459.31a9.3,9.3,0,0,0-9.3-7.65,9.56,9.56,0,0,0-7.5,3.57c2,.32,4.53,1.21,5.63,3.64l-1.19.54c-1.36-3-6-3.1-6.71-3.1a6.93,6.93,0,0,0-4.7,6.46,7.08,7.08,0,0,0,7.23,6.93H34.12a5.21,5.21,0,0,0,.13-10.42Z" style="fill:#d8d9d8"/><circle cx="45.74" cy="541.3" r="26.14" style="fill:#efeb60;opacity:0.5099999904632568;isolation:isolate"/><circle cx="45.74" cy="541.3" r="19.94" style="fill:#f6b31a;stroke:#feea02;stroke-miterlimit:10"/><rect x="17.61" y="546.03" width="44.75" height="5.97" rx="1.67" ry="1.67" style="fill:#bcbcbc"/><rect x="21.08" y="561.71" width="44.75" height="5.97" rx="1.67" ry="1.67" style="fill:#bcbcbc"/><rect x="31.73" y="553.93" width="44.75" height="5.97" rx="1.67" ry="1.67" style="fill:#bcbcbc"/><rect x="14.99" y="543.41" width="44.75" height="5.97" rx="1.67" ry="1.67" style="fill:#f4f4f4"/><rect x="18.46" y="559.1" width="44.75" height="5.97" rx="1.67" ry="1.67" style="fill:#f4f4f4"/><rect x="29.11" y="551.31" width="44.75" height="5.97" rx="1.67" ry="1.67" style="fill:#f4f4f4"/><circle cx="46.94" cy="612" r="23.98" style="fill:#43444d;opacity:0.18000000715255737;isolation:isolate"/><path d="M57.78,615.14a.93.93,0,0,0,.93-.93h0V611a.93.93,0,0,0-1.86,0h0v3.18a.93.93,0,0,0,.92.94h0Z" style="fill:#fff"/><path d="M60.28,612.61a.93.93,0,0,0-.93-.93h-3.2a.93.93,0,0,0,0,1.86h3.2a.93.93,0,0,0,.94-.92h0Z" style="fill:#fff"/><path d="M27.63,602.47a.93.93,0,0,0,.93-.93h0v-3.18a.93.93,0,0,0-1.86,0h0v3.18a.93.93,0,0,0,.92.94h0Z" style="fill:#fff"/><path d="M30.16,600a.93.93,0,0,0-.93-.93H26a.93.93,0,0,0,0,1.86h3.19a.93.93,0,0,0,1-.85h0Z" style="fill:#fff"/><path d="M45.88,596a16.28,16.28,0,0,1,5.69-.3,16.3,16.3,0,0,0,7,29.83A16.32,16.32,0,1,1,45.87,596Z" style="fill:#626472;opacity:0.18000000715255737;isolation:isolate"/><path d="M54,600a.93.93,0,0,0,.93-.93h0v-3.18a.93.93,0,0,0-1.86,0h0V599a.93.93,0,0,0,.85,1H54Z" style="fill:#fff"/><path d="M56.51,597.41a.93.93,0,0,0-.93-.93h-3.2a.93.93,0,0,0,0,1.86h3.2a.93.93,0,0,0,1-.85h0Z" style="fill:#fff"/><path d="M42.64,596.61a16.13,16.13,0,0,1,5.63-.3,16.15,16.15,0,0,0,7,29.54,16.17,16.17,0,1,1-12.63-29.24Z" style="fill:#fdfce9"/><rect x="19.93" y="619.77" width="41.06" height="5.47" rx="1.54" ry="1.54" style="fill:#bcbcbc"/><rect x="23.12" y="634.16" width="41.06" height="5.47" rx="1.54" ry="1.54" style="fill:#bcbcbc"/><rect x="32.89" y="627.02" width="41.06" height="5.47" rx="1.54" ry="1.54" style="fill:#bcbcbc"/><rect x="17.53" y="617.38" width="41.06" height="5.47" rx="1.54" ry="1.54" style="fill:#f4f4f4"/><rect x="20.72" y="631.77" width="41.06" height="5.47" rx="1.54" ry="1.54" style="fill:#f4f4f4"/><rect x="30.49" y="624.62" width="41.06" height="5.47" rx="1.54" ry="1.54" style="fill:#f4f4f4"/><rect x="17.61" y="679.18" width="44.75" height="5.97" rx="1.67" ry="1.67" style="fill:#bcbcbc"/><rect x="21.08" y="694.87" width="44.75" height="5.97" rx="1.67" ry="1.67" style="fill:#bcbcbc"/><rect x="31.73" y="687.08" width="44.75" height="5.97" rx="1.67" ry="1.67" style="fill:#bcbcbc"/><rect x="14.99" y="676.56" width="44.75" height="5.97" rx="1.67" ry="1.67" style="fill:#f4f4f4"/><rect x="18.46" y="692.25" width="44.75" height="5.97" rx="1.67" ry="1.67" style="fill:#f4f4f4"/><rect x="29.11" y="684.47" width="44.75" height="5.97" rx="1.67" ry="1.67" style="fill:#f4f4f4"/><rect y="725.2" width="91.47" height="72" style="fill:#fff;fill-opacity:0"/><rect x="17.61" y="742.51" width="44.75" height="5.24" rx="1.47" ry="1.47" style="fill:#bcbcbc"/><rect x="21.08" y="756.3" width="44.75" height="5.24" rx="1.47" ry="1.47" style="fill:#bcbcbc"/><rect x="31.73" y="749.46" width="44.75" height="5.24" rx="1.47" ry="1.47" style="fill:#bcbcbc"/><rect x="14.99" y="740.22" width="44.75" height="5.24" rx="1.47" ry="1.47" style="fill:#f4f4f4"/><rect x="18.46" y="754.01" width="44.75" height="5.24" rx="1.47" ry="1.47" style="fill:#f4f4f4"/><rect x="29.11" y="747.16" width="44.75" height="5.24" rx="1.47" ry="1.47" style="fill:#f4f4f4"/><rect x="17.61" y="764.35" width="44.75" height="5.24" rx="1.47" ry="1.47" style="fill:#bcbcbc"/><rect x="21.08" y="778.13" width="44.75" height="5.24" rx="1.47" ry="1.47" style="fill:#bcbcbc"/><rect x="31.73" y="771.28" width="44.75" height="5.24" rx="1.47" ry="1.47" style="fill:#bcbcbc"/><rect x="14.99" y="762.04" width="44.75" height="5.24" rx="1.47" ry="1.47" style="fill:#f4f4f4"/><rect x="18.46" y="775.83" width="44.75" height="5.24" rx="1.47" ry="1.47" style="fill:#f4f4f4"/><rect x="29.11" y="768.99" width="44.75" height="5.24" rx="1.47" ry="1.47" style="fill:#f4f4f4"/><rect y="797.26" width="91.47" height="72" style="fill:#fff;fill-opacity:0"/><rect y="869.13" width="91.47" height="72" style="fill:#fff;fill-opacity:0"/><rect x="17.61" y="812.21" width="44.75" height="5.24" rx="1.47" ry="1.47" style="fill:#bcbcbc"/><rect x="21.08" y="825.99" width="44.75" height="5.24" rx="1.47" ry="1.47" style="fill:#bcbcbc"/><rect x="31.73" y="819.15" width="44.75" height="5.24" rx="1.47" ry="1.47" style="fill:#bcbcbc"/><rect x="14.99" y="809.91" width="44.75" height="5.24" rx="1.47" ry="1.47" style="fill:#f4f4f4"/><rect x="18.46" y="823.7" width="44.75" height="5.24" rx="1.47" ry="1.47" style="fill:#f4f4f4"/><rect x="29.11" y="816.85" width="44.75" height="5.24" rx="1.47" ry="1.47" style="fill:#f4f4f4"/><rect x="17.61" y="834.04" width="44.75" height="5.24" rx="1.47" ry="1.47" style="fill:#bcbcbc"/><rect x="21.08" y="847.82" width="44.75" height="5.24" rx="1.47" ry="1.47" style="fill:#bcbcbc"/><rect x="31.73" y="840.97" width="44.75" height="5.24" rx="1.47" ry="1.47" style="fill:#bcbcbc"/><rect x="14.99" y="831.74" width="44.75" height="5.24" rx="1.47" ry="1.47" style="fill:#f4f4f4"/><rect x="18.46" y="845.52" width="44.75" height="5.24" rx="1.47" ry="1.47" style="fill:#f4f4f4"/><rect x="29.11" y="838.68" width="44.75" height="5.24" rx="1.47" ry="1.47" style="fill:#f4f4f4"/><rect x="39.02" y="839.14" width="36" height="17.1" style="fill:#cf2d28"/><path d="M53.49,853.51a11.94,11.94,0,0,1-4,.7,6,6,0,0,1-6.6-6.48c0-3.84,2.65-6.64,7-6.64a7.94,7.94,0,0,1,3.2.59L52.71,843a6.66,6.66,0,0,0-2.84-.55,4.81,4.81,0,0,0-5.17,5.17c0,3.26,2,5.17,5,5.17a5.42,5.42,0,0,0,2.21-.34v-3.88h-2.7v-1.33h4.23Z" style="fill:#fff"/><path d="M57.69,841.23V854H56V841.23Z" style="fill:#fff"/><path d="M63.39,854l-4.2-12.85H61l2,6.33c.55,1.74,1,3.3,1.37,4.81h0c.36-1.49.9-3.1,1.47-4.79L68,841.19h1.77L65.23,854Z" style="fill:#fff"/><path d="M69.71,853.09a1.13,1.13,0,0,1,1.05-1.2h.1a1.2,1.2,0,1,1-1.15,1.25Z" style="fill:#fff"/><g style="opacity:0.30000001192092896"><path d="M72.08,893.49a14.77,14.77,0,0,0-27,4.91,8.63,8.63,0,0,1,6.61,4.2l-1.14.64c-2-3.42-5.82-3.85-8.47-3.67a8.52,8.52,0,0,0,3,16.47H70.84a11.37,11.37,0,0,0,1.23-22.58Z" style="fill:#231f20"/><path d="M36.32,887.52a9.3,9.3,0,0,0-9.3-7.65,9.56,9.56,0,0,0-7.5,3.57c2,.32,4.53,1.21,5.63,3.64l-1.15.53c-1.36-3-6-3.1-6.71-3.1a6.93,6.93,0,0,0-4.7,6.46,7.08,7.08,0,0,0,7.23,6.93h16.4a5.21,5.21,0,0,0,.13-10.42h0Z" style="fill:#231f20"/></g><path d="M69.46,890.88a14.77,14.77,0,0,0-27.08,4.91A8.63,8.63,0,0,1,49,900l-1.14.64c-2-3.42-5.82-3.85-8.47-3.67a8.52,8.52,0,0,0,3,16.48H68.18a11.37,11.37,0,0,0,1.23-22.58Z" style="fill:#d8d9d8"/><path d="M33.7,884.9a9.3,9.3,0,0,0-9.3-7.65,9.56,9.56,0,0,0-7.5,3.57c2,.32,4.53,1.21,5.63,3.64l-1.19.54c-1.36-3-6-3.1-6.71-3.1a6.93,6.93,0,0,0-4.7,6.46,7.08,7.08,0,0,0,7.23,6.93H33.6a5.21,5.21,0,1,0,.13-10.42Z" style="fill:#d8d9d8"/><circle cx="70.05" cy="918.79" r="1.64" style="fill:#77ccf2"/><circle cx="67.44" cy="922.71" r="1.64" style="fill:#77ccf2"/><circle cx="64.82" cy="926.63" r="1.64" style="fill:#77ccf2"/><circle cx="62.21" cy="930.56" r="1.64" style="fill:#77ccf2"/><circle cx="55.66" cy="918.79" r="1.64" style="fill:#77ccf2"/><circle cx="53.05" cy="922.71" r="1.64" style="fill:#77ccf2"/><circle cx="50.44" cy="926.63" r="1.64" style="fill:#77ccf2"/><circle cx="47.83" cy="930.56" r="1.64" style="fill:#77ccf2"/><circle cx="41.28" cy="918.79" r="1.64" style="fill:#77ccf2"/><circle cx="38.67" cy="922.71" r="1.64" style="fill:#77ccf2"/><circle cx="36.05" cy="926.63" r="1.64" style="fill:#77ccf2"/><circle cx="33.43" cy="930.56" r="1.64" style="fill:#77ccf2"/><circle cx="47.83" cy="918.79" r="1.64" style="fill:#fff"/><circle cx="45.21" cy="922.71" r="1.64" style="fill:#fff"/><circle cx="42.59" cy="926.63" r="1.64" style="fill:#fff"/><circle cx="39.98" cy="930.56" r="1.64" style="fill:#fff"/><circle cx="62.21" cy="918.79" r="1.64" style="fill:#fff"/><circle cx="59.59" cy="922.71" r="1.64" style="fill:#fff"/><circle cx="56.97" cy="926.63" r="1.64" style="fill:#fff"/><circle cx="54.36" cy="930.56" r="1.64" style="fill:#fff"/><circle cx="76.59" cy="918.79" r="1.64" style="fill:#fff"/><circle cx="73.97" cy="922.71" r="1.64" style="fill:#fff"/><circle cx="71.36" cy="926.63" r="1.64" style="fill:#fff"/><circle cx="68.74" cy="930.56" r="1.64" style="fill:#fff"/><rect y="1883.56" width="91.47" height="72" style="fill:#fff;fill-opacity:0"/><circle cx="56.27" cy="1911.33" r="20.04" style="fill:#efeb60;opacity:0.5099999904632568;isolation:isolate"/><circle cx="56.27" cy="1911.33" r="15.29" style="fill:#f6b31a;stroke:#feea02;stroke-miterlimit:10"/><g style="opacity:0.30000001192092896"><path d="M72.08,1919.46a14.77,14.77,0,0,0-27,4.89,8.63,8.63,0,0,1,6.64,4.21l-1.14.64c-2-3.42-5.82-3.85-8.47-3.67a8.52,8.52,0,0,0,3,16.48H70.84a11.37,11.37,0,0,0,1.23-22.58Z" style="fill:#231f20"/><path d="M36.32,1913.48a9.3,9.3,0,0,0-9.3-7.65,9.56,9.56,0,0,0-7.5,3.57c2,.32,4.53,1.21,5.63,3.64l-1.15.57c-1.36-3-6-3.1-6.71-3.1a6.93,6.93,0,0,0-4.7,6.46,7.08,7.08,0,0,0,7.23,6.93h16.4a5.21,5.21,0,1,0,.13-10.42h0Z" style="fill:#231f20"/></g><path d="M69.46,1916.85a14.77,14.77,0,0,0-27.08,4.91A8.63,8.63,0,0,1,49,1926l-1.14.64c-2-3.42-5.82-3.85-8.47-3.67a8.52,8.52,0,0,0,3,16.48H68.18a11.37,11.37,0,0,0,1.23-22.58Z" style="fill:#d8d9d8"/><path d="M33.7,1910.91a9.3,9.3,0,0,0-9.3-7.65,9.56,9.56,0,0,0-7.5,3.57c2,.32,4.53,1.21,5.63,3.64l-1.19.54c-1.36-3-6-3.1-6.71-3.1a6.93,6.93,0,0,0-4.7,6.46,7.08,7.08,0,0,0,7.23,6.93H33.6a5.19,5.19,0,0,0,.1-10.38h0Z" style="fill:#d8d9d8"/><circle cx="61.79" cy="1182.11" r="20.16" style="fill:#efeb60;opacity:0.5099999904632568;isolation:isolate"/><circle cx="61.79" cy="1182.11" r="15.38" style="fill:#f6b31a;stroke:#feea02;stroke-miterlimit:10"/><g style="opacity:0.30000001192092896"><path d="M72.08,1191.73A14.77,14.77,0,0,0,45,1196.61a8.63,8.63,0,0,1,6.66,4.22l-1.14.64c-2-3.42-5.82-3.85-8.47-3.67a8.52,8.52,0,0,0,3,16.48h25.7A11.37,11.37,0,0,0,72,1191.69Z" style="fill:#231f20"/><path d="M36.32,1185.75a9.3,9.3,0,0,0-9.3-7.65,9.56,9.56,0,0,0-7.5,3.57c2,.32,4.53,1.21,5.63,3.64l-1.19.54c-1.36-3-6-3.1-6.71-3.1a6.93,6.93,0,0,0-4.7,6.46,7.08,7.08,0,0,0,7.23,6.93h16.4a5.21,5.21,0,0,0,.13-10.42h0Z" style="fill:#231f20"/></g><path d="M69.46,1189.11A14.77,14.77,0,0,0,42.38,1194a8.63,8.63,0,0,1,6.64,4.21l-1.14.64c-2-3.42-5.82-3.85-8.47-3.67a8.52,8.52,0,0,0,3,16.48H68.18a11.37,11.37,0,0,0,1.23-22.58Z" style="fill:#d8d9d8"/><path d="M33.7,1183.13a9.3,9.3,0,0,0-9.3-7.65,9.56,9.56,0,0,0-7.5,3.57c2,.32,4.53,1.21,5.63,3.64l-1.19.54c-1.36-3-6-3.1-6.71-3.1a6.93,6.93,0,0,0-4.7,6.46,7.08,7.08,0,0,0,7.23,6.93H33.6a5.21,5.21,0,1,0,.13-10.42h0Z" style="fill:#d8d9d8"/><rect x="45.47" y="1218.34" width="7.44" height="1.93" rx="0.55" ry="0.55" transform="translate(-1131 909.03) rotate(-72.96)" style="fill:#77ccf2"/><rect x="55.12" y="1218.34" width="7.46" height="1.94" rx="0.55" ry="0.55" transform="translate(-1125.38 923.02) rotate(-73.19)" style="fill:#77ccf2"/><rect x="35.17" y="1218.34" width="7.44" height="1.93" rx="0.55" ry="0.55" transform="translate(-1138.28 899.19) rotate(-72.96)" style="fill:#77ccf2"/><rect x="65.08" y="1218.34" width="7.46" height="1.94" rx="0.55" ry="0.55" transform="translate(-1118.3 932.56) rotate(-73.19)" style="fill:#77ccf2"/><rect x="74.1" y="1218.34" width="7.46" height="1.94" rx="0.55" ry="0.55" transform="translate(-1111.89 941.19) rotate(-73.19)" style="fill:#77ccf2"/><rect x="50.17" y="1218.33" width="7.44" height="1.93" rx="0.55" ry="0.55" transform="translate(-1127.68 913.52) rotate(-72.96)" style="fill:#fff"/><rect x="60.11" y="1218.34" width="7.44" height="1.93" rx="0.55" ry="0.55" transform="translate(-1120.65 923.03) rotate(-72.96)" style="fill:#fff"/><rect x="40.41" y="1218.34" width="7.44" height="1.93" rx="0.55" ry="0.55" transform="translate(-1134.58 904.19) rotate(-72.96)" style="fill:#fff"/><rect x="69.6" y="1218.34" width="7.44" height="1.93" rx="0.55" ry="0.55" transform="translate(-1113.94 932.1) rotate(-72.96)" style="fill:#fff"/><circle cx="59.12" cy="1397.24" r="19.8" style="fill:#efeb60;opacity:0.5099999904632568;isolation:isolate"/><circle cx="59.12" cy="1397.24" r="15.11" style="fill:#f6b31a;stroke:#feea02;stroke-miterlimit:10"/><circle cx="56.45" cy="1691.03" r="19.86" style="fill:#efeb60;opacity:0.5099999904632568;isolation:isolate"/><circle cx="56.45" cy="1691.03" r="15.16" style="fill:#f6b31a;stroke:#feea02;stroke-miterlimit:10"/><g style="opacity:0.30000001192092896"><path d="M72.08,1405.61a14.77,14.77,0,0,0-27,4.91,8.63,8.63,0,0,1,6.64,4.21l-1.14.64c-2-3.42-5.82-3.85-8.47-3.67a8.52,8.52,0,0,0,3,16.48H70.84a11.37,11.37,0,0,0,1.23-22.57Z" style="fill:#231f20"/><path d="M36.32,1399.61A9.3,9.3,0,0,0,27,1392a9.56,9.56,0,0,0-7.5,3.57c2,.32,4.53,1.21,5.63,3.64l-1.19.54c-1.36-3-6-3.1-6.71-3.1a6.93,6.93,0,0,0-4.7,6.46,7.08,7.08,0,0,0,7.23,6.93h16.4a5.21,5.21,0,1,0,.13-10.42Z" style="fill:#231f20"/></g><path d="M69.46,1403a14.77,14.77,0,0,0-27.08,4.91,8.63,8.63,0,0,1,6.64,4.21l-1.14.64c-2-3.42-5.82-3.85-8.47-3.67a8.52,8.52,0,0,0,3,16.48H68.18A11.37,11.37,0,0,0,69.41,1403Z" style="fill:#d8d9d8"/><path d="M33.7,1397a9.3,9.3,0,0,0-9.3-7.65,9.56,9.56,0,0,0-7.5,3.57c2,.32,4.53,1.21,5.63,3.64l-1.19.54c-1.36-3-6-3.1-6.71-3.1a6.93,6.93,0,0,0-4.7,6.46,7.08,7.08,0,0,0,7.23,6.93H33.6a5.21,5.21,0,1,0,.13-10.42Z" style="fill:#d8d9d8"/><rect y="1014.07" width="91.47" height="72" style="fill:#fff;fill-opacity:0"/><rect y="1086.46" width="91.47" height="72" style="fill:#fff;fill-opacity:0"/><g style="opacity:0.30000001192092896"><path d="M72.08,1329.22a14.77,14.77,0,0,0-27,4.91,8.63,8.63,0,0,1,6.64,4.21l-1.14.64c-2-3.42-5.82-3.85-8.47-3.67a8.52,8.52,0,0,0,3,16.48H70.84a11.37,11.37,0,0,0,1.23-22.58Z" style="fill:#231f20"/><path d="M36.32,1323.24a9.3,9.3,0,0,0-9.32-7.63,9.56,9.56,0,0,0-7.5,3.57c2,.32,4.53,1.21,5.63,3.64l-1.19.54c-1.36-3-6-3.1-6.71-3.1a6.93,6.93,0,0,0-4.7,6.46,7.08,7.08,0,0,0,7.23,6.93h16.4a5.21,5.21,0,1,0,.13-10.42Z" style="fill:#231f20"/></g><path d="M69.46,1326.61a14.77,14.77,0,0,0-27.08,4.88A8.63,8.63,0,0,1,49,1335.7l-1.14.64c-2-3.42-5.82-3.85-8.47-3.67a8.52,8.52,0,0,0,3,16.48H68.18a11.37,11.37,0,0,0,1.28-22.54Z" style="fill:#d8d9d8"/><path d="M33.7,1320.61a9.3,9.3,0,0,0-9.3-7.65,9.56,9.56,0,0,0-7.5,3.57c2,.32,4.53,1.21,5.63,3.64l-1.19.54c-1.36-3-6-3.1-6.71-3.1a6.93,6.93,0,0,0-4.7,6.46,7.08,7.08,0,0,0,7.23,6.93H33.6a5.21,5.21,0,0,0,.13-10.42h0Z" style="fill:#d8d9d8"/><circle cx="58.23" cy="965.98" r="20.16" style="fill:#efeb60;opacity:0.5099999904632568;isolation:isolate"/><circle cx="58.23" cy="965.98" r="15.38" style="fill:#f6b31a;stroke:#feea02;stroke-miterlimit:10"/><g style="opacity:0.30000001192092896"><path d="M69.08,973.18a14.77,14.77,0,0,0-27,4.91,8.63,8.63,0,0,1,6.66,4.22l-1.14.64c-2-3.42-5.82-3.85-8.47-3.67a8.52,8.52,0,0,0,3,16.47H67.84a11.37,11.37,0,0,0,1.23-22.58Z" style="fill:#231f20"/><path d="M33.32,967.2a9.3,9.3,0,0,0-9.3-7.65,9.56,9.56,0,0,0-7.5,3.57c2,.32,4.53,1.21,5.63,3.64L21,967.3c-1.36-3-6-3.1-6.71-3.1a6.93,6.93,0,0,0-4.7,6.41,7.08,7.08,0,0,0,7.16,7H33.18a5.21,5.21,0,0,0,.13-10.42Z" style="fill:#231f20"/></g><path d="M66.46,970.61a14.77,14.77,0,0,0-27.08,4.91A8.63,8.63,0,0,1,46,979.68l-1.14.64c-2-3.42-5.82-3.85-8.47-3.67a8.52,8.52,0,0,0,3,16.48H65.18a11.37,11.37,0,0,0,1.23-22.58Z" style="fill:#d8d9d8"/><path d="M30.7,964.61A9.3,9.3,0,0,0,21.4,957a9.56,9.56,0,0,0-7.5,3.57c2,.32,4.53,1.21,5.63,3.64l-1.19.54c-1.36-3-6-3.1-6.71-3.1a6.93,6.93,0,0,0-4.7,6.46A7.08,7.08,0,0,0,14.16,975H30.6a5.21,5.21,0,1,0,.13-10.39Z" style="fill:#d8d9d8"/><rect x="39.96" y="999.44" width="7.44" height="1.93" rx="0.55" ry="0.55" transform="translate(-925.61 749.01) rotate(-72.96)" style="fill:#77ccf2"/><rect x="47.84" y="1003.68" width="7.44" height="1.93" rx="0.55" ry="0.55" transform="translate(-924.09 759.54) rotate(-72.96)" style="fill:#77ccf2"/><rect x="30.57" y="998.75" width="7.44" height="1.93" rx="0.55" ry="0.55" transform="translate(-931.59 739.54) rotate(-72.96)" style="fill:#77ccf2"/><rect x="64.4" y="1004.37" width="7.48" height="1.95" rx="0.55" ry="0.55" transform="translate(-913.95 779.83) rotate(-73.19)" style="fill:#77ccf2"/><rect x="44.55" y="999.96" width="7.44" height="1.93" rx="0.55" ry="0.55" transform="translate(-922.86 753.77) rotate(-72.96)" style="fill:#fff"/><rect x="53.24" y="1000.62" width="7.44" height="1.93" rx="0.55" ry="0.55" transform="translate(-917.35 762.54) rotate(-72.96)" style="fill:#fff"/><rect x="35.26" y="999.43" width="7.44" height="1.93" rx="0.55" ry="0.55" transform="translate(-928.92 744.51) rotate(-72.96)" style="fill:#fff"/><rect x="66.45" y="998.61" width="7.44" height="1.93" rx="0.55" ry="0.55" transform="translate(-906.09 773.75) rotate(-72.96)" style="fill:#fff"/><polygon points="61.52 1002.93 83.1 1002.93 72.31 984.73 61.52 1002.93" style="fill:#fff"/><path d="M85.46,1004.28H59.15L72.31,982.1Zm-21.57-2.67H80.74l-8.42-14.2Z" style="fill:#cf2d28"/><path d="M72.47,990.89a10.34,10.34,0,0,0-1,3c0,1,1.77,1.43,1.77,2.84s-3.33,2.77-3.33,2.77" style="fill:none;stroke:#231f20;stroke-miterlimit:10"/><path d="M72.66,990.89a6.2,6.2,0,0,0-.77,2.31c0,1,2.36.89,2.8,2.76.33,1.39-1.17,3.57-1.17,3.57" style="fill:none;stroke:#231f20;stroke-miterlimit:10"/><circle cx="54.69" cy="1256.71" r="20.24" style="fill:#43444d;opacity:0.25;isolation:isolate"/><path d="M63.8,1259.36a.79.79,0,0,0,.79-.79h0v-2.65a.79.79,0,1,0-1.57,0v2.69a.79.79,0,0,0,.78.8h0Z" style="fill:#fff"/><path d="M65.94,1257.22a.79.79,0,0,0-.79-.79H62.5a.79.79,0,0,0-.17,1.57h2.85a.79.79,0,0,0,.8-.78h0Z" style="fill:#fff"/><path d="M38.39,1246.14a.79.79,0,0,0,.79-.79h0v-2.65a.79.79,0,1,0-1.57,0v2.65a.79.79,0,0,0,.78.8h0Z" style="fill:#fff"/><path d="M40.53,1244a.79.79,0,0,0-.79-.79H37.09a.79.79,0,0,0-.17,1.57h2.85a.79.79,0,0,0,.8-.78h0Z" style="fill:#fff"/><path d="M60.64,1244a.79.79,0,0,0,.79-.79h0v-2.6a.79.79,0,1,0-1.57,0v2.65a.79.79,0,0,0,.78.8h0Z" style="fill:#fff"/><path d="M62.78,1241.86a.79.79,0,0,0-.79-.79H59.34a.79.79,0,0,0-.17,1.57H62a.79.79,0,0,0,.8-.78h0Z" style="fill:#fff"/><path d="M55,1242.37a14.41,14.41,0,0,1,5-.27,14.42,14.42,0,0,0,6.19,26.4A14.44,14.44,0,1,1,55,1242.37Z" style="fill:#626472;opacity:0.18000000715255737;isolation:isolate"/><path d="M51.06,1243.68a13.6,13.6,0,0,1,4.75-.25,13.62,13.62,0,0,0,5.84,24.89A13.64,13.64,0,1,1,51,1243.61Z" style="fill:#fdfce9"/><circle cx="54.49" cy="1472.81" r="20.09" style="fill:#43444d;opacity:0.25;isolation:isolate"/><path d="M63.54,1475.45a.78.78,0,0,0,.78-.78h0V1472a.78.78,0,1,0-1.56,0v2.66a.78.78,0,0,0,.77.79h0Z" style="fill:#fff"/><path d="M65.66,1473.32a.78.78,0,0,0-.78-.78H62.2a.79.79,0,0,0-.18,1.56h2.84a.78.78,0,0,0,.79-.77h0Z" style="fill:#fff"/><path d="M38.31,1462.32a.78.78,0,0,0,.78-.78h0v-2.71a.78.78,0,1,0-1.56,0h0v2.66a.78.78,0,0,0,.73.83h.05Z" style="fill:#fff"/><path d="M40.41,1460.2a.78.78,0,0,0-.78-.78H37a.79.79,0,0,0-.18,1.56h2.84A.78.78,0,0,0,40.41,1460.2Z" style="fill:#fff"/><path d="M60.4,1460.2a.78.78,0,0,0,.78-.78h0v-2.66a.78.78,0,1,0-1.56,0v2.66a.78.78,0,0,0,.77.79h0Z" style="fill:#fff"/><path d="M62.52,1458.08a.78.78,0,0,0-.78-.78H59.07a.79.79,0,0,0-.18,1.56h2.86A.78.78,0,0,0,62.52,1458.08Z" style="fill:#fff"/><path d="M53.6,1458.82a14.29,14.29,0,0,1,5-.27,14.29,14.29,0,0,0,6.16,26.2,14.34,14.34,0,1,1-11.16-25.94Z" style="fill:#626472;opacity:0.18000000715255737;isolation:isolate"/><path d="M50.89,1459.88a13.51,13.51,0,0,1,4.76-.25,13.53,13.53,0,0,0,5.82,24.77,13.54,13.54,0,1,1-10.53-24.5Z" style="fill:#fdfce9"/><circle cx="50.19" cy="1763.68" r="22.87" style="fill:#43444d;opacity:0.25;isolation:isolate"/><path d="M60.49,1766.66a.89.89,0,0,0,.89-.89h0v-3a.89.89,0,1,0-1.77,0v3a.89.89,0,0,0,.88.9h0Z" style="fill:#fff"/><path d="M62.9,1764.26a.89.89,0,0,0-.89-.89H58.93a.89.89,0,0,0-.19,1.77H62a.89.89,0,0,0,.9-.88Z" style="fill:#fff"/><path d="M31.78,1751.74a.89.89,0,0,0,.89-.89h0v-3a.89.89,0,1,0-1.77,0v3a.89.89,0,0,0,.88.9h0Z" style="fill:#fff"/><path d="M34.19,1749.32a.89.89,0,0,0-.89-.89h-3a.89.89,0,0,0-.19,1.77h3.22a.89.89,0,0,0,.9-.88h0Z" style="fill:#fff"/><path d="M56.92,1749.32a.89.89,0,0,0,.89-.89h0v-3a.89.89,0,1,0-1.77,0v3a.89.89,0,0,0,.88.9h0Z" style="fill:#fff"/><path d="M59.33,1746.9a.89.89,0,0,0-.89-.89h-3a.89.89,0,0,0-.19,1.77h3.22a.89.89,0,0,0,.9-.88h0Z" style="fill:#fff"/><path d="M50.14,1748.2a15.51,15.51,0,0,1,5.42-.29,15.51,15.51,0,0,0,6.69,28.44,15.56,15.56,0,1,1-12.11-28.15Z" style="fill:#626472;opacity:0.18000000715255737;isolation:isolate"/><path d="M46.09,1748.95a15.37,15.37,0,0,1,5.37-.28,15.39,15.39,0,0,0,6.63,28.17,15.41,15.41,0,1,1-12-27.91Z" style="fill:#fdfce9"/><circle cx="54.11" cy="2707.98" r="22.87" style="fill:#43444d;opacity:0.25;isolation:isolate"/><path d="M64.42,2711a.89.89,0,0,0,.89-.89h0v-3a.89.89,0,1,0-1.77,0v3a.89.89,0,0,0,.88.9h0Z" style="fill:#fff"/><path d="M66.83,2708.61a.89.89,0,0,0-.89-.89h-3a.89.89,0,0,0-.19,1.77H66A.89.89,0,0,0,66.83,2708.61Z" style="fill:#fff"/><path d="M35.7,2696a.89.89,0,0,0,.89-.89h0v-3a.89.89,0,1,0-1.77,0v3a.89.89,0,0,0,.88.9h0Z" style="fill:#fff"/><path d="M38.12,2693.61a.89.89,0,0,0-.85-.93H34.19a.89.89,0,0,0-.19,1.77h3.22A.89.89,0,0,0,38.12,2693.61Z" style="fill:#fff"/><path d="M60.84,2693.61a.89.89,0,0,0,.89-.89h0v-3a.89.89,0,1,0-1.77,0v3a.89.89,0,0,0,.85.93h0Z" style="fill:#fff"/><path d="M63.26,2691.21a.89.89,0,0,0-.89-.89h-3a.89.89,0,0,0-.19,1.77H62.4A.89.89,0,0,0,63.26,2691.21Z" style="fill:#fff"/><path d="M54.63,2692.52a15.51,15.51,0,0,1,5.42-.29,15.51,15.51,0,0,0,6.69,28.44,15.56,15.56,0,1,1-12.11-28.15Z" style="fill:#626472;opacity:0.18000000715255737;isolation:isolate"/><path d="M50,2693.27a15.37,15.37,0,0,1,5.37-.28A15.39,15.39,0,0,0,62,2721.15a15.41,15.41,0,1,1-12-27.91Z" style="fill:#fdfce9"/><circle cx="56.73" cy="1981.25" r="22.87" style="fill:#43444d;opacity:0.25;isolation:isolate"/><path d="M67,1984.24a.89.89,0,0,0,.89-.89h0v-3a.89.89,0,1,0-1.77,0v3a.89.89,0,0,0,.88.9h0Z" style="fill:#fff"/><path d="M69.44,1981.83a.89.89,0,0,0-.89-.89h-3a.89.89,0,0,0-.19,1.77h3.22a.89.89,0,0,0,.9-.88h0Z" style="fill:#fff"/><path d="M38.31,1969.3a.89.89,0,0,0,.89-.89h0v-3a.89.89,0,1,0-1.77,0v3a.89.89,0,0,0,.88.9h0Z" style="fill:#fff"/><path d="M40.72,1966.89a.89.89,0,0,0-.89-.89h-3a.89.89,0,0,0-.19,1.77h3.22a.89.89,0,0,0,.9-.88h0Z" style="fill:#fff"/><path d="M63.46,1966.89a.89.89,0,0,0,.89-.89h0v-3a.89.89,0,1,0-1.77,0v3a.89.89,0,0,0,.88.9h0Z" style="fill:#fff"/><path d="M65.88,1964.48a.89.89,0,0,0-.88-.87H62a.89.89,0,0,0-.19,1.77H65a.89.89,0,0,0,.9-.88h0Z" style="fill:#fff"/><path d="M56.68,1966.09a15.51,15.51,0,0,1,5.42-.29,15.51,15.51,0,0,0,6.69,28.44,15.56,15.56,0,1,1-12.11-28.15Z" style="fill:#626472;opacity:0.18000000715255737;isolation:isolate"/><path d="M52.62,1966.53a15.37,15.37,0,0,1,5.37-.28,15.39,15.39,0,0,0,6.63,28.17,15.41,15.41,0,1,1-12-27.91Z" style="fill:#fdfce9"/><g style="opacity:0.30000001192092896"><path d="M72.08,1265.61a14.77,14.77,0,0,0-27,4.91,8.63,8.63,0,0,1,6.64,4.21l-1.14.64c-2-3.42-5.82-3.85-8.47-3.67a8.52,8.52,0,0,0,3,16.48H70.84a11.37,11.37,0,0,0,1.23-22.57Z" style="fill:#231f20"/><path d="M36.32,1259.61A9.3,9.3,0,0,0,27,1252a9.56,9.56,0,0,0-7.5,3.57c2,.32,4.53,1.21,5.63,3.64l-1.19.54c-1.36-3-6-3.1-6.71-3.1a6.93,6.93,0,0,0-4.7,6.46,7.08,7.08,0,0,0,7.23,6.93h16.4a5.21,5.21,0,1,0,.13-10.42Z" style="fill:#231f20"/></g><path d="M69.46,1263a14.77,14.77,0,0,0-27.08,4.91,8.63,8.63,0,0,1,6.64,4.21l-1.14.64c-2-3.42-5.82-3.85-8.47-3.67a8.52,8.52,0,0,0,3,16.48H68.18A11.37,11.37,0,0,0,69.41,1263Z" style="fill:#d8d9d8"/><path d="M33.7,1257a9.3,9.3,0,0,0-9.3-7.65,9.56,9.56,0,0,0-7.5,3.57c2,.32,4.53,1.21,5.63,3.64l-1.19.54c-1.36-3-6-3.1-6.71-3.1a6.93,6.93,0,0,0-4.7,6.46,7.08,7.08,0,0,0,7.23,6.93H33.6a5.21,5.21,0,0,0,.13-10.42Z" style="fill:#d8d9d8"/><rect x="43.86" y="1291.38" width="7.44" height="1.93" rx="0.55" ry="0.55" transform="translate(-1201.97 959.13) rotate(-72.96)" style="fill:#77ccf2"/><rect x="54.17" y="1291.44" width="7.44" height="1.93" rx="0.55" ry="0.55" transform="translate(-1194.74 969.03) rotate(-72.96)" style="fill:#77ccf2"/><rect x="33.54" y="1291.38" width="7.44" height="1.93" rx="0.55" ry="0.55" transform="translate(-1209.27 949.26) rotate(-72.96)" style="fill:#77ccf2"/><rect x="64.19" y="1291.38" width="7.44" height="1.93" rx="0.55" ry="0.55" transform="translate(-1187.6 978.57) rotate(-72.96)" style="fill:#77ccf2"/><rect x="74.32" y="1291.38" width="7.44" height="1.93" rx="0.55" ry="0.55" transform="translate(-1180.44 988.25) rotate(-72.96)" style="fill:#77ccf2"/><rect x="49.1" y="1291.38" width="7.44" height="1.93" rx="0.55" ry="0.55" transform="translate(-1198.27 964.14) rotate(-72.96)" style="fill:#fff"/><rect x="38.87" y="1291.37" width="7.44" height="1.93" rx="0.55" ry="0.55" transform="translate(-1205.49 954.35) rotate(-72.96)" style="fill:#fff"/><rect x="69.57" y="1291.42" width="7.46" height="1.94" rx="0.55" ry="0.55" transform="translate(-1185.06 988.8) rotate(-73.19)" style="fill:#fff"/><rect x="59.32" y="1291.41" width="7.46" height="1.94" rx="0.55" ry="0.55" transform="translate(-1192.34 978.98) rotate(-73.19)" style="fill:#fff"/><circle cx="51.11" cy="1038.94" r="22.87" style="fill:#43444d;opacity:0.25;isolation:isolate"/><path d="M61.42,1041.94a.89.89,0,0,0,.89-.89h0v-3a.89.89,0,1,0-1.77,0v3a.89.89,0,0,0,.88.9h0Z" style="fill:#fff"/><path d="M63.83,1039.52a.89.89,0,0,0-.89-.89h-3a.89.89,0,0,0-.19,1.77H63a.89.89,0,0,0,.9-.88h-.07Z" style="fill:#fff"/><path d="M32.7,1027a.89.89,0,0,0,.89-.89h0v-3a.89.89,0,1,0-1.77,0v3a.89.89,0,0,0,.88.9h0Z" style="fill:#fff"/><path d="M35.12,1024.61a.89.89,0,0,0-.89-.89h-3a.89.89,0,0,0-.19,1.77h3.22a.89.89,0,0,0,.9-.88h0Z" style="fill:#fff"/><path d="M57.84,1024.61a.89.89,0,0,0,.89-.89h0v-3a.89.89,0,1,0-1.77,0v3A.89.89,0,0,0,57.84,1024.61Z" style="fill:#fff"/><path d="M60.26,1022.17a.89.89,0,0,0-.89-.89h-3a.89.89,0,0,0-.19,1.77H59.4a.89.89,0,0,0,.9-.88h0Z" style="fill:#fff"/><path d="M50.1,1022.73a16.28,16.28,0,0,1,5.69-.3,16.3,16.3,0,0,0,7,29.83,16.32,16.32,0,1,1-12.7-29.53Z" style="fill:#626472;opacity:0.18000000715255737;isolation:isolate"/><path d="M47,1024.22a15.37,15.37,0,0,1,5.37-.28A15.39,15.39,0,0,0,59,1052.11a15.41,15.41,0,1,1-12-27.91Z" style="fill:#fdfce9"/><g style="opacity:0.30000001192092896"><path d="M69.08,1047.53a14.77,14.77,0,0,0-27,4.91,8.63,8.63,0,0,1,6.64,4.21l-1.14.64c-2-3.42-5.82-3.85-8.47-3.67a8.52,8.52,0,0,0,3,16.48H67.84a11.37,11.37,0,0,0,1.23-22.58Z" style="fill:#231f20"/><path d="M33.32,1041.55a9.3,9.3,0,0,0-9.3-7.65,9.56,9.56,0,0,0-7.5,3.57c2,.32,4.53,1.21,5.63,3.64l-1.15.5c-1.36-3-6-3.1-6.71-3.1a6.93,6.93,0,0,0-4.7,6.46,7.08,7.08,0,0,0,7.23,6.93h16.4a5.21,5.21,0,1,0,.13-10.42Z" style="fill:#231f20"/></g><path d="M66.46,1044.92a14.77,14.77,0,0,0-27.08,4.91A8.63,8.63,0,0,1,46,1054l-1.14.64c-2-3.42-5.82-3.85-8.47-3.67a8.52,8.52,0,0,0,3,16.48H65.18a11.37,11.37,0,0,0,1.23-22.58Z" style="fill:#d8d9d8"/><path d="M30.7,1038.93a9.3,9.3,0,0,0-9.3-7.65,9.56,9.56,0,0,0-7.5,3.57c2,.32,4.53,1.21,5.63,3.64l-1.19.54c-1.36-3-6-3.1-6.71-3.1a6.93,6.93,0,0,0-4.7,6.46,7.08,7.08,0,0,0,7.23,6.93H30.6a5.21,5.21,0,1,0,.13-10.42Z" style="fill:#d8d9d8"/><rect x="39.96" y="1075.32" width="7.44" height="1.93" rx="0.55" ry="0.55" transform="translate(-998.16 802.65) rotate(-72.96)" style="fill:#77ccf2"/><rect x="47.84" y="1078.03" width="7.44" height="1.93" rx="0.55" ry="0.55" transform="translate(-995.18 812.1) rotate(-72.96)" style="fill:#77ccf2"/><rect x="30.56" y="1073.1" width="7.44" height="1.93" rx="0.55" ry="0.55" transform="translate(-1002.68 792.1) rotate(-72.96)" style="fill:#77ccf2"/><rect x="62.2" y="1070.78" width="7.46" height="1.94" rx="0.55" ry="0.55" transform="translate(-979.09 824.91) rotate(-73.19)" style="fill:#77ccf2"/><rect x="44.54" y="1073.86" width="7.48" height="1.95" rx="0.55" ry="0.55" transform="translate(-994.59 810.21) rotate(-73.19)" style="fill:#fff"/><rect x="53.05" y="1075.32" width="7.44" height="1.93" rx="0.55" ry="0.55" transform="translate(-988.9 815.17) rotate(-72.96)" style="fill:#fff"/><rect x="35.71" y="1074.19" width="7.44" height="1.93" rx="0.55" ry="0.55" transform="translate(-1000.08 797.79) rotate(-72.96)" style="fill:#fff"/><rect x="63.44" y="1072.95" width="7.44" height="1.93" rx="0.55" ry="0.55" transform="translate(-979.29 823.43) rotate(-72.96)" style="fill:#fff"/><polygon points="62.22 1078.63 83.79 1078.63 73.01 1060.43 62.22 1078.63" style="fill:#fff"/><path d="M86.16,1080H59.86L73,1057.81Zm-21.58-2.7H81.42L73,1063.09Z" style="fill:#cf2d28"/><path d="M73.19,1066.61a10.34,10.34,0,0,0-1,3c0,1,1.77,1.43,1.77,2.84s-3.33,2.77-3.33,2.77" style="fill:none;stroke:#231f20;stroke-miterlimit:10"/><path d="M73.36,1066.61a6.2,6.2,0,0,0-.77,2.31c0,1,2.36.89,2.8,2.76.33,1.39-1.17,3.57-1.17,3.57" style="fill:none;stroke:#231f20;stroke-miterlimit:10"/><g style="opacity:0.30000001192092896"><path d="M67.08,1111.49a14.77,14.77,0,0,0-27,4.91,8.63,8.63,0,0,1,6.64,4.21l-1.14.64c-2-3.42-5.82-3.85-8.47-3.67a8.52,8.52,0,0,0,3,16.48H65.84a11.37,11.37,0,0,0,1.23-22.58Z" style="fill:#231f20"/><path d="M31.32,1105.51a9.3,9.3,0,0,0-9.3-7.65,9.56,9.56,0,0,0-7.5,3.57c2,.32,4.53,1.21,5.63,3.64l-1.15.54c-1.36-3-6-3.1-6.71-3.1a6.93,6.93,0,0,0-4.7,6.46,7.08,7.08,0,0,0,7.23,6.93h16.4a5.21,5.21,0,0,0,.13-10.42Z" style="fill:#231f20"/></g><path d="M64.46,1108.88a14.77,14.77,0,0,0-27.08,4.91A8.63,8.63,0,0,1,44,1118l-1.14.64c-2-3.42-5.82-3.85-8.47-3.67a8.52,8.52,0,0,0,3,16.48H63.18a11.37,11.37,0,0,0,1.23-22.58Z" style="fill:#d8d9d8"/><path d="M28.7,1102.89a9.3,9.3,0,0,0-9.3-7.65,9.56,9.56,0,0,0-7.5,3.57c2,.32,4.53,1.21,5.63,3.64l-1.19.54c-1.36-3-6-3.1-6.71-3.1a6.93,6.93,0,0,0-4.7,6.46,7.08,7.08,0,0,0,7.23,6.93H28.6a5.21,5.21,0,1,0,.13-10.42Z" style="fill:#d8d9d8"/><rect x="38.89" y="1139.67" width="7.44" height="1.93" rx="0.55" ry="0.55" transform="translate(-1060.44 847.12) rotate(-72.96)" style="fill:#77ccf2"/><rect x="47.39" y="1144.62" width="7.44" height="1.93" rx="0.55" ry="0.55" transform="translate(-1059.16 858.75) rotate(-72.96)" style="fill:#77ccf2"/><rect x="28.56" y="1139.68" width="7.44" height="1.93" rx="0.55" ry="0.55" transform="translate(-1067.75 837.25) rotate(-72.96)" style="fill:#77ccf2"/><rect x="59.05" y="1138.38" width="7.46" height="1.94" rx="0.55" ry="0.55" transform="translate(-1046.04 869.95) rotate(-73.19)" style="fill:#77ccf2"/><rect x="43.94" y="1138.39" width="7.46" height="1.94" rx="0.55" ry="0.55" transform="translate(-1056.79 855.49) rotate(-73.19)" style="fill:#fff"/><rect x="53.06" y="1139.68" width="7.44" height="1.93" rx="0.55" ry="0.55" transform="translate(-1050.43 860.68) rotate(-72.96)" style="fill:#fff"/><rect x="33.8" y="1138.37" width="7.44" height="1.93" rx="0.55" ry="0.55" transform="translate(-1062.79 841.34) rotate(-72.96)" style="fill:#fff"/><polygon points="61.53 1145.22 83.1 1145.22 72.32 1127.03 61.53 1145.22" style="fill:#fff"/><path d="M85.47,1146.55H59.16l13.15-22.19Zm-21.58-2.7H80.74l-8.42-14.24Z" style="fill:#cf2d28"/><path d="M72.54,1133.17a10.34,10.34,0,0,0-1,3c0,1,1.77,1.43,1.77,2.84s-3.33,2.77-3.33,2.77" style="fill:none;stroke:#231f20;stroke-miterlimit:10"/><path d="M72.66,1133.17a6.2,6.2,0,0,0-.77,2.31c0,1,2.36.89,2.8,2.76.33,1.39-1.17,3.57-1.17,3.57" style="fill:none;stroke:#231f20;stroke-miterlimit:10"/><g style="opacity:0.30000001192092896"><path d="M72.08,1479.75a14.77,14.77,0,0,0-27,4.91,8.63,8.63,0,0,1,6.64,4.21l-1.14.64c-2-3.42-5.82-3.85-8.47-3.67a8.52,8.52,0,0,0,3,16.48H70.84a11.37,11.37,0,0,0,1.24-22.57Z" style="fill:#231f20"/><path d="M36.32,1473.78a9.3,9.3,0,0,0-9.3-7.65,9.56,9.56,0,0,0-7.5,3.57c2,.32,4.53,1.21,5.63,3.64l-1.19.54c-1.36-3-6-3.1-6.71-3.1a6.93,6.93,0,0,0-4.7,6.46,7.08,7.08,0,0,0,7.23,6.93h16.4a5.21,5.21,0,0,0,.13-10.42h0Z" style="fill:#231f20"/></g><path d="M69.46,1477.15a14.77,14.77,0,0,0-27.08,4.91,8.63,8.63,0,0,1,6.64,4.21l-1.14.64c-2-3.42-5.82-3.85-8.47-3.67a8.52,8.52,0,0,0,3,16.48H68.18a11.37,11.37,0,0,0,1.23-22.58Z" style="fill:#d8d9d8"/><path d="M33.7,1471.17a9.3,9.3,0,0,0-9.3-7.65,9.56,9.56,0,0,0-7.5,3.57c2,.32,4.53,1.21,5.63,3.64l-1.19.54c-1.36-3-6-3.1-6.71-3.1a6.93,6.93,0,0,0-4.7,6.46,7.08,7.08,0,0,0,7.23,6.93H33.6a5.21,5.21,0,0,0,.13-10.42Z" style="fill:#d8d9d8"/><g style="opacity:0.30000001192092896"><path d="M72.08,1545.3a14.77,14.77,0,0,0-27,4.91,8.63,8.63,0,0,1,6.64,4.21l-1.14.64c-2-3.42-5.82-3.85-8.47-3.67a8.52,8.52,0,0,0,3,16.48H70.84a11.37,11.37,0,0,0,1.23-22.58Z" style="fill:#231f20"/><path d="M36.32,1539.33a9.3,9.3,0,0,0-9.3-7.65,9.56,9.56,0,0,0-7.5,3.57c2,.32,4.53,1.21,5.63,3.64l-1.19.54c-1.36-3-6-3.1-6.71-3.1a6.93,6.93,0,0,0-4.7,6.46,7.08,7.08,0,0,0,7.23,6.93h16.4a5.21,5.21,0,1,0,.13-10.42Z" style="fill:#231f20"/></g><path d="M69.46,1542.71a14.77,14.77,0,0,0-27.07,4.9,8.63,8.63,0,0,1,6.61,4.2l-1.14.64c-2-3.42-5.82-3.85-8.47-3.67a8.52,8.52,0,0,0,3,16.48H68.18a11.37,11.37,0,0,0,1.28-22.55Z" style="fill:#d8d9d8"/><path d="M33.7,1536.71a9.3,9.3,0,0,0-9.3-7.65,9.56,9.56,0,0,0-7.5,3.57c2,.32,4.53,1.21,5.63,3.64l-1.19.54c-1.36-3-6-3.1-6.71-3.1a6.93,6.93,0,0,0-4.7,6.46,7.08,7.08,0,0,0,7.23,6.93H33.6a5.21,5.21,0,1,0,.13-10.42Z" style="fill:#d8d9d8"/><g style="opacity:0.30000001192092896"><path d="M72.08,1695.61a14.77,14.77,0,0,0-27,4.91,8.63,8.63,0,0,1,6.66,4.21l-1.14.64c-2-3.42-5.82-3.85-8.47-3.67a8.52,8.52,0,0,0,3,16.48h25.7a11.37,11.37,0,0,0,1.24-22.57Z" style="fill:#231f20"/><path d="M36.32,1689.61A9.3,9.3,0,0,0,27,1682a9.56,9.56,0,0,0-7.5,3.57c2,.32,4.53,1.21,5.63,3.64l-1.19.54c-1.36-3-6-3.1-6.71-3.1a6.93,6.93,0,0,0-4.7,6.46,7.08,7.08,0,0,0,7.23,6.93h16.4a5.21,5.21,0,0,0,.13-10.42Z" style="fill:#231f20"/></g><path d="M69.46,1693a14.77,14.77,0,0,0-27.08,4.91,8.63,8.63,0,0,1,6.64,4.21l-1.14.64c-2-3.42-5.82-3.85-8.47-3.67a8.52,8.52,0,0,0,3,16.48H68.18A11.37,11.37,0,0,0,69.41,1693Z" style="fill:#d8d9d8"/><path d="M33.7,1687a9.3,9.3,0,0,0-9.3-7.65,9.56,9.56,0,0,0-7.5,3.57c2,.32,4.53,1.21,5.63,3.64l-1.19.54c-1.36-3-6-3.1-6.71-3.1a6.93,6.93,0,0,0-4.7,6.46,7.08,7.08,0,0,0,7.23,6.93H33.6a5.21,5.21,0,0,0,.13-10.42h0Z" style="fill:#d8d9d8"/><path d="M44,1733.21l4.93-14.1a.57.57,0,0,1,.69-.32l.79.21a.47.47,0,0,1,.37.55h0l-4.93,14.1a.57.57,0,0,1-.69.32l-.79-.21A.47.47,0,0,1,44,1733.21Z" style="fill:#77ccf2"/><path d="M56.14,1733.21l4.93-14.1a.57.57,0,0,1,.69-.32l.79.21a.47.47,0,0,1,.37.55h0L58,1733.7a.57.57,0,0,1-.69.32l-.79-.21a.47.47,0,0,1-.39-.53Z" style="fill:#77ccf2"/><path d="M32.43,1733.21l4.93-14.1a.57.57,0,0,1,.69-.32l.79.21a.47.47,0,0,1,.37.55h0l-4.93,14.1a.57.57,0,0,1-.69.32l-.79-.21A.47.47,0,0,1,32.43,1733.21Z" style="fill:#77ccf2"/><path d="M67.78,1733.2l4.93-14.1a.57.57,0,0,1,.69-.32l.79.21a.47.47,0,0,1,.37.55h0l-4.93,14.1a.57.57,0,0,1-.69.32l-.79-.21A.47.47,0,0,1,67.78,1733.2Z" style="fill:#77ccf2"/><path d="M50,1733.21l5-14.1a.57.57,0,0,1,.69-.32l.79.21a.47.47,0,0,1,.37.55h0l-4.93,14.1a.57.57,0,0,1-.69.32l-.79-.21a.47.47,0,0,1-.43-.6Z" style="fill:#fff"/><path d="M62.16,1733.2l4.93-14.1a.57.57,0,0,1,.69-.32l.79.21a.47.47,0,0,1,.37.55h0L64,1733.7a.57.57,0,0,1-.69.32l-.79-.21a.47.47,0,0,1-.38-.54h0Z" style="fill:#fff"/><path d="M38.46,1733.19l4.93-14.1a.57.57,0,0,1,.69-.32l.79.21a.47.47,0,0,1,.37.55h0l-4.93,14.1a.57.57,0,0,1-.69.32l-.79-.21A.47.47,0,0,1,38.46,1733.19Z" style="fill:#fff"/><path d="M73.82,1733.2l4.93-14.1a.57.57,0,0,1,.69-.32l.79.21a.47.47,0,0,1,.37.55h0l-4.93,14.1a.57.57,0,0,1-.69.32l-.79-.21A.47.47,0,0,1,73.82,1733.2Z" style="fill:#fff"/><path d="M44,1654.16l4.93-14.1a.57.57,0,0,1,.69-.32l.79.21a.47.47,0,0,1,.37.55h0l-4.93,14.1a.57.57,0,0,1-.69.32l-.79-.21A.47.47,0,0,1,44,1654.16Z" style="fill:#77ccf2"/><path d="M56.14,1654.16l4.93-14.1a.57.57,0,0,1,.69-.32l.79.21a.47.47,0,0,1,.37.55h0L58,1654.65a.57.57,0,0,1-.69.32l-.79-.21a.47.47,0,0,1-.39-.53Z" style="fill:#77ccf2"/><path d="M32.43,1654.16l4.93-14.1a.57.57,0,0,1,.69-.32l.79.21a.47.47,0,0,1,.37.55h0l-4.93,14.1a.57.57,0,0,1-.69.32l-.79-.21A.47.47,0,0,1,32.43,1654.16Z" style="fill:#77ccf2"/><path d="M67.78,1654.15l4.93-14.1a.57.57,0,0,1,.69-.32l.79.21a.47.47,0,0,1,.37.55h0l-4.93,14.1a.57.57,0,0,1-.69.32l-.79-.21A.47.47,0,0,1,67.78,1654.15Z" style="fill:#77ccf2"/><path d="M50,1654.16l5-14.1a.57.57,0,0,1,.69-.32l.79.21a.47.47,0,0,1,.37.55h0l-4.93,14.1a.57.57,0,0,1-.69.32l-.79-.21a.47.47,0,0,1-.43-.6Z" style="fill:#fff"/><path d="M62.16,1654.15l4.93-14.1a.57.57,0,0,1,.69-.32l.79.21a.47.47,0,0,1,.37.55h0L64,1654.65a.57.57,0,0,1-.69.32l-.79-.21a.47.47,0,0,1-.38-.54h0Z" style="fill:#fff"/><path d="M38.46,1654.14l4.93-14.1a.57.57,0,0,1,.69-.32l.79.21a.47.47,0,0,1,.37.55h0l-4.93,14.1a.57.57,0,0,1-.69.32l-.79-.21A.47.47,0,0,1,38.46,1654.14Z" style="fill:#fff"/><path d="M73.82,1654.15l4.93-14.1a.57.57,0,0,1,.69-.32l.79.21a.47.47,0,0,1,.37.55h0l-4.93,14.1a.57.57,0,0,1-.69.32l-.79-.21A.47.47,0,0,1,73.82,1654.15Z" style="fill:#fff"/><path d="M72.08,1615.94a14.77,14.77,0,0,0-27,4.91,8.63,8.63,0,0,1,6.66,4.22l-1.14.64c-2-3.42-5.82-3.85-8.47-3.67a8.52,8.52,0,0,0,3,16.48h25.7a11.37,11.37,0,0,0,1.23-22.58Z" style="fill:#919191"/><path d="M36.32,1610a9.3,9.3,0,0,0-9.3-7.65,9.56,9.56,0,0,0-7.5,3.57c2,.32,4.53,1.21,5.63,3.64l-1.19.54c-1.36-3-6-3.1-6.71-3.1a6.93,6.93,0,0,0-4.7,6.46,7.08,7.08,0,0,0,7.23,6.93h16.4a5.21,5.21,0,1,0,.13-10.42Z" style="fill:#919191"/><rect y="2537.25" width="91.47" height="73.17" style="fill:#fff;fill-opacity:0"/><path d="M72.08,2564.53a14.77,14.77,0,0,0-27,4.91,8.63,8.63,0,0,1,6.66,4.19l-1.14.64c-2-3.42-5.82-3.85-8.47-3.67a8.52,8.52,0,0,0,3,16.47H70.84a11.37,11.37,0,0,0,1.23-22.58Z" style="fill:#919191"/><path d="M36.32,2558.61A9.3,9.3,0,0,0,27,2551a9.56,9.56,0,0,0-7.5,3.57c2,.32,4.53,1.21,5.63,3.64l-1.19.54c-1.36-3-6-3.1-6.71-3.1a6.93,6.93,0,0,0-4.7,6.46,7.08,7.08,0,0,0,7.23,6.93h16.4a5.21,5.21,0,1,0,.13-10.42Z" style="fill:#919191"/><polygon points="55.56 1702.32 63.32 1702.32 61.02 1708.73 65 1708.73 54.23 1729.31 56.72 1714.21 53.28 1714.21 55.56 1702.32" style="fill:#feda00"/><polygon points="54 1700.77 61.77 1700.77 59.46 1707.18 63.44 1707.18 52.69 1727.74 55.16 1712.65 51.72 1712.65 54 1700.77" style="fill:#f47920"/><g style="opacity:0.30000001192092896"><path d="M72.08,1769.61a14.77,14.77,0,0,0-27.08,5,8.63,8.63,0,0,1,6.64,4.21l-1.14.64c-2-3.42-5.82-3.85-8.47-3.67a8.52,8.52,0,0,0,3,16.48H70.84a11.37,11.37,0,0,0,1.23-22.66Z" style="fill:#231f20"/><path d="M36.32,1763.66A9.3,9.3,0,0,0,27,1756a9.56,9.56,0,0,0-7.5,3.57c2,.32,4.53,1.21,5.63,3.64l-1.19.54c-1.36-3-6-3.1-6.71-3.1a6.93,6.93,0,0,0-4.7,6.46,7.08,7.08,0,0,0,7.23,6.93h16.4a5.21,5.21,0,1,0,.13-10.42Z" style="fill:#231f20"/></g><path d="M69.46,1767a14.77,14.77,0,0,0-27.08,4.91,8.63,8.63,0,0,1,6.64,4.21l-1.14.64c-2-3.42-5.82-3.85-8.47-3.67a8.52,8.52,0,0,0,3,16.48H68.18A11.37,11.37,0,0,0,69.41,1767Z" style="fill:#d8d9d8"/><path d="M33.7,1761a9.3,9.3,0,0,0-9.3-7.65,9.56,9.56,0,0,0-7.5,3.57c2,.32,4.53,1.21,5.63,3.64l-1.19.54c-1.36-3-6-3.1-6.71-3.1a6.93,6.93,0,0,0-4.7,6.46,7.08,7.08,0,0,0,7.23,6.93H33.6a5.19,5.19,0,0,0,.1-10.38h0Z" style="fill:#d8d9d8"/><path d="M44,1807.53l4.93-14.11a.57.57,0,0,1,.69-.32l.79.21a.47.47,0,0,1,.37.55h0L45.84,1808a.57.57,0,0,1-.69.32l-.79-.21a.47.47,0,0,1-.37-.55Z" style="fill:#77ccf2"/><path d="M56.13,1807.54l4.93-14.11a.57.57,0,0,1,.69-.32l.79.21a.47.47,0,0,1,.37.55h0L58,1808a.57.57,0,0,1-.69.32l-.79-.21a.47.47,0,0,1-.41-.52h0Z" style="fill:#77ccf2"/><path d="M32.42,1807.53l4.93-14.11a.57.57,0,0,1,.69-.32l.79.21a.47.47,0,0,1,.37.55h0L34.26,1808a.57.57,0,0,1-.69.32l-.79-.21a.47.47,0,0,1-.37-.55Z" style="fill:#77ccf2"/><path d="M67.78,1807.54l4.93-14.11a.57.57,0,0,1,.69-.32l.79.21a.47.47,0,0,1,.37.55h0L69.62,1808a.57.57,0,0,1-.69.32l-.79-.21a.47.47,0,0,1-.37-.55Z" style="fill:#77ccf2"/><path d="M50,1807.54l5-14.11a.57.57,0,0,1,.69-.32l.79.21a.47.47,0,0,1,.37.55h0L51.91,1808a.57.57,0,0,1-.69.32l-.79-.21a.47.47,0,0,1-.43-.6Z" style="fill:#fff"/><path d="M62.17,1807.54l4.93-14.11a.57.57,0,0,1,.69-.32l.79.21a.47.47,0,0,1,.37.55h0L64,1808a.57.57,0,0,1-.69.32l-.79-.21a.47.47,0,0,1-.36-.56h0Z" style="fill:#fff"/><path d="M38.46,1807.54l4.93-14.11a.57.57,0,0,1,.69-.32l.79.21a.47.47,0,0,1,.37.55h0L40.3,1808a.57.57,0,0,1-.69.32l-.79-.21a.47.47,0,0,1-.37-.55Z" style="fill:#fff"/><path d="M73.81,1807.53l4.93-14.11a.57.57,0,0,1,.69-.32l.79.21a.47.47,0,0,1,.37.55h0L75.65,1808a.57.57,0,0,1-.69.32l-.79-.21a.47.47,0,0,1-.37-.55Z" style="fill:#fff"/><path d="M44,1871.57l4.93-14.11a.57.57,0,0,1,.69-.32l.79.21a.47.47,0,0,1,.37.55h0L45.84,1872a.57.57,0,0,1-.69.32l-.79-.21a.47.47,0,0,1-.37-.55Z" style="fill:#77ccf2"/><path d="M56.13,1871.58l4.93-14.11a.57.57,0,0,1,.69-.32l.79.21a.47.47,0,0,1,.37.55h0L58,1872a.57.57,0,0,1-.69.32l-.79-.21a.47.47,0,0,1-.41-.52h0Z" style="fill:#77ccf2"/><path d="M32.42,1871.57l4.93-14.11a.57.57,0,0,1,.69-.32l.79.21a.47.47,0,0,1,.37.55h0L34.26,1872a.57.57,0,0,1-.69.32l-.79-.21a.47.47,0,0,1-.37-.55Z" style="fill:#77ccf2"/><path d="M67.78,1871.58l4.93-14.11a.57.57,0,0,1,.69-.32l.79.21a.47.47,0,0,1,.37.55h0L69.62,1872a.57.57,0,0,1-.69.32l-.79-.21a.47.47,0,0,1-.37-.55Z" style="fill:#77ccf2"/><path d="M50,1871.58l5-14.11a.57.57,0,0,1,.69-.32l.79.21a.47.47,0,0,1,.37.55h0L51.91,1872a.57.57,0,0,1-.69.32l-.79-.21a.47.47,0,0,1-.43-.6Z" style="fill:#fff"/><path d="M62.17,1871.58l4.93-14.11a.57.57,0,0,1,.69-.32l.79.21a.47.47,0,0,1,.37.55h0L64,1872a.57.57,0,0,1-.69.32l-.79-.21a.47.47,0,0,1-.36-.56h0Z" style="fill:#fff"/><path d="M38.46,1871.58l4.93-14.11a.57.57,0,0,1,.69-.32l.79.21a.47.47,0,0,1,.37.55h0L40.3,1872a.57.57,0,0,1-.69.32l-.79-.21a.47.47,0,0,1-.37-.55Z" style="fill:#fff"/><path d="M73.81,1871.57l4.93-14.11a.57.57,0,0,1,.69-.32l.79.21a.47.47,0,0,1,.37.55h0L75.65,1872a.57.57,0,0,1-.69.32l-.79-.21a.47.47,0,0,1-.37-.55Z" style="fill:#fff"/><polygon points="55.65 1776.99 63.61 1776.99 61.25 1783.56 65.33 1783.56 54.3 1804.64 56.84 1789.16 53.32 1789.16 55.65 1776.99" style="fill:#feda00"/><polygon points="54.05 1775.37 62.02 1775.37 59.65 1781.96 63.73 1781.96 52.71 1803.04 55.25 1787.57 51.72 1787.57 54.05 1775.37" style="fill:#f47920"/><g style="opacity:0.30000001192092896"><path d="M72.08,1833.94a14.77,14.77,0,0,0-27,4.91,8.63,8.63,0,0,1,6.64,4.21l-1.14.64c-2-3.42-5.82-3.85-8.47-3.67a8.52,8.52,0,0,0,3,16.48H70.84a11.37,11.37,0,0,0,1.23-22.58Z" style="fill:#231f20"/><path d="M36.32,1828a9.3,9.3,0,0,0-9.3-7.65,9.56,9.56,0,0,0-7.5,3.57c2,.32,4.53,1.21,5.63,3.64l-1.19.54c-1.36-3-6-3.1-6.71-3.1a6.93,6.93,0,0,0-4.7,6.46,7.08,7.08,0,0,0,7.23,6.93h16.4a5.21,5.21,0,0,0,.13-10.42h0Z" style="fill:#231f20"/></g><path d="M69.46,1831.28a14.77,14.77,0,0,0-27.08,5,8.63,8.63,0,0,1,6.64,4.21l-1.14.64c-2-3.42-5.82-3.85-8.47-3.67a8.52,8.52,0,0,0,3,16.48H68.18a11.37,11.37,0,0,0,1.28-22.61Z" style="fill:#d8d9d8"/><path d="M33.7,1825.35a9.3,9.3,0,0,0-9.3-7.65,9.56,9.56,0,0,0-7.5,3.57c2,.32,4.53,1.21,5.63,3.64l-1.19.54c-1.36-3-6-3.1-6.71-3.1a6.93,6.93,0,0,0-4.7,6.46,7.08,7.08,0,0,0,7.23,6.93H33.6a5.21,5.21,0,0,0,.13-10.42h0Z" style="fill:#d8d9d8"/><polygon points="55.56 1840.65 63.31 1840.65 61.01 1847.07 64.99 1847.07 54.23 1867.62 56.71 1852.54 53.28 1852.54 55.56 1840.65" style="fill:#feda00"/><polygon points="53.99 1839.09 61.77 1839.09 59.45 1845.51 63.43 1845.51 52.69 1866.07 55.16 1850.99 51.72 1850.99 53.99 1839.09" style="fill:#f47920"/><circle cx="52.15" cy="2631.2" r="16.34" style="fill:#efeb60;opacity:0.5099999904632568;isolation:isolate"/><circle cx="52.15" cy="2631.2" r="12.47" style="fill:#f6b31a;stroke:#feea02;stroke-miterlimit:10"/><circle cx="56.39" cy="2116.31" r="19.92" style="fill:#efeb60;opacity:0.5099999904632568;isolation:isolate"/><circle cx="56.39" cy="2116.31" r="15.2" style="fill:#f6b31a;stroke:#feea02;stroke-miterlimit:10"/><circle cx="58.04" cy="2197.29" r="22.87" style="fill:#43444d;opacity:0.25;isolation:isolate"/><path d="M68.34,2200.3a.89.89,0,0,0,.89-.89h0v-3a.89.89,0,1,0-1.77,0v3a.89.89,0,0,0,.88.9h0Z" style="fill:#fff"/><path d="M70.75,2197.89a.89.89,0,0,0-.89-.89h-3a.89.89,0,0,0-.19,1.77h3.22A.89.89,0,0,0,70.75,2197.89Z" style="fill:#fff"/><path d="M39.63,2185.36a.89.89,0,0,0,.89-.89h0v-3a.89.89,0,1,0-1.77,0v3a.89.89,0,0,0,.88.9h0Z" style="fill:#fff"/><path d="M42,2182.94a.89.89,0,0,0-.89-.89h-3a.89.89,0,0,0-.19,1.77h3.22A.89.89,0,0,0,42,2182.94Z" style="fill:#fff"/><path d="M64.77,2182.94a.89.89,0,0,0,.89-.89h0v-3a.89.89,0,1,0-1.77,0v3A.89.89,0,0,0,64.77,2182.94Z" style="fill:#fff"/><path d="M67.2,2180.53a.89.89,0,0,0-.89-.89H63.25a.89.89,0,0,0-.19,1.77h3.22a.89.89,0,0,0,.92-.86h0Z" style="fill:#fff"/><path d="M59.23,2181a15.51,15.51,0,0,1,5.42-.29,15.51,15.51,0,0,0,6.69,28.44A15.56,15.56,0,1,1,59.23,2181Z" style="fill:#626472;opacity:0.18000000715255737;isolation:isolate"/><path d="M53.93,2182.61a15.37,15.37,0,0,1,5.37-.28,15.39,15.39,0,0,0,6.63,28.17,15.41,15.41,0,1,1-12-27.91Z" style="fill:#fdfce9"/><g style="opacity:0.30000001192092896"><path d="M72.08,2124.61a14.77,14.77,0,0,0-27,4.93,8.63,8.63,0,0,1,6.64,4.21l-1.14.64c-2-3.42-5.82-3.85-8.47-3.67a8.52,8.52,0,0,0,3,16.48H70.84a11.37,11.37,0,0,0,1.23-22.59Z" style="fill:#231f20"/><path d="M36.32,2118.61A9.3,9.3,0,0,0,27,2111a9.56,9.56,0,0,0-7.5,3.57c2,.32,4.53,1.21,5.63,3.64l-1.19.54c-1.36-3-6-3.1-6.71-3.1a6.93,6.93,0,0,0-4.7,6.46,7.08,7.08,0,0,0,7.23,6.93h16.4a5.21,5.21,0,0,0,.13-10.42Z" style="fill:#231f20"/></g><path d="M69.46,2121.94a14.77,14.77,0,0,0-27.08,4.91,8.63,8.63,0,0,1,6.64,4.21l-1.14.64c-2-3.42-5.82-3.85-8.47-3.67a8.52,8.52,0,0,0,3,16.48H68.18a11.37,11.37,0,0,0,1.23-22.58Z" style="fill:#d8d9d8"/><path d="M33.7,2116a9.3,9.3,0,0,0-9.3-7.65,9.56,9.56,0,0,0-7.5,3.57c2,.32,4.53,1.21,5.63,3.64l-1.19.54c-1.36-3-6-3.1-6.71-3.1a6.93,6.93,0,0,0-4.7,6.46,7.08,7.08,0,0,0,7.23,6.93H33.6a5.21,5.21,0,1,0,.13-10.42Z" style="fill:#d8d9d8"/><rect x="28.37" y="2234.89" width="17.94" height="1.93" rx="0.55" ry="0.55" transform="translate(-2111.3 1616.36) rotate(-72.96)" style="fill:#77ccf2"/><rect x="37.1" y="2234.88" width="17.94" height="1.93" rx="0.55" ry="0.55" transform="translate(-2105.12 1624.7) rotate(-72.96)" style="fill:#77ccf2"/><rect x="45.72" y="2234.97" width="17.99" height="1.94" rx="0.55" ry="0.55" transform="translate(-2101.51 1641.68) rotate(-73.19)" style="fill:#77ccf2"/><rect x="54.72" y="2234.97" width="17.99" height="1.94" rx="0.55" ry="0.55" transform="translate(-2095.11 1650.3) rotate(-73.19)" style="fill:#77ccf2"/><rect x="63.9" y="2234.97" width="17.99" height="1.94" rx="0.55" ry="0.55" transform="translate(-2088.58 1659.09) rotate(-73.19)" style="fill:#77ccf2"/><rect x="33" y="2234.89" width="17.94" height="1.93" rx="0.55" ry="0.55" transform="translate(-2108.03 1620.79) rotate(-72.96)" style="fill:#fff"/><rect x="41.72" y="2234.88" width="17.94" height="1.93" rx="0.55" ry="0.55" transform="translate(-2101.86 1629.12) rotate(-72.96)" style="fill:#fff"/><rect x="50.35" y="2234.99" width="17.99" height="1.94" rx="0.55" ry="0.55" transform="translate(-2098.23 1646.13) rotate(-73.19)" style="fill:#fff"/><rect x="59.36" y="2234.97" width="17.99" height="1.94" rx="0.55" ry="0.55" transform="translate(-2091.81 1654.74) rotate(-73.19)" style="fill:#fff"/><rect x="68.73" y="2234.97" width="17.99" height="1.94" rx="0.55" ry="0.55" transform="translate(-2085.15 1663.71) rotate(-73.19)" style="fill:#fff"/><rect x="28.37" y="2301.07" width="17.94" height="1.93" rx="0.55" ry="0.55" transform="translate(-2174.57 1663.15) rotate(-72.96)" style="fill:#77ccf2"/><rect x="37.1" y="2301.07" width="17.94" height="1.93" rx="0.55" ry="0.55" transform="translate(-2168.4 1671.49) rotate(-72.96)" style="fill:#77ccf2"/><rect x="45.72" y="2301.03" width="17.99" height="1.94" rx="0.55" ry="0.55" transform="translate(-2164.74 1688.63) rotate(-73.19)" style="fill:#77ccf2"/><rect x="54.72" y="2301.03" width="17.99" height="1.94" rx="0.55" ry="0.55" transform="translate(-2158.34 1697.25) rotate(-73.19)" style="fill:#77ccf2"/><rect x="63.9" y="2301.03" width="17.99" height="1.94" rx="0.55" ry="0.55" transform="translate(-2151.81 1706.04) rotate(-73.19)" style="fill:#77ccf2"/><rect x="33" y="2301.07" width="17.94" height="1.93" rx="0.55" ry="0.55" transform="translate(-2171.3 1667.57) rotate(-72.96)" style="fill:#fff"/><rect x="41.72" y="2301.07" width="17.94" height="1.93" rx="0.55" ry="0.55" transform="translate(-2165.14 1675.91) rotate(-72.96)" style="fill:#fff"/><rect x="50.35" y="2301.03" width="17.99" height="1.94" rx="0.55" ry="0.55" transform="translate(-2161.45 1693.07) rotate(-73.19)" style="fill:#fff"/><rect x="59.36" y="2301.03" width="17.99" height="1.94" rx="0.55" ry="0.55" transform="translate(-2155.04 1701.7) rotate(-73.19)" style="fill:#fff"/><rect x="68.73" y="2301.03" width="17.99" height="1.94" rx="0.55" ry="0.55" transform="translate(-2148.38 1710.66) rotate(-73.19)" style="fill:#fff"/><rect x="28.37" y="2155.84" width="17.94" height="1.93" rx="0.55" ry="0.55" transform="translate(-2035.72 1560.48) rotate(-72.96)" style="fill:#77ccf2"/><rect x="37.1" y="2155.83" width="17.94" height="1.93" rx="0.55" ry="0.55" transform="translate(-2029.54 1568.82) rotate(-72.96)" style="fill:#77ccf2"/><rect x="45.72" y="2155.92" width="17.99" height="1.94" rx="0.55" ry="0.55" transform="translate(-2025.84 1585.49) rotate(-73.19)" style="fill:#77ccf2"/><rect x="54.72" y="2155.92" width="17.99" height="1.94" rx="0.55" ry="0.55" transform="translate(-2019.44 1594.11) rotate(-73.19)" style="fill:#77ccf2"/><rect x="63.9" y="2155.92" width="17.99" height="1.94" rx="0.55" ry="0.55" transform="translate(-2012.91 1602.9) rotate(-73.19)" style="fill:#77ccf2"/><rect x="33" y="2155.84" width="17.94" height="1.93" rx="0.55" ry="0.55" transform="translate(-2032.45 1564.9) rotate(-72.96)" style="fill:#fff"/><rect x="41.72" y="2155.83" width="17.94" height="1.93" rx="0.55" ry="0.55" transform="translate(-2026.28 1573.23) rotate(-72.96)" style="fill:#fff"/><rect x="50.35" y="2155.94" width="17.99" height="1.94" rx="0.55" ry="0.55" transform="translate(-2022.55 1589.94) rotate(-73.19)" style="fill:#fff"/><rect x="59.36" y="2155.92" width="17.99" height="1.94" rx="0.55" ry="0.55" transform="translate(-2016.14 1598.55) rotate(-73.19)" style="fill:#fff"/><rect x="68.73" y="2155.92" width="17.99" height="1.94" rx="0.55" ry="0.55" transform="translate(-2009.48 1607.52) rotate(-73.19)" style="fill:#fff"/><g style="opacity:0.30000001192092896"><path d="M72.08,2203.28a14.77,14.77,0,0,0-27,4.91,8.63,8.63,0,0,1,6.64,4.21l-1.14.64c-2-3.42-5.82-3.85-8.47-3.67a8.52,8.52,0,0,0,3,16.48H70.84a11.37,11.37,0,0,0,1.23-22.58Z" style="fill:#231f20"/><path d="M36.32,2197.29a9.3,9.3,0,0,0-9.32-7.68,9.56,9.56,0,0,0-7.5,3.57c2,.32,4.53,1.21,5.63,3.64l-1.19.54c-1.36-3-6-3.1-6.71-3.1a6.93,6.93,0,0,0-4.7,6.46,7.08,7.08,0,0,0,7.23,6.93h16.4a5.21,5.21,0,0,0,.13-10.42Z" style="fill:#231f20"/></g><path d="M69.46,2200.61a14.77,14.77,0,0,0-27.07,5,8.63,8.63,0,0,1,6.64,4.21l-1.14.64c-2-3.42-5.82-3.85-8.47-3.67a8.52,8.52,0,0,0,3,16.48H68.18a11.37,11.37,0,0,0,1.23-22.58Z" style="fill:#d8d9d8"/><path d="M33.7,2194.68a9.3,9.3,0,0,0-9.3-7.65,9.56,9.56,0,0,0-7.5,3.57c2,.32,4.53,1.21,5.63,3.64l-1.19.54c-1.36-3-6-3.1-6.71-3.1a6.93,6.93,0,0,0-4.7,6.46,7.08,7.08,0,0,0,7.23,6.93H33.6a5.21,5.21,0,0,0,.13-10.42Z" style="fill:#d8d9d8"/><circle cx="43.96" cy="1941.43" r="10.07" style="fill:#fff;opacity:0.800000011920929;isolation:isolate"/><path d="M51.22,1944.61l-5.49-3.16,5.49-3.16a.89.89,0,0,0,.32-1.21h0a.89.89,0,0,0-1.21-.32l-5.48,3.12v-6.34a.89.89,0,0,0-1.77,0v6.34l-5.49-3.1a.89.89,0,0,0-1,1.44l.15.09,5.49,3.16-5.53,3.14a.89.89,0,1,0,.74,1.62l.15-.09,5.49-3.16v6.34a.89.89,0,1,0,1.77,0V1943l5.49,3.16a.89.89,0,0,0,1.21-.32h0a.89.89,0,0,0-.31-1.22h0Z" style="fill:#77ccf2"/><g style="opacity:0.30000001192092896"><path d="M72.08,1993.76a14.77,14.77,0,0,0-27,4.91,8.63,8.63,0,0,1,6.64,4.21l-1.14.64c-2-3.42-5.82-3.85-8.47-3.67a8.52,8.52,0,0,0,3,16.48H70.84a11.37,11.37,0,0,0,1.23-22.58Z" style="fill:#231f20"/><path d="M36.32,1987.78a9.3,9.3,0,0,0-9.3-7.65,9.56,9.56,0,0,0-7.5,3.57c2,.32,4.53,1.21,5.63,3.64l-1.19.54c-1.36-3-6-3.1-6.71-3.1a6.93,6.93,0,0,0-4.7,6.46,7.08,7.08,0,0,0,7.23,6.93h16.4a5.21,5.21,0,1,0,.13-10.42Z" style="fill:#231f20"/></g><path d="M69.46,1991.15a14.77,14.77,0,0,0-27.08,4.91,8.63,8.63,0,0,1,6.64,4.21l-1.14.64c-2-3.42-5.82-3.85-8.47-3.67a8.52,8.52,0,0,0,3,16.48H68.18a11.37,11.37,0,0,0,1.23-22.58Z" style="fill:#d8d9d8"/><path d="M33.7,1985.16a9.3,9.3,0,0,0-9.3-7.65,9.56,9.56,0,0,0-7.5,3.57c2,.32,4.53,1.21,5.63,3.64l-1.19.54c-1.36-3-6-3.1-6.71-3.1a6.93,6.93,0,0,0-4.73,6.53,7.08,7.08,0,0,0,7.23,6.93H33.57a5.21,5.21,0,0,0,.13-10.42Z" style="fill:#d8d9d8"/><circle cx="44.43" cy="2015.99" r="9.69" style="fill:#fff;opacity:0.800000011920929;isolation:isolate"/><path d="M51.41,2019l-5.28-3,5.28-3a.86.86,0,0,0,.31-1.16h0a.86.86,0,0,0-1.16-.31l-5.28,3v-6.1a.85.85,0,0,0-1.71,0v6.1l-5.32-3.1a.85.85,0,0,0-1.16,1.24l.16.12.15.09h0l5.28,3-5.28,3a.85.85,0,0,0,.68,1.56h0l.14-.08h0l5.28-3v6.1a.85.85,0,0,0,1.71,0h0v-6.1l5.28,3a.86.86,0,0,0,1.16-.31h0A.86.86,0,0,0,51.41,2019Z" style="fill:#77ccf2"/><circle cx="47.7" cy="2146.23" r="7.44" style="fill:#fff;opacity:0.800000011920929;isolation:isolate"/><path d="M53.06,2148.57,49,2146.23l4.06-2.34a.66.66,0,0,0,.24-.9h0a.66.66,0,0,0-.9-.24l-4.06,2.34v-4.69a.66.66,0,1,0-1.31,0v4.69l-4-2.29a.65.65,0,0,0-.65,1.13h0l4.06,2.34-4.06,2.34a.65.65,0,0,0,.65,1.13l4.06-2.34v4.69a.66.66,0,1,0,1.31,0v-4.69l4.06,2.34a.66.66,0,0,0,.9-.24h0a.66.66,0,0,0-.2-.91h0Z" style="fill:#77ccf2"/><circle cx="68.36" cy="2146.7" r="7.44" style="fill:#fff;opacity:0.800000011920929;isolation:isolate"/><path d="M73.72,2149l-4.06-2.34,4.06-2.34a.66.66,0,0,0,.24-.9h0a.66.66,0,0,0-.91-.2h0l-4,2.38v-4.69a.66.66,0,1,0-1.31,0v4.69l-4-2.34a.65.65,0,0,0-.65,1.13h0l4.06,2.34-4.1,2.35a.65.65,0,0,0,.65,1.13h0l4.06-2.34v4.69a.66.66,0,1,0,1.31,0v-4.69l4,2.35a.66.66,0,0,0,.9-.24h0a.66.66,0,0,0-.2-.91h0Z" style="fill:#77ccf2"/><circle cx="45.75" cy="2221.71" r="8.75" style="fill:#fff;opacity:0.800000011920929;isolation:isolate"/><path d="M52,2224.48l-4.77-2.75L52,2219a.77.77,0,0,0,.29-1h0a.77.77,0,0,0-1-.29h0l-4.77,2.75V2215a.77.77,0,1,0-1.54,0v5.5l-4.75-2.78a.77.77,0,0,0-.9,1.25h0l.14.08,4.77,2.75-4.79,2.76a.77.77,0,0,0,.62,1.41h0l.14-.08h0L45,2223v5.5a.77.77,0,1,0,1.54,0h0V2223l4.77,2.75a.77.77,0,0,0,1-.27h0A.77.77,0,0,0,52,2224.48Z" style="fill:#77ccf2"/><circle cx="68.97" cy="2221.71" r="8.75" style="fill:#fff;opacity:0.800000011920929;isolation:isolate"/><path d="M75.27,2224.48l-4.77-2.75,4.77-2.75a.77.77,0,0,0,.29-1h0a.77.77,0,0,0-1-.29h0l-4.77,2.75v-5.5a.77.77,0,1,0-1.54,0v5.5l-4.75-2.78a.77.77,0,0,0-.9,1.25h0l.14.08,4.77,2.75-4.78,2.76a.77.77,0,0,0,.62,1.41h0l.14-.08,4.77-2.75v5.5a.77.77,0,1,0,1.54,0h0V2223l4.77,2.75a.77.77,0,0,0,1.05-.27h0A.77.77,0,0,0,75.27,2224.48Z" style="fill:#77ccf2"/><g style="opacity:0.30000001192092896"><path d="M73.08,2269a14.77,14.77,0,0,0-27,4.91,8.63,8.63,0,0,1,6.66,4.24l-1.14.64c-2-3.42-5.82-3.85-8.47-3.67a8.52,8.52,0,0,0,3,16.47H71.84A11.37,11.37,0,0,0,73.07,2269Z" style="fill:#231f20"/><path d="M37.32,2263.06a9.3,9.3,0,0,0-9.3-7.65,9.56,9.56,0,0,0-7.5,3.57c2,.32,4.53,1.21,5.63,3.64l-1.19.54c-1.36-3-6-3.1-6.71-3.1a6.93,6.93,0,0,0-4.7,6.46,7.08,7.08,0,0,0,7.23,6.93h16.4a5.21,5.21,0,1,0,.13-10.42h0Z" style="fill:#231f20"/></g><path d="M70.46,2266.43a14.77,14.77,0,0,0-27.08,4.91,8.63,8.63,0,0,1,6.62,4.27l-1.14.64c-2-3.42-5.82-3.85-8.47-3.67a8.52,8.52,0,0,0,3,16.48H69.18a11.37,11.37,0,0,0,1.23-22.58Z" style="fill:#d8d9d8"/><path d="M34.7,2260.44a9.3,9.3,0,0,0-9.3-7.65,9.56,9.56,0,0,0-7.5,3.57c2,.32,4.53,1.21,5.63,3.64l-1.19.54c-1.36-3-6-3.1-6.71-3.1a6.93,6.93,0,0,0-4.7,6.46,7.08,7.08,0,0,0,7.23,6.93H34.6a5.21,5.21,0,0,0,.13-10.42Z" style="fill:#d8d9d8"/><circle cx="46.74" cy="2289.7" r="8.39" style="fill:#fff;opacity:0.800000011920929;isolation:isolate"/><path d="M52.79,2292.34l-4.56-2.64,4.56-2.64a.74.74,0,0,0,.28-1h0a.74.74,0,0,0-1-.28h0l-4.56,2.64v-5.28a.74.74,0,0,0-1.48,0v5.27l-4.56-2.64a.74.74,0,1,0-.89,1.19l.16.09,4.56,2.64-4.56,2.64a.74.74,0,0,0,.57,1.37h0l.16-.09h0L46,2291v5.28a.74.74,0,0,0,1.48,0V2291l4.49,2.64a.74.74,0,0,0,1-.27h0A.74.74,0,0,0,52.79,2292.34Z" style="fill:#77ccf2"/><circle cx="69.02" cy="2289.7" r="8.39" style="fill:#fff;opacity:0.800000011920929;isolation:isolate"/><path d="M75.08,2292.34l-4.56-2.64,4.56-2.64a.74.74,0,0,0,.28-1h0a.74.74,0,0,0-1-.28h0l-4.56,2.64v-5.28a.74.74,0,0,0-1.48,0h0v5.27l-4.56-2.64a.74.74,0,1,0-.89,1.19l.16.09,4.56,2.64L63,2292.32a.74.74,0,0,0,.57,1.37h0l.16-.09h0l4.56-2.64v5.28a.74.74,0,0,0,1.48,0h0V2291l4.56,2.64a.74.74,0,0,0,1-.27h0a.74.74,0,0,0-.23-1Z" style="fill:#77ccf2"/><rect y="2317.25" width="91.47" height="73.17" style="fill:#fff;fill-opacity:0"/><circle cx="56.39" cy="2341.28" r="19.92" style="fill:#efeb60;opacity:0.5099999904632568;isolation:isolate"/><circle cx="56.39" cy="2341.28" r="15.2" style="fill:#f6b31a;stroke:#feea02;stroke-miterlimit:10"/><circle cx="58.04" cy="2419.28" r="22.87" style="fill:#43444d;opacity:0.25;isolation:isolate"/><path d="M68.34,2422.27a.89.89,0,0,0,.89-.89h0v-3a.89.89,0,1,0-1.77,0v3a.89.89,0,0,0,.88.9h0Z" style="fill:#fff"/><path d="M70.75,2419.9a.89.89,0,0,0-.89-.89h-3a.89.89,0,0,0-.19,1.77h3.22A.89.89,0,0,0,70.75,2419.9Z" style="fill:#fff"/><path d="M39.63,2407.33a.89.89,0,0,0,.89-.89h0v-3.08a.89.89,0,1,0-1.77,0v3.1A.89.89,0,0,0,39.63,2407.33Z" style="fill:#fff"/><path d="M42,2404.93a.89.89,0,0,0-.89-.89h-3a.89.89,0,0,0-.19,1.77h3.22A.89.89,0,0,0,42,2404.93Z" style="fill:#fff"/><path d="M64.77,2404.93a.89.89,0,0,0,.89-.89h0v-3a.89.89,0,1,0-1.77,0v3a.89.89,0,0,0,.88.9h0Z" style="fill:#fff"/><path d="M67.2,2402.51a.89.89,0,0,0-.89-.89H63.25a.89.89,0,0,0-.19,1.77h3.22a.89.89,0,0,0,.92-.86h0Z" style="fill:#fff"/><path d="M59.23,2403a15.51,15.51,0,0,1,5.42-.29,15.51,15.51,0,0,0,6.69,28.44A15.56,15.56,0,1,1,59.23,2403Z" style="fill:#626472;opacity:0.18000000715255737;isolation:isolate"/><path d="M53.93,2404.61a15.37,15.37,0,0,1,5.37-.28,15.39,15.39,0,0,0,6.63,28.17,15.41,15.41,0,1,1-12-27.91Z" style="fill:#fdfce9"/><g style="opacity:0.30000001192092896"><path d="M72.08,2349.61a14.77,14.77,0,0,0-27,4.91,8.63,8.63,0,0,1,6.66,4.19l-1.14.64c-2-3.42-5.82-3.85-8.47-3.67a8.52,8.52,0,0,0,3,16.48h25.7a11.37,11.37,0,0,0,1.25-22.55Z" style="fill:#231f20"/><path d="M36.32,2343.61A9.3,9.3,0,0,0,27,2336a9.56,9.56,0,0,0-7.5,3.57c2,.32,4.53,1.21,5.63,3.64l-1.19.54c-1.36-3-6-3.1-6.71-3.1a6.93,6.93,0,0,0-4.7,6.46,7.08,7.08,0,0,0,7.23,6.93h16.4a5.21,5.21,0,0,0,.13-10.42h0Z" style="fill:#231f20"/></g><path d="M69.46,2346.91a14.77,14.77,0,0,0-27.08,4.91A8.63,8.63,0,0,1,49,2356l-1.14.64c-2-3.42-5.82-3.85-8.47-3.67a8.52,8.52,0,0,0,3,16.48H68.18a11.37,11.37,0,0,0,1.23-22.58Z" style="fill:#d8d9d8"/><path d="M33.7,2340.94a9.3,9.3,0,0,0-9.3-7.65,9.56,9.56,0,0,0-7.5,3.57c2,.32,4.53,1.21,5.63,3.64l-1.19.54c-1.36-3-6-3.1-6.71-3.1a6.93,6.93,0,0,0-4.73,6.46,7.08,7.08,0,0,0,7.23,6.93H33.57a5.21,5.21,0,0,0,.13-10.42Z" style="fill:#d8d9d8"/><g style="opacity:0.30000001192092896"><path d="M72.08,2427.18a14.77,14.77,0,0,0-27,4.91,8.63,8.63,0,0,1,6.64,4.21l-1.14.64c-2-3.42-5.82-3.85-8.47-3.67a8.52,8.52,0,0,0,3,16.48H70.84a11.37,11.37,0,0,0,1.23-22.58Z" style="fill:#231f20"/><path d="M36.32,2421.21a9.3,9.3,0,0,0-9.32-7.6,9.56,9.56,0,0,0-7.5,3.57c2,.32,4.53,1.21,5.63,3.64l-1.19.54c-1.36-3-6-3.1-6.71-3.1a6.93,6.93,0,0,0-4.7,6.46,7.08,7.08,0,0,0,7.23,6.93h16.4a5.21,5.21,0,0,0,.13-10.42Z" style="fill:#231f20"/></g><path d="M69.46,2424.61a14.77,14.77,0,0,0-27.08,4.9,8.63,8.63,0,0,1,6.62,4.2l-1.14.64c-2-3.42-5.82-3.85-8.47-3.67a8.52,8.52,0,0,0,3,16.48H68.18a11.37,11.37,0,0,0,1.23-22.55Z" style="fill:#d8d9d8"/><path d="M33.7,2418.61a9.3,9.3,0,0,0-9.3-7.65,9.56,9.56,0,0,0-7.5,3.57c2,.32,4.53,1.21,5.63,3.64l-1.19.54c-1.36-3-6-3.1-6.71-3.1a6.93,6.93,0,0,0-4.7,6.46,7.08,7.08,0,0,0,7.23,6.93H33.6a5.21,5.21,0,0,0,.13-10.42Z" style="fill:#d8d9d8"/><circle cx="44.02" cy="2375.21" r="10.05" style="fill:#fff;opacity:0.800000011920929;isolation:isolate"/><path d="M51.26,2378.37l-5.48-3.16,5.48-3.16a.89.89,0,0,0,.32-1.21h0a.89.89,0,0,0-1.21-.32l-5.48,3.16v-6.33a.89.89,0,1,0-1.77,0v6.33l-5.48-3.16a.88.88,0,1,0-.88,1.53h0l5.48,3.16-5.48,3.16a.88.88,0,1,0,.88,1.53h0l5.48-3.16v6.33a.89.89,0,1,0,1.77,0h0v-6.33l5.48,3.16a.89.89,0,0,0,1.21-.32h0A.89.89,0,0,0,51.26,2378.37Z" style="fill:#77ccf2"/><circle cx="70.68" cy="2375.21" r="10.05" style="fill:#fff;opacity:0.800000011920929;isolation:isolate"/><path d="M77.93,2378.37l-5.48-3.16,5.48-3.16a.89.89,0,0,0,.32-1.21h0a.89.89,0,0,0-1.21-.32l-5.48,3.16v-6.33a.88.88,0,1,0-1.77,0h0v6.33l-5.48-3.16a.88.88,0,1,0-.88,1.53h0l5.48,3.16-5.48,3.16a.88.88,0,1,0,.88,1.53h0l5.48-3.16v6.33a.88.88,0,1,0,1.77,0h0v-6.33L77,2379.9a.89.89,0,0,0,1.21-.32h0A.89.89,0,0,0,77.93,2378.37Z" style="fill:#77ccf2"/><circle cx="44.02" cy="2449.62" r="10.05" style="fill:#fff;opacity:0.800000011920929;isolation:isolate"/><path d="M51.26,2452.78l-5.48-3.17,5.48-3.16a.89.89,0,0,0,.32-1.21h0a.89.89,0,0,0-1.21-.32l-5.48,3.16v-6.33a.89.89,0,1,0-1.77,0h0v6.33l-5.48-3.16a.88.88,0,1,0-.88,1.53l5.48,3.16-5.48,3.16a.88.88,0,1,0,.88,1.53l5.48-3.16v6.33a.89.89,0,1,0,1.77,0h0v-6.33l5.48,3.16a.89.89,0,0,0,1.21-.32h0A.89.89,0,0,0,51.26,2452.78Z" style="fill:#77ccf2"/><circle cx="70.68" cy="2449.62" r="10.05" style="fill:#fff;opacity:0.800000011920929;isolation:isolate"/><path d="M77.93,2452.78l-5.48-3.17,5.48-3.16a.89.89,0,0,0,.32-1.21h0a.89.89,0,0,0-1.21-.32l-5.48,3.16v-6.33a.88.88,0,1,0-1.77,0h0v6.33l-5.48-3.16a.88.88,0,1,0-.88,1.53l5.48,3.16-5.48,3.16a.88.88,0,1,0,.88,1.53l5.48-3.16v6.33a.88.88,0,1,0,1.77,0h0v-6.33L77,2454.3a.89.89,0,0,0,1.21-.32h0A.89.89,0,0,0,77.93,2452.78Z" style="fill:#77ccf2"/><rect y="2464.57" width="91.47" height="72" style="fill:#fff;fill-opacity:0"/><g style="opacity:0.30000001192092896"><path d="M72.08,2491a14.77,14.77,0,0,0-27,4.91,8.63,8.63,0,0,1,6.64,4.21l-1.14.64c-2-3.42-5.82-3.85-8.47-3.67a8.52,8.52,0,0,0,3,16.48H70.84A11.37,11.37,0,0,0,72.07,2491Z" style="fill:#231f20"/><path d="M36.32,2485a9.3,9.3,0,0,0-9.3-7.65,9.56,9.56,0,0,0-7.5,3.57c2,.32,4.53,1.21,5.63,3.64l-1.19.54c-1.36-3-6-3.1-6.71-3.1a6.93,6.93,0,0,0-4.7,6.46,7.08,7.08,0,0,0,7.23,6.93h16.4a5.21,5.21,0,1,0,.13-10.42Z" style="fill:#231f20"/></g><path d="M69.46,2488.4a14.77,14.77,0,0,0-27.08,4.91,8.63,8.63,0,0,1,6.64,4.21l-1.14.64c-2-3.42-5.82-3.85-8.47-3.67a8.52,8.52,0,0,0,3,16.48H68.18a11.37,11.37,0,0,0,1.23-22.58Z" style="fill:#d8d9d8"/><path d="M33.7,2482.41a9.3,9.3,0,0,0-9.3-7.65,9.56,9.56,0,0,0-7.5,3.57c2,.32,4.53,1.21,5.63,3.64l-1.19.54c-1.36-3-6-3.1-6.71-3.1A6.93,6.93,0,0,0,9.9,2486a7.08,7.08,0,0,0,7.23,6.93H33.57a5.21,5.21,0,1,0,.13-10.42Z" style="fill:#d8d9d8"/><circle cx="44.02" cy="2515.38" r="10.05" style="fill:#fff;opacity:0.800000011920929;isolation:isolate"/><path d="M51.26,2518.61l-5.48-3.16,5.48-3.16a.89.89,0,0,0,.32-1.21h0a.89.89,0,0,0-1.21-.32l-5.48,3.16v-6.31a.89.89,0,1,0-1.77,0V2514l-5.48-3.16a.88.88,0,1,0-.88,1.53l5.48,3.16-5.48,3.12a.88.88,0,1,0,.88,1.53h0l5.48-3.16v6.33a.89.89,0,1,0,1.77,0V2517l5.48,3.16a.89.89,0,0,0,1.21-.32h0a.89.89,0,0,0-.3-1.22Z" style="fill:#77ccf2"/><circle cx="70.68" cy="2515.38" r="10.05" style="fill:#fff;opacity:0.800000011920929;isolation:isolate"/><path d="M77.93,2518.61l-5.48-3.16,5.48-3.16a.89.89,0,0,0,.32-1.21h0a.89.89,0,0,0-1.21-.32l-5.48,3.16v-6.31a.88.88,0,1,0-1.77,0h0V2514l-5.48-3.16a.88.88,0,1,0-.88,1.53l5.48,3.16-5.47,3.12a.88.88,0,1,0,.88,1.53h0L69.8,2517v6.33a.88.88,0,1,0,1.77,0V2517l5.48,3.16a.89.89,0,0,0,1.21-.32h0a.89.89,0,0,0-.26-1.21Z" style="fill:#77ccf2"/><circle cx="75.87" cy="2591.33" r="8.3" style="fill:#fff;opacity:0.800000011920929;isolation:isolate"/><path d="M81.85,2594l-4.53-2.62,4.53-2.62a.73.73,0,0,0,.33-1v0h0a.73.73,0,0,0-1-.33h0L76.62,2590v-5.22a.73.73,0,1,0-1.46,0h0V2590l-4.53-2.62a.73.73,0,0,0-.72,1.26l4.52,2.67L69.9,2594a.73.73,0,0,0,.72,1.26l4.53-2.62v5.22a.73.73,0,1,0,1.46,0h0v-5.21l4.53,2.62a.73.73,0,0,0,1-.23h0a.73.73,0,0,0-.24-1Z" style="fill:#77ccf2"/><circle cx="57.37" cy="2591.33" r="8.3" style="fill:#fff;opacity:0.800000011920929;isolation:isolate"/><path d="M63.36,2594l-4.5-2.61,4.53-2.62a.73.73,0,0,0,.33-1v0h0a.73.73,0,0,0-1-.33h0L58.16,2590v-5.22a.73.73,0,1,0-1.46,0h0V2590l-4.53-2.62a.73.73,0,0,0-.72,1.26h0l4.55,2.63-4.53,2.62a.73.73,0,0,0,.72,1.26l4.53-2.62v5.22a.73.73,0,1,0,1.46,0h0v-5.18l4.53,2.62a.73.73,0,0,0,1-.23h0a.73.73,0,0,0-.26-1h0Z" style="fill:#77ccf2"/><circle cx="38.83" cy="2591.33" r="8.3" style="fill:#fff;opacity:0.800000011920929;isolation:isolate"/><path d="M44.8,2594l-4.55-2.61,4.53-2.62a.73.73,0,0,0,.33-1v0h0a.73.73,0,0,0-1-.33h0L39.55,2590v-5.22a.73.73,0,1,0-1.46,0h0V2590l-4.53-2.62a.73.73,0,0,0-.72,1.26h0l4.53,2.62-4.53,2.62a.73.73,0,0,0,.72,1.26l4.44-2.57v5.22a.73.73,0,1,0,1.46,0h0v-5.22l4.54,2.6a.73.73,0,0,0,1-.23h0a.73.73,0,0,0-.17-1Z" style="fill:#77ccf2"/><rect y="2028.08" width="91.47" height="72" style="fill:#fff;fill-opacity:0"/><g style="opacity:0.30000001192092896"><path d="M72.08,2056.21a14.77,14.77,0,0,0-27,4.91,8.63,8.63,0,0,1,6.64,4.21l-1.14.64c-2-3.42-5.82-3.85-8.47-3.67a8.52,8.52,0,0,0,3,16.48H70.84a11.37,11.37,0,0,0,1.23-22.58Z" style="fill:#231f20"/><path d="M36.32,2050.22a9.3,9.3,0,0,0-9.32-7.61,9.56,9.56,0,0,0-7.5,3.57c2,.32,4.53,1.21,5.63,3.64l-1.19.54c-1.36-3-6-3.1-6.71-3.1a6.93,6.93,0,0,0-4.7,6.46,7.08,7.08,0,0,0,7.23,6.93h16.4a5.21,5.21,0,1,0,.13-10.42h0Z" style="fill:#231f20"/></g><path d="M69.46,2053.61a14.77,14.77,0,0,0-27.08,4.92,8.63,8.63,0,0,1,6.64,4.21l-1.14.64c-2-3.42-5.82-3.85-8.47-3.67a8.52,8.52,0,0,0,3,16.48H68.18a11.37,11.37,0,0,0,1.28-22.58Z" style="fill:#d8d9d8"/><path d="M33.7,2047.61a9.3,9.3,0,0,0-9.3-7.65,9.56,9.56,0,0,0-7.5,3.57c2,.32,4.53,1.21,5.63,3.64l-1.19.54c-1.36-3-6-3.1-6.71-3.1a6.93,6.93,0,0,0-4.7,6.46,7.08,7.08,0,0,0,7.23,6.93H33.6a5.21,5.21,0,0,0,.13-10.42Z" style="fill:#d8d9d8"/><circle cx="43.7" cy="2077.91" r="9.8" style="fill:#fff;opacity:0.800000011920929;isolation:isolate"/><path d="M50.76,2081l-5.34-3.1,5.34-3.1a.86.86,0,0,0,.31-1.17h0a.86.86,0,0,0-1.17-.31h0l-5.34,3.1v-6.2a.86.86,0,0,0-1.73,0h0v6.2l-5.34-3.1a.86.86,0,1,0-.86,1.49h0l5.34,3.1-5.34,3.1a.86.86,0,1,0,.86,1.49h0l5.34-3.1v6.2a.86.86,0,0,0,1.73,0h0v-6.2l5.34,3.1a.86.86,0,0,0,1.17-.3h0a.86.86,0,0,0-.3-1.17Z" style="fill:#77ccf2"/><path d="M72.08,2637.82a14.77,14.77,0,0,0-27,4.91,8.63,8.63,0,0,1,6.64,4.21l-1.14.64c-2-3.42-5.82-3.85-8.47-3.67a8.52,8.52,0,0,0,3,16.48H70.84a11.37,11.37,0,0,0,1.23-22.58Z" style="fill:#919191"/><path d="M36.32,2631.84a9.3,9.3,0,0,0-9.3-7.65,9.56,9.56,0,0,0-7.5,3.57c2,.32,4.53,1.21,5.63,3.64l-1.19.54c-1.36-3-6-3.1-6.71-3.1a6.93,6.93,0,0,0-4.7,6.46,7.08,7.08,0,0,0,7.23,6.93h16.4a5.21,5.21,0,0,0,.13-10.42Z" style="fill:#919191"/><rect x="38.33" y="2669.63" width="17.94" height="1.93" rx="0.55" ry="0.55" transform="translate(-2519.92 1933.23) rotate(-72.96)" style="fill:#77ccf2"/><rect x="50.47" y="2669.61" width="17.94" height="1.93" rx="0.55" ry="0.55" transform="translate(-2511.32 1944.82) rotate(-72.96)" style="fill:#77ccf2"/><rect x="26.76" y="2669.62" width="17.94" height="1.93" rx="0.55" ry="0.55" transform="translate(-2528.09 1922.16) rotate(-72.96)" style="fill:#77ccf2"/><rect x="62.12" y="2669.63" width="17.94" height="1.93" rx="0.55" ry="0.55" transform="translate(-2503.1 1955.98) rotate(-72.96)" style="fill:#77ccf2"/><rect x="44.37" y="2669.63" width="17.94" height="1.93" rx="0.55" ry="0.55" transform="translate(-2515.65 1939) rotate(-72.96)" style="fill:#fff"/><rect x="56.52" y="2669.62" width="17.94" height="1.93" rx="0.55" ry="0.55" transform="translate(-2507.05 1950.61) rotate(-72.96)" style="fill:#fff"/><rect x="32.81" y="2669.63" width="17.94" height="1.93" rx="0.55" ry="0.55" transform="translate(-2523.82 1927.95) rotate(-72.96)" style="fill:#fff"/><rect x="68.16" y="2669.63" width="17.94" height="1.93" rx="0.55" ry="0.55" transform="translate(-2498.83 1961.75) rotate(-72.96)" style="fill:#fff"/><polygon points="53.94 2648.35 62.43 2648.35 59.9 2655.33 64.24 2655.33 52.53 2677.77 55.23 2661.3 51.46 2661.3 53.94 2648.35" style="fill:#feda00"/><polygon points="52.25 2646.64 60.72 2646.64 58.21 2653.64 62.54 2653.64 50.82 2676.07 53.51 2659.61 49.77 2659.61 52.25 2646.64" style="fill:#f47920"/><rect x="65.31" y="2653.01" width="16.98" height="16.98" style="fill:#cf2d28"/><path d="M78.31,2666.15a11.46,11.46,0,0,1-3.42.58,5.71,5.71,0,0,1-4.14-1.39,5,5,0,0,1-1.45-3.73c0-3.4,2.49-5.36,5.85-5.36a7.06,7.06,0,0,1,2.84.5l-.49,1.86a5.69,5.69,0,0,0-2.39-.44,3.34,3.34,0,1,0,1,6.52v-2.08H74.5v-1.81h3.81Z" style="fill:#fff"/><path d="M72.08,2712.61a14.77,14.77,0,0,0-27.08,5,8.63,8.63,0,0,1,6.64,4.21l-1.14.64c-2-3.42-5.82-3.85-8.47-3.67a8.52,8.52,0,0,0,3,16.48H70.84a11.37,11.37,0,0,0,1.23-22.66Z" style="fill:#919191"/><path d="M36.32,2706.67A9.3,9.3,0,0,0,27,2699a9.56,9.56,0,0,0-7.5,3.57c2,.32,4.53,1.21,5.63,3.64l-1.19.54c-1.36-3-6-3.1-6.71-3.1a6.93,6.93,0,0,0-4.7,6.46,7.08,7.08,0,0,0,7.23,6.93h16.4a5.21,5.21,0,1,0,.13-10.42Z" style="fill:#919191"/><rect x="38.32" y="2744.55" width="17.99" height="1.94" rx="0.55" ry="0.55" transform="translate(-2594.57 1996.81) rotate(-73.19)" style="fill:#77ccf2"/><rect x="50.96" y="2744.55" width="17.99" height="1.94" rx="0.55" ry="0.55" transform="translate(-2585.58 2008.91) rotate(-73.19)" style="fill:#77ccf2"/><rect x="26.76" y="2744.55" width="17.94" height="1.93" rx="0.55" ry="0.55" transform="translate(-2599.73 1975.13) rotate(-72.96)" style="fill:#77ccf2"/><rect x="62.12" y="2744.55" width="17.94" height="1.93" rx="0.55" ry="0.55" transform="translate(-2574.74 2008.94) rotate(-72.96)" style="fill:#77ccf2"/><rect x="44.37" y="2744.55" width="17.94" height="1.93" rx="0.55" ry="0.55" transform="translate(-2587.28 1991.97) rotate(-72.96)" style="fill:#fff"/><rect x="56.52" y="2744.55" width="17.94" height="1.93" rx="0.55" ry="0.55" transform="translate(-2578.69 2003.59) rotate(-72.96)" style="fill:#fff"/><rect x="32.81" y="2744.55" width="17.94" height="1.93" rx="0.55" ry="0.55" transform="translate(-2595.46 1980.92) rotate(-72.96)" style="fill:#fff"/><rect x="68.18" y="2744.55" width="17.94" height="1.93" rx="0.55" ry="0.55" transform="translate(-2570.45 2014.74) rotate(-72.96)" style="fill:#fff"/><rect x="38.32" y="2809.59" width="17.99" height="1.94" rx="0.55" ry="0.55" transform="translate(-2656.83 2043.04) rotate(-73.19)" style="fill:#77ccf2"/><rect x="50.96" y="2809.59" width="17.99" height="1.94" rx="0.55" ry="0.55" transform="translate(-2647.85 2055.14) rotate(-73.19)" style="fill:#77ccf2"/><rect x="26.76" y="2809.59" width="17.94" height="1.93" rx="0.55" ry="0.55" transform="translate(-2661.92 2021.12) rotate(-72.96)" style="fill:#77ccf2"/><rect x="62.12" y="2809.59" width="17.94" height="1.93" rx="0.55" ry="0.55" transform="translate(-2636.92 2054.92) rotate(-72.96)" style="fill:#77ccf2"/><rect x="44.37" y="2809.59" width="17.94" height="1.93" rx="0.55" ry="0.55" transform="translate(-2649.47 2037.95) rotate(-72.96)" style="fill:#fff"/><rect x="56.52" y="2809.59" width="17.94" height="1.93" rx="0.55" ry="0.55" transform="translate(-2640.87 2049.57) rotate(-72.96)" style="fill:#fff"/><rect x="32.81" y="2809.59" width="17.94" height="1.93" rx="0.55" ry="0.55" transform="matrix(0.29, -0.96, 0.96, 0.29, -2657.64, 2026.9)" style="fill:#fff"/><rect x="68.18" y="2809.59" width="17.94" height="1.93" rx="0.55" ry="0.55" transform="translate(-2632.63 2060.72) rotate(-72.96)" style="fill:#fff"/><polygon points="53.57 2724.77 61.31 2724.77 59 2731.14 62.96 2731.14 52.28 2751.6 54.75 2736.58 51.31 2736.58 53.57 2724.77" style="fill:#feda00"/><polygon points="52.03 2723.23 59.75 2723.23 57.46 2729.59 61.41 2729.59 50.73 2750.05 53.18 2735.03 49.77 2735.03 52.03 2723.23" style="fill:#f47920"/><rect x="65.31" y="2728.34" width="16.98" height="16.98" style="fill:#cf2d28"/><path d="M78.31,2741.18a11.46,11.46,0,0,1-3.42.58,5.71,5.71,0,0,1-4.14-1.39,5,5,0,0,1-1.45-3.76c0-3.4,2.49-5.36,5.85-5.36a7.06,7.06,0,0,1,2.84.5l-.49,1.86a5.69,5.69,0,0,0-2.39-.44,3.34,3.34,0,1,0,1,6.52v-2.08H74.5v-1.81h3.81Z" style="fill:#fff"/><path d="M69.46,2777.67a14.77,14.77,0,0,0-27.07,4.94,8.63,8.63,0,0,1,6.64,4.21l-1.14.64c-2-3.42-5.82-3.85-8.47-3.67a8.52,8.52,0,0,0,3,16.48H68.18a11.37,11.37,0,0,0,1.23-22.58Z" style="fill:#919191"/><path d="M33.7,2771.69a9.3,9.3,0,0,0-9.3-7.65,9.56,9.56,0,0,0-7.5,3.57c2,.32,4.53,1.21,5.63,3.64l-1.19.54c-1.36-3-6-3.1-6.71-3.1a6.93,6.93,0,0,0-4.7,6.46,7.08,7.08,0,0,0,7.23,6.93H33.6a5.21,5.21,0,0,0,.13-10.42h0Z" style="fill:#919191"/><polygon points="52.76 2788.55 60.62 2788.55 58.29 2795.05 62.3 2795.05 51.43 2815.82 53.93 2800.57 50.45 2800.57 52.76 2788.55" style="fill:#feda00"/><polygon points="51.19 2786.97 59.04 2786.97 56.71 2793.47 60.72 2793.47 49.85 2814.26 52.36 2799 48.88 2799 51.19 2786.97" style="fill:#f47920"/><rect x="66.81" y="2794.73" width="16.98" height="16.98" style="fill:#cf2d28"/><path d="M79.8,2807.87a11.46,11.46,0,0,1-3.42.58,5.71,5.71,0,0,1-4.14-1.39,5,5,0,0,1-1.45-3.72c0-3.4,2.49-5.36,5.85-5.36a7.06,7.06,0,0,1,2.84.5l-.49,1.85a5.69,5.69,0,0,0-2.39-.44,3.34,3.34,0,1,0,.92,6.49v-2.07H76v-1.81h3.8Z" style="fill:#fff"/><rect y="2901.37" width="91.47" height="72" style="fill:#fff;fill-opacity:0"/><circle cx="54.11" cy="2927.91" r="22.87" style="fill:#43444d;opacity:0.25;isolation:isolate"/><path d="M64.42,2930.9a.89.89,0,0,0,.89-.89h0v-3a.89.89,0,1,0-1.77,0v3a.89.89,0,0,0,.88.9h0Z" style="fill:#fff"/><path d="M66.83,2928.49a.89.89,0,0,0-.89-.89h-3a.89.89,0,0,0-.19,1.77H66A.89.89,0,0,0,66.83,2928.49Z" style="fill:#fff"/><path d="M35.7,2916a.89.89,0,0,0,.89-.89h0v-3a.89.89,0,1,0-1.77,0v3a.89.89,0,0,0,.88.9h0Z" style="fill:#fff"/><path d="M38.12,2913.61a.89.89,0,0,0-.89-.89h-3a.89.89,0,0,0-.19,1.77h3.22A.89.89,0,0,0,38.12,2913.61Z" style="fill:#fff"/><path d="M60.84,2913.61a.89.89,0,0,0,.89-.89h0v-3a.89.89,0,1,0-1.77,0v3a.89.89,0,0,0,.88.9h0Z" style="fill:#fff"/><path d="M63.26,2911.14a.89.89,0,0,0-.89-.89h-3a.89.89,0,0,0-.19,1.77H62.4A.89.89,0,0,0,63.26,2911.14Z" style="fill:#fff"/><path d="M54.7,2911.13a15.51,15.51,0,0,1,5.42-.29,15.51,15.51,0,0,0,6.69,28.44,15.56,15.56,0,1,1-12.11-28.15Z" style="fill:#626472;opacity:0.18000000715255737;isolation:isolate"/><path d="M50,2913.19a15.37,15.37,0,0,1,5.37-.28A15.39,15.39,0,0,0,62,2941.08a15.41,15.41,0,1,1-12-27.91Z" style="fill:#fdfce9"/><rect y="2829.16" width="91.47" height="72" style="fill:#fff;fill-opacity:0"/><circle cx="53.12" cy="2851.14" r="17.77" style="fill:#efeb60;opacity:0.5099999904632568;isolation:isolate"/><circle cx="53.12" cy="2851.14" r="13.55" style="fill:#f6b31a;stroke:#feea02;stroke-miterlimit:10"/><path d="M72.08,2857.43a14.77,14.77,0,0,0-27,4.91,8.63,8.63,0,0,1,6.66,4.21l-1.14.64c-2-3.42-5.82-3.85-8.47-3.67a8.52,8.52,0,0,0,3,16.48h25.7a11.37,11.37,0,0,0,1.23-22.58Z" style="fill:#919191"/><path d="M36.32,2851.44a9.3,9.3,0,0,0-9.3-7.65,9.56,9.56,0,0,0-7.5,3.57c2,.32,4.53,1.21,5.63,3.64l-1.19.54c-1.36-3-6-3.1-6.71-3.1a6.93,6.93,0,0,0-4.7,6.46,7.08,7.08,0,0,0,7.23,6.93h16.4a5.21,5.21,0,1,0,.13-10.42Z" style="fill:#919191"/><polygon points="54.61 2869.32 62.41 2869.32 60.08 2875.76 64.07 2875.76 53.3 2896.37 55.79 2881.24 52.32 2881.24 54.61 2869.32" style="fill:#feda00"/><polygon points="53.05 2867.76 60.83 2867.76 58.53 2874.2 62.51 2874.2 51.74 2894.82 54.21 2879.68 50.77 2879.68 53.05 2867.76" style="fill:#f47920"/><path d="M72.08,2932.61a14.77,14.77,0,0,0-27,4.91,8.63,8.63,0,0,1,6.64,4.21l-1.14.64c-2-3.42-5.82-3.85-8.47-3.67a8.52,8.52,0,0,0,3,16.48H70.84a11.37,11.37,0,0,0,1.24-22.57Z" style="fill:#919191"/><path d="M36.32,2926.61A9.3,9.3,0,0,0,27,2919a9.56,9.56,0,0,0-7.5,3.57c2,.32,4.53,1.21,5.63,3.64l-1.19.54c-1.36-3-6-3.1-6.71-3.1a6.93,6.93,0,0,0-4.7,6.46,7.08,7.08,0,0,0,7.23,6.93h16.4a5.21,5.21,0,0,0,.13-10.42Z" style="fill:#919191"/><polygon points="55.54 2943.39 63.43 2943.39 61.07 2949.87 65.11 2949.87 54.22 2970.73 56.73 2955.42 53.23 2955.42 55.54 2943.39" style="fill:#feda00"/><polygon points="53.97 2941.8 61.84 2941.8 59.5 2948.3 63.53 2948.3 52.64 2969.16 55.14 2953.85 51.66 2953.85 53.97 2941.8" style="fill:#f47920"/><rect y="2973.16" width="91.47" height="73.17" style="fill:#fff;fill-opacity:0"/><path d="M72.08,2999.68A14.77,14.77,0,0,0,45,3004.61a8.63,8.63,0,0,1,6.66,4.23l-1.14.64c-2-3.42-5.82-3.85-8.47-3.67a8.52,8.52,0,0,0,3,16.47H70.84a11.37,11.37,0,0,0,1.23-22.58Z" style="fill:#919191"/><path d="M36.32,2993.7a9.3,9.3,0,0,0-9.3-7.65,9.56,9.56,0,0,0-7.5,3.57c2,.32,4.53,1.21,5.63,3.64l-1.19.54c-1.36-3-6-3.1-6.71-3.1a6.93,6.93,0,0,0-4.7,6.46,7.08,7.08,0,0,0,7.23,6.93h16.4a5.21,5.21,0,1,0,.13-10.42h0Z" style="fill:#919191"/><polygon points="57.06 3009.55 64.84 3009.55 62.51 3015.97 66.5 3015.97 55.76 3036.53 58.24 3021.44 54.78 3021.44 57.06 3009.55" style="fill:#feda00"/><polygon points="55.51 3008 63.27 3008 60.97 3014.41 64.93 3014.41 54.2 3034.97 56.66 3019.87 53.23 3019.87 55.51 3008" style="fill:#f47920"/><rect y="3119.82" width="91.47" height="72" style="fill:#fff;fill-opacity:0"/><circle cx="54.11" cy="3146.36" r="22.87" style="fill:#43444d;opacity:0.25;isolation:isolate"/><path d="M64.42,3149.37a.89.89,0,0,0,.89-.89h0v-3a.89.89,0,1,0-1.77,0v3a.89.89,0,0,0,.88.9h0Z" style="fill:#fff"/><path d="M66.83,3147a.89.89,0,0,0-.89-.89h-3a.89.89,0,0,0-.19,1.77H66A.89.89,0,0,0,66.83,3147Z" style="fill:#fff"/><path d="M35.7,3134.44a.89.89,0,0,0,.89-.89h0v-3a.89.89,0,1,0-1.77,0v3a.89.89,0,0,0,.88.9h0Z" style="fill:#fff"/><path d="M38.12,3132a.89.89,0,0,0-.89-.89h-3a.89.89,0,0,0-.19,1.77h3.22A.89.89,0,0,0,38.12,3132Z" style="fill:#fff"/><path d="M60.84,3132a.89.89,0,0,0,.89-.89h0v-3a.89.89,0,1,0-1.77,0v3a.89.89,0,0,0,.88.9h0Z" style="fill:#fff"/><path d="M63.26,3129.61a.89.89,0,0,0-.89-.89h-3a.89.89,0,0,0-.19,1.77H62.4A.89.89,0,0,0,63.26,3129.61Z" style="fill:#fff"/><path d="M54.07,3130.91a15.51,15.51,0,0,1,5.42-.29,15.51,15.51,0,0,0,6.68,28.44,15.56,15.56,0,1,1-12.11-28.15Z" style="fill:#626472;opacity:0.18000000715255737;isolation:isolate"/><path d="M50,3131.61a15.37,15.37,0,0,1,5.37-.28A15.39,15.39,0,0,0,62,3159.61a15.41,15.41,0,1,1-12-28Z" style="fill:#fdfce9"/><rect y="3046.99" width="91.47" height="72" style="fill:#fff;fill-opacity:0"/><circle cx="49.63" cy="3071.55" r="19.05" style="fill:#efeb60;opacity:0.5099999904632568;isolation:isolate"/><circle cx="49.63" cy="3071.55" r="14.55" style="fill:#f6b31a;stroke:#feea02;stroke-miterlimit:10"/><path d="M72.08,3074.36a14.77,14.77,0,0,0-27,4.91,8.63,8.63,0,0,1,6.64,4.21l-1.14.64c-2-3.42-5.82-3.85-8.47-3.67a8.52,8.52,0,0,0,3,16.54H70.84a11.37,11.37,0,0,0,1.23-22.58Z" style="fill:#919191"/><path d="M36.32,3068.37a9.3,9.3,0,0,0-9.3-7.65,9.56,9.56,0,0,0-7.5,3.57c2,.32,4.53,1.21,5.63,3.64l-1.19.54c-1.36-3-6-3.1-6.71-3.1a6.93,6.93,0,0,0-4.7,6.46,7.08,7.08,0,0,0,7.23,6.93h16.4a5.21,5.21,0,0,0,.13-10.42Z" style="fill:#919191"/><polygon points="53.75 3085.86 61.45 3085.86 59.15 3092.2 63.09 3092.2 52.47 3112.53 54.92 3097.61 51.5 3097.61 53.75 3085.86" style="fill:#feda00"/><polygon points="52.22 3084.32 59.89 3084.32 57.62 3090.66 61.54 3090.66 50.93 3111 53.37 3096.07 49.97 3096.07 52.22 3084.32" style="fill:#f47920"/><polygon points="67.7 3085.86 75.39 3085.86 73.11 3092.2 77.03 3092.2 66.41 3112.53 68.86 3097.61 65.46 3097.61 67.7 3085.86" style="fill:#feda00"/><polygon points="66.17 3084.32 73.85 3084.32 71.56 3090.66 75.5 3090.66 64.88 3111 67.31 3096.07 63.91 3096.07 66.17 3084.32" style="fill:#f47920"/><path d="M72.08,3151a14.77,14.77,0,0,0-27,4.91,8.63,8.63,0,0,1,6.64,4.21l-1.14.64c-2-3.42-5.82-3.85-8.47-3.67a8.52,8.52,0,0,0,3,16.48H70.84A11.37,11.37,0,0,0,72.07,3151Z" style="fill:#919191"/><path d="M36.32,3145.06a9.3,9.3,0,0,0-9.3-7.65,9.56,9.56,0,0,0-7.5,3.57c2,.32,4.53,1.21,5.63,3.64l-1.19.54c-1.36-3-6-3.1-6.71-3.1a6.93,6.93,0,0,0-4.7,6.46,7.08,7.08,0,0,0,7.23,6.93h16.4a5.21,5.21,0,1,0,.13-10.42Z" style="fill:#919191"/><polygon points="52.66 3162.35 60.63 3162.35 58.25 3168.91 62.33 3168.91 51.33 3189.97 53.87 3174.53 50.33 3174.53 52.66 3162.35" style="fill:#feda00"/><polygon points="51.07 3160.75 59.02 3160.75 56.66 3167.32 60.73 3167.32 49.73 3188.39 52.25 3172.92 48.74 3172.92 51.07 3160.75" style="fill:#f47920"/><polygon points="67.77 3162.35 75.74 3162.35 73.37 3168.91 77.44 3168.91 66.44 3189.97 68.98 3174.53 65.45 3174.53 67.77 3162.35" style="fill:#feda00"/><polygon points="66.18 3160.75 74.14 3160.75 71.77 3167.32 75.85 3167.32 64.85 3188.39 67.36 3172.92 63.85 3172.92 66.18 3160.75" style="fill:#f47920"/><rect y="3192.67" width="91.47" height="72" style="fill:#fff;fill-opacity:0"/><path d="M72.08,3218.18a14.77,14.77,0,0,0-27,4.93,8.63,8.63,0,0,1,6.64,4.21l-1.14.64c-2-3.42-5.82-3.85-8.47-3.67a8.52,8.52,0,0,0,3,16.48H70.84a11.37,11.37,0,0,0,1.23-22.58Z" style="fill:#919191"/><path d="M36.32,3212.2a9.3,9.3,0,0,0-9.32-7.59,9.56,9.56,0,0,0-7.5,3.57c2,.32,4.53,1.21,5.63,3.64l-1.19.54c-1.36-3-6-3.1-6.71-3.1a6.93,6.93,0,0,0-4.7,6.46,7.08,7.08,0,0,0,7.23,6.93h16.4a5.21,5.21,0,1,0,.13-10.42Z" style="fill:#919191"/><polygon points="53.67 3229.63 61.6 3229.63 59.23 3236.17 63.29 3236.17 52.35 3257.13 54.87 3241.73 51.35 3241.73 53.67 3229.63" style="fill:#feda00"/><polygon points="52.09 3228.03 60 3228.03 57.66 3234.58 61.7 3234.58 50.75 3255.55 53.27 3240.15 49.77 3240.15 52.09 3228.03" style="fill:#f47920"/><polygon points="68.71 3229.63 76.64 3229.63 74.29 3236.17 78.33 3236.17 67.39 3257.13 69.91 3241.73 66.4 3241.73 68.71 3229.63" style="fill:#feda00"/><polygon points="67.13 3228.03 75.05 3228.03 72.7 3234.58 76.75 3234.58 65.81 3255.55 68.31 3240.15 64.81 3240.15 67.13 3228.03" style="fill:#f47920"/><rect x="37.01" y="1505.4" width="7.01" height="2.02" rx="1.01" ry="1.01" transform="translate(-1420.27 1136.24) rotate(-74.24)" style="fill:#77ccf2"/><rect x="34.65" y="1513.4" width="7.01" height="2.02" rx="1.01" ry="1.01" transform="translate(-1429.69 1139.81) rotate(-74.24)" style="fill:#77ccf2"/><rect x="48" y="1505.4" width="7.01" height="2.02" rx="1.01" ry="1.01" transform="translate(-1412.26 1146.83) rotate(-74.24)" style="fill:#77ccf2"/><rect x="45.67" y="1513.4" width="7.01" height="2.02" rx="1.01" ry="1.01" transform="translate(-1421.67 1150.41) rotate(-74.24)" style="fill:#77ccf2"/><rect x="59.02" y="1505.4" width="7.01" height="2.02" rx="1.01" ry="1.01" transform="translate(-1404.24 1157.43) rotate(-74.24)" style="fill:#77ccf2"/><rect x="56.66" y="1513.4" width="7.01" height="2.02" rx="1.01" ry="1.01" transform="translate(-1413.65 1160.99) rotate(-74.24)" style="fill:#77ccf2"/><path d="M74.81,1503h0a1,1,0,0,1,.7,1.24l-1.35,4.79a1,1,0,0,1-1.24.7h0a1,1,0,0,1-.7-1.24l1.35-4.79A1,1,0,0,1,74.81,1503Z" style="fill:#77ccf2"/><path d="M72.14,1511h0a1,1,0,0,1,.7,1.25l-1.36,4.8a1,1,0,0,1-1.25.7h0a1,1,0,0,1-.7-1.25l1.36-4.8A1,1,0,0,1,72.14,1511Z" style="fill:#77ccf2"/><path d="M69.47,1503h0a1,1,0,0,1,.7,1.25l-1.36,4.8a1,1,0,0,1-1.25.7h0a1,1,0,0,1-.7-1.25l1.36-4.8A1,1,0,0,1,69.47,1503Z" style="fill:#fff"/><path d="M67.13,1511h0a1,1,0,0,1,.7,1.25l-1.36,4.8a1,1,0,0,1-1.25.7h0a1,1,0,0,1-.7-1.25l1.36-4.8A1,1,0,0,1,67.13,1511Z" style="fill:#fff"/><rect x="54.02" y="1505.4" width="7.01" height="2.02" rx="1.01" ry="1.01" transform="translate(-1407.88 1152.62) rotate(-74.24)" style="fill:#fff"/><rect x="51.66" y="1513.4" width="7.01" height="2.02" rx="1.01" ry="1.01" transform="translate(-1417.3 1156.18) rotate(-74.24)" style="fill:#fff"/><rect x="42.51" y="1505.4" width="6.99" height="2.01" rx="1.01" ry="1.01" transform="translate(-1416.59 1142.84) rotate(-74.29)" style="fill:#fff"/><rect x="40.66" y="1513.4" width="7.01" height="2.02" rx="1.01" ry="1.01" transform="translate(-1425.32 1145.58) rotate(-74.24)" style="fill:#fff"/><rect x="38.01" y="1571.45" width="7.01" height="2.02" rx="1.01" ry="1.01" transform="translate(-1483.11 1185.32) rotate(-74.24)" style="fill:#77ccf2"/><rect x="35.66" y="1579.44" width="7.01" height="2.02" rx="1.01" ry="1.01" transform="translate(-1492.51 1188.88) rotate(-74.24)" style="fill:#77ccf2"/><rect x="49.01" y="1571.45" width="7.01" height="2.02" rx="1.01" ry="1.01" transform="translate(-1475.1 1195.9) rotate(-74.24)" style="fill:#77ccf2"/><rect x="46.67" y="1579.44" width="7.01" height="2.02" rx="1.01" ry="1.01" transform="translate(-1484.49 1199.48) rotate(-74.24)" style="fill:#77ccf2"/><rect x="60.01" y="1571.45" width="7.01" height="2.02" rx="1.01" ry="1.01" transform="translate(-1467.08 1206.5) rotate(-74.24)" style="fill:#77ccf2"/><rect x="57.67" y="1579.44" width="7.01" height="2.02" rx="1.01" ry="1.01" transform="translate(-1476.48 1210.06) rotate(-74.24)" style="fill:#77ccf2"/><path d="M75.49,1569.08h0a1,1,0,0,1,.7,1.25l-1.36,4.8a1,1,0,0,1-1.25.7h0a1,1,0,0,1-.7-1.25l1.36-4.8A1,1,0,0,1,75.49,1569.08Z" style="fill:#77ccf2"/><path d="M73.13,1577.08h0a1,1,0,0,1,.7,1.25l-1.36,4.8a1,1,0,0,1-1.25.7h0a1,1,0,0,1-.7-1.25l1.36-4.8A1,1,0,0,1,73.13,1577.08Z" style="fill:#77ccf2"/><path d="M70.47,1569.07h0a1,1,0,0,1,.7,1.25l-1.36,4.8a1,1,0,0,1-1.25.7h0a1,1,0,0,1-.7-1.25l1.36-4.8A1,1,0,0,1,70.47,1569.07Z" style="fill:#fff"/><path d="M68.14,1577.08h0a1,1,0,0,1,.7,1.25l-1.36,4.8a1,1,0,0,1-1.25.7h0a1,1,0,0,1-.7-1.25l1.36-4.8A1,1,0,0,1,68.14,1577.08Z" style="fill:#fff"/><rect x="55.02" y="1571.44" width="7.01" height="2.02" rx="1.01" ry="1.01" transform="translate(-1470.71 1201.69) rotate(-74.24)" style="fill:#fff"/><rect x="52.67" y="1579.44" width="7.01" height="2.02" rx="1.01" ry="1.01" transform="translate(-1480.12 1205.25) rotate(-74.24)" style="fill:#fff"/><rect x="44" y="1571.44" width="7.01" height="2.02" rx="1.01" ry="1.01" transform="translate(-1478.73 1191.08) rotate(-74.24)" style="fill:#fff"/><rect x="41.66" y="1579.44" width="7.01" height="2.02" rx="1.01" ry="1.01" transform="translate(-1488.14 1194.65) rotate(-74.24)" style="fill:#fff"/><rect x="42.64" y="1357.17" width="7.44" height="1.93" rx="0.55" ry="0.55" transform="translate(-1265.74 1004.47) rotate(-72.96)" style="fill:#77ccf2"/><rect x="52.95" y="1357.23" width="7.44" height="1.93" rx="0.55" ry="0.55" transform="translate(-1258.51 1014.37) rotate(-72.96)" style="fill:#77ccf2"/><rect x="32.31" y="1357.17" width="7.44" height="1.93" rx="0.55" ry="0.55" transform="translate(-1273.04 994.6) rotate(-72.96)" style="fill:#77ccf2"/><rect x="62.97" y="1357.17" width="7.44" height="1.93" rx="0.55" ry="0.55" transform="translate(-1251.37 1023.91) rotate(-72.96)" style="fill:#77ccf2"/><rect x="73.1" y="1357.17" width="7.44" height="1.93" rx="0.55" ry="0.55" transform="translate(-1244.2 1033.59) rotate(-72.96)" style="fill:#77ccf2"/><rect x="47.88" y="1357.17" width="7.44" height="1.93" rx="0.55" ry="0.55" transform="translate(-1262.04 1009.48) rotate(-72.96)" style="fill:#fff"/><rect x="37.65" y="1357.16" width="7.44" height="1.93" rx="0.55" ry="0.55" transform="translate(-1269.26 999.69) rotate(-72.96)" style="fill:#fff"/><rect x="68.35" y="1357.21" width="7.46" height="1.94" rx="0.55" ry="0.55" transform="translate(-1248.91 1034.39) rotate(-73.19)" style="fill:#fff"/><rect x="58.09" y="1357.2" width="7.46" height="1.94" rx="0.55" ry="0.55" transform="translate(-1256.19 1024.57) rotate(-73.19)" style="fill:#fff"/><rect x="36.86" y="1431.27" width="7.01" height="2.02" rx="1.01" ry="1.01" transform="translate(-1349.04 1082.1) rotate(-74.24)" style="fill:#77ccf2"/><rect x="34.5" y="1439.27" width="7.01" height="2.02" rx="1.01" ry="1.01" transform="translate(-1358.45 1085.66) rotate(-74.24)" style="fill:#77ccf2"/><rect x="47.85" y="1431.26" width="7.01" height="2.02" rx="1.01" ry="1.01" transform="translate(-1341.02 1092.68) rotate(-74.24)" style="fill:#77ccf2"/><rect x="45.52" y="1439.27" width="7.01" height="2.02" rx="1.01" ry="1.01" transform="translate(-1350.43 1096.27) rotate(-74.24)" style="fill:#77ccf2"/><rect x="58.87" y="1431.27" width="7.01" height="2.02" rx="1.01" ry="1.01" transform="translate(-1333 1103.29) rotate(-74.24)" style="fill:#77ccf2"/><rect x="56.51" y="1439.27" width="7.01" height="2.02" rx="1.01" ry="1.01" transform="translate(-1342.42 1106.85) rotate(-74.24)" style="fill:#77ccf2"/><path d="M74.67,1428.91h0a1,1,0,0,1,.7,1.24L74,1434.94a1,1,0,0,1-1.24.7h0a1,1,0,0,1-.7-1.24l1.35-4.79A1,1,0,0,1,74.67,1428.91Z" style="fill:#77ccf2"/><path d="M72,1436.9h0a1,1,0,0,1,.7,1.25l-1.36,4.8a1,1,0,0,1-1.25.7h0a1,1,0,0,1-.7-1.25l1.36-4.8A1,1,0,0,1,72,1436.9Z" style="fill:#77ccf2"/><path d="M69.32,1428.9h0a1,1,0,0,1,.7,1.25l-1.36,4.8a1,1,0,0,1-1.25.7h0a1,1,0,0,1-.7-1.25l1.36-4.8A1,1,0,0,1,69.32,1428.9Z" style="fill:#fff"/><path d="M67,1436.91h0a1,1,0,0,1,.7,1.25l-1.36,4.8a1,1,0,0,1-1.25.7h0a1,1,0,0,1-.7-1.25l1.36-4.8A1,1,0,0,1,67,1436.91Z" style="fill:#fff"/><rect x="53.87" y="1431.27" width="7.01" height="2.02" rx="1.01" ry="1.01" transform="translate(-1336.65 1098.47) rotate(-74.24)" style="fill:#fff"/><rect x="51.51" y="1439.27" width="7.01" height="2.02" rx="1.01" ry="1.01" transform="translate(-1346.06 1102.04) rotate(-74.24)" style="fill:#fff"/><rect x="42.36" y="1431.27" width="6.99" height="2.01" rx="1.01" ry="1.01" transform="translate(-1345.34 1088.64) rotate(-74.29)" style="fill:#fff"/><rect x="40.51" y="1439.27" width="7.01" height="2.02" rx="1.01" ry="1.01" transform="translate(-1354.08 1091.44) rotate(-74.24)" style="fill:#fff"/></svg>