<svg id="Calque_14" data-name="Calque 14" xmlns="http://www.w3.org/2000/svg" viewBox="0 0 85.23 85.24" width="50" height="50"><defs><style>.p10j-1{fill:#eeeb61;opacity:0.51;isolation:isolate;}.p10j-2{fill:#f5b21a;stroke:#fde901;}.p10j-2,.p10j-9{stroke-miterlimit:10;}.p10j-3{opacity:0.3;}.p10j-4{fill:#231f20;}.p10j-5{fill:#d8d9d8;}.p10j-6{fill:#79ccf1;}.p10j-7{fill:#fff;}.p10j-8{fill:#cf2e29;}.p10j-9{fill:none;stroke:#231f20;}</style></defs><title>14Plan de travail 1</title><circle class="p10j-1" cx="55.11" cy="31.25" r="20.16"/><circle class="p10j-2" cx="55.11" cy="31.25" r="15.38"/><g class="p10j-3"><path class="p10j-4" d="M66,38.45a14.77,14.77,0,0,0-27,4.91,8.62,8.62,0,0,1,6.66,4.22l-1.14.64c-2-3.42-5.82-3.85-8.47-3.67A8.52,8.52,0,0,0,39,61H64.72A11.37,11.37,0,0,0,66,38.44Z"/><path class="p10j-4" d="M30.2,32.47a9.3,9.3,0,0,0-9.3-7.65,9.53,9.53,0,0,0-7.5,3.57c2,.32,4.53,1.21,5.63,3.64l-1.15.54c-1.36-3-6-3.1-6.71-3.1a6.92,6.92,0,0,0-4.7,6.41,7.08,7.08,0,0,0,7.16,7H30.06a5.21,5.21,0,0,0,.13-10.42Z"/></g><path class="p10j-5" d="M63.34,35.88a14.77,14.77,0,0,0-27.08,4.91A8.63,8.63,0,0,1,42.88,45l-1.14.64c-2-3.42-5.82-3.85-8.47-3.67a8.52,8.52,0,0,0,3,16.48H62.06a11.37,11.37,0,0,0,1.23-22.58Z"/><path class="p10j-5" d="M27.58,29.88a9.3,9.3,0,0,0-9.3-7.61,9.53,9.53,0,0,0-7.5,3.57c2,.32,4.53,1.21,5.63,3.64L15.22,30c-1.36-3-6-3.1-6.71-3.1a6.92,6.92,0,0,0-4.7,6.46A7.08,7.08,0,0,0,11,40.27H27.48a5.21,5.21,0,0,0,.91-10.38,5.08,5.08,0,0,0-.78,0Z"/><rect class="p10j-6" x="36.84" y="64.71" width="7.44" height="1.93" rx="0.55" ry="0.55" transform="translate(-34.12 85.2) rotate(-72.96)"/><rect class="p10j-6" x="44.72" y="68.95" width="7.44" height="1.93" rx="0.55" ry="0.55" transform="translate(-32.6 95.74) rotate(-72.96)"/><rect class="p10j-6" x="27.44" y="64.01" width="7.44" height="1.93" rx="0.55" ry="0.55" transform="translate(-40.09 75.73) rotate(-72.96)"/><rect class="p10j-6" x="61.28" y="69.64" width="7.48" height="1.95" rx="0.55" ry="0.55" transform="translate(-21.38 112.43) rotate(-73.19)"/><rect class="p10j-7" x="41.43" y="65.23" width="7.44" height="1.93" rx="0.55" ry="0.55" transform="matrix(0.29, -0.96, 0.96, 0.29, -31.37, 89.96)"/><rect class="p10j-7" x="50.11" y="65.89" width="7.44" height="1.93" rx="0.55" ry="0.55" transform="translate(-25.86 98.73) rotate(-72.96)"/><rect class="p10j-7" x="32.14" y="64.7" width="7.44" height="1.93" rx="0.55" ry="0.55" transform="translate(-37.43 80.71) rotate(-72.96)"/><rect class="p10j-7" x="63.32" y="63.88" width="7.44" height="1.93" rx="0.55" ry="0.55" transform="translate(-14.6 109.94) rotate(-72.96)"/><polygon class="p10j-7" points="58.4 68.2 79.98 68.2 69.19 50 58.4 68.2"/><path class="p10j-8" d="M82.34,69.55H56L69.19,47.37ZM60.77,66.88H77.62L69.2,52.68Z"/><path class="p10j-9" d="M69.35,56.16a10.2,10.2,0,0,0-1,3c0,1,1.77,1.43,1.77,2.84s-3.33,2.77-3.33,2.77"/><path class="p10j-9" d="M69.54,56.16a6.07,6.07,0,0,0-.77,2.31c0,1,2.36.89,2.8,2.76.33,1.39-1.17,3.57-1.17,3.57"/></svg>