<svg id="Calque_17" data-name="Calque 17" xmlns="http://www.w3.org/2000/svg" viewBox="0 0 85.23 85.24" width="50" height="50"><defs><style>.p12j-1{fill:#eeeb61;opacity:0.51;isolation:isolate;}.p12j-2{fill:#f5b21a;stroke:#fde901;stroke-miterlimit:10;}.p12j-3{opacity:0.3;}.p12j-4{fill:#231f20;}.p12j-5{fill:#d8d9d8;}.p12j-6{fill:#79ccf1;}.p12j-7{fill:#fff;}</style></defs><title>17Plan de travail 1</title><circle class="p12j-1" cx="58.46" cy="32.24" r="20.16" transform="translate(25.48 90.28) rotate(-89.27)"/><circle class="p12j-2" cx="58.46" cy="32.24" r="15.38"/><g class="p12j-3"><path class="p12j-4" d="M68.75,41.86a14.77,14.77,0,0,0-27.08,4.88A8.62,8.62,0,0,1,48.33,51l-1.14.64c-2-3.42-5.82-3.85-8.47-3.67a8.52,8.52,0,0,0,3,16.48h25.7a11.37,11.37,0,0,0,1.25-22.59Z"/><path class="p12j-4" d="M33,35.88a9.29,9.29,0,0,0-9.3-7.65,9.56,9.56,0,0,0-7.5,3.57c2,.32,4.53,1.21,5.63,3.64L20.63,36c-1.36-3-6-3.1-6.71-3.1a6.94,6.94,0,0,0-4.7,6.46,7.08,7.08,0,0,0,7.23,6.93h16.4A5.21,5.21,0,1,0,33,35.85h0Z"/></g><path class="p12j-5" d="M66.13,39.24a14.77,14.77,0,0,0-27.08,4.89,8.62,8.62,0,0,1,6.64,4.21L44.55,49c-2-3.42-5.82-3.85-8.47-3.67a8.52,8.52,0,0,0,3,16.48H64.85a11.37,11.37,0,0,0,1.23-22.58Z"/><path class="p12j-5" d="M30.37,33.26a9.29,9.29,0,0,0-9.3-7.65,9.56,9.56,0,0,0-7.5,3.57c2,.32,4.53,1.21,5.63,3.64L18,33.36c-1.36-3-6-3.1-6.71-3.1a6.94,6.94,0,0,0-4.7,6.46,7.08,7.08,0,0,0,7.23,6.93H30.27a5.21,5.21,0,1,0,.13-10.42h0Z"/><rect class="p12j-6" x="42.15" y="68.47" width="7.44" height="1.93" rx="0.55" ry="0.55" transform="translate(-33.96 92.94) rotate(-72.96)"/><rect class="p12j-6" x="51.79" y="68.47" width="7.46" height="1.94" rx="0.55" ry="0.55" transform="translate(-27.01 102.5) rotate(-73.19)"/><rect class="p12j-6" x="31.85" y="68.47" width="7.44" height="1.93" rx="0.55" ry="0.55" transform="translate(-41.25 83.1) rotate(-72.96)"/><rect class="p12j-6" x="61.75" y="68.47" width="7.46" height="1.94" rx="0.55" ry="0.55" transform="translate(-19.93 112.04) rotate(-73.19)"/><rect class="p12j-6" x="70.77" y="68.47" width="7.46" height="1.94" rx="0.55" ry="0.55" transform="translate(-13.52 120.67) rotate(-73.19)"/><rect class="p12j-7" x="46.83" y="68.46" width="7.44" height="1.93" rx="0.55" ry="0.55" transform="matrix(0.29, -0.96, 0.96, 0.29, -30.64, 97.41)"/><rect class="p12j-7" x="56.79" y="68.47" width="7.44" height="1.93" rx="0.55" ry="0.55" transform="translate(-23.61 106.94) rotate(-72.96)"/><rect class="p12j-7" x="37.08" y="68.46" width="7.44" height="1.93" rx="0.55" ry="0.55" transform="translate(-37.54 88.1) rotate(-72.96)"/><rect class="p12j-7" x="66.28" y="68.47" width="7.44" height="1.93" rx="0.55" ry="0.55" transform="translate(-16.9 116.01) rotate(-72.96)"/></svg>