<svg id="Calque_18" data-name="Calque 18" xmlns="http://www.w3.org/2000/svg" viewBox="0 0 85.23 85.24" width="50" height="50"><defs><style>.p12n-1{fill:#44454e;opacity:0.25;}.p12n-1,.p12n-3{isolation:isolate;}.p12n-2{fill:#fff;}.p12n-3{fill:#636573;opacity:0.18;}.p12n-4{fill:#fdfcea;}.p12n-5{opacity:0.3;}.p12n-6{fill:#231f20;}.p12n-7{fill:#d8d9d8;}.p12n-8{fill:#79ccf1;}</style></defs><title>18Plan de travail 1</title><circle class="p12n-1" cx="51.55" cy="33.04" r="20.24"/><path class="p12n-2" d="M60.66,35.69a.8.8,0,0,0,.79-.79h0V32.25a.79.79,0,1,0-1.57-.18.54.54,0,0,0,0,.18v2.69a.79.79,0,0,0,.78.8h0Z"/><path class="p12n-2" d="M62.8,33.55a.79.79,0,0,0-.79-.79H59.36a.79.79,0,0,0-.17,1.57H62a.81.81,0,0,0,.8-.78h0Z"/><path class="p12n-2" d="M35.25,22.47a.8.8,0,0,0,.79-.79h0V19a.79.79,0,1,0-1.57-.18.54.54,0,0,0,0,.18v2.65a.79.79,0,0,0,.78.8h0Z"/><path class="p12n-2" d="M37.39,20.33a.79.79,0,0,0-.79-.79H34a.79.79,0,0,0-.17,1.57h2.85a.81.81,0,0,0,.8-.78h0Z"/><path class="p12n-2" d="M57.5,20.33a.8.8,0,0,0,.79-.79h0v-2.6a.79.79,0,1,0-1.57-.18.54.54,0,0,0,0,.18v2.65a.79.79,0,0,0,.78.8h0Z"/><path class="p12n-2" d="M59.64,18.19a.79.79,0,0,0-.79-.79H56.2A.79.79,0,0,0,56,19h2.83a.81.81,0,0,0,.8-.78h0Z"/><path class="p12n-3" d="M51.86,18.7a14.49,14.49,0,0,1,5-.27,14.42,14.42,0,0,0,6.19,26.4A14.44,14.44,0,1,1,47.16,20.71,14.2,14.2,0,0,1,51.86,18.7Z"/><path class="p12n-4" d="M47.92,20a13.54,13.54,0,0,1,4.75-.25,13.62,13.62,0,0,0,5.84,24.89A13.64,13.64,0,1,1,47.86,19.94Z"/><g class="p12n-5"><path class="p12n-6" d="M68.94,41.94a14.77,14.77,0,0,0-27,4.91,8.62,8.62,0,0,1,6.64,4.21l-1.14.64c-2-3.42-5.82-3.85-8.47-3.67a8.52,8.52,0,0,0,3,16.48H67.7a11.37,11.37,0,0,0,1.23-22.57Z"/><path class="p12n-6" d="M33.18,35.94a9.29,9.29,0,0,0-9.32-7.61,9.53,9.53,0,0,0-7.5,3.57c2,.32,4.53,1.21,5.63,3.64l-1.19.54c-1.36-3-6-3.1-6.71-3.1a6.92,6.92,0,0,0-4.7,6.46,7.07,7.07,0,0,0,7.22,6.93H33A5.21,5.21,0,0,0,33.15,36Z"/></g><path class="p12n-7" d="M66.32,39.33a14.77,14.77,0,0,0-27.08,4.91,8.62,8.62,0,0,1,6.64,4.21l-1.14.64c-2-3.42-5.82-3.85-8.47-3.67a8.52,8.52,0,0,0,3,16.48H65a11.37,11.37,0,0,0,1.23-22.57Z"/><path class="p12n-7" d="M30.56,33.33a9.3,9.3,0,0,0-9.3-7.65,9.53,9.53,0,0,0-7.5,3.57c2,.32,4.53,1.21,5.63,3.64l-1.19.54c-1.36-3-6-3.1-6.71-3.1a6.92,6.92,0,0,0-4.7,6.46A7.07,7.07,0,0,0,14,43.72H30.46a5.21,5.21,0,0,0,.13-10.42Z"/><rect class="p12n-8" x="40.72" y="67.71" width="7.44" height="1.93" rx="0.55" ry="0.55" transform="translate(-34.24 91.04) rotate(-72.96)"/><rect class="p12n-8" x="51.03" y="67.77" width="7.44" height="1.93" rx="0.55" ry="0.55" transform="translate(-27.01 100.94) rotate(-72.96)"/><rect class="p12n-8" x="30.4" y="67.71" width="7.44" height="1.93" rx="0.55" ry="0.55" transform="translate(-41.54 81.17) rotate(-72.96)"/><rect class="p12n-8" x="61.05" y="67.71" width="7.44" height="1.93" rx="0.55" ry="0.55" transform="translate(-19.87 110.48) rotate(-72.96)"/><rect class="p12n-8" x="71.18" y="67.71" width="7.44" height="1.93" rx="0.55" ry="0.55" transform="translate(-12.71 120.16) rotate(-72.96)"/><rect class="p12n-2" x="45.96" y="67.71" width="7.44" height="1.93" rx="0.55" ry="0.55" transform="translate(-30.54 96.05) rotate(-72.96)"/><rect class="p12n-2" x="35.73" y="67.7" width="7.44" height="1.93" rx="0.55" ry="0.55" transform="matrix(0.29, -0.96, 0.96, 0.29, -37.76, 86.26)"/><rect class="p12n-2" x="66.43" y="67.75" width="7.46" height="1.94" rx="0.55" ry="0.55" transform="translate(-15.91 116.01) rotate(-73.19)"/><rect class="p12n-2" x="56.18" y="67.74" width="7.46" height="1.94" rx="0.55" ry="0.55" transform="translate(-23.19 106.18) rotate(-73.19)"/></svg>