<svg width="86" height="86" viewBox="0 0 86 86" fill="none" xmlns="http://www.w3.org/2000/svg">
<g opacity="0.3">
<path d="M68.8998 34.4C64.5998 27.5 55.4998 25.4 48.4998 29.7C45.0998 31.9 42.6998 35.3 41.8998 39.3C44.6998 39.6 47.0998 41.1 48.4998 43.5L47.3998 44.1C45.3998 40.7 41.5998 40.3 38.8998 40.4C34.4998 42.1 32.2998 47 33.9998 51.4C35.2998 54.7 38.3998 56.9 41.8998 56.9H67.5998C73.8998 56.6 78.6998 51.2 78.3998 45C78.1998 39.7 74.1998 35.3 68.8998 34.4Z" fill="#231F20"/>
<path d="M33.1999 28.4C32.3999 23.9 28.3999 20.7 23.8999 20.8C20.9999 20.8 18.1999 22.1 16.3999 24.4C18.3999 24.7 20.8999 25.6 21.9999 28L20.7999 28.5C19.3999 25.5 14.7999 25.4 14.0999 25.4C11.2999 26.3 9.3999 28.9 9.3999 31.9C9.4999 35.8 12.6999 38.9 16.5999 38.8H32.9999C35.8999 38.8 38.1999 36.5 38.2999 33.7C38.2999 30.8 35.9999 28.5 33.1999 28.4Z" fill="#231F20"/>
</g>
<path d="M66.3001 31.8C62.0001 24.8 52.9001 22.7 46.0001 26.9C42.5001 29.1 40.0001 32.6 39.2001 36.6C42.0001 36.9 44.4001 38.4 45.8001 40.8L44.7001 41.4C42.7001 38 38.9001 37.6 36.2001 37.7C31.8001 39.4 29.6001 44.3 31.3001 48.7C32.6001 52 35.7001 54.2 39.2001 54.2H65.0001C71.3001 53.8 76.0001 48.4 75.6001 42.1C75.3001 37.1 71.4001 32.7 66.3001 31.8Z" fill="#D8D9D8"/>
<path d="M30.5 25.8C29.7 21.3 25.8 18.1 21.2 18.2C18.3 18.2 15.5 19.5 13.7 21.8C15.7 22.1 18.2 23 19.3 25.4L18.1 25.9C16.7 22.9 12.1 22.8 11.4 22.8C8.59995 23.7 6.69995 26.3 6.69995 29.3C6.79995 33.2 9.99995 36.3 13.9 36.2H30.2999C33.1999 36.2 35.4999 33.9 35.5999 31.1C35.6999 28.2 33.4 25.8 30.5 25.8Z" fill="#D8D9D8"/>
<path d="M41.3 66.1L43.2001 60C43.3001 59.7 43.6001 59.5 43.9001 59.6L44.7001 59.8C45.0001 59.9 45.2 60.2 45.1 60.5L43.2001 66.6C43.1001 66.9 42.8 67.1 42.5 67L41.7001 66.8C41.4001 66.7 41.3 66.4 41.3 66.1Z" fill="#79CCF1"/>
<path d="M51.6001 66.1L53.5001 60C53.6001 59.7 53.9001 59.5 54.2001 59.6L55.0001 59.8C55.3001 59.9 55.5001 60.2 55.4001 60.5L53.5001 66.6C53.4001 66.9 53.1001 67.1 52.8001 67L52.0001 66.8C51.7001 66.7 51.6001 66.4 51.6001 66.1Z" fill="#79CCF1"/>
<path d="M30.9999 66.1L32.8999 60C32.9999 59.7 33.2999 59.5 33.5999 59.6L34.3999 59.8C34.6999 59.9 34.8999 60.2 34.7999 60.5L32.8999 66.6C32.7999 66.9 32.4999 67.1 32.1999 67L31.3999 66.8C31.0999 66.7 30.8999 66.4 30.9999 66.1Z" fill="#79CCF1"/>
<path d="M61.7001 66.1L63.6001 60C63.7001 59.7 64.0001 59.5 64.3001 59.6L65.1001 59.8C65.4001 59.9 65.6001 60.2 65.5001 60.5L63.6001 66.6C63.5001 66.9 63.2001 67.1 62.9001 67L62.0001 66.8C61.7001 66.7 61.6001 66.4 61.7001 66.1Z" fill="#79CCF1"/>
<path d="M71.7999 66.1L73.6999 60C73.7999 59.7 74.0999 59.5 74.3999 59.6L75.1999 59.8C75.4999 59.9 75.6999 60.2 75.5999 60.5L73.6999 66.6C73.5999 66.9 73.2999 67.1 72.9999 67L72.1999 66.8C71.8999 66.7 71.6999 66.4 71.7999 66.1Z" fill="#79CCF1"/>
<path d="M46.6 66.1L48.5 60C48.6 59.7 48.9 59.5 49.2 59.6L50 59.8C50.3 59.9 50.5 60.2 50.4 60.5L48.5 66.6C48.4 66.9 48.1 67.1 47.8 67L47 66.8C46.6 66.7 46.5 66.4 46.6 66.1Z" fill="white"/>
<path d="M36.3 66.1L38.2001 60C38.3001 59.7 38.6001 59.5 38.9001 59.6L39.7001 59.8C40.0001 59.9 40.2 60.2 40.1 60.5L38.2001 66.6C38.1001 66.9 37.8 67.1 37.5 67L36.7001 66.8C36.4001 66.7 36.3 66.3 36.3 66.1Z" fill="white"/>
<path d="M67.1 66.1L68.9 60C69 59.7 69.3 59.5 69.6 59.6L70.4 59.8C70.7 59.9 70.9 60.2 70.8 60.5L69 66.6C68.9 66.9 68.6 67.1 68.3 67L67.5 66.8C67.1 66.7 67 66.4 67.1 66.1Z" fill="white"/>
<path d="M56.7999 66.1L58.5999 60C58.6999 59.7 58.9999 59.5 59.2999 59.6L60.0999 59.8C60.3999 59.9 60.5999 60.2 60.4999 60.5L58.6999 66.6C58.5999 66.9 58.2999 67.1 57.9999 67L57.1999 66.8C56.8999 66.7 56.6999 66.4 56.7999 66.1Z" fill="white"/>
</svg>
