<?xml version="1.0" encoding="utf-8"?>
<!-- Generator: Adobe Illustrator 24.0.2, SVG Export Plug-In . SVG Version: 6.00 Build 0)  -->
<svg version="1.1" id="Calque_22" xmlns="http://www.w3.org/2000/svg" xmlns:xlink="http://www.w3.org/1999/xlink" width="50" height="50" x="0px" y="0px"
	 viewBox="0 0 85.2 85.2" style="enable-background:new 0 0 85.2 85.2;" xml:space="preserve">
<style type="text/css">
	.p14n-0{opacity:0.3;}
	.p14n-1{fill:#231F20;}
	.p14n-2{fill:#D8D9D8;}
	.p14n-3{fill:#79CCF1;}
	.p14n-4{fill:#FFFFFF;}
</style>
<title>22Plan de travail 1</title>
<g class="p14n-0">
	<path class="p14n-1" d="M68.9,31.4c-4.3-6.9-13.4-9-20.4-4.7c-3.4,2.2-5.8,5.6-6.6,9.6c2.8,0.3,5.2,1.8,6.6,4.2l-1.1,0.6
		c-2-3.4-5.8-3.8-8.5-3.7c-4.4,1.7-6.6,6.6-4.9,11c1.3,3.3,4.4,5.5,7.9,5.5h25.7c6.3-0.3,11.1-5.7,10.8-11.9
		C78.2,36.7,74.2,32.3,68.9,31.4L68.9,31.4z"/>
	<path class="p14n-1" d="M33.2,25.5c-0.8-4.5-4.7-7.7-9.3-7.6c-2.9,0-5.7,1.3-7.5,3.6c2,0.3,4.5,1.2,5.6,3.6l-1.2,0.5
		c-1.4-3-6-3.1-6.7-3.1c-2.8,1-4.6,3.5-4.7,6.5c0.1,3.9,3.3,7,7.2,6.9c0,0,0,0,0,0H33c2.9,0,5.2-2.3,5.3-5.1
		C38.3,27.8,36,25.5,33.2,25.5L33.2,25.5z"/>
</g>
<path class="p14n-2" d="M66.3,28.9C62,21.9,52.9,19.8,46,24c-3.5,2.2-6,5.7-6.7,9.7c2.8,0.3,5.2,1.8,6.6,4.2l-1.1,0.6
	c-2-3.4-5.8-3.8-8.5-3.7c-4.4,1.7-6.6,6.6-4.9,11c1.3,3.3,4.4,5.5,7.9,5.5H65c6.3-0.4,11-5.8,10.7-12C75.4,34.2,71.5,29.8,66.3,28.9
	L66.3,28.9z"/>
<path class="p14n-2" d="M30.5,22.9c-0.8-4.5-4.7-7.7-9.3-7.6c-2.9,0-5.7,1.3-7.5,3.6c2,0.3,4.5,1.2,5.6,3.6L18.2,23
	c-1.4-3-6-3.1-6.7-3.1c-2.8,1-4.6,3.5-4.7,6.5c0.1,3.9,3.3,7,7.2,6.9h16.4c2.9,0,5.2-2.3,5.3-5.1C35.7,25.2,33.4,22.9,30.5,22.9
	L30.5,22.9z"/>
<path class="p14n-3" d="M36.7,60.7l1.3-4.8c0.1-0.5,0.7-0.9,1.2-0.7c0,0,0,0,0,0l0,0c0.5,0.1,0.9,0.7,0.7,1.2c0,0,0,0,0,0l-1.4,4.8
	c-0.1,0.5-0.7,0.9-1.2,0.7c0,0,0,0,0,0l0,0C36.9,61.8,36.5,61.3,36.7,60.7C36.7,60.8,36.7,60.7,36.7,60.7z"/>
<path class="p14n-3" d="M34.3,68.7l1.3-4.8c0.1-0.5,0.7-0.9,1.2-0.7c0,0,0,0,0,0l0,0c0.5,0.1,0.9,0.7,0.7,1.2c0,0,0,0,0,0l-1.4,4.8
	c-0.1,0.5-0.7,0.8-1.2,0.7c0,0,0,0,0,0l0,0C34.5,69.8,34.2,69.3,34.3,68.7C34.3,68.7,34.3,68.7,34.3,68.7z"/>
<path class="p14n-3" d="M47.7,60.7l1.4-4.8c0.1-0.5,0.7-0.9,1.2-0.7c0,0,0,0,0,0l0,0c0.5,0.1,0.9,0.7,0.7,1.2c0,0,0,0,0,0l-1.3,4.8
	c-0.1,0.5-0.7,0.9-1.2,0.7c0,0,0,0,0,0l0,0C47.9,61.8,47.5,61.3,47.7,60.7C47.7,60.8,47.7,60.7,47.7,60.7z"/>
<path class="p14n-3" d="M45.4,68.7l1.3-4.8c0.1-0.5,0.7-0.9,1.2-0.7c0,0,0,0,0,0l0,0c0.5,0.1,0.9,0.7,0.7,1.2c0,0,0,0,0,0l-1.4,4.8
	c-0.1,0.5-0.7,0.8-1.2,0.7c0,0,0,0,0,0l0,0C45.5,69.8,45.2,69.3,45.4,68.7C45.4,68.7,45.4,68.7,45.4,68.7z"/>
<path class="p14n-3" d="M58.7,60.7l1.4-4.8c0.1-0.5,0.7-0.8,1.2-0.7c0,0,0,0,0,0l0,0c0.5,0.1,0.8,0.7,0.7,1.2c0,0,0,0,0,0l-1.3,4.8
	c-0.1,0.5-0.7,0.9-1.2,0.7c0,0,0,0,0,0l0,0C58.9,61.8,58.6,61.3,58.7,60.7C58.7,60.8,58.7,60.8,58.7,60.7z"/>
<path class="p14n-3" d="M56.4,68.7l1.3-4.8c0.1-0.5,0.7-0.9,1.2-0.7c0,0,0,0,0,0l0,0c0.5,0.1,0.8,0.7,0.7,1.2c0,0,0,0,0,0l-1.4,4.8
	c-0.1,0.5-0.7,0.8-1.2,0.7c0,0,0,0,0,0l0,0C56.5,69.8,56.2,69.3,56.4,68.7C56.4,68.7,56.4,68.7,56.4,68.7z"/>
<path class="p14n-3" d="M72.3,55.2L72.3,55.2c0.5,0.2,0.8,0.7,0.7,1.2l0,0l-1.4,4.8c-0.1,0.5-0.7,0.8-1.2,0.7l0,0
	c-0.5-0.1-0.8-0.7-0.7-1.2l0,0l1.4-4.8C71.2,55.4,71.8,55.1,72.3,55.2C72.3,55.2,72.3,55.2,72.3,55.2L72.3,55.2z"/>
<path class="p14n-3" d="M70,63.2L70,63.2c0.5,0.1,0.9,0.7,0.7,1.2c0,0,0,0,0,0l0,0l-1.4,4.8c-0.1,0.5-0.7,0.8-1.2,0.7l0,0
	c-0.5-0.1-0.8-0.7-0.7-1.2l0,0l1.4-4.8C68.9,63.4,69.5,63.1,70,63.2C70,63.2,70,63.2,70,63.2L70,63.2z"/>
<path class="p14n-4" d="M67.3,55.2L67.3,55.2c0.5,0.1,0.8,0.7,0.7,1.2c0,0,0,0,0,0l0,0l-1.4,4.8c-0.1,0.5-0.7,0.8-1.2,0.7l0,0
	c-0.5-0.1-0.8-0.7-0.7-1.2l0,0l1.4-4.8C66.2,55.4,66.8,55.1,67.3,55.2C67.3,55.2,67.3,55.2,67.3,55.2L67.3,55.2z"/>
<path class="p14n-4" d="M65,63.2L65,63.2c0.5,0.1,0.9,0.7,0.7,1.2c0,0,0,0,0,0l0,0l-1.4,4.8c-0.1,0.5-0.7,0.8-1.2,0.7l0,0
	c-0.5-0.1-0.8-0.7-0.7-1.2l0,0l1.4-4.8C63.9,63.4,64.5,63.1,65,63.2C65,63.2,65,63.2,65,63.2L65,63.2z"/>
<path class="p14n-4" d="M53.7,60.7l1.3-4.8c0.1-0.5,0.7-0.8,1.2-0.7c0,0,0,0,0,0l0,0c0.5,0.1,0.8,0.7,0.7,1.2c0,0,0,0,0,0l-1.4,4.8
	c-0.1,0.5-0.7,0.8-1.2,0.7c0,0,0,0,0,0l0,0C53.9,61.8,53.6,61.3,53.7,60.7C53.7,60.7,53.7,60.7,53.7,60.7z"/>
<path class="p14n-4" d="M51.4,68.7l1.3-4.8c0.1-0.5,0.7-0.9,1.2-0.7c0,0,0,0,0,0l0,0c0.5,0.1,0.9,0.7,0.7,1.2c0,0,0,0,0,0l-1.4,4.8
	c-0.1,0.5-0.7,0.8-1.2,0.7c0,0,0,0,0,0l0,0C51.5,69.8,51.2,69.3,51.4,68.7C51.4,68.7,51.4,68.7,51.4,68.7z"/>
<path class="p14n-4" d="M42.7,60.7l1.4-4.8c0.1-0.5,0.7-0.9,1.2-0.7c0,0,0,0,0,0l0,0c0.5,0.1,0.9,0.7,0.7,1.2c0,0,0,0,0,0l-1.3,4.8
	c-0.1,0.5-0.7,0.9-1.2,0.7c0,0,0,0,0,0l0,0C42.9,61.8,42.5,61.3,42.7,60.7C42.7,60.8,42.7,60.7,42.7,60.7z"/>
<path class="p14n-4" d="M40.3,68.7l1.3-4.8c0.1-0.5,0.7-0.9,1.2-0.7c0,0,0.1,0,0.1,0l0,0c0.5,0.1,0.8,0.7,0.7,1.2c0,0,0,0,0,0l-1.4,4.8
	c-0.1,0.5-0.7,0.8-1.2,0.7c0,0,0,0,0,0l0,0C40.6,69.9,40.2,69.3,40.3,68.7C40.3,68.8,40.3,68.7,40.3,68.7z"/>
</svg>
