<svg width="86" height="86" viewBox="0 0 86 86" fill="none" xmlns="http://www.w3.org/2000/svg">
<g opacity="0.3">
<path d="M68.8998 31.4C64.5998 24.5 55.4998 22.4 48.4998 26.7C45.0998 28.9 42.6998 32.3 41.8998 36.3C44.6998 36.6 47.0998 38.1 48.4998 40.5L47.3998 41.1C45.3998 37.7 41.5998 37.3 38.8998 37.4C34.4998 39.1 32.2998 44 33.9998 48.4C35.2998 51.7 38.3998 53.9 41.8998 53.9H67.5998C73.8998 53.6 78.6998 48.2 78.3998 42C78.1998 36.7 74.1998 32.3 68.8998 31.4Z" fill="#231F20"/>
<path d="M33.1999 25.5C32.3999 21 28.4999 17.8 23.8999 17.9C20.9999 17.9 18.1999 19.2 16.3999 21.5C18.3999 21.8 20.8999 22.7 21.9999 25.1L20.7999 25.6C19.3999 22.6 14.7999 22.5 14.0999 22.5C11.2999 23.5 9.4999 26 9.3999 29C9.4999 32.9 12.6999 36 16.5999 35.9H32.9999C35.8999 35.9 38.1999 33.6 38.2999 30.8C38.2999 27.8 35.9999 25.5 33.1999 25.5Z" fill="#231F20"/>
</g>
<path d="M66.3 28.9C62 21.9 52.9 19.8 46 24C42.5 26.2 40 29.7 39.3 33.7C42.1 34 44.5 35.5 45.9 37.9L44.8 38.5C42.8 35.1 39 34.7 36.3 34.8C31.9 36.5 29.7 41.4 31.4 45.8C32.7 49.1 35.8 51.3 39.3 51.3H65C71.3 50.9 76 45.5 75.7 39.3C75.4 34.2 71.5 29.8 66.3 28.9Z" fill="#D8D9D8"/>
<path d="M30.5 22.9C29.7 18.4 25.8 15.2 21.2 15.3C18.3 15.3 15.5 16.6 13.7 18.9C15.7 19.2 18.2 20.1 19.3 22.5L18.2 23C16.8 20 12.2 19.9 11.5 19.9C8.70005 20.9 6.90005 23.4 6.80005 26.4C6.90005 30.3 10.1 33.4 14 33.3H30.4C33.3 33.3 35.6001 31 35.7001 28.2C35.7001 25.2 33.4 22.9 30.5 22.9Z" fill="#D8D9D8"/>
<path d="M36.6999 60.7L37.9999 55.9C38.0999 55.4 38.6999 55 39.1999 55.2C39.6999 55.3 40.0999 55.9 39.8999 56.4L38.4999 61.2C38.3999 61.7 37.7999 62.1 37.2999 61.9C36.8999 61.8 36.4999 61.3 36.6999 60.7Z" fill="#79CCF1"/>
<path d="M34.2999 68.7L35.5999 63.9C35.6999 63.4 36.2999 63 36.7999 63.2C37.2999 63.3 37.6999 63.9 37.4999 64.4L36.0999 69.2C35.9999 69.7 35.3999 70 34.8999 69.9C34.4999 69.8 34.1999 69.3 34.2999 68.7Z" fill="#79CCF1"/>
<path d="M47.7 60.7L49.1 55.9C49.2 55.4 49.8 55 50.3 55.2C50.8 55.3 51.2 55.9 51 56.4L49.7 61.2C49.6 61.7 49 62.1 48.5 61.9C47.9 61.8 47.5 61.3 47.7 60.7Z" fill="#79CCF1"/>
<path d="M45.4 68.7L46.7 63.9C46.8 63.4 47.4 63 47.9 63.2C48.4 63.3 48.8 63.9 48.6 64.4L47.2 69.2C47.1 69.7 46.5 70 46 69.9C45.5 69.8 45.2 69.3 45.4 68.7Z" fill="#79CCF1"/>
<path d="M58.7001 60.7L60.1001 55.9C60.2001 55.4 60.8001 55.1 61.3001 55.2C61.8001 55.3 62.1001 55.9 62.0001 56.4L60.7001 61.2C60.6001 61.7 60.0001 62.1 59.5001 61.9C58.9001 61.8 58.6001 61.3 58.7001 60.7C58.7001 60.8 58.7001 60.8 58.7001 60.7Z" fill="#79CCF1"/>
<path d="M56.4 68.7L57.7 63.9C57.8 63.4 58.4 63 58.9 63.2C59.4 63.3 59.7 63.9 59.6 64.4L58.2 69.2C58.1 69.7 57.5 70 57 69.9C56.5 69.8 56.2 69.3 56.4 68.7Z" fill="#79CCF1"/>
<path d="M72.3001 55.2C72.8001 55.4 73.1001 55.9 73.0001 56.4L71.6001 61.2C71.5001 61.7 70.9001 62 70.4001 61.9C69.9001 61.8 69.6001 61.2 69.7001 60.7L71.1001 55.9C71.2001 55.4 71.8001 55.1 72.3001 55.2Z" fill="#79CCF1"/>
<path d="M70 63.2C70.5 63.3 70.9 63.9 70.7 64.4L69.3 69.2C69.2 69.7 68.6 70 68.1 69.9C67.6 69.8 67.3 69.2 67.4 68.7L68.8 63.9C68.9 63.4 69.5 63.1 70 63.2Z" fill="#79CCF1"/>
<path d="M67.3001 55.2C67.8001 55.3 68.1001 55.9 68.0001 56.4L66.6001 61.2C66.5001 61.7 65.9001 62 65.4001 61.9C64.9001 61.8 64.6001 61.2 64.7001 60.7L66.1001 55.9C66.2001 55.4 66.8001 55.1 67.3001 55.2Z" fill="white"/>
<path d="M65 63.2C65.5 63.3 65.9 63.9 65.7 64.4L64.3 69.2C64.2 69.7 63.6 70 63.1 69.9C62.6 69.8 62.3 69.2 62.4 68.7L63.8 63.9C63.9 63.4 64.5 63.1 65 63.2Z" fill="white"/>
<path d="M53.7 60.7L55 55.9C55.1 55.4 55.7 55.1 56.2 55.2C56.7 55.3 57 55.9 56.9 56.4L55.5 61.2C55.4 61.7 54.8 62 54.3 61.9C53.9 61.8 53.6 61.3 53.7 60.7Z" fill="white"/>
<path d="M51.4 68.7L52.7 63.9C52.8 63.4 53.4 63 53.9 63.2C54.4 63.3 54.8 63.9 54.6 64.4L53.2 69.2C53.1 69.7 52.5 70 52 69.9C51.5 69.8 51.2 69.3 51.4 68.7Z" fill="white"/>
<path d="M42.7 60.7L44.1 55.9C44.2 55.4 44.8 55 45.3 55.2C45.8 55.3 46.2 55.9 46 56.4L44.7 61.2C44.6 61.7 44 62.1 43.5 61.9C42.9 61.8 42.5 61.3 42.7 60.7Z" fill="white"/>
<path d="M40.3 68.7L41.6 63.9C41.7 63.4 42.3 63 42.8 63.2H42.9C43.4 63.3 43.7 63.9 43.6 64.4L42.2 69.2C42.1 69.7 41.5 70 41 69.9C40.6 69.9 40.2 69.3 40.3 68.7Z" fill="white"/>
</svg>
