<?xml version="1.0" encoding="utf-8"?>
<!-- Generator: Adobe Illustrator 24.0.2, SVG Export Plug-In . SVG Version: 6.00 Build 0)  -->
<svg version="1.1" id="Calque_26" xmlns="http://www.w3.org/2000/svg" xmlns:xlink="http://www.w3.org/1999/xlink" width="50" height="50" x="0px" y="0px"
	 viewBox="0 0 85.2 85.2" style="enable-background:new 0 0 85.2 85.2;" xml:space="preserve">
<style type="text/css">
	.p16n-0{fill:#79CCF1;}
	.p16n-1{fill:#FFFFFF;}
	.p16n-2{opacity:0.3;}
	.p16n-3{fill:#231F20;}
	.p16n-4{fill:#D8D9D8;}
	.p16n-5{fill:#FDDA00;}
	.p16n-6{fill:#F47A20;}
</style>
<title>26Plan de travail 1</title>
<path class="p16n-0" d="M40.8,69.2l4.9-14.1c0.1-0.3,0.4-0.4,0.7-0.3l0.8,0.2c0.3,0,0.4,0.3,0.4,0.5c0,0,0,0,0,0l0,0l-4.9,14.1
	c-0.1,0.3-0.4,0.4-0.7,0.3l-0.8-0.2C40.9,69.7,40.8,69.4,40.8,69.2L40.8,69.2z"/>
<path class="p16n-0" d="M53,69.2l4.9-14.1c0.1-0.3,0.4-0.4,0.7-0.3l0.8,0.2c0.3,0,0.4,0.3,0.4,0.5c0,0,0,0,0,0l0,0l-4.9,14.1
	c-0.1,0.3-0.4,0.4-0.7,0.3l-0.8-0.2C53.1,69.7,52.9,69.4,53,69.2L53,69.2L53,69.2z"/>
<path class="p16n-0" d="M29.3,69.2l4.9-14.1c0.1-0.3,0.4-0.4,0.7-0.3l0.8,0.2c0.3,0,0.4,0.3,0.4,0.5c0,0,0,0,0,0l0,0l-4.9,14.1
	c-0.1,0.3-0.4,0.4-0.7,0.3l-0.8-0.2C29.4,69.7,29.2,69.4,29.3,69.2L29.3,69.2z"/>
<path class="p16n-0" d="M64.6,69.2l4.9-14.1c0.1-0.3,0.4-0.4,0.7-0.3L71,55c0.3,0,0.4,0.3,0.4,0.5c0,0,0,0,0,0l0,0l-4.9,14
	c-0.1,0.3-0.4,0.4-0.7,0.3L65,69.7C64.7,69.7,64.6,69.4,64.6,69.2L64.6,69.2z"/>
<path class="p16n-1" d="M46.8,69.2l5-14.1c0.1-0.3,0.4-0.4,0.7-0.3l0.8,0.2c0.3,0,0.4,0.3,0.4,0.5c0,0,0,0,0,0l0,0l-4.9,14.1
	c-0.1,0.3-0.4,0.4-0.7,0.3l-0.8-0.2C47,69.7,46.8,69.5,46.8,69.2C46.8,69.2,46.8,69.1,46.8,69.2L46.8,69.2z"/>
<path class="p16n-1" d="M59,69.2l4.9-14.1c0.1-0.3,0.4-0.4,0.7-0.3l0.8,0.2c0.3,0,0.4,0.3,0.4,0.5c0,0,0,0,0,0l0,0l-5,14.1
	c-0.1,0.3-0.4,0.4-0.7,0.3l-0.8-0.2C59,69.7,58.9,69.4,59,69.2L59,69.2L59,69.2z"/>
<path class="p16n-1" d="M35.3,69.2l4.9-14.1c0.1-0.3,0.4-0.4,0.7-0.3l0.8,0.2c0.3,0,0.4,0.3,0.4,0.5c0,0,0,0,0,0l0,0l-4.9,14.1
	c-0.1,0.3-0.4,0.4-0.7,0.3l-0.8-0.2C35.4,69.7,35.2,69.4,35.3,69.2L35.3,69.2z"/>
<path class="p16n-1" d="M70.6,69.2l4.9-14.1c0.1-0.3,0.4-0.4,0.7-0.3l0.8,0.2c0.3,0,0.4,0.3,0.4,0.5c0,0,0,0,0,0l0,0l-4.9,14.1
	c-0.1,0.3-0.4,0.4-0.7,0.3L71,69.7C70.7,69.7,70.6,69.4,70.6,69.2L70.6,69.2z"/>
<g class="p16n-2">
	<path class="p16n-3" d="M68.9,31.5c-4.3-6.9-13.4-9-20.4-4.7c-3.4,2.2-5.8,5.6-6.6,9.6c2.8,0.3,5.2,1.8,6.6,4.2l-1.1,0.6
		c-2-3.4-5.8-3.8-8.5-3.7c-4.4,1.7-6.6,6.6-4.9,11c1.3,3.3,4.4,5.5,7.9,5.5h25.7c6.3-0.3,11.1-5.7,10.8-11.9
		C78.2,36.8,74.2,32.4,68.9,31.5L68.9,31.5z"/>
	<path class="p16n-3" d="M33.2,25.6c-0.8-4.5-4.8-7.7-9.3-7.6c-2.9,0-5.7,1.3-7.5,3.6c2,0.3,4.5,1.2,5.6,3.6l-1.2,0.5
		c-1.4-3-6-3.1-6.7-3.1c-2.8,0.9-4.7,3.5-4.7,6.5c0.1,3.9,3.3,7,7.2,6.9H33c2.9,0,5.2-2.3,5.3-5.1C38.3,28,36,25.6,33.2,25.6
		L33.2,25.6L33.2,25.6z"/>
</g>
<path class="p16n-4" d="M66.3,28.9C62,21.9,52.9,19.8,46,24.1c-3.5,2.2-6,5.7-6.8,9.8c2.8,0.3,5.2,1.8,6.6,4.2l-1.1,0.6
	c-2-3.4-5.8-3.8-8.5-3.7c-4.4,1.7-6.6,6.6-4.9,11c1.3,3.3,4.4,5.5,7.9,5.5H65c6.3-0.2,11.2-5.5,11-11.8
	C75.8,34.3,71.7,29.7,66.3,28.9L66.3,28.9z"/>
<path class="p16n-4" d="M30.5,23c-0.8-4.5-4.7-7.7-9.3-7.6c-2.9,0-5.7,1.3-7.5,3.6c2,0.3,4.5,1.2,5.6,3.6l-1.2,0.5
	c-1.4-3-6-3.1-6.7-3.1c-2.8,0.9-4.7,3.5-4.7,6.5c0.1,3.9,3.3,7,7.2,6.9h16.4c2.9,0,5.2-2.3,5.3-5.1C35.7,25.3,33.4,23,30.5,23
	L30.5,23L30.5,23L30.5,23z"/>
<polygon class="p16n-5" points="52.4,38.2 60.1,38.2 57.8,44.7 61.8,44.7 51.1,65.2 53.5,50.1 50.1,50.1 "/>
<polygon class="p16n-6" points="50.8,36.7 58.6,36.7 56.3,43.1 60.3,43.1 49.5,63.7 52,48.6 48.5,48.6 "/>
</svg>
