<svg id="Calque_28" data-name="Calque 28" xmlns="http://www.w3.org/2000/svg" viewBox="0 0 85.23 85.24" width="50" height="50"><defs><style>.p17n-1{fill:#44454e;opacity:0.25;}.p17n-1,.p17n-3,.p17n-8{isolation:isolate;}.p17n-2,.p17n-8{fill:#fff;}.p17n-3{fill:#636573;opacity:0.18;}.p17n-4{fill:#fdfcea;}.p17n-5{opacity:0.3;}.p17n-6{fill:#231f20;}.p17n-7{fill:#d8d9d8;}.p17n-8{opacity:0.8;}.p17n-9{fill:#79ccf1;}</style></defs><title>28Plan de travail 1</title><circle class="p17n-1" cx="53.61" cy="31.85" r="22.87"/><path class="p17n-2" d="M63.88,34.84a.89.89,0,0,0,.89-.89h0V31A.89.89,0,1,0,63,30.76.61.61,0,0,0,63,31v3a.89.89,0,0,0,.88.9h0Z"/><path class="p17n-2" d="M66.32,32.43a.89.89,0,0,0-.89-.89h-3a.89.89,0,1,0-.19,1.77h3.22a.9.9,0,0,0,.9-.88h0Z"/><path class="p17n-2" d="M35.19,19.9a.89.89,0,0,0,.89-.89h0V16a.89.89,0,0,0-1.77-.19.61.61,0,0,0,0,.19v3a.89.89,0,0,0,.88.9h0Z"/><path class="p17n-2" d="M37.6,17.49a.89.89,0,0,0-.89-.89h-3a.89.89,0,1,0-.19,1.77h3.22a.9.9,0,0,0,.9-.88h0Z"/><path class="p17n-2" d="M60.34,17.49a.89.89,0,0,0,.89-.89h0v-3a.89.89,0,1,0-1.77-.19.61.61,0,0,0,0,.19v3a.89.89,0,0,0,.88.9h0Z"/><path class="p17n-2" d="M62.76,15.08a.89.89,0,0,0-.88-.87h-3A.89.89,0,1,0,58.69,16h3.19a.9.9,0,0,0,.9-.88h0Z"/><path class="p17n-3" d="M53.56,16.69A15.43,15.43,0,0,1,59,16.4a15.51,15.51,0,0,0,6.69,28.44A15.56,15.56,0,1,1,53.56,16.69Z"/><path class="p17n-4" d="M49.5,17.13a15.4,15.4,0,0,1,5.37-.28A15.39,15.39,0,0,0,61.5,45a15.41,15.41,0,1,1-12-27.91Z"/><g class="p17n-5"><path class="p17n-6" d="M69,44.36a14.77,14.77,0,0,0-27,4.91,8.62,8.62,0,0,1,6.64,4.21l-1.14.64c-2-3.42-5.82-3.85-8.47-3.67a8.52,8.52,0,0,0,3,16.48H67.72A11.37,11.37,0,0,0,69,44.35Z"/><path class="p17n-6" d="M33.2,38.38a9.3,9.3,0,0,0-9.3-7.65,9.53,9.53,0,0,0-7.5,3.57c2,.32,4.53,1.21,5.63,3.64l-1.19.54c-1.36-3-6-3.1-6.71-3.1a6.92,6.92,0,0,0-4.7,6.46,7.08,7.08,0,0,0,7.22,6.93H33.06a5.21,5.21,0,0,0,.13-10.42Z"/></g><path class="p17n-7" d="M66.34,41.75a14.77,14.77,0,0,0-27.08,4.91,8.62,8.62,0,0,1,6.64,4.21l-1.14.64c-2-3.42-5.82-3.85-8.47-3.67a8.52,8.52,0,0,0,3,16.48H65.06a11.37,11.37,0,0,0,1.23-22.58Z"/><path class="p17n-7" d="M30.58,35.76a9.3,9.3,0,0,0-9.3-7.65,9.53,9.53,0,0,0-7.5,3.57c2,.32,4.53,1.21,5.63,3.64l-1.19.54c-1.36-3-6-3.1-6.71-3.1a6.93,6.93,0,0,0-4.73,6.53A7.08,7.08,0,0,0,14,46.22H30.45a5.21,5.21,0,0,0,.13-10.42Z"/><circle class="p17n-8" cx="41.31" cy="66.59" r="9.69"/><path class="p17n-9" d="M48.29,69.6,43,66.6l5.28-3a.86.86,0,0,0,.31-1.16h0a.86.86,0,0,0-1.16-.31l-5.28,3V59a.86.86,0,1,0-1.71,0v6.1L35.13,62A.85.85,0,0,0,34,63.27l.16.12.15.09h0l5.28,3-5.28,3A.85.85,0,1,0,35,71h0L35.1,71h0l5.28-3v6.1a.85.85,0,0,0,.85.85.86.86,0,0,0,.86-.85h0V68l5.28,3a.86.86,0,0,0,1.16-.31h0A.87.87,0,0,0,48.29,69.6Z"/></svg>