<?xml version="1.0" encoding="utf-8"?>
<!-- Generator: Adobe Illustrator 24.0.2, SVG Export Plug-In . SVG Version: 6.00 Build 0)  -->
<svg version="1.1" id="Calque_29" xmlns="http://www.w3.org/2000/svg" xmlns:xlink="http://www.w3.org/1999/xlink" width="50" height="50" x="0px" y="0px"
	 viewBox="0 0 85.2 85.2" style="enable-background:new 0 0 85.2 85.2;" xml:space="preserve">
<style type="text/css">
	.p18bisj-0{opacity:0.3;}
	.p18bisj-1{fill:#231F20;}
	.p18bisj-2{fill:#D8D9D8;}
	.p18bisj-3{opacity:0.8;fill:#FFFFFF;enable-background:new    ;}
	.p18bisj-4{fill:#79CCF1;}
</style>
<title>29Plan de travail 1</title>
<g class="p18bisj-0">
	<path class="p18bisj-1" d="M69,34.7c-4.3-6.9-13.4-9-20.4-4.7c-3.4,2.2-5.8,5.6-6.6,9.6c2.8,0.3,5.2,1.8,6.6,4.2l-1.1,0.6
		c-2-3.4-5.8-3.8-8.5-3.7c-4.4,1.7-6.6,6.6-4.9,11c1.3,3.3,4.4,5.5,7.9,5.5h25.7C74,57,78.8,51.7,78.5,45.4
		C78.3,40.1,74.3,35.6,69,34.7L69,34.7z"/>
	<path class="p18bisj-1" d="M33.2,28.8c-0.8-4.5-4.8-7.7-9.3-7.6c-2.9,0-5.7,1.3-7.5,3.6c2,0.3,4.5,1.2,5.6,3.6l-1.2,0.5
		c-1.4-3-6-3.1-6.7-3.1c-2.8,0.9-4.7,3.5-4.7,6.5c0.1,3.9,3.3,7,7.2,6.9H33c2.9,0,5.2-2.3,5.3-5.1C38.3,31.2,36,28.8,33.2,28.8
		L33.2,28.8L33.2,28.8z"/>
</g>
<path class="p18bisj-2" d="M66.3,32.1C62.1,25.2,53,23,46,27.3c-3.5,2.2-6,5.7-6.8,9.8c2.8,0.3,5.2,1.8,6.6,4.2l-1.1,0.6
	c-2-3.4-5.8-3.8-8.5-3.7c-4.4,1.7-6.6,6.6-4.9,11c1.3,3.3,4.4,5.5,7.9,5.5h25.8c6.3-0.3,11.1-5.6,10.8-11.9
	C75.6,37.5,71.6,33,66.3,32.1z"/>
<path class="p18bisj-2" d="M30.6,26.1c-0.8-4.5-4.7-7.7-9.3-7.6c-2.9,0-5.7,1.3-7.5,3.6c2,0.3,4.5,1.2,5.6,3.6l-1.2,0.5
	c-1.4-3-6-3.1-6.7-3.1c-2.8,0.9-4.7,3.5-4.7,6.5c0.1,3.9,3.3,7,7.2,6.9h16.5c2.9,0,5.2-2.3,5.3-5.1C35.8,28.5,33.5,26.2,30.6,26.1
	L30.6,26.1L30.6,26.1z"/>
<circle class="p18bisj-3" cx="40.6" cy="56.4" r="9.8"/>
<path class="p18bisj-4" d="M47.6,59.5l-5.3-3.1l5.3-3.1c0.4-0.2,0.6-0.7,0.4-1.2l0,0c-0.2-0.4-0.8-0.5-1.2-0.3c0,0,0,0,0,0l0,0L41.4,55
	v-6.2c0.1-0.5-0.3-0.9-0.8-1s-0.9,0.3-1,0.8c0,0.1,0,0.1,0,0.2l0,0V55l-5.3-3.1c-0.4-0.2-0.9-0.1-1.2,0.3c0,0,0,0,0,0
	c-0.2,0.4-0.1,0.9,0.3,1.2l0,0l5.3,3.1l-5.3,3.1c-0.5,0.1-0.7,0.6-0.6,1.1c0.1,0.5,0.6,0.7,1.1,0.6c0.2,0,0.3-0.1,0.4-0.3l0,0
	l5.3-3.1v6.2c0.1,0.5,0.5,0.8,1,0.8c0.4,0,0.7-0.4,0.8-0.8l0,0v-6.2l5.3,3.1c0.4,0.2,0.9,0.1,1.2-0.3l0,0
	C48.2,60.3,48,59.8,47.6,59.5L47.6,59.5z"/>
</svg>
