<svg width="86" height="86" viewBox="0 0 86 86" fill="none" xmlns="http://www.w3.org/2000/svg">
<g opacity="0.3">
<path d="M68.9999 34.6999C64.6999 27.7999 55.5999 25.6999 48.5999 29.9999C45.1999 32.1999 42.7999 35.5999 41.9999 39.5999C44.7999 39.8999 47.1999 41.3999 48.5999 43.7999L47.4999 44.3999C45.4999 40.9999 41.6999 40.5999 38.9999 40.6999C34.5999 42.3999 32.3999 47.2999 34.0999 51.6999C35.3999 54.9999 38.4999 57.1999 41.9999 57.1999H67.6999C73.9999 56.9999 78.7999 51.6999 78.4999 45.3999C78.2999 40.0999 74.2999 35.5999 68.9999 34.6999Z" fill="#231F20"/>
<path d="M33.1999 28.8C32.3999 24.3 28.3999 21.1 23.8999 21.2C20.9999 21.2 18.1999 22.5 16.3999 24.8C18.3999 25.1 20.8999 26 21.9999 28.4L20.7999 28.9C19.3999 25.9 14.7999 25.8 14.0999 25.8C11.2999 26.7 9.3999 29.3 9.3999 32.3C9.4999 36.2 12.6999 39.3 16.5999 39.2H32.9999C35.8999 39.2 38.1999 36.9 38.2999 34.1C38.2999 31.2 35.9999 28.8 33.1999 28.8Z" fill="#231F20"/>
</g>
<path d="M66.3001 32.1C62.1001 25.2 53.0001 23 46.0001 27.3C42.5001 29.5 40.0001 33 39.2001 37.1C42.0001 37.4 44.4001 38.9 45.8001 41.3L44.7001 41.9C42.7001 38.5 38.9001 38.1 36.2001 38.2C31.8001 39.9 29.6001 44.8 31.3001 49.2C32.6001 52.5 35.7001 54.7 39.2001 54.7H65.0001C71.3001 54.4 76.1001 49.1 75.8001 42.8C75.6001 37.5 71.6001 33 66.3001 32.1Z" fill="#D8D9D8"/>
<path d="M30.6 26.1C29.8 21.6 25.9 18.4 21.3 18.5C18.4 18.5 15.6 19.8 13.8 22.1C15.8 22.4 18.3 23.3 19.4 25.7L18.2 26.2C16.8 23.2 12.2 23.1 11.5 23.1C8.70005 24 6.80005 26.6 6.80005 29.6C6.90005 33.5 10.1 36.6 14 36.5H30.5C33.4 36.5 35.7 34.2 35.8 31.4C35.8 28.5 33.5 26.2 30.6 26.1Z" fill="#D8D9D8"/>
<path opacity="0.8" d="M40.6 66.2C46.0124 66.2 50.4001 61.8124 50.4001 56.4C50.4001 50.9876 46.0124 46.6 40.6 46.6C35.1877 46.6 30.8 50.9876 30.8 56.4C30.8 61.8124 35.1877 66.2 40.6 66.2Z" fill="white"/>
<path d="M47.5999 59.5L42.2999 56.4L47.5999 53.3C47.9999 53.1 48.1999 52.6 47.9999 52.1C47.7999 51.7 47.1999 51.6 46.7999 51.8L41.3999 55V48.8C41.4999 48.3 41.0999 47.9 40.5999 47.8C40.0999 47.7 39.6999 48.1 39.5999 48.6C39.5999 48.7 39.5999 48.7 39.5999 48.8V55L34.2999 51.9C33.8999 51.7 33.3999 51.8 33.0999 52.2C32.8999 52.6 32.9999 53.1 33.3999 53.4L38.6999 56.5L33.3999 59.6C32.8999 59.7 32.6999 60.2 32.7999 60.7C32.8999 61.2 33.3999 61.4 33.8999 61.3C34.0999 61.3 34.1999 61.2 34.2999 61L39.5999 57.9V64.1C39.6999 64.6 40.0999 64.9 40.5999 64.9C40.9999 64.9 41.2999 64.5 41.3999 64.1V57.9L46.6999 61C47.0999 61.2 47.5999 61.1 47.8999 60.7C48.1999 60.3 47.9999 59.8 47.5999 59.5Z" fill="#79CCF1"/>
</svg>
