<?xml version="1.0" encoding="utf-8"?>
<!-- Generator: Adobe Illustrator 24.0.2, SVG Export Plug-In . SVG Version: 6.00 Build 0)  -->
<svg version="1.1" id="Calque_31" xmlns="http://www.w3.org/2000/svg" xmlns:xlink="http://www.w3.org/1999/xlink" width="50" height="50" x="0px" y="0px"
	 viewBox="0 0 85.2 85.2" style="enable-background:new 0 0 85.2 85.2;" xml:space="preserve">
<style type="text/css">
	.p19bisn-0{opacity:0.25;fill:#44454E;enable-background:new    ;}
	.p19bisn-1{fill:#FFFFFF;}
	.p19bisn-2{opacity:0.18;fill:#636573;enable-background:new    ;}
	.p19bisn-3{fill:#FDFCEA;}
	.p19bisn-4{fill:#79CCF1;}
	.p19bisn-5{opacity:0.3;}
	.p19bisn-6{fill:#231F20;}
	.p19bisn-7{fill:#D8D9D8;}
	.p19bisn-8{opacity:0.8;fill:#FFFFFF;enable-background:new    ;}
</style>
<title>31Plan de travail 1</title>
<circle class="p19bisn-0" cx="54.9" cy="30.3" r="22.9"/>
<path class="p19bisn-1" d="M65.2,33.3c0.5,0,0.9-0.4,0.9-0.9l0,0v-3c0.1-0.5-0.3-0.9-0.8-1c-0.5-0.1-0.9,0.3-1,0.8l0,0v3.2
	C64.3,33,64.7,33.4,65.2,33.3C65.2,33.4,65.2,33.4,65.2,33.3L65.2,33.3L65.2,33.3z"/>
<path class="p19bisn-1" d="M67.6,30.9c0-0.5-0.4-0.9-0.9-0.9h-3c-0.5-0.1-0.9,0.3-1,0.8s0.3,0.9,0.8,1l0,0h3.2
	C67.2,31.8,67.6,31.4,67.6,30.9z"/>
<path class="p19bisn-1" d="M36.5,18.4c0.5,0,0.9-0.4,0.9-0.9l0,0v-3c0.1-0.5-0.3-0.9-0.8-1c-0.5-0.1-0.9,0.3-1,0.8l0,0v3.2
	C35.6,18,36,18.4,36.5,18.4C36.5,18.4,36.5,18.4,36.5,18.4L36.5,18.4L36.5,18.4z"/>
<path class="p19bisn-1" d="M38.8,16c0-0.5-0.4-0.9-0.9-0.9h-3c-0.5-0.1-0.9,0.3-1,0.8c-0.1,0.5,0.3,0.9,0.8,1l0,0H38
	C38.5,16.9,38.8,16.5,38.8,16z"/>
<path class="p19bisn-1" d="M61.6,16c0.5,0,0.9-0.4,0.9-0.9l0,0v-3c0.1-0.5-0.3-0.9-0.8-1c-0.5-0.1-0.9,0.3-1,0.8v3.2
	C60.7,15.6,61.1,16,61.6,16C61.6,16,61.6,16,61.6,16z"/>
<path class="p19bisn-1" d="M64,13.6c0-0.5-0.4-0.9-0.9-0.9h-3c-0.5-0.1-0.9,0.3-1,0.8c-0.1,0.5,0.3,0.9,0.8,1h3.2
	C63.6,14.5,64,14.1,64,13.6L64,13.6L64,13.6z"/>
<path class="p19bisn-2" d="M56.1,14c1.8-0.4,3.6-0.5,5.4-0.3c-7.2,4.6-9.3,14.3-4.6,21.4c2.5,3.9,6.7,6.5,11.3,7
	c-7.2,4.7-16.8,2.7-21.5-4.5s-2.7-16.8,4.5-21.5C52.6,15.2,54.3,14.5,56.1,14z"/>
<path class="p19bisn-3" d="M50.8,15.7c1.8-0.4,3.6-0.5,5.4-0.3C49,20,47,29.6,51.7,36.7c2.5,3.8,6.6,6.3,11.1,6.9
	c-7.1,4.6-16.7,2.6-21.3-4.5S38.9,22.3,46,17.7C47.5,16.7,49.1,16,50.8,15.7L50.8,15.7z"/>
<path class="p19bisn-4" d="M30.8,76.7l4.9-16.1c0.1-0.3,0.4-0.5,0.7-0.4l0.8,0.2c0.3,0.1,0.5,0.4,0.4,0.7l-4.9,16.1
	c-0.1,0.3-0.4,0.5-0.7,0.4l-0.8-0.2C30.9,77.3,30.7,77,30.8,76.7z"/>
<path class="p19bisn-4" d="M39.7,76.3l4.9-16.2c0.1-0.3,0.4-0.5,0.7-0.4L46,60c0.3,0.1,0.5,0.4,0.4,0.7l-4.9,16.2
	c-0.1,0.3-0.4,0.5-0.7,0.4L40,77C39.8,76.9,39.6,76.6,39.7,76.3z"/>
<path class="p19bisn-4" d="M48.2,76.8l4.9-16.2c0.1-0.3,0.4-0.5,0.7-0.4l0.8,0.2c0.3,0.1,0.5,0.4,0.4,0.7L50,77.3
	c-0.1,0.3-0.4,0.5-0.7,0.4l-0.8-0.2C48.3,77.4,48.1,77.1,48.2,76.8z"/>
<path class="p19bisn-4" d="M57.2,76.8l4.9-16.2c0.1-0.3,0.4-0.5,0.7-0.4l0.8,0.2c0.3,0.1,0.5,0.4,0.4,0.7L59,77.4
	c-0.1,0.3-0.4,0.5-0.7,0.4l-0.8-0.2C57.2,77.4,57.1,77.1,57.2,76.8z"/>
<path class="p19bisn-4" d="M66.4,76.8l4.9-16.2c0.1-0.3,0.4-0.5,0.7-0.4l0.8,0.2c0.3,0.1,0.5,0.4,0.4,0.7l-4.9,16.2
	c-0.1,0.3-0.4,0.5-0.7,0.4l-0.8-0.2C66.4,77.4,66.3,77.1,66.4,76.8z"/>
<path class="p19bisn-1" d="M35.4,76.7l4.9-16.1c0.1-0.3,0.4-0.5,0.7-0.4l0.8,0.2c0.3,0.1,0.5,0.4,0.4,0.7l-4.9,16.1
	c-0.1,0.3-0.4,0.5-0.7,0.4l-0.8-0.2C35.5,77.3,35.3,77,35.4,76.7z"/>
<path class="p19bisn-1" d="M44.1,76.7l4.9-16.1c0.1-0.3,0.4-0.5,0.7-0.4l0.8,0.2c0.3,0.1,0.5,0.4,0.4,0.7L46,77.2
	c-0.1,0.3-0.4,0.5-0.7,0.4l-0.8-0.2C44.2,77.3,44,77,44.1,76.7z"/>
<path class="p19bisn-1" d="M52.8,76.8l4.9-16.2c0.1-0.3,0.4-0.5,0.7-0.4l0.8,0.2c0.3,0.1,0.5,0.4,0.4,0.7l-4.9,16.2
	c-0.1,0.3-0.4,0.5-0.7,0.4l-0.8-0.2C52.9,77.4,52.7,77.1,52.8,76.8z"/>
<path class="p19bisn-1" d="M61.8,76.8l4.9-16.2c0.1-0.3,0.4-0.5,0.7-0.4l0.8,0.2c0.3,0.1,0.5,0.4,0.4,0.7l-4.9,16.2
	c-0.1,0.3-0.4,0.5-0.7,0.4l-0.8-0.2C61.9,77.4,61.7,77.1,61.8,76.8z"/>
<path class="p19bisn-1" d="M71.2,76.8l4.9-16.2c0.1-0.3,0.4-0.5,0.7-0.4l0.8,0.2c0.3,0.1,0.5,0.4,0.4,0.7L73,77.4
	c-0.1,0.3-0.4,0.5-0.7,0.4l-0.8-0.2C71.3,77.4,71.1,77.1,71.2,76.8z"/>
<g class="p19bisn-5">
	<path class="p19bisn-6" d="M68.9,36.3c-4.3-6.9-13.4-9-20.4-4.7c-3.4,2.2-5.8,5.6-6.6,9.6c2.8,0.3,5.2,1.8,6.6,4.2l-1.1,0.6
		c-2-3.4-5.8-3.8-8.5-3.7c-4.4,1.7-6.6,6.6-4.9,11c1.3,3.3,4.4,5.5,7.9,5.5h25.7c6.3-0.3,11.1-5.7,10.8-11.9
		C78.2,41.6,74.2,37.2,68.9,36.3L68.9,36.3z"/>
	<path class="p19bisn-6" d="M33.2,30.3c-0.8-4.5-4.7-7.8-9.3-7.7c-2.9,0-5.7,1.3-7.5,3.6c2,0.3,4.5,1.2,5.6,3.6l-1.2,0.5
		c-1.4-3-6-3.1-6.7-3.1c-2.8,0.9-4.7,3.5-4.7,6.5c0.1,3.9,3.3,7,7.2,6.9c0,0,0,0,0,0H33c2.9,0,5.2-2.3,5.3-5.1
		C38.3,32.7,36,30.3,33.2,30.3L33.2,30.3z"/>
</g>
<path class="p19bisn-7" d="M66.3,33.7C62,26.7,52.9,24.6,46,28.9c-3.5,2.2-6,5.7-6.7,9.8c2.8,0.3,5.2,1.8,6.6,4.2l-1.1,0.6
	c-2-3.4-5.8-3.8-8.5-3.7c-4.4,1.7-6.6,6.6-4.9,11c1.3,3.3,4.4,5.5,7.9,5.5H65c6.3-0.3,11.1-5.7,10.8-11.9
	C75.5,39,71.5,34.6,66.3,33.7L66.3,33.7z"/>
<path class="p19bisn-7" d="M30.5,27.7c-0.8-4.5-4.7-7.7-9.3-7.6c-2.9,0-5.7,1.3-7.5,3.6c2,0.3,4.5,1.2,5.6,3.6l-1.2,0.5
	c-1.4-3-6-3.1-6.7-3.1c-2.8,0.9-4.7,3.5-4.7,6.5c0.1,3.9,3.3,7,7.2,6.9c0,0,0,0,0,0h16.4c2.9,0,5.2-2.3,5.3-5.1
	C35.7,30.1,33.4,27.7,30.5,27.7L30.5,27.7z"/>
<circle class="p19bisn-8" cx="42.6" cy="54.8" r="8.8"/>
<path class="p19bisn-4" d="M48.8,57.5l-4.8-2.8l4.8-2.7c0.3-0.2,0.5-0.6,0.3-1l0,0c-0.2-0.3-0.6-0.5-1-0.3l0,0l-4.8,2.8V48
	c0-0.4-0.3-0.8-0.8-0.8s-0.8,0.3-0.8,0.8v5.5l-4.8-2.8c-0.3-0.2-0.8-0.2-1.1,0.2s-0.2,0.8,0.2,1.1l0,0l0,0l0.1,0.1l4.8,2.8l-4.8,2.8
	c-0.4,0.2-0.6,0.6-0.4,1c0.2,0.4,0.6,0.6,1,0.4l0,0l0.1-0.1l0,0l4.8-2.9v5.5c0,0.4,0.3,0.8,0.8,0.8s0.8-0.3,0.8-0.8l0,0l0,0V56
	l4.8,2.8c0.4,0.2,0.8,0.1,1-0.3l0,0C49.3,58.2,49.2,57.7,48.8,57.5z"/>
<circle class="p19bisn-8" cx="65.8" cy="54.8" r="8.8"/>
<path class="p19bisn-4" d="M72.1,57.5l-4.8-2.8l4.8-2.8c0.3-0.2,0.5-0.6,0.3-1l0,0c-0.2-0.3-0.6-0.5-1-0.3l0,0l-4.8,2.8V48
	c0-0.4-0.3-0.8-0.8-0.8c-0.4,0-0.8,0.3-0.8,0.8v5.5l-4.8-2.8c-0.3-0.2-0.8-0.2-1.1,0.2s-0.2,0.8,0.2,1.1l0,0l0.1,0.1l4.8,2.8
	l-4.8,2.8c-0.4,0.2-0.6,0.6-0.4,1c0.2,0.4,0.6,0.6,1,0.4l0,0l0.1-0.1l4.8-2.8v5.5c0,0.4,0.3,0.8,0.8,0.8c0.4,0,0.8-0.3,0.8-0.8l0,0
	l0,0V56l4.8,2.8c0.4,0.2,0.8,0.1,1-0.3l0,0C72.6,58.2,72.4,57.7,72.1,57.5z"/>
</svg>
