<svg id="Calque_30" data-name="Calque 30" xmlns="http://www.w3.org/2000/svg" viewBox="0 0 85.23 85.24" width="50" height="50"><defs><style>.p19j-1{fill:#eeeb61;opacity:0.51;}.p19j-1,.p19j-8{isolation:isolate;}.p19j-2{fill:#f5b21a;stroke:#fde901;stroke-miterlimit:10;}.p19j-3{opacity:0.3;}.p19j-4{fill:#231f20;}.p19j-5{fill:#d8d9d8;}.p19j-6{fill:#79ccf1;}.p19j-7,.p19j-8{fill:#fff;}.p19j-8{opacity:0.8;}</style></defs><title>30Plan de travail 1</title><circle class="p19j-1" cx="53.2" cy="27.9" r="19.92"/><circle class="p19j-2" cx="53.2" cy="27.9" r="15.2" transform="translate(-0.28 0.54) rotate(-0.58)"/><g class="p19j-3"><path class="p19j-4" d="M68.89,36.2a14.77,14.77,0,0,0-27,4.93,8.64,8.64,0,0,1,6.64,4.21L47.39,46c-2-3.42-5.82-3.85-8.47-3.67a8.52,8.52,0,0,0,3,16.48H67.65A11.37,11.37,0,0,0,68.88,36.2Z"/><path class="p19j-4" d="M33.13,30.2a9.31,9.31,0,0,0-9.32-7.61,9.57,9.57,0,0,0-7.5,3.57c2,.32,4.53,1.21,5.63,3.64l-1.19.54c-1.36-3-6-3.1-6.71-3.1a6.92,6.92,0,0,0-4.7,6.46,7.08,7.08,0,0,0,7.23,6.93H33a5.21,5.21,0,0,0,.13-10.42Z"/></g><path class="p19j-5" d="M66.27,33.53a14.77,14.77,0,0,0-27.08,4.91,8.64,8.64,0,0,1,6.64,4.21l-1.14.64c-2-3.42-5.82-3.85-8.47-3.67a8.52,8.52,0,0,0,3,16.48H65a11.37,11.37,0,0,0,1.23-22.58Z"/><path class="p19j-5" d="M30.51,27.59a9.31,9.31,0,0,0-9.3-7.65,9.57,9.57,0,0,0-7.5,3.57c2,.32,4.53,1.21,5.63,3.64l-1.19.54c-1.36-3-6-3.1-6.71-3.1a6.92,6.92,0,0,0-4.7,6.46A7.08,7.08,0,0,0,14,38H30.41a5.21,5.21,0,0,0,.13-10.42h0Z"/><rect class="p19j-6" x="25.18" y="67.43" width="17.94" height="1.93" rx="0.55" ry="0.55" transform="translate(-41.25 81.01) rotate(-72.96)"/><rect class="p19j-6" x="33.91" y="67.42" width="17.94" height="1.93" rx="0.55" ry="0.55" transform="translate(-35.07 89.35) rotate(-72.96)"/><rect class="p19j-6" x="42.52" y="67.5" width="17.99" height="1.94" rx="0.55" ry="0.55" transform="translate(-28.93 97.99) rotate(-73.19)"/><rect class="p19j-6" x="51.52" y="67.51" width="17.99" height="1.94" rx="0.55" ry="0.55" transform="translate(-22.54 106.61) rotate(-73.19)"/><rect class="p19j-6" x="60.71" y="67.51" width="17.99" height="1.94" rx="0.55" ry="0.55" transform="translate(-16.01 115.4) rotate(-73.19)"/><rect class="p19j-7" x="29.81" y="67.43" width="17.94" height="1.93" rx="0.55" ry="0.55" transform="translate(-37.97 85.43) rotate(-72.96)"/><rect class="p19j-7" x="38.53" y="67.42" width="17.94" height="1.93" rx="0.55" ry="0.55" transform="translate(-31.8 93.75) rotate(-72.96)"/><rect class="p19j-7" x="47.17" y="67.53" width="17.99" height="1.94" rx="0.55" ry="0.55" transform="translate(-25.65 102.45) rotate(-73.19)"/><rect class="p19j-7" x="56.17" y="67.51" width="17.99" height="1.94" rx="0.55" ry="0.55" transform="translate(-19.24 111.05) rotate(-73.19)"/><rect class="p19j-7" x="65.54" y="67.51" width="17.99" height="1.94" rx="0.55" ry="0.55" transform="translate(-12.58 120.02) rotate(-73.19)"/><circle class="p19j-8" cx="44.51" cy="57.82" r="7.44"/><path class="p19j-6" d="M49.87,60.16l-4.06-2.34,4.06-2.34a.66.66,0,0,0,.24-.9h0a.67.67,0,0,0-.9-.24l-4.06,2.34V52a.65.65,0,0,0-.58-.73.65.65,0,0,0-.73.57.43.43,0,0,0,0,.16v4.69l-4-2.29a.65.65,0,1,0-.65,1.13h0l4.06,2.34L39.19,60.2a.65.65,0,1,0,.65,1.13L43.9,59v4.69a.66.66,0,0,0,.57.74.67.67,0,0,0,.74-.58.43.43,0,0,0,0-.16V59l4.06,2.34a.66.66,0,0,0,.9-.24h0a.67.67,0,0,0-.2-.91h0Z"/><circle class="p19j-8" cx="65.17" cy="58.29" r="7.44" transform="translate(6.36 123) rotate(-89.55)"/><path class="p19j-6" d="M70.53,60.59l-4.06-2.34,4.06-2.34a.66.66,0,0,0,.24-.9h0a.67.67,0,0,0-.91-.2h0l-4,2.38V52.5a.65.65,0,0,0-.58-.73.65.65,0,0,0-.73.57.43.43,0,0,0,0,.16v4.69l-4-2.34A.65.65,0,0,0,59.9,56h0L64,58.32l-4.1,2.35a.65.65,0,1,0,.65,1.13h0l4.06-2.34v4.69a.66.66,0,0,0,.57.74.67.67,0,0,0,.74-.58.43.43,0,0,0,0-.16V59.46l4,2.35a.66.66,0,0,0,.9-.24h0a.67.67,0,0,0-.2-.91h0Z"/></svg>