<svg id="Calque_2" data-name="Calque 2" xmlns="http://www.w3.org/2000/svg" viewBox="0 0 85.23 85.24" width="50" height="50"><defs><style>.p1n-1{fill:#44454e;}.p1n-1,.p1n-2{opacity:0.18;isolation:isolate;}.p1n-2{fill:#636573;}.p1n-3{fill:#fdfcea;}.p1n-4{fill:#fff;}</style></defs><title>2Plan de travail 1</title><circle class="p1n-1" cx="43.92" cy="43.2" r="26.14"/><path class="p1n-2" d="M43.4,25.08a17.48,17.48,0,0,1,6.2-.32A17.58,17.58,0,0,0,57.17,57,17.58,17.58,0,1,1,43.4,25.08Z"/><path class="p1n-3" d="M37.88,26.35A17.61,17.61,0,0,1,44,26a17.58,17.58,0,0,0,7.57,32.19,17.58,17.58,0,1,1-19-29.58A17.28,17.28,0,0,1,37.88,26.35Z"/><path class="p1n-4" d="M55.69,48.64a1,1,0,0,0,1-1V44.18a1,1,0,1,0-2.07,0v3.46a1,1,0,0,0,1,1Z"/><path class="p1n-4" d="M58.44,45.88a1,1,0,0,0-1-1H54A1,1,0,0,0,54,47h3.46a1,1,0,0,0,1-1S58.44,46,58.44,45.88Z"/><path class="p1n-4" d="M22.88,31.56a1,1,0,0,0,1-1V27a1,1,0,1,0-2.07,0v3.46a1,1,0,0,0,.94,1.06h.13Z"/><path class="p1n-4" d="M25.63,28.8a1,1,0,0,0-1-1H21.14a1,1,0,0,0,0,2.07H24.6a1,1,0,0,0,1-1V28.8Z"/><path class="p1n-4" d="M51.61,26.8a1,1,0,0,0,1-1V22.35a1,1,0,1,0-2.07,0v3.46a1,1,0,0,0,1,1Z"/><path class="p1n-4" d="M54.37,24a1,1,0,0,0-1-1H49.88a1,1,0,0,0,0,2.07h3.46a1,1,0,0,0,1-1V24Z"/></svg>