<svg width="86" height="86" viewBox="0 0 86 86" fill="none" xmlns="http://www.w3.org/2000/svg">
<path d="M29.8 70.7L34.7 54.6C34.8 54.3 35.1 54.1 35.4 54.2L36.2 54.4C36.5 54.5 36.7 54.8 36.6 55.1L31.7 71.2C31.6 71.5 31.3 71.7 31 71.6L30.2 71.4C29.8 71.2 29.7 70.9 29.8 70.7Z" fill="#79CCF1"/>
<path d="M38.4999 70.6L43.3999 54.5C43.4999 54.2 43.7999 54 44.0999 54.1L44.8999 54.3C45.1999 54.4 45.3999 54.7 45.2999 55L40.3999 71.1C40.2999 71.4 39.9999 71.6 39.6999 71.5L38.8999 71.3C38.5999 71.2 38.3999 70.9 38.4999 70.6Z" fill="#79CCF1"/>
<path d="M47.2001 70.6L52.0001 54.5C52.1001 54.2 52.4001 54 52.7001 54.1L53.5001 54.3C53.8001 54.4 54.0001 54.7 53.9001 55L49.0001 71.2C48.9001 71.5 48.6001 71.7 48.3001 71.6L47.5001 71.4C47.2001 71.2 47.1001 70.9 47.2001 70.6Z" fill="#79CCF1"/>
<path d="M56.2001 70.6L61.0001 54.5C61.1001 54.2 61.4001 54 61.7001 54.1L62.5001 54.3C62.8001 54.4 63.0001 54.7 62.9001 55L58.0001 71.2C57.9001 71.5 57.6001 71.7 57.3001 71.6L56.5001 71.4C56.2001 71.2 56.1001 70.9 56.2001 70.6Z" fill="#79CCF1"/>
<path d="M65.3 70.6L70.2 54.4C70.3 54.1 70.6 53.9 70.9 54L71.7 54.2C72 54.3 72.2 54.6 72.1 54.9L67.2 71.1C67.1 71.4 66.8 71.6 66.5 71.5L65.7 71.3C65.4 71.2 65.3 70.9 65.3 70.6Z" fill="#79CCF1"/>
<path d="M34.4 70.7L39.3 54.6C39.4 54.3 39.7 54.1 40 54.2L40.8 54.4C41.1 54.5 41.3 54.8 41.2 55.1L36.3 71.2C36.2 71.5 35.9 71.7 35.6 71.6L34.8 71.4C34.5 71.2 34.3 70.9 34.4 70.7Z" fill="white"/>
<path d="M43.1 70.6L48 54.5C48.1 54.2 48.4 54 48.7 54.1L49.5 54.3C49.8 54.4 50 54.7 49.9 55L45 71.2C44.9 71.5 44.6 71.7 44.3 71.6L43.5 71.4C43.2 71.2 43 70.9 43.1 70.6Z" fill="white"/>
<path d="M51.7999 70.6L56.6999 54.4C56.7999 54.1 57.0999 53.9 57.3999 54L58.1999 54.2C58.4999 54.3 58.6999 54.6 58.5999 54.9L53.6999 71.1C53.5999 71.4 53.2999 71.6 52.9999 71.5L52.1999 71.3C51.8999 71.2 51.6999 70.9 51.7999 70.6Z" fill="white"/>
<path d="M60.7999 70.6L65.6999 54.4C65.7999 54.1 66.0999 53.9 66.3999 54L67.1999 54.2C67.4999 54.3 67.6999 54.6 67.5999 54.9L62.6999 71.1C62.5999 71.4 62.2999 71.6 61.9999 71.5L61.1999 71.3C60.8999 71.2 60.6999 70.9 60.7999 70.6Z" fill="white"/>
<path d="M70.2001 70.6L75.1001 54.4C75.2001 54.1 75.5001 53.9 75.8001 54L76.6001 54.2C76.9001 54.3 77.1001 54.6 77.0001 54.9L72.0001 71.2C71.9001 71.5 71.6001 71.7 71.3001 71.6L70.5001 71.4C70.2001 71.2 70.1001 70.9 70.2001 70.6Z" fill="white"/>
<g opacity="0.3">
<path d="M68.8999 29.8C64.5999 22.9 55.4999 20.8 48.4999 25.1C45.0999 27.3 42.6999 30.7 41.8999 34.7C44.6999 35 47.1999 36.5 48.5999 39L47.4999 39.6C45.4999 36.2 41.6999 35.8 38.9999 35.9C34.5999 37.6 32.3999 42.5 34.0999 46.9C35.3999 50.2 38.4999 52.3 41.9999 52.4H67.6999C73.9999 52.1 78.7999 46.8 78.4999 40.5C78.1999 35.2 74.1999 30.7 68.8999 29.8Z" fill="#231F20"/>
<path d="M33.0999 23.9C32.2999 19.4 28.3999 16.2 23.7999 16.3C20.8999 16.3 18.0999 17.6 16.2999 19.9C18.2999 20.2 20.7999 21.1 21.8999 23.5L20.7999 24C19.3999 21 14.7999 20.9 14.0999 20.9C11.2999 21.8 9.3999 24.4 9.3999 27.4C9.4999 31.3 12.6999 34.4 16.5999 34.3H32.9999C35.8999 34.3 38.1999 32 38.2999 29.2C38.2999 26.3 35.9999 23.9 33.0999 23.9Z" fill="#231F20"/>
</g>
<path d="M66.3001 27.3C62.0001 20.3 52.9001 18.2 46.0001 22.4C42.5001 24.6 40.0001 28.1 39.2001 32.2C42.0001 32.5 44.4001 34.1 45.8001 36.5L44.7001 37.1C42.7001 33.7 38.9001 33.3 36.2001 33.4C31.8001 35.1 29.6001 40 31.3001 44.4C32.6001 47.7 35.7001 49.9 39.2001 49.9H65.0001C71.3001 49.6 76.1001 44.2 75.8001 38C75.5001 32.6 71.5001 28.2 66.3001 27.3Z" fill="#D8D9D8"/>
<path d="M30.5 21.3C29.7 16.8 25.8 13.6 21.2 13.7C18.3 13.7 15.5 15 13.7 17.3C15.7 17.6 18.2 18.5 19.3 20.9L18.1 21.4C16.7 18.4 12.1 18.3 11.4 18.3C8.59995 19.2 6.69995 21.8 6.69995 24.8C6.79995 28.7 9.99995 31.8 13.9 31.7H30.2999C33.1999 31.7 35.4999 29.4 35.5999 26.6C35.6999 23.6 33.4 21.3 30.5 21.3Z" fill="#D8D9D8"/>
<path opacity="0.8" d="M42.5001 58.9C47.1393 58.9 50.9001 55.1392 50.9001 50.5C50.9001 45.8608 47.1393 42.1 42.5001 42.1C37.8609 42.1 34.1001 45.8608 34.1001 50.5C34.1001 55.1392 37.8609 58.9 42.5001 58.9Z" fill="white"/>
<path d="M48.6001 53.2L44.0001 50.5L48.6001 47.9C49.0001 47.7 49.1001 47.3 48.9001 46.9C48.7001 46.6 48.3001 46.4 47.9001 46.6L43.3001 49.2V44C43.3001 43.6 43.0001 43.3 42.6001 43.3C42.2001 43.3 41.9001 43.6 41.9001 44V49.3L37.3001 46.7C37.0001 46.5 36.5001 46.6 36.3001 46.9C36.1001 47.2 36.1001 47.7 36.5001 47.9L36.7001 48L41.3001 50.6L36.7001 53.2C36.3001 53.4 36.1001 53.8 36.3001 54.2C36.5001 54.6 36.9001 54.8 37.3001 54.6L37.5001 54.5L42.0001 51.9V57.2C42.0001 57.6 42.3001 57.9 42.7001 57.9C43.1001 57.9 43.4001 57.6 43.4001 57.2V51.9L47.9001 54.5C48.2001 54.7 48.7001 54.6 48.9001 54.2C49.0001 53.9 48.9001 53.4 48.6001 53.2Z" fill="#79CCF1"/>
<path opacity="0.8" d="M64.7999 58.9C69.4391 58.9 73.1999 55.1392 73.1999 50.5C73.1999 45.8608 69.4391 42.1 64.7999 42.1C60.1607 42.1 56.3999 45.8608 56.3999 50.5C56.3999 55.1392 60.1607 58.9 64.7999 58.9Z" fill="white"/>
<path d="M70.9001 53.2L66.3001 50.6L70.9001 48C71.3001 47.8 71.4001 47.4 71.2001 47C71.0001 46.7 70.6001 46.5 70.2001 46.7L65.6001 49.3V44C65.6001 43.6 65.3001 43.3 64.9001 43.3C64.5001 43.3 64.2001 43.6 64.2001 44V49.3L59.6001 46.7C59.3001 46.5 58.8001 46.6 58.6001 46.9C58.4001 47.2 58.4001 47.7 58.8001 47.9L59.0001 48L63.6001 50.6L59.0001 53.2C58.6001 53.4 58.4001 53.8 58.6001 54.2C58.8001 54.6 59.2001 54.8 59.6001 54.6L59.8001 54.5L64.3001 51.9V57.2C64.3001 57.6 64.6001 57.9 65.0001 57.9C65.4001 57.9 65.7001 57.6 65.7001 57.2V52L70.3001 54.6C70.6001 54.8 71.1001 54.7 71.3001 54.3C71.3001 53.9 71.2001 53.4 70.9001 53.2Z" fill="#79CCF1"/>
</svg>
