<svg width="86" height="86" viewBox="0 0 86 86" fill="none" xmlns="http://www.w3.org/2000/svg">
<g opacity="0.3">
<path d="M69 33.0499C67.4298 30.5441 65.1436 28.5672 62.4373 27.3753C59.731 26.1833 56.7292 25.8312 53.8205 26.3645C50.9118 26.8977 48.2302 28.2918 46.1227 30.3663C44.0153 32.4407 42.579 35.1 41.9999 37.9999C43.3613 38.1249 44.6733 38.5718 45.8279 39.3038C46.9824 40.0358 47.9463 41.0319 48.6399 42.2099L47.4999 42.8499C45.4999 39.4299 41.6799 38.9999 39.0299 39.1799C37.1721 39.8889 35.6208 41.2254 34.6447 42.9578C33.6686 44.6903 33.3292 46.7096 33.6854 48.6659C34.0415 50.6223 35.0707 52.3924 36.5947 53.6698C38.1187 54.9471 40.0415 55.6511 42.0299 55.6599H67.72C70.5552 55.5626 73.2517 54.4089 75.2799 52.4253C77.308 50.4418 78.5214 47.7716 78.6818 44.9393C78.8421 42.1069 77.9378 39.3169 76.1465 37.1171C74.3551 34.9173 71.8061 33.4666 69 33.0499Z" fill="#231F20"/>
<path d="M33.1999 27.05C32.8088 24.8791 31.6588 22.9178 29.9553 21.5165C28.2517 20.1152 26.1055 19.365 23.8999 19.4C22.459 19.394 21.0354 19.7148 19.7364 20.3384C18.4373 20.9619 17.2966 21.8719 16.3999 23C18.3999 23.32 20.9299 24.21 22.0299 26.64L20.8399 27.18C19.4799 24.18 14.8399 24.08 14.1299 24.08C12.7748 24.5388 11.5953 25.4064 10.7536 26.5632C9.91189 27.7201 9.44946 29.1094 9.42993 30.54C9.46931 32.4161 10.2519 34.1998 11.6057 35.4992C12.9595 36.7987 14.7738 37.5075 16.6499 37.47H33.0599C34.4483 37.4872 35.7867 36.9522 36.7807 35.9826C37.7746 35.0131 38.3427 33.6884 38.3599 32.3C38.3772 30.9116 37.8422 29.5732 36.8726 28.5792C35.903 27.5853 34.5783 27.0172 33.1899 27L33.1999 27.05Z" fill="#231F20"/>
</g>
<path d="M66.34 30.45C64.7826 27.9166 62.4968 25.9123 59.7816 24.6994C57.0664 23.4864 54.0483 23.1213 51.1222 23.6519C48.1961 24.1824 45.4984 25.5839 43.3819 27.6729C41.2654 29.7619 39.8287 32.4411 39.26 35.36C40.6213 35.4849 41.9334 35.9319 43.0879 36.6639C44.2424 37.3959 45.2063 38.392 45.9 39.57L44.76 40.21C42.76 36.79 38.94 36.36 36.29 36.54C34.4321 37.249 32.8808 38.5854 31.9047 40.3179C30.9286 42.0503 30.5893 44.0696 30.9454 46.026C31.3015 47.9823 32.3307 49.7525 33.8547 51.0298C35.3787 52.3071 37.3015 53.0112 39.29 53.02H65.06C67.8644 52.8765 70.5166 51.7003 72.5055 49.7179C74.4944 47.7355 75.6794 45.0873 75.8322 42.2833C75.9849 39.4793 75.0946 36.718 73.3328 34.5313C71.5709 32.3446 69.0622 30.8873 66.29 30.44L66.34 30.45Z" fill="#D8D9D8"/>
<path d="M30.5801 24.46C30.189 22.2891 29.039 20.3279 27.3354 18.9265C25.6318 17.5252 23.4856 16.7751 21.2801 16.81C19.8415 16.8004 18.4195 17.1166 17.1206 17.7349C15.8217 18.3532 14.6797 19.2575 13.7801 20.38C15.7801 20.7 18.3101 21.59 19.4101 24.02L18.2201 24.56C16.8601 21.56 12.2201 21.46 11.5101 21.46C10.1293 21.9223 8.92917 22.8077 8.08011 23.9906C7.23105 25.1736 6.77617 26.5939 6.78005 28.05C6.79696 28.9807 6.99722 29.8989 7.36936 30.7521C7.74151 31.6052 8.27825 32.3767 8.94885 33.0222C9.61946 33.6677 10.4108 34.1747 11.2775 34.5141C12.1443 34.8534 13.0694 35.0186 14.0001 35H30.4501C31.8318 35.0172 33.1639 34.4849 34.1531 33.52C35.1424 32.5551 35.7078 31.2368 35.7251 29.855C35.7423 28.4732 35.2099 27.1412 34.245 26.1519C33.2802 25.1627 31.9618 24.5972 30.5801 24.58V24.46Z" fill="#D8D9D8"/>
<path opacity="0.8" d="M40.9001 67.48C46.4506 67.48 50.9501 62.9805 50.9501 57.43C50.9501 51.8795 46.4506 47.38 40.9001 47.38C35.3496 47.38 30.8501 51.8795 30.8501 57.43C30.8501 62.9805 35.3496 67.48 40.9001 67.48Z" fill="white"/>
<path d="M48.14 60.66L42.66 57.5L48.14 54.34C48.3419 54.2211 48.4887 54.0273 48.5486 53.8008C48.6086 53.5742 48.5767 53.3332 48.46 53.13C48.3411 52.9281 48.1473 52.7813 47.9208 52.7214C47.6942 52.6615 47.4532 52.6933 47.25 52.81L41.77 56V49.66C41.7825 49.5438 41.772 49.4263 41.739 49.3141C41.7061 49.202 41.6513 49.0974 41.578 49.0064C41.5046 48.9154 41.4141 48.8397 41.3115 48.7837C41.2089 48.7277 41.0962 48.6925 40.98 48.68C40.8638 48.6675 40.7463 48.6781 40.6341 48.711C40.522 48.744 40.4174 48.7987 40.3264 48.872C40.2354 48.9454 40.1597 49.036 40.1037 49.1386C40.0477 49.2412 40.0125 49.3538 40 49.47C39.9901 49.533 39.9901 49.5971 40 49.66V56.05L34.52 52.89C34.3171 52.7733 34.0762 52.742 33.8502 52.8029C33.6242 52.8639 33.4317 53.0121 33.315 53.215C33.1983 53.4179 33.167 53.6588 33.228 53.8848C33.2889 54.1108 33.4371 54.3033 33.64 54.42L39.12 57.58L33.64 60.7C33.5396 60.7578 33.4515 60.8348 33.3808 60.9266C33.3101 61.0185 33.2581 61.1233 33.228 61.2352C33.1978 61.3471 33.1899 61.4638 33.2049 61.5788C33.2198 61.6937 33.2572 61.8045 33.315 61.905C33.3728 62.0055 33.4498 62.0936 33.5416 62.1643C33.6335 62.235 33.7383 62.2869 33.8502 62.3171C33.9621 62.3473 34.0788 62.3551 34.1938 62.3402C34.3087 62.3252 34.4196 62.2878 34.52 62.23L40 59.07V65.4C39.9875 65.5162 39.9981 65.6338 40.031 65.7459C40.064 65.8581 40.1187 65.9626 40.1921 66.0536C40.2654 66.1446 40.356 66.2203 40.4586 66.2763C40.5612 66.3323 40.6738 66.3675 40.79 66.38C40.9062 66.3925 41.0238 66.382 41.1359 66.349C41.2481 66.3161 41.3526 66.2613 41.4436 66.188C41.5346 66.1146 41.6103 66.0241 41.6663 65.9215C41.7223 65.8189 41.7575 65.7062 41.77 65.59V59.05L47.25 62.21C47.4532 62.3267 47.6942 62.3585 47.9208 62.2986C48.1473 62.2387 48.3411 62.0919 48.46 61.89C48.5816 61.6883 48.6183 61.4467 48.562 61.218C48.5058 60.9894 48.3613 60.7923 48.16 60.67L48.14 60.66Z" fill="#79CCF1"/>
<path opacity="0.8" d="M67.6597 67.4827C73.2099 67.4265 77.6636 62.8817 77.6074 57.3315C77.5513 51.7813 73.0064 47.3276 67.4562 47.3837C61.906 47.4399 57.4523 51.9848 57.5085 57.535C57.5647 63.0851 62.1095 67.5389 67.6597 67.4827Z" fill="white"/>
<path d="M74.8099 60.66L69.3299 57.5L74.8099 54.34C75.0118 54.221 75.1587 54.0273 75.2186 53.8007C75.2785 53.5742 75.2466 53.3332 75.1299 53.13C75.011 52.9281 74.8172 52.7813 74.5907 52.7214C74.3642 52.6615 74.1231 52.6933 73.9199 52.81L68.4399 56V49.66C68.4532 49.5359 68.4401 49.4104 68.4017 49.2916C68.3632 49.1728 68.3002 49.0635 68.2167 48.9707C68.1333 48.8779 68.0312 48.8037 67.9172 48.7528C67.8032 48.702 67.6798 48.6758 67.5549 48.6758C67.4301 48.6758 67.3067 48.702 67.1927 48.7528C67.0787 48.8037 66.9766 48.8779 66.8931 48.9707C66.8097 49.0635 66.7467 49.1728 66.7082 49.2916C66.6698 49.4104 66.6567 49.5359 66.6699 49.66V56.05L61.1899 52.89C60.9871 52.7733 60.7461 52.742 60.5201 52.8029C60.2942 52.8639 60.1016 53.0121 59.9849 53.215C59.8682 53.4179 59.8369 53.6588 59.8979 53.8848C59.9588 54.1108 60.1071 54.3033 60.3099 54.42L65.7899 57.58L60.3199 60.7C60.2195 60.7578 60.1314 60.8348 60.0607 60.9266C59.99 61.0184 59.9381 61.1233 59.9079 61.2352C59.8777 61.3471 59.8699 61.4638 59.8848 61.5787C59.8997 61.6937 59.9372 61.8045 59.9949 61.905C60.0527 62.0054 60.1297 62.0935 60.2216 62.1642C60.3134 62.235 60.4182 62.2869 60.5301 62.3171C60.642 62.3472 60.7588 62.3551 60.8737 62.3401C60.9886 62.3252 61.0995 62.2878 61.1999 62.23L66.6799 59.05V65.38C66.7032 65.5985 66.8065 65.8007 66.9699 65.9476C67.1333 66.0945 67.3452 66.1758 67.5649 66.1758C67.7847 66.1758 67.9966 66.0945 68.16 65.9476C68.3234 65.8007 68.4267 65.5985 68.4499 65.38V59.05L73.9299 62.21C74.1331 62.3267 74.3742 62.3585 74.6007 62.2986C74.8272 62.2387 75.021 62.0919 75.1399 61.89C75.2621 61.694 75.3032 61.4582 75.2547 61.2324C75.2062 61.0066 75.0718 60.8085 74.8799 60.68L74.8099 60.66Z" fill="#79CCF1"/>
</svg>
