<svg id="Calque_36" data-name="Calque 36" xmlns="http://www.w3.org/2000/svg" viewBox="0 0 85.23 85.24" width="50" height="50"><defs><style>.p23-1{fill:#919191;}.p23-2{fill:#fff;opacity:0.8;isolation:isolate;}.p23-3{fill:#79ccf1;}</style></defs><title>36Plan de travail 1</title><path class="p23-1" d="M69,33.92a14.77,14.77,0,0,0-27,4.91A8.62,8.62,0,0,1,48.62,43l-1.14.64c-2-3.42-5.82-3.85-8.47-3.67a8.52,8.52,0,0,0,3,16.47H67.72A11.37,11.37,0,0,0,69,33.88Z"/><path class="p23-1" d="M33.2,28a9.29,9.29,0,0,0-9.32-7.61A9.53,9.53,0,0,0,16.38,24c2,.32,4.53,1.21,5.63,3.64l-1.19.54c-1.36-3-6-3.1-6.71-3.1a6.92,6.92,0,0,0-4.7,6.46,7.08,7.08,0,0,0,7.22,6.93H33A5.21,5.21,0,0,0,33.17,28Z"/><circle class="p23-2" cx="72.75" cy="60.72" r="8.3"/><path class="p23-3" d="M78.73,63.39,74.2,60.77l4.53-2.62a.74.74,0,0,0,.34-1v0h0a.74.74,0,0,0-1-.35l0,0h0L73.5,59.39V54.17a.73.73,0,0,0-1.46,0h0v5.22l-4.53-2.62a.73.73,0,0,0-1,.38.72.72,0,0,0,.24.88l4.52,2.67-4.53,2.69a.72.72,0,0,0-.16,1,.74.74,0,0,0,.88.24L72,62v5.22a.73.73,0,1,0,1.46,0h0V62L78,64.66a.73.73,0,0,0,1-.23h0a.73.73,0,0,0-.24-1Z"/><circle class="p23-2" cx="54.25" cy="60.72" r="8.3"/><path class="p23-3" d="M60.24,63.39l-4.5-2.61,4.53-2.62a.74.74,0,0,0,.34-1v0h0a.74.74,0,0,0-1-.35l0,0h0L55,59.39V54.17a.73.73,0,0,0-1.46,0h0v5.22l-4.53-2.62a.73.73,0,0,0-1,.38.72.72,0,0,0,.24.88h0l4.55,2.63-4.53,2.62a.72.72,0,0,0-.16,1,.74.74,0,0,0,.88.24l4.53-2.62v5.22a.73.73,0,1,0,1.46,0h0V62l4.53,2.62a.73.73,0,0,0,1-.23h0a.73.73,0,0,0-.26-1h0Z"/><circle class="p23-2" cx="35.71" cy="60.72" r="8.3"/><path class="p23-3" d="M41.68,63.39l-4.55-2.61,4.53-2.62a.74.74,0,0,0,.34-1v0h0a.74.74,0,0,0-1-.35l0,0h0l-4.56,2.56V54.17a.73.73,0,0,0-1.46,0h0v5.22l-4.53-2.62a.73.73,0,0,0-1,.38.72.72,0,0,0,.24.88h0l4.53,2.62-4.53,2.62a.72.72,0,0,0-.16,1,.74.74,0,0,0,.88.24L34.88,62v5.22a.73.73,0,0,0,1.46,0h0V62l4.54,2.6a.73.73,0,0,0,1-.23h0a.74.74,0,0,0-.17-1Z"/></svg>