<svg width="86" height="86" viewBox="0 0 86 86" fill="none" xmlns="http://www.w3.org/2000/svg">
<path d="M47.4297 43.0749C56.4539 43.0245 63.7286 35.6681 63.6782 26.6439C63.6278 17.6197 56.2714 10.345 47.2472 10.3954C38.223 10.4458 30.9483 17.8022 30.9987 26.8264C31.0491 35.8506 38.4055 43.1253 47.4297 43.0749Z" fill="#EEEB61" fill-opacity="0.51"/>
<path d="M47.3399 39.2C54.2269 39.2 59.8099 33.617 59.8099 26.73C59.8099 19.843 54.2269 14.26 47.3399 14.26C40.4529 14.26 34.8699 19.843 34.8699 26.73C34.8699 33.617 40.4529 39.2 47.3399 39.2Z" fill="#F5B21A" stroke="#FDE901" stroke-miterlimit="10"/>
<path d="M67.2699 33.35C64.5729 29.039 59.8329 26.413 54.7479 26.413C47.7439 26.413 41.6559 31.395 40.2699 38.26C43.0289 38.513 45.5039 40.082 46.9099 42.47L45.7699 43.11C43.7699 39.69 39.9499 39.26 37.2999 39.44C34.0059 40.697 31.8179 43.874 31.8179 47.4C31.8179 52.06 35.6399 55.899 40.2999 55.92H65.9999C72.0109 55.612 76.7889 50.583 76.7889 44.565C76.7889 39.008 72.7159 34.225 67.2299 33.34L67.2699 33.35Z" fill="#919191"/>
<path d="M31.51 27.3701C30.71 22.9031 26.747 19.6441 22.21 19.7201C19.299 19.7051 16.534 21.0211 14.71 23.2901C16.71 23.6101 19.24 24.5001 20.34 26.9301L19.15 27.4701C17.79 24.4701 13.15 24.3701 12.44 24.3701C9.67299 25.3131 7.78599 27.9071 7.73999 30.8301C7.81999 34.6571 10.99 37.7621 14.818 37.7621C14.879 37.7621 14.939 37.7621 15 37.7601H31.4C31.422 37.7601 31.443 37.7601 31.465 37.7601C34.323 37.7601 36.675 35.4081 36.675 32.5501C36.675 29.7161 34.364 27.3751 31.53 27.3401L31.51 27.3701Z" fill="#919191"/>
<path fill-rule="evenodd" clip-rule="evenodd" d="M44.8232 57.0237C44.5332 56.9361 44.2257 57.1009 44.1382 57.3908L39.2534 73.5611C39.1658 73.851 39.3306 74.1585 39.6206 74.2461L40.4212 74.4879C40.7111 74.5755 41.0186 74.4107 41.1062 74.1208L45.991 57.9505C46.0785 57.6606 45.9137 57.3531 45.6238 57.2655L44.8232 57.0237Z" fill="#79CCF1"/>
<path fill-rule="evenodd" clip-rule="evenodd" d="M56.854 57.3989C56.5634 57.3098 56.2561 57.4729 56.167 57.7636L51.2322 73.8643C51.1431 74.1549 51.3062 74.4622 51.5969 74.5513L52.3905 74.7945C52.6811 74.8836 52.9884 74.7205 53.0775 74.4298L58.0123 58.3291C58.1013 58.0385 57.9382 57.7312 57.6476 57.6421L56.854 57.3989Z" fill="#79CCF1"/>
<path fill-rule="evenodd" clip-rule="evenodd" d="M33.155 57.4139C32.8644 57.3248 32.5571 57.4879 32.468 57.7786L27.5332 73.8793C27.4442 74.17 27.6073 74.4772 27.8979 74.5663L28.6915 74.8095C28.9821 74.8986 29.2894 74.7355 29.3785 74.4449L34.3133 58.3441C34.4024 58.0535 34.2393 57.7462 33.9486 57.6571L33.155 57.4139Z" fill="#79CCF1"/>
<path fill-rule="evenodd" clip-rule="evenodd" d="M68.5066 57.4291C68.2159 57.3401 67.9087 57.5032 67.8196 57.7938L62.8848 73.8946C62.7957 74.1852 62.9588 74.4925 63.2495 74.5816L64.043 74.8248C64.3337 74.9139 64.641 74.7508 64.7301 74.4601L69.6648 58.3594C69.7539 58.0687 69.5908 57.7615 69.3002 57.6724L68.5066 57.4291Z" fill="#79CCF1"/>
<path fill-rule="evenodd" clip-rule="evenodd" d="M50.7554 57.4169C50.4647 57.3279 50.1574 57.491 50.0684 57.7816L45.1336 73.8823C45.0445 74.173 45.2076 74.4803 45.4983 74.5694L46.2918 74.8126C46.5825 74.9017 46.8898 74.7386 46.9789 74.4479L51.9136 58.3472C52.0027 58.0565 51.8396 57.7492 51.5489 57.6602L50.7554 57.4169Z" fill="white"/>
<path fill-rule="evenodd" clip-rule="evenodd" d="M62.9063 57.4074C62.6156 57.3183 62.3083 57.4814 62.2192 57.7721L57.2845 73.8728C57.1954 74.1635 57.3585 74.4708 57.6491 74.5599L58.4427 74.8031C58.7334 74.8922 59.0407 74.729 59.1297 74.4384L64.0645 58.3377C64.1536 58.047 63.9905 57.7397 63.6998 57.6506L62.9063 57.4074Z" fill="white"/>
<path fill-rule="evenodd" clip-rule="evenodd" d="M39.2075 57.4223C38.9169 57.3332 38.6096 57.4963 38.5205 57.787L33.5857 73.8877C33.4966 74.1784 33.6598 74.4857 33.9504 74.5747L34.744 74.818C35.0346 74.9071 35.3419 74.7439 35.431 74.4533L40.3658 58.3526C40.4549 58.0619 40.2917 57.7546 40.0011 57.6655L39.2075 57.4223Z" fill="white"/>
<path fill-rule="evenodd" clip-rule="evenodd" d="M74.5564 57.4243C74.2658 57.3352 73.9585 57.4983 73.8694 57.7889L68.9346 73.8897C68.8455 74.1803 69.0086 74.4876 69.2993 74.5767L70.0929 74.8199C70.3835 74.909 70.6908 74.7459 70.7799 74.4552L75.7147 58.3545C75.8037 58.0639 75.6406 57.7566 75.35 57.6675L74.5564 57.4243Z" fill="white"/>
<path d="M77.48 48.54H60.5V65.52H77.48V48.54Z" fill="#CF2E29"/>
<path d="M73.5 61.68C72.395 62.043 71.243 62.239 70.08 62.26C68.571 62.36 67.083 61.86 65.94 60.87C64.959 59.883 64.433 58.53 64.49 57.14C64.49 53.74 66.98 51.78 70.34 51.78C71.311 51.75 72.278 51.92 73.18 52.28L72.69 54.14C71.935 53.82 71.119 53.669 70.3 53.7C70.293 53.7 70.286 53.7 70.279 53.7C68.447 53.7 66.939 55.208 66.939 57.04C66.939 58.872 68.447 60.38 70.279 60.38C70.625 60.38 70.97 60.326 71.3 60.22V58.14H69.69V56.33H73.5V61.68Z" fill="white"/>
</svg>
