<svg id="Calque_44" data-name="Calque 44" xmlns="http://www.w3.org/2000/svg" viewBox="0 0 85.23 85.24" width="50" height="50"><defs><style>.p28n-1{fill:#44454e;opacity:0.25;}.p28n-1,.p28n-3{isolation:isolate;}.p28n-2{fill:#fff;}.p28n-3{fill:#636573;opacity:0.18;}.p28n-4{fill:#fdfcea;}.p28n-5{fill:#919191;}.p28n-6{fill:#fdda00;}.p28n-7{fill:#f47a20;}</style></defs><title>44Plan de travail 1</title><circle class="p28n-1" cx="50.99" cy="33.16" r="22.87" transform="translate(-0.07 0.11) rotate(-0.12)"/><path class="p28n-2" d="M61.3,36.17a.89.89,0,0,0,.89-.89h0v-3a.89.89,0,1,0-1.77-.19.61.61,0,0,0,0,.19v3a.89.89,0,0,0,.88.9h0Z"/><path class="p28n-2" d="M63.71,33.8a.89.89,0,0,0-.89-.89h-3a.89.89,0,1,0-.19,1.77h3.25A.9.9,0,0,0,63.71,33.8Z"/><path class="p28n-2" d="M32.58,21.24a.89.89,0,0,0,.89-.89h0v-3a.89.89,0,1,0-1.77-.19.61.61,0,0,0,0,.19v3a.89.89,0,0,0,.88.9h0Z"/><path class="p28n-2" d="M35,18.8a.89.89,0,0,0-.89-.89h-3a.89.89,0,1,0-.19,1.77h3.22A.9.9,0,0,0,35,18.8Z"/><path class="p28n-2" d="M57.72,18.8a.89.89,0,0,0,.89-.89h0v-3a.89.89,0,1,0-1.77-.19.61.61,0,0,0,0,.19v3a.89.89,0,0,0,.88.9h0Z"/><path class="p28n-2" d="M60.14,16.41a.89.89,0,0,0-.89-.89h-3a.89.89,0,1,0-.19,1.77h3.22A.9.9,0,0,0,60.14,16.41Z"/><path class="p28n-3" d="M51,17.71a15.43,15.43,0,0,1,5.42-.29,15.51,15.51,0,0,0,6.68,28.44A15.56,15.56,0,1,1,50.94,17.71Z"/><path class="p28n-4" d="M46.88,18.41a15.4,15.4,0,0,1,5.37-.28,15.39,15.39,0,0,0,6.63,28.28,15.41,15.41,0,1,1-12-28Z"/><path class="p28n-5" d="M69,37.8a14.77,14.77,0,0,0-27,4.91,8.62,8.62,0,0,1,6.64,4.21l-1.14.64c-2-3.42-5.82-3.85-8.47-3.67a8.52,8.52,0,0,0,3,16.48H67.72A11.37,11.37,0,0,0,69,37.8Z"/><path class="p28n-5" d="M33.2,31.86a9.3,9.3,0,0,0-9.3-7.65,9.53,9.53,0,0,0-7.5,3.57c2,.32,4.53,1.21,5.63,3.64L20.84,32c-1.36-3-6-3.1-6.71-3.1a6.92,6.92,0,0,0-4.7,6.46,7.08,7.08,0,0,0,7.22,6.93H33.06a5.21,5.21,0,0,0,.13-10.42Z"/><polygon class="p28n-6" points="49.54 49.15 57.51 49.15 55.13 55.71 59.21 55.71 48.21 76.77 50.75 61.33 47.21 61.33 49.54 49.15"/><polygon class="p28n-7" points="47.95 47.55 55.9 47.55 53.54 54.12 57.61 54.12 46.61 75.19 49.13 59.72 45.62 59.72 47.95 47.55"/><polygon class="p28n-6" points="64.65 49.15 72.62 49.15 70.25 55.71 74.32 55.71 63.32 76.77 65.86 61.33 62.33 61.33 64.65 49.15"/><polygon class="p28n-7" points="63.06 47.55 71.02 47.55 68.65 54.12 72.73 54.12 61.73 75.19 64.24 59.72 60.73 59.72 63.06 47.55"/></svg>