<svg id="Calque_45" data-name="Calque 45" xmlns="http://www.w3.org/2000/svg" viewBox="0 0 85.23 85.24" width="50" height="50"><defs><style>.p29-1{fill:#919191;}.p29-2{fill:#fdda00;}.p29-3{fill:#f47a20;}</style></defs><title>45Plan de travail 1</title><path class="p29-1" d="M69,32.13a14.77,14.77,0,0,0-27,4.93,8.62,8.62,0,0,1,6.64,4.21l-1.14.64c-2-3.42-5.82-3.85-8.47-3.67a8.52,8.52,0,0,0,3,16.48H67.72A11.37,11.37,0,0,0,69,32.14Z"/><path class="p29-1" d="M33.2,26.15a9.3,9.3,0,0,0-9.32-7.59,9.53,9.53,0,0,0-7.5,3.57c2,.32,4.53,1.21,5.63,3.64l-1.19.54c-1.36-3-6-3.1-6.71-3.1a6.92,6.92,0,0,0-4.7,6.46,7.08,7.08,0,0,0,7.22,6.93H33a5.21,5.21,0,0,0,.13-10.42Z"/><polygon class="p29-2" points="50.55 43.58 58.48 43.58 56.11 50.12 60.17 50.12 49.23 71.08 51.75 55.68 48.23 55.68 50.55 43.58"/><polygon class="p29-3" points="48.97 41.98 56.88 41.98 54.54 48.53 58.58 48.53 47.63 69.5 50.15 54.1 46.65 54.1 48.97 41.98"/><polygon class="p29-2" points="65.59 43.58 73.52 43.58 71.17 50.12 75.21 50.12 64.27 71.08 66.79 55.68 63.28 55.68 65.59 43.58"/><polygon class="p29-3" points="64.01 41.98 71.93 41.98 69.58 48.53 73.63 48.53 62.69 69.5 65.19 54.1 61.69 54.1 64.01 41.98"/></svg>