<?xml version="1.0" encoding="utf-8"?>
<!-- Generator: Adobe Illustrator 24.0.2, SVG Export Plug-In . SVG Version: 6.00 Build 0)  -->
<svg version="1.1" id="Calque_5" xmlns="http://www.w3.org/2000/svg" xmlns:xlink="http://www.w3.org/1999/xlink" width="50" height="50" x="0px" y="0px"
	 viewBox="0 0 85.2 85.2" style="enable-background:new 0 0 85.2 85.2;" xml:space="preserve">
<style type="text/css">
	.p2bisj-0{opacity:0.51;fill:#EFEB60;enable-background:new    ;}
	.p2bisj-1{fill:#F6B31A;stroke:#FEEA02;stroke-miterlimit:10;}
	.p2bisj-2{opacity:0.3;}
	.p2bisj-3{fill:#231F20;}
	.p2bisj-4{fill:#D8D9D8;}
</style>
<g>
	<circle class="p2bisj-0" cx="39.8" cy="40" r="22.9"/>
	<circle class="p2bisj-1" cx="39.8" cy="40" r="17.5"/>
	<g class="p2bisj-2">
		<path class="p2bisj-3" d="M68.9,45.6c-4.3-7-13.4-9.1-20.3-4.9c-3.5,2.2-6,5.7-6.8,9.8c2.8,0.3,5.2,1.8,6.6,4.2l-1.1,0.6
			c-2-3.4-5.8-3.9-8.5-3.7c-4.4,1.7-6.6,6.6-4.9,11c1.3,3.3,4.4,5.5,7.9,5.5h25.8c6.3-0.3,11.1-5.7,10.8-11.9
			C78.2,50.8,74.2,46.4,68.9,45.6L68.9,45.6z"/>
		<path class="p2bisj-3" d="M33.1,39.6c-0.8-4.5-4.7-7.7-9.3-7.6c-2.9,0-5.7,1.3-7.5,3.6c2,0.3,4.5,1.2,5.6,3.6l-1.2,0.5
			c-1.4-3-6-3.1-6.7-3.1c-2.8,0.9-4.7,3.5-4.7,6.5c0.1,3.9,3.3,7,7.2,6.9c0,0,0,0,0,0H33c2.9,0,5.2-2.3,5.3-5.1
			C38.3,42,36,39.7,33.1,39.6L33.1,39.6z"/>
	</g>
	<path class="p2bisj-4" d="M66.3,43C62,36.1,52.9,34,46,38.3c-3.4,2.2-5.8,5.6-6.6,9.6c2.8,0.3,5.2,1.8,6.6,4.2l-1.1,0.6
		c-2-3.4-5.8-3.9-8.5-3.7c-4.4,1.7-6.6,6.6-4.9,11c1.3,3.3,4.4,5.4,7.9,5.5h25.7c6.3-0.3,11.1-5.6,10.8-11.9
		C75.6,48.3,71.6,43.8,66.3,43z"/>
	<path class="p2bisj-4" d="M30.5,37c-0.8-4.5-4.7-7.7-9.3-7.6c-2.9,0-5.7,1.3-7.5,3.6c2,0.3,4.5,1.2,5.6,3.6l-1.2,0.5
		c-1.4-3-6-3.1-6.7-3.1c-2.8,0.9-4.7,3.5-4.7,6.5c0.1,3.9,3.3,7,7.2,6.9c0,0,0,0,0,0h16.5c2.9,0,5.2-2.3,5.3-5.1
		C35.8,39.4,33.5,37,30.5,37L30.5,37z"/>
</g>
</svg>
