<?xml version="1.0" encoding="utf-8"?>
<!-- Generator: Adobe Illustrator 24.0.2, SVG Export Plug-In . SVG Version: 6.00 Build 0)  -->
<svg version="1.1" id="Calque_5" xmlns="http://www.w3.org/2000/svg" xmlns:xlink="http://www.w3.org/1999/xlink" width="50" height="50" x="0px" y="0px"
	 viewBox="0 0 85.2 85.2" style="enable-background:new 0 0 85.2 85.2;" xml:space="preserve">
<style type="text/css">
	.p2bisn-0{opacity:0.18;fill:#43444D;enable-background:new    ;}
	.p2bisn-1{fill:#FFFFFF;}
	.p2bisn-2{opacity:0.18;fill:#626472;enable-background:new    ;}
	.p2bisn-3{fill:#FDFCE9;}
	.p2bisn-4{opacity:0.3;}
	.p2bisn-5{fill:#231F20;}
	.p2bisn-6{fill:#D8D9D8;}
</style>
<g>
	<g>
		<circle class="p2bisn-0" cx="43.7" cy="36.4" r="24"/>
		<path class="p2bisn-1" d="M54.5,39.5c0.5,0,0.9-0.4,0.9-0.9l0,0v-3.2c0-0.5-0.4-0.9-0.9-0.9s-0.9,0.4-0.9,0.9l0,0v3.2
			C53.6,39.1,54,39.5,54.5,39.5C54.5,39.5,54.5,39.5,54.5,39.5L54.5,39.5L54.5,39.5z"/>
		<path class="p2bisn-1" d="M57,37c0-0.5-0.4-0.9-0.9-0.9h-3.2c-0.5,0-0.9,0.4-0.9,0.9c0,0.5,0.4,0.9,0.9,0.9h3.2
			C56.6,37.9,57,37.5,57,37L57,37L57,37L57,37z"/>
		<path class="p2bisn-1" d="M24.4,26.9c0.5,0,0.9-0.4,0.9-0.9l0,0v-3.2c0-0.5-0.4-0.9-0.9-0.9s-0.9,0.4-0.9,0.9l0,0v3.2
			C23.4,26.5,23.8,26.9,24.4,26.9C24.3,26.9,24.3,26.9,24.4,26.9L24.4,26.9L24.4,26.9z"/>
		<path class="p2bisn-1" d="M26.9,24.4c0-0.5-0.4-0.9-0.9-0.9h-3.2c-0.5,0-0.9,0.4-0.9,0.9c0,0.5,0.4,0.9,0.9,0.9h3.2
			C26.4,25.4,26.9,25,26.9,24.4L26.9,24.4L26.9,24.4z"/>
		<path class="p2bisn-2" d="M42.6,20.4c1.9-0.4,3.8-0.5,5.7-0.3c-7.5,4.9-9.7,15-4.7,22.6c2.6,4,6.9,6.7,11.7,7.3
			c-7.5,4.9-17.7,2.8-22.6-4.7s-2.8-17.7,4.7-22.6C39,21.6,40.7,20.8,42.6,20.4L42.6,20.4z"/>
		<path class="p2bisn-1" d="M50.7,24.4c0.5,0,0.9-0.4,0.9-0.9l0,0v-3.2c0-0.5-0.4-0.9-0.9-0.9s-0.9,0.4-0.9,0.9l0,0v3.1
			C49.8,23.9,50.1,24.4,50.7,24.4L50.7,24.4z"/>
		<path class="p2bisn-1" d="M53.2,21.8c0-0.5-0.4-0.9-0.9-0.9h-3.2c-0.5,0-0.9,0.4-0.9,0.9c0,0.5,0.4,0.9,0.9,0.9h3.2
			C52.8,22.8,53.3,22.4,53.2,21.8L53.2,21.8L53.2,21.8z"/>
		<path class="p2bisn-3" d="M39.4,21c1.8-0.4,3.8-0.5,5.6-0.3c-7.5,4.9-9.5,14.9-4.6,22.4c2.6,4,6.9,6.6,11.6,7.2
			c-7.5,4.9-17.5,2.8-22.4-4.6s-2.8-17.5,4.6-22.4C35.8,22.2,37.5,21.4,39.4,21z"/>
	</g>
	<g class="p2bisn-4">
		<path class="p2bisn-5" d="M68.9,50.3c-4.3-7-13.4-9.1-20.3-4.9c-3.5,2.2-6,5.7-6.8,9.8c2.8,0.3,5.2,1.8,6.6,4.2L47.3,60
			c-2-3.4-5.8-3.9-8.5-3.7c-4.4,1.7-6.6,6.6-4.9,11c1.3,3.3,4.4,5.5,7.9,5.5h25.8c6.3-0.3,11.1-5.7,10.8-11.9
			C78.2,55.5,74.2,51.1,68.9,50.3L68.9,50.3z"/>
		<path class="p2bisn-5" d="M33.1,44.3c-0.8-4.5-4.7-7.7-9.3-7.6c-2.9,0-5.7,1.3-7.5,3.6c2,0.3,4.5,1.2,5.6,3.6l-1.2,0.5
			c-1.4-3-6-3.1-6.7-3.1c-2.8,0.9-4.7,3.5-4.7,6.5c0.1,3.9,3.3,7,7.2,6.9c0,0,0,0,0,0H33c2.9,0,5.2-2.3,5.3-5.1
			C38.3,46.7,36,44.3,33.1,44.3L33.1,44.3z"/>
	</g>
	<path class="p2bisn-6" d="M66.3,47.7C62,40.7,52.9,38.6,46,43c-3.4,2.2-5.8,5.6-6.6,9.6c2.8,0.3,5.2,1.8,6.6,4.2l-1.1,0.6
		c-2-3.4-5.8-3.9-8.5-3.7c-4.4,1.7-6.6,6.6-4.9,11c1.3,3.3,4.4,5.4,7.9,5.5h25.7c6.3-0.3,11.1-5.6,10.8-11.9
		C75.6,53,71.6,48.5,66.3,47.7z"/>
	<path class="p2bisn-6" d="M30.5,41.7c-0.8-4.5-4.7-7.7-9.3-7.6c-2.9,0-5.7,1.3-7.5,3.6c2,0.3,4.5,1.2,5.6,3.6l-1.2,0.5
		c-1.4-3-6-3.1-6.7-3.1c-2.8,0.9-4.7,3.5-4.7,6.5c0.1,3.9,3.3,7,7.2,6.9c0,0,0,0,0,0h16.5c2.9,0,5.2-2.3,5.3-5.1
		C35.8,44,33.5,41.7,30.5,41.7L30.5,41.7z"/>
</g>
</svg>
