<svg version="1.1" id="Calque_5" xmlns="http://www.w3.org/2000/svg" xmlns:xlink="http://www.w3.org/1999/xlink" x="0px" y="0px" width="50" height="50" viewBox="0 0 50 50" style="enable-background:new 0 0 50 50;" xml:space="preserve">
	<style type="text/css">
	.st0{opacity:0.51;fill:#EEEB61;enable-background:new    ;}
	.st1{fill:#F5B21A;stroke:#FDE901;stroke-width:0.5866;stroke-miterlimit:5.8658;}
	.st2{opacity:0.8;fill:#FFFFFF;stroke:#CAD9E8;stroke-width:2;stroke-miterlimit:10;enable-background:new    ;}
</style>
	<circle class="st0" cx="24.9" cy="24.2" r="13.4" />
	<circle class="st1" cx="24.9" cy="24.2" r="10.2" />
	<path class="st2" d="M40.1,26.5c-2.5-4.1-7.9-5.3-11.9-2.8c-2.2,1.3-3.6,3.5-4,6c-2.8,0.3-4.8,2.7-4.5,5.5c0.2,2.4,2.2,4.3,4.6,4.5
	h15.1c3.7-0.3,6.4-3.4,6.2-7.1C45.3,29.5,43.1,27,40.1,26.5z" />
	<path class="st2" d="M7.2,19.1c0.9-1.3,2.4-2.1,4-2.1c2.2,0,4.2,1.6,4.6,3.8c1.4,0,2.6,1.1,2.7,2.5c0,1.4-1.1,2.6-2.5,2.7H7.6
	c-1.9,0-3.5-1.5-3.6-3.4C3.9,20.8,5.3,19.2,7.2,19.1L7.2,19.1z" />
</svg>
