<?xml version="1.0" encoding="utf-8"?>
<!-- Generator: Adobe Illustrator 24.0.2, SVG Export Plug-In . SVG Version: 6.00 Build 0)  -->
<svg version="1.1" id="orage_de_neige" xmlns="http://www.w3.org/2000/svg" xmlns:xlink="http://www.w3.org/1999/xlink" x="0px"
	 y="0px" viewBox="0 0 85.2 85.2" style="enable-background:new 0 0 85.2 85.2;" xml:space="preserve" width="50" height="50">
<style type="text/css">
	.p34j-0{fill:#C6C6C6;}
	.p34j-1{fill:#9E9E9E;}
	.p34j-2{fill:#686868;}
</style>
<path class="p34j-0" d="M26.3,63.2c-8.5-6.7-12.2-18.2-8.5-29C25.1,12.5,48.7,0.9,70.3,8.3c4.3,1.5,8.9,4.1,12.2,7.1
	c-8.4-0.1-16.7,2.3-23.6,6.7c8.5,6.7,12.2,18.2,8.5,29C60,72.8,36.5,84.3,14.8,77c-4.3-1.5-9.2-4.1-12.2-7.1
	C11.1,69.9,19.3,67.6,26.3,63.2z"/>
<path class="p34j-1" d="M27.2,32.2c0.5-1.3,1.1-2.6,1.8-3.7c-0.3,3.2,0.3,6.4,1.6,9.2C34,28.8,43.9,24.1,53,27.2
	c1.3,0.5,2.6,1.1,3.7,1.8c-3.2-0.3-6.4,0.3-9.2,1.6C56.4,34,61.1,43.9,58,53c-0.5,1.3-1.1,2.6-1.8,3.7c0.3-3.2-0.3-6.4-1.6-9.2
	C51.2,56.4,41.3,61.1,32.2,58c-1.3-0.5-2.6-1.1-3.7-1.8c3.2,0.3,6.4-0.3,9.2-1.6C28.8,51.2,24.1,41.3,27.2,32.2L27.2,32.2z"/>
<circle class="p34j-2" cx="42.8" cy="42.7" r="6.3"/>
</svg>
