<svg id="Calque_7" data-name="Calque 7" xmlns="http://www.w3.org/2000/svg" viewBox="0 0 85.23 85.24" width="50" height="50"><defs><style>.p3n-1{opacity:0.3;}.p3n-2{fill:#231f20;}.p3n-3{fill:#d8d9d8;}</style></defs><title>7Plan de travail 1</title><g class="p3n-1"><path class="p3n-2" d="M69.47,40a14.77,14.77,0,0,0-27.1,4.91A8.65,8.65,0,0,1,49,49.12l-1.14.64c-2-3.42-5.82-3.85-8.47-3.67a8.52,8.52,0,0,0,3,16.48H68.22A11.37,11.37,0,0,0,69.45,40Z"/><path class="p3n-2" d="M33.69,34a9.3,9.3,0,0,0-9.3-7.65A9.54,9.54,0,0,0,16.88,30c2,.32,4.53,1.21,5.63,3.64l-1.19.54c-1.36-3-6-3.1-6.71-3.1a6.92,6.92,0,0,0-4.7,6.46,7.08,7.08,0,0,0,7.22,6.93H33.56a5.21,5.21,0,0,0,.13-10.42Z"/></g><path class="p3n-3" d="M66.88,37.4a14.77,14.77,0,0,0-27,4.91,8.61,8.61,0,0,1,6.63,4.23l-1.14.64c-2-3.42-5.82-3.85-8.47-3.67A8.52,8.52,0,0,0,39.9,60H65.61A11.37,11.37,0,0,0,66.88,37.4Z"/><path class="p3n-3" d="M31.08,31.43a9.3,9.3,0,0,0-9.3-7.65,9.53,9.53,0,0,0-7.5,3.57c2,.32,4.53,1.21,5.63,3.64l-1.19.54c-1.36-3-6-3.1-6.71-3.1a6.92,6.92,0,0,0-4.7,6.46,7.08,7.08,0,0,0,7.22,6.93H31a5.21,5.21,0,0,0,.13-10.42Z"/></svg>