<svg version="1.1" id="Calque_3" xmlns="http://www.w3.org/2000/svg" xmlns:xlink="http://www.w3.org/1999/xlink" x="0px" y="0px"
	 viewBox="0 0 50 50" style="enable-background:new 0 0 50 50;" xml:space="preserve" width="50" height="50">
<style type="text/css">
	.st0{opacity:0.51;fill:#EEEB61;enable-background:new    ;}
	.st1{fill:#F5B21A;stroke:#FDE901;stroke-width:0.5866;stroke-miterlimit:5.8658;}
	.st2{opacity:0.9;}
	.st3{fill:#F4F4F4;stroke:#CAD9E8;stroke-width:2;stroke-miterlimit:10;}
</style>
<circle class="st0" cx="25" cy="25.8" r="15.3"/>
<circle class="st1" cx="25" cy="25.8" r="11.7"/>
<g class="st2">
	<path class="st3" d="M7.4,20.9h24.3c0.5,0,1,0.4,1,1v1.5c0,0.5-0.4,1-1,1H7.4c-0.5,0-1-0.4-1-1v-1.5C6.4,21.3,6.9,20.9,7.4,20.9z"
		/>
	<path class="st3" d="M18.3,27.8h24.3c0.5,0,1,0.4,1,1v1.5c0,0.5-0.4,1-1,1H18.3c-0.5,0-1-0.4-1-1v-1.5
		C17.3,28.3,17.7,27.8,18.3,27.8z"/>
</g>
</svg>
