<svg version="1.1" id="Calque_5" xmlns="http://www.w3.org/2000/svg" xmlns:xlink="http://www.w3.org/1999/xlink" x="0px" y="0px"
	 viewBox="0 0 50 50" style="enable-background:new 0 0 50 50;" xml:space="preserve" width="50" height="50">
<style type="text/css">
	.st0{opacity:0.18;fill:#43444D;enable-background:new    ;}
	.st1{fill:#FFFFFF;}
	.st2{opacity:0.18;fill:#626472;enable-background:new    ;}
	.st3{fill:#FDFCE9;}
	.st4{opacity:0.9;}
	.st5{fill:#F4F4F4;stroke:#CAD9E8;stroke-width:2;stroke-miterlimit:10;}
</style>
<g>
	<ellipse class="st0" cx="25.2" cy="25" rx="14.9" ry="15.3"/>
	<path class="st1" d="M32,27c0.3,0,0.6-0.2,0.6-0.6v-2.1c0-0.4-0.3-0.6-0.6-0.6c-0.3,0-0.6,0.3-0.6,0.6v2.1C31.4,26.8,31.6,27,32,27
		L32,27z"/>
	<path class="st1" d="M33.5,25.4c0-0.4-0.2-0.6-0.6-0.6H31c-0.3,0-0.6,0.3-0.6,0.6c0,0.3,0.3,0.6,0.6,0.6h2
		C33.3,26,33.5,25.8,33.5,25.4L33.5,25.4z"/>
	<path class="st1" d="M13.3,17.6c0.3,0,0.6-0.2,0.6-0.6v-2c0-0.4-0.3-0.6-0.6-0.6s-0.6,0.3-0.6,0.6v2C12.6,17.3,12.9,17.6,13.3,17.6
		L13.3,17.6z"/>
	<path class="st1" d="M14.8,16c0-0.4-0.2-0.6-0.6-0.6h-2c-0.3,0-0.6,0.3-0.6,0.6c0,0.3,0.3,0.6,0.6,0.6h2
		C14.6,16.6,14.8,16.4,14.8,16L14.8,16L14.8,16z"/>
	<path class="st1" d="M29.6,16c0.3,0,0.6-0.2,0.6-0.6v-2.1c0-0.4-0.3-0.6-0.6-0.6S29,13,29,13.3v2.1C29,15.7,29.3,16,29.6,16
		L29.6,16z"/>
	<path class="st1" d="M31.2,14.4c0-0.4-0.2-0.6-0.6-0.6h-2c-0.3,0-0.6,0.3-0.6,0.6s0.3,0.6,0.6,0.6h2C31,15,31.2,14.7,31.2,14.4
		L31.2,14.4L31.2,14.4z"/>
	<path class="st2" d="M25.7,15c1.1-0.3,2.3-0.4,3.5-0.2c-4.6,3.1-5.9,9.5-2.9,14.3c1.7,2.6,4.3,4.3,7.3,4.6
		c-4.7,3.1-10.9,1.6-13.9-3.1c-3-4.8-1.6-11.2,3-14.3C23.6,15.8,24.7,15.3,25.7,15z"/>
	<path class="st3" d="M22.6,15.1c1.1-0.3,2.3-0.4,3.5-0.2c-4.6,3.1-5.9,9.5-2.9,14.3c1.6,2.5,4.3,4.2,7.2,4.6
		c-4.7,3.1-10.9,1.6-13.9-3.1c-3-4.8-1.7-11.2,3-14.3C20.5,15.8,21.5,15.4,22.6,15.1L22.6,15.1z"/>
	<g class="st4">
		<path class="st5" d="M7.4,20.7H31c0.5,0,1,0.4,1,1v1.5c0,0.5-0.4,1-1,1H7.4c-0.5,0-1-0.4-1-1v-1.5C6.5,21.1,6.9,20.7,7.4,20.7z"/>
		<path class="st5" d="M18,27.6h23.6c0.5,0,1,0.4,1,1v1.5c0,0.5-0.4,1-1,1H18c-0.5,0-1-0.4-1-1v-1.5C17,28.1,17.4,27.6,18,27.6z"/>
	</g>
</g>
</svg>
