<?xml version="1.0" encoding="utf-8"?>
<!-- Generator: Adobe Illustrator 24.0.2, SVG Export Plug-In . SVG Version: 6.00 Build 0)  -->
<svg version="1.1" id="Calque_10" xmlns="http://www.w3.org/2000/svg" xmlns:xlink="http://www.w3.org/1999/xlink" width="50" height="50" x="0px" y="0px"
	 viewBox="0 0 85.2 85.2" style="enable-background:new 0 0 85.2 85.2;" xml:space="preserve">
<style type="text/css">
	.p6bisj-0{fill:#BCBCBC;}
	.p6bisj-1{fill:#F4F4F4;}
</style>
<title>10Plan de travail 1</title>
<path class="p6bisj-0" d="M16.2,33.7h41.4c0.9,0,1.7,0.7,1.7,1.7V38c0,0.9-0.7,1.7-1.7,1.7H16.2c-0.9,0-1.7-0.7-1.7-1.7v-2.6
	C14.5,34.4,15.2,33.7,16.2,33.7z"/>
<path class="p6bisj-0" d="M19.6,49.4H61c0.9,0,1.7,0.7,1.7,1.7v2.6c0,0.9-0.7,1.7-1.7,1.7H19.6c-0.9,0-1.7-0.7-1.7-1.7V51
	C18,50.1,18.7,49.4,19.6,49.4z"/>
<path class="p6bisj-0" d="M30.3,41.6h41.4c0.9,0,1.7,0.7,1.7,1.7v2.6c0,0.9-0.7,1.7-1.7,1.7H30.3c-0.9,0-1.7-0.7-1.7-1.7v-2.6
	C28.6,42.3,29.4,41.6,30.3,41.6z"/>
<path class="p6bisj-1" d="M13.5,31.1H55c0.9,0,1.7,0.7,1.7,1.7v2.6c0,0.9-0.7,1.7-1.7,1.7H13.5c-0.9,0-1.7-0.7-1.7-1.7v-2.6
	C11.9,31.8,12.6,31.1,13.5,31.1z"/>
<path class="p6bisj-1" d="M17,46.8h41.4c0.9,0,1.7,0.7,1.7,1.7v2.6c0,0.9-0.7,1.7-1.7,1.7H17c-0.9,0-1.7-0.7-1.7-1.7v-2.6
	C15.3,47.5,16.1,46.8,17,46.8z"/>
<path class="p6bisj-1" d="M27.7,39h41.4c0.9,0,1.7,0.7,1.7,1.7v2.6c0,0.9-0.7,1.7-1.7,1.7H27.7c-0.9,0-1.7-0.7-1.7-1.7v-2.6
	C26,39.7,26.7,39,27.7,39z"/>
</svg>
