<svg width="86" height="86" viewBox="0 0 86 86" fill="none" xmlns="http://www.w3.org/2000/svg">
<path d="M16.2 33.7H57.6C58.5 33.7 59.3 34.4 59.3 35.4V38C59.3 38.9 58.6 39.7 57.6 39.7H16.2C15.3 39.7 14.5 39 14.5 38V35.4C14.5 34.4 15.2 33.7 16.2 33.7Z" fill="#BCBCBC"/>
<path d="M19.5999 49.4H60.9999C61.8999 49.4 62.6999 50.1 62.6999 51.1V53.7C62.6999 54.6 61.9999 55.4 60.9999 55.4H19.5999C18.6999 55.4 17.8999 54.7 17.8999 53.7V51C17.9999 50.1 18.6999 49.4 19.5999 49.4Z" fill="#BCBCBC"/>
<path d="M30.3001 41.6H71.7001C72.6001 41.6 73.4001 42.3 73.4001 43.3V45.9C73.4001 46.8 72.7001 47.6 71.7001 47.6H30.3001C29.4001 47.6 28.6001 46.9 28.6001 45.9V43.3C28.6001 42.3 29.4001 41.6 30.3001 41.6Z" fill="#BCBCBC"/>
<path d="M13.5 31.1H55C55.9 31.1 56.7001 31.8 56.7001 32.8V35.4C56.7001 36.3 56 37.1 55 37.1H13.5C12.6 37.1 11.8 36.4 11.8 35.4V32.8C11.9 31.8 12.6 31.1 13.5 31.1Z" fill="#F4F4F4"/>
<path d="M17 46.8H58.4001C59.3001 46.8 60.1 47.5 60.1 48.5V51.1C60.1 52 59.4001 52.8 58.4001 52.8H17C16.1 52.8 15.3 52.1 15.3 51.1V48.5C15.3 47.5 16.1 46.8 17 46.8Z" fill="#F4F4F4"/>
<path d="M27.7 39H69.1C70 39 70.8 39.7 70.8 40.7V43.3C70.8 44.2 70.1 45 69.1 45H27.7C26.8 45 26 44.3 26 43.3V40.7C26 39.7 26.7 39 27.7 39Z" fill="#F4F4F4"/>
</svg>
