<?xml version="1.0" encoding="utf-8"?>
<!-- Generator: Adobe Illustrator 24.0.2, SVG Export Plug-In . SVG Version: 6.00 Build 0)  -->
<svg version="1.1" id="Calque_11" xmlns="http://www.w3.org/2000/svg" xmlns:xlink="http://www.w3.org/1999/xlink" width="50" height="50" x="0px" y="0px"
	 viewBox="0 0 85.2 85.2" style="enable-background:new 0 0 85.2 85.2;" xml:space="preserve">
<style type="text/css">
	.p7bisj-0{fill:#BCBCBC;}
	.p7bisj-1{fill:#F4F4F4;}
</style>
<title>11Plan de travail 1</title>
<path class="p7bisj-0" d="M16,23.9h41.8c0.8,0,1.5,0.7,1.5,1.5v2.3c0,0.8-0.7,1.5-1.5,1.5H16c-0.8,0-1.5-0.7-1.5-1.5v-2.3
	C14.5,24.6,15.1,23.9,16,23.9z"/>
<path class="p7bisj-0" d="M19.4,37.7h41.8c0.8,0,1.5,0.7,1.5,1.5v2.3c0,0.8-0.7,1.5-1.5,1.5H19.4c-0.8,0-1.5-0.7-1.5-1.5v-2.3
	C18,38.4,18.6,37.7,19.4,37.7z"/>
<path class="p7bisj-0" d="M30.1,30.9h41.8c0.8,0,1.5,0.7,1.5,1.5v2.3c0,0.8-0.7,1.5-1.5,1.5H30.1c-0.8,0-1.5-0.7-1.5-1.5v-2.3
	C28.6,31.5,29.3,30.9,30.1,30.9z"/>
<path class="p7bisj-1" d="M13.3,21.6h41.8c0.8,0,1.5,0.7,1.5,1.5v2.3c0,0.8-0.7,1.5-1.5,1.5H13.3c-0.8,0-1.5-0.7-1.5-1.5v-2.3
	C11.9,22.3,12.5,21.6,13.3,21.6z"/>
<path class="p7bisj-1" d="M16.8,35.4h41.8c0.8,0,1.5,0.7,1.5,1.5v2.3c0,0.8-0.7,1.5-1.5,1.5H16.8c-0.8,0-1.5-0.7-1.5-1.5v-2.3
	C15.3,36.1,16,35.4,16.8,35.4z"/>
<path class="p7bisj-1" d="M27.5,28.6h41.8c0.8,0,1.5,0.7,1.5,1.5v2.3c0,0.8-0.7,1.5-1.5,1.5H27.5c-0.8,0-1.5-0.7-1.5-1.5V30
	C26,29.2,26.6,28.6,27.5,28.6z"/>
<path class="p7bisj-0" d="M16,45.8h41.8c0.8,0,1.5,0.7,1.5,1.5v2.3c0,0.8-0.7,1.5-1.5,1.5H16c-0.8,0-1.5-0.7-1.5-1.5v-2.3
	C14.5,46.4,15.1,45.8,16,45.8z"/>
<path class="p7bisj-0" d="M19.4,59.5h41.8c0.8,0,1.5,0.7,1.5,1.5v2.3c0,0.8-0.7,1.5-1.5,1.5H19.4c-0.8,0-1.5-0.7-1.5-1.5V61
	C18,60.2,18.6,59.5,19.4,59.5z"/>
<path class="p7bisj-0" d="M30.1,52.7h41.8c0.8,0,1.5,0.7,1.5,1.5v2.3c0,0.8-0.7,1.5-1.5,1.5H30.1c-0.8,0-1.5-0.7-1.5-1.5v-2.3
	C28.6,53.4,29.3,52.7,30.1,52.7z"/>
<path class="p7bisj-1" d="M13.3,43.5h41.8c0.8,0,1.5,0.7,1.5,1.5v2.3c0,0.8-0.7,1.5-1.5,1.5H13.3c-0.8,0-1.5-0.7-1.5-1.5v-2.3
	C11.9,44.1,12.5,43.5,13.3,43.5z"/>
<path class="p7bisj-1" d="M16.8,57.2h41.8c0.8,0,1.5,0.7,1.5,1.5V61c0,0.8-0.7,1.5-1.5,1.5H16.8c-0.8,0-1.5-0.7-1.5-1.5v-2.3
	C15.3,57.9,16,57.2,16.8,57.2z"/>
<path class="p7bisj-1" d="M27.5,50.4h41.8c0.8,0,1.5,0.7,1.5,1.5v2.3c0,0.8-0.7,1.5-1.5,1.5H27.5c-0.8,0-1.5-0.7-1.5-1.5v-2.3
	C26,51.1,26.6,50.4,27.5,50.4z"/>
</svg>
