<?xml version="1.0" encoding="utf-8"?>
<!-- Generator: Adobe Illustrator 24.0.2, SVG Export Plug-In . SVG Version: 6.00 Build 0)  -->
<svg version="1.1" id="Calque_13" xmlns="http://www.w3.org/2000/svg" xmlns:xlink="http://www.w3.org/1999/xlink" width="50" height="50" x="0px" y="0px"
	 viewBox="0 0 85.2 85.2" style="enable-background:new 0 0 85.2 85.2;" xml:space="preserve">
<style type="text/css">
	.p9j-0{opacity:0.3;}
	.p9j-1{fill:#231F20;}
	.p9j-2{fill:#D8D9D8;}
	.p9j-3{fill:#79CCF1;}
	.p9j-4{fill:#FFFFFF;}
</style>
<title>13Plan de travail 1</title>
<g class="p9j-0">
	<path class="p9j-1" d="M69,31c-4.3-6.9-13.4-9-20.4-4.7c-3.4,2.2-5.8,5.6-6.6,9.6c2.7,0.3,5.2,1.8,6.6,4.2l-1.1,0.6
		c-2-3.4-5.8-3.8-8.5-3.7c-4.4,1.7-6.6,6.6-4.9,11c1.3,3.3,4.4,5.4,7.9,5.5h25.7c6.3-0.4,11-5.8,10.7-12C78.1,36.3,74.2,31.9,69,31z
		"/>
	<path class="p9j-1" d="M33.2,25c-0.8-4.5-4.7-7.7-9.3-7.6c-2.9,0-5.7,1.3-7.5,3.6c2,0.3,4.5,1.2,5.6,3.6l-1.1,0.5
		c-1.4-3-6-3.1-6.7-3.1c-2.8,0.9-4.7,3.5-4.7,6.5c0.1,3.9,3.3,7,7.2,6.9h16.4c2.9-0.2,5-2.7,4.8-5.6C37.7,27.3,35.7,25.3,33.2,25
		L33.2,25L33.2,25z"/>
</g>
<path class="p9j-2" d="M66.3,28.4C62.1,21.4,53,19.3,46,23.5c-3.5,2.2-6,5.7-6.8,9.8c2.8,0.3,5.2,1.8,6.6,4.2l-1.1,0.6
	c-2-3.4-5.8-3.8-8.5-3.7c-4.4,1.7-6.6,6.6-4.9,11c1.3,3.3,4.4,5.5,7.9,5.5h25.8c6.3-0.3,11.1-5.7,10.8-11.9
	C75.6,33.6,71.6,29.2,66.3,28.4L66.3,28.4z"/>
<path class="p9j-2" d="M30.6,22.4c-0.8-4.5-4.7-7.7-9.3-7.6c-2.9,0-5.7,1.3-7.5,3.6c2,0.3,4.5,1.2,5.6,3.6l-1.2,0.5
	c-1.4-3-6-3.1-6.7-3.1c-2.8,0.9-4.7,3.5-4.7,6.5c0.1,3.9,3.3,7,7.2,6.9h16.5c2.9,0,5.2-2.3,5.3-5.1C35.8,24.8,33.5,22.4,30.6,22.4
	L30.6,22.4L30.6,22.4z"/>
<circle class="p9j-3" cx="66.9" cy="56.3" r="1.6"/>
<circle class="p9j-3" cx="64.3" cy="60.2" r="1.6"/>
<circle class="p9j-3" cx="61.7" cy="64.1" r="1.6"/>
<circle class="p9j-3" cx="59.1" cy="68" r="1.6"/>
<circle class="p9j-3" cx="52.5" cy="56.3" r="1.6"/>
<circle class="p9j-3" cx="49.9" cy="60.2" r="1.6"/>
<circle class="p9j-3" cx="47.3" cy="64.1" r="1.6"/>
<circle class="p9j-3" cx="44.7" cy="68" r="1.6"/>
<circle class="p9j-3" cx="38.2" cy="56.3" r="1.6"/>
<circle class="p9j-3" cx="35.5" cy="60.2" r="1.6"/>
<circle class="p9j-3" cx="32.9" cy="64.1" r="1.6"/>
<circle class="p9j-3" cx="30.3" cy="68" r="1.6"/>
<circle class="p9j-4" cx="44.7" cy="56.3" r="1.6"/>
<circle class="p9j-4" cx="42.1" cy="60.2" r="1.6"/>
<circle class="p9j-4" cx="39.5" cy="64.1" r="1.6"/>
<circle class="p9j-4" cx="36.9" cy="68" r="1.6"/>
<circle class="p9j-4" cx="59.1" cy="56.3" r="1.6"/>
<circle class="p9j-4" cx="56.5" cy="60.2" r="1.6"/>
<circle class="p9j-4" cx="53.8" cy="64.1" r="1.6"/>
<circle class="p9j-4" cx="51.2" cy="68" r="1.6"/>
<circle class="p9j-4" cx="73.5" cy="56.3" r="1.6"/>
<circle class="p9j-4" cx="70.8" cy="60.2" r="1.6"/>
<circle class="p9j-4" cx="68.2" cy="64.1" r="1.6"/>
<circle class="p9j-4" cx="65.6" cy="68" r="1.6"/>
</svg>
