<?xml version="1.0" encoding="utf-8"?>
<!-- Generator: Adobe Illustrator 24.0.2, SVG Export Plug-In . SVG Version: 6.00 Build 0)  -->
<svg version="1.1" id="Calque_15" xmlns="http://www.w3.org/2000/svg" xmlns:xlink="http://www.w3.org/1999/xlink" width="50" height="50" x="0px" y="0px"
	 viewBox="0 0 85.2 85.2" style="enable-background:new 0 0 85.2 85.2;" xml:space="preserve">
<style type="text/css">
	.p10bisn-0{opacity:0.25;fill:#44454E;enable-background:new    ;}
	.p10bisn-1{fill:#FFFFFF;}
	.p10bisn-2{opacity:0.18;fill:#636573;enable-background:new    ;}
	.p10bisn-3{fill:#FDFCEA;}
	.p10bisn-4{fill:#79CCF1;}
	.p10bisn-5{opacity:0.3;}
	.p10bisn-6{fill:#231F20;}
	.p10bisn-7{fill:#D8D9D8;}
	.p10bisn-8{fill:#CF2E29;}
	.p10bisn-9{fill:none;stroke:#231F20;stroke-miterlimit:10;}
</style>
<title>15Plan de travail 1</title>
<circle class="p10bisn-0" cx="48" cy="31.5" r="22.9"/>
<path class="p10bisn-1" d="M58.3,34.5c0.5,0,0.9-0.4,0.9-0.9l0,0v-3c0.1-0.5-0.3-0.9-0.8-1c-0.5-0.1-0.9,0.3-1,0.8l0,0c0,0.1,0,0.1,0,0.2
	v3C57.4,34.1,57.8,34.5,58.3,34.5C58.3,34.5,58.3,34.5,58.3,34.5L58.3,34.5L58.3,34.5z"/>
<path class="p10bisn-1" d="M60.7,32.1c0-0.5-0.4-0.9-0.9-0.9h-3c-0.5-0.1-1,0.3-1,0.8c-0.1,0.5,0.3,1,0.8,1l0,0h3.3
	C60.4,33,60.8,32.6,60.7,32.1L60.7,32.1L60.7,32.1z"/>
<path class="p10bisn-1" d="M29.6,19.5c0.5,0,0.9-0.4,0.9-0.9l0,0v-3c0.1-0.5-0.3-0.9-0.8-1c-0.5-0.1-0.9,0.3-1,0.8l0,0c0,0.1,0,0.1,0,0.2
	v3C28.7,19.2,29.1,19.6,29.6,19.5C29.6,19.6,29.6,19.6,29.6,19.5L29.6,19.5L29.6,19.5z"/>
<path class="p10bisn-1" d="M32,17.2c0-0.5-0.4-0.9-0.9-0.9h-3c-0.5-0.2-1,0.1-1.1,0.6s0.1,1,0.6,1.1c0.1,0,0.2,0.1,0.4,0h3.2
	C31.6,18,32,17.6,32,17.2L32,17.2L32,17.2z"/>
<path class="p10bisn-1" d="M54.7,17.2c0.5,0,0.9-0.4,0.9-0.9l0,0v-3c0.1-0.5-0.3-0.9-0.8-1c-0.5-0.1-0.9,0.3-1,0.8c0,0.1,0,0.1,0,0.2v3
	C53.8,16.8,54.2,17.2,54.7,17.2z"/>
<path class="p10bisn-1" d="M57.1,14.7c0-0.5-0.4-0.9-0.9-0.9h-3c-0.5-0.1-0.9,0.3-1,0.8s0.3,0.9,0.8,1h3.2C56.8,15.6,57.2,15.2,57.1,14.7
	L57.1,14.7L57.1,14.7z"/>
<path class="p10bisn-2" d="M47,15.3c1.9-0.4,3.8-0.5,5.7-0.3C45.2,19.9,43,30,48,37.5c2.6,4,6.9,6.7,11.7,7.3c-7.5,4.9-17.7,2.8-22.6-4.7
	s-2.8-17.7,4.7-22.6C43.4,16.5,45.1,15.7,47,15.3z"/>
<path class="p10bisn-3" d="M43.9,16.8c1.8-0.4,3.6-0.5,5.4-0.3c-7.1,4.6-9.1,14.2-4.5,21.3c2.5,3.8,6.6,6.3,11.1,6.9
	c-7.1,4.6-16.7,2.6-21.3-4.5S32,23.4,39.1,18.8C40.6,17.9,42.2,17.2,43.9,16.8L43.9,16.8z"/>
<g>
	<circle class="p10bisn-4" cx="59" cy="64.6" r="1.6"/>
	<circle class="p10bisn-4" cx="56.4" cy="68.5" r="1.6"/>
	<circle class="p10bisn-4" cx="53.8" cy="72.5" r="1.6"/>
	<circle class="p10bisn-4" cx="51.2" cy="76.4" r="1.6"/>
	<circle class="p10bisn-4" cx="44.7" cy="64.6" r="1.6"/>
	<circle class="p10bisn-4" cx="42" cy="68.5" r="1.6"/>
	<circle class="p10bisn-4" cx="39.4" cy="72.5" r="1.6"/>
	<circle class="p10bisn-4" cx="36.8" cy="76.4" r="1.6"/>
	<circle class="p10bisn-4" cx="30.3" cy="64.6" r="1.6"/>
	<circle class="p10bisn-4" cx="27.7" cy="68.5" r="1.6"/>
	<circle class="p10bisn-4" cx="25" cy="72.5" r="1.6"/>
	<circle class="p10bisn-4" cx="22.4" cy="76.4" r="1.6"/>
	<circle class="p10bisn-1" cx="36.8" cy="64.6" r="1.6"/>
	<circle class="p10bisn-1" cx="34.2" cy="68.5" r="1.6"/>
	<circle class="p10bisn-1" cx="31.6" cy="72.5" r="1.6"/>
	<circle class="p10bisn-1" cx="29" cy="76.4" r="1.6"/>
	<circle class="p10bisn-1" cx="51.2" cy="64.6" r="1.6"/>
	<circle class="p10bisn-1" cx="48.6" cy="68.5" r="1.6"/>
	<circle class="p10bisn-1" cx="46" cy="72.5" r="1.6"/>
	<circle class="p10bisn-1" cx="43.4" cy="76.4" r="1.6"/>
	<circle class="p10bisn-1" cx="65.6" cy="64.6" r="1.6"/>
	<circle class="p10bisn-1" cx="63" cy="68.5" r="1.6"/>
	<circle class="p10bisn-1" cx="60.3" cy="72.5" r="1.6"/>
	<circle class="p10bisn-1" cx="57.7" cy="76.4" r="1.6"/>
</g>
<g class="p10bisn-5">
	<path class="p10bisn-6" d="M66,40.1c-4.3-6.9-13.4-9-20.4-4.7C42.2,37.5,39.8,41,39,45c2.7,0.3,5.2,1.8,6.6,4.2l-1.1,0.6
		c-2-3.4-5.8-3.8-8.5-3.7c-4.4,1.7-6.6,6.6-4.9,11c1.3,3.3,4.4,5.5,7.9,5.5h25.7C71,62.4,75.8,57,75.5,50.8
		C75.3,45.4,71.3,40.9,66,40.1L66,40.1z"/>
	<path class="p10bisn-6" d="M30.2,34.1c-0.8-4.5-4.7-7.7-9.3-7.7c-2.9,0-5.7,1.3-7.5,3.6c2,0.3,4.5,1.2,5.6,3.6l-1.1,0.5
		c-1.4-3-6-3.1-6.7-3.1c-2.8,0.9-4.7,3.5-4.7,6.5c0.1,3.9,3.3,7,7.2,6.9h16.4c2.9,0,5.2-2.3,5.3-5.2C35.4,36.4,33.1,34,30.2,34.1
		L30.2,34.1z"/>
</g>
<path class="p10bisn-7" d="M63.3,37.5C59.1,30.5,50,28.4,43,32.6c-3.5,2.2-6,5.7-6.8,9.8c2.7,0.3,5.2,1.8,6.6,4.2l-1.1,0.6
	c-2-3.4-5.8-3.8-8.5-3.7c-4.4,1.7-6.6,6.6-4.9,11c1.3,3.3,4.4,5.5,7.9,5.5h25.8c6.3-0.3,11.1-5.7,10.8-11.9
	C72.6,42.7,68.6,38.3,63.3,37.5L63.3,37.5z"/>
<path class="p10bisn-7" d="M27.6,31.5c-0.8-4.5-4.7-7.7-9.3-7.6c-2.9,0-5.7,1.3-7.5,3.6c2,0.3,4.5,1.2,5.6,3.6l-1.2,0.5
	c-1.4-3-6-3.1-6.7-3.1c-2.8,0.9-4.7,3.5-4.7,6.5c0.1,3.9,3.3,7,7.2,6.9h16.5c2.9,0,5.2-2.3,5.3-5.1C32.8,33.8,30.5,31.5,27.6,31.5
	L27.6,31.5L27.6,31.5z"/>
<polygon class="p10bisn-1" points="59.1,71.2 80.7,71.2 69.9,53 "/>
<path class="p10bisn-8" d="M83,72.5H56.7l13.1-22.2L83,72.5z M61.4,69.8h16.9l-8.4-14.2L61.4,69.8z"/>
<path class="p10bisn-9" d="M70.1,59.2c-0.5,0.9-0.8,2-1,3c0,1,1.8,1.4,1.8,2.8c0,1.4-3.3,2.8-3.3,2.8"/>
<path class="p10bisn-9" d="M70.2,59.2c-0.4,0.7-0.7,1.5-0.8,2.3c0,1,2.4,0.9,2.8,2.8c0.3,1.4-1.2,3.6-1.2,3.6"/>
</svg>
