<?xml version="1.0" encoding="utf-8"?>
<!-- Generator: Adobe Illustrator 24.0.2, SVG Export Plug-In . SVG Version: 6.00 Build 0)  -->
<svg version="1.1" id="Calque_14" xmlns="http://www.w3.org/2000/svg" xmlns:xlink="http://www.w3.org/1999/xlink" width="50" height="50" x="0px" y="0px"
	 viewBox="0 0 85.2 85.2" style="enable-background:new 0 0 85.2 85.2;" xml:space="preserve">
<style type="text/css">
	.p10bisj-0{opacity:0.51;fill:#EEEB61;enable-background:new    ;}
	.p10bisj-1{fill:#F5B21A;stroke:#FDE901;stroke-miterlimit:10;}
	.p10bisj-2{fill:#79CCF1;}
	.p10bisj-3{fill:#FFFFFF;}
	.p10bisj-4{opacity:0.3;}
	.p10bisj-5{fill:#231F20;}
	.p10bisj-6{fill:#D8D9D8;}
	.p10bisj-7{fill:#CF2E29;}
	.p10bisj-8{fill:none;stroke:#231F20;stroke-miterlimit:10;}
</style>
<title>14Plan de travail 1</title>
<circle class="p10bisj-0" cx="55.1" cy="31.2" r="20.2"/>
<circle class="p10bisj-1" cx="55.1" cy="31.2" r="15.4"/>
<g>
	<circle class="p10bisj-2" cx="59" cy="64.6" r="1.6"/>
	<circle class="p10bisj-2" cx="56.4" cy="68.5" r="1.6"/>
	<circle class="p10bisj-2" cx="53.8" cy="72.5" r="1.6"/>
	<circle class="p10bisj-2" cx="51.2" cy="76.4" r="1.6"/>
	<circle class="p10bisj-2" cx="44.7" cy="64.6" r="1.6"/>
	<circle class="p10bisj-2" cx="42" cy="68.5" r="1.6"/>
	<circle class="p10bisj-2" cx="39.4" cy="72.5" r="1.6"/>
	<circle class="p10bisj-2" cx="36.8" cy="76.4" r="1.6"/>
	<circle class="p10bisj-2" cx="30.3" cy="64.6" r="1.6"/>
	<circle class="p10bisj-2" cx="27.7" cy="68.5" r="1.6"/>
	<circle class="p10bisj-2" cx="25" cy="72.5" r="1.6"/>
	<circle class="p10bisj-2" cx="22.4" cy="76.4" r="1.6"/>
	<circle class="p10bisj-3" cx="36.8" cy="64.6" r="1.6"/>
	<circle class="p10bisj-3" cx="34.2" cy="68.5" r="1.6"/>
	<circle class="p10bisj-3" cx="31.6" cy="72.5" r="1.6"/>
	<circle class="p10bisj-3" cx="29" cy="76.4" r="1.6"/>
	<circle class="p10bisj-3" cx="51.2" cy="64.6" r="1.6"/>
	<circle class="p10bisj-3" cx="48.6" cy="68.5" r="1.6"/>
	<circle class="p10bisj-3" cx="46" cy="72.5" r="1.6"/>
	<circle class="p10bisj-3" cx="43.4" cy="76.4" r="1.6"/>
	<circle class="p10bisj-3" cx="65.6" cy="64.6" r="1.6"/>
	<circle class="p10bisj-3" cx="63" cy="68.5" r="1.6"/>
	<circle class="p10bisj-3" cx="60.3" cy="72.5" r="1.6"/>
	<circle class="p10bisj-3" cx="57.7" cy="76.4" r="1.6"/>
</g>
<g class="p10bisj-4">
	<path class="p10bisj-5" d="M66,38.4c-4.3-6.9-13.4-9-20.4-4.7c-3.4,2.2-5.8,5.6-6.6,9.6c2.8,0.2,5.3,1.8,6.7,4.2l-1.1,0.6
		c-2-3.4-5.8-3.8-8.5-3.7c-4.4,1.7-6.5,6.7-4.8,11c1.3,3.2,4.3,5.3,7.8,5.4h25.7c6.3-0.4,11.1-5.7,10.7-12
		C75.1,43.7,71.2,39.3,66,38.4L66,38.4z"/>
	<path class="p10bisj-5" d="M30.2,32.5c-0.8-4.5-4.7-7.7-9.3-7.7c-2.9,0-5.7,1.3-7.5,3.6c2,0.3,4.5,1.2,5.6,3.6l-1.1,0.5
		c-1.4-3-6-3.1-6.7-3.1c-2.8,0.9-4.6,3.5-4.7,6.4c0,3.9,3.2,7,7.2,7c0,0,0,0,0,0h16.4c2.9,0,5.2-2.3,5.3-5.1
		C35.4,34.9,33.1,32.5,30.2,32.5L30.2,32.5z"/>
</g>
<path class="p10bisj-6" d="M63.3,35.9C59.1,28.9,50,26.8,43,31c-3.5,2.2-6,5.7-6.8,9.8c2.8,0.3,5.2,1.8,6.6,4.2l-1.1,0.6
	c-2-3.4-5.8-3.8-8.5-3.7c-4.4,1.7-6.6,6.6-4.9,11c1.3,3.3,4.4,5.5,7.9,5.5h25.8c6.3-0.3,11.1-5.7,10.8-11.9
	C72.6,41.2,68.6,36.7,63.3,35.9L63.3,35.9z"/>
<path class="p10bisj-6" d="M27.6,29.9c-0.8-4.5-4.8-7.7-9.3-7.6c-2.9,0-5.7,1.3-7.5,3.6c2,0.3,4.5,1.2,5.6,3.6L15.2,30
	c-1.4-3-6-3.1-6.7-3.1c-2.8,0.9-4.7,3.5-4.7,6.5c0.1,3.9,3.3,7,7.2,6.9h16.5c2.9,0.2,5.4-1.9,5.6-4.8c0.2-2.8-1.9-5.3-4.7-5.6
	C28.1,29.9,27.9,29.9,27.6,29.9L27.6,29.9z"/>
<path class="p10bisj-3" d="M65.2,67.6l1.9-6.1c0.1-0.3,0.4-0.5,0.7-0.4l0.8,0.2c0.3,0.1,0.5,0.4,0.4,0.7L67,68.2c-0.1,0.3-0.4,0.5-0.7,0.4
	l-0.8-0.2C65.3,68.2,65.1,67.9,65.2,67.6z"/>
<polygon class="p10bisj-3" points="58.4,68.2 80,68.2 69.2,50 "/>
<path class="p10bisj-7" d="M82.3,69.5H56l13.2-22.2L82.3,69.5z M60.8,66.9h16.9l-8.4-14.2L60.8,66.9z"/>
<path class="p10bisj-8" d="M69.3,56.2c-0.5,0.9-0.8,2-1,3c0,1,1.8,1.4,1.8,2.8s-3.3,2.8-3.3,2.8"/>
<path class="p10bisj-8" d="M69.5,56.2c-0.4,0.7-0.7,1.5-0.8,2.3c0,1,2.4,0.9,2.8,2.8c0.3,1.4-1.2,3.6-1.2,3.6"/>
</svg>
