<svg id="Calque_15" data-name="Calque 15" xmlns="http://www.w3.org/2000/svg" viewBox="0 0 85.23 85.24" width="50" height="50"><defs><style>.p10n-1{fill:#44454e;opacity:0.25;}.p10n-1,.p10n-3{isolation:isolate;}.p10n-2{fill:#fff;}.p10n-3{fill:#636573;opacity:0.18;}.p10n-4{fill:#fdfcea;}.p10n-5{opacity:0.3;}.p10n-6{fill:#231f20;}.p10n-7{fill:#d8d9d8;}.p10n-8{fill:#79ccf1;}.p10n-9{fill:#cf2e29;}.p10n-10{fill:none;stroke:#231f20;stroke-miterlimit:10;}</style></defs><title>15Plan de travail 1</title><circle class="p10n-1" cx="47.99" cy="31.49" r="22.87"/><path class="p10n-2" d="M58.3,34.49a.89.89,0,0,0,.89-.89h0v-3a.89.89,0,1,0-1.77-.19.61.61,0,0,0,0,.19v3a.89.89,0,0,0,.88.9h0Z"/><path class="p10n-2" d="M60.71,32.07a.89.89,0,0,0-.89-.89h-3A.89.89,0,1,0,56.63,33h3.25a.9.9,0,0,0,.9-.88h-.07Z"/><path class="p10n-2" d="M29.58,19.55a.89.89,0,0,0,.89-.89h0v-3a.89.89,0,1,0-1.77-.19.61.61,0,0,0,0,.19v3a.89.89,0,0,0,.88.9h0Z"/><path class="p10n-2" d="M32,17.16a.89.89,0,0,0-.89-.89h-3A.89.89,0,1,0,27.92,18h3.22a.9.9,0,0,0,.9-.88h0Z"/><path class="p10n-2" d="M54.72,17.16a.89.89,0,0,0,.89-.89h0v-3a.89.89,0,1,0-1.77-.19.61.61,0,0,0,0,.19v3A.89.89,0,0,0,54.72,17.16Z"/><path class="p10n-2" d="M57.14,14.72a.89.89,0,0,0-.89-.89h-3a.89.89,0,1,0-.19,1.77h3.22a.9.9,0,0,0,.9-.88h0Z"/><path class="p10n-3" d="M47,15.28a16,16,0,0,1,5.69-.3,16.3,16.3,0,0,0,7,29.83A16.32,16.32,0,1,1,47,15.28Z"/><path class="p10n-4" d="M43.88,16.77a15.16,15.16,0,0,1,5.37-.28,15.39,15.39,0,0,0,6.63,28.17,15.41,15.41,0,1,1-12-27.91Z"/><g class="p10n-5"><path class="p10n-6" d="M66,40.08A14.77,14.77,0,0,0,39,45,8.62,8.62,0,0,1,45.6,49.2l-1.14.64c-2-3.42-5.82-3.85-8.47-3.67a8.52,8.52,0,0,0,3,16.48H64.72A11.37,11.37,0,0,0,66,40.07Z"/><path class="p10n-6" d="M30.2,34.1a9.3,9.3,0,0,0-9.3-7.65A9.53,9.53,0,0,0,13.4,30c2,.32,4.53,1.21,5.63,3.64l-1.15.5c-1.36-3-6-3.1-6.71-3.1a6.92,6.92,0,0,0-4.7,6.46,7.08,7.08,0,0,0,7.22,6.93H30.1A5.21,5.21,0,0,0,30.23,34Z"/></g><path class="p10n-7" d="M63.34,37.47a14.77,14.77,0,0,0-27.08,4.91,8.64,8.64,0,0,1,6.62,4.17l-1.14.64c-2-3.42-5.82-3.85-8.47-3.67a8.52,8.52,0,0,0,3,16.48H62.06a11.37,11.37,0,0,0,1.23-22.58Z"/><path class="p10n-7" d="M27.58,31.48a9.3,9.3,0,0,0-9.3-7.65,9.53,9.53,0,0,0-7.5,3.57c2,.32,4.53,1.21,5.63,3.64l-1.19.54c-1.36-3-6-3.1-6.71-3.1a6.92,6.92,0,0,0-4.7,6.46A7.08,7.08,0,0,0,11,41.87H27.48a5.21,5.21,0,0,0,.13-10.42Z"/><rect class="p10n-8" x="36.83" y="67.86" width="7.44" height="1.93" rx="0.55" ry="0.55" transform="translate(-37.14 87.43) rotate(-72.96)"/><rect class="p10n-8" x="44.71" y="70.57" width="7.44" height="1.93" rx="0.55" ry="0.55" transform="translate(-34.16 96.88) rotate(-72.96)"/><rect class="p10n-8" x="27.44" y="65.65" width="7.44" height="1.93" rx="0.55" ry="0.55" transform="translate(-41.66 76.88) rotate(-72.96)"/><rect class="p10n-8" x="59.08" y="63.32" width="7.46" height="1.94" rx="0.55" ry="0.55" transform="translate(-16.9 105.82) rotate(-73.19)"/><rect class="p10n-2" x="41.42" y="66.41" width="7.48" height="1.95" rx="0.55" ry="0.55" transform="translate(-32.41 91.12) rotate(-73.19)"/><rect class="p10n-2" x="49.93" y="67.87" width="7.44" height="1.93" rx="0.55" ry="0.55" transform="translate(-27.88 99.96) rotate(-72.96)"/><rect class="p10n-2" x="32.59" y="66.74" width="7.44" height="1.93" rx="0.55" ry="0.55" transform="translate(-39.06 82.58) rotate(-72.96)"/><rect class="p10n-2" x="60.32" y="65.5" width="7.44" height="1.93" rx="0.55" ry="0.55" transform="translate(-18.27 108.22) rotate(-72.96)"/><polygon class="p10n-2" points="59.1 71.18 80.67 71.18 69.89 52.98 59.1 71.18"/><path class="p10n-9" d="M83,72.55H56.74L69.88,50.36Zm-21.58-2.7H78.3L69.88,55.64Z"/><path class="p10n-10" d="M70.07,59.16a10.2,10.2,0,0,0-1,3c0,1,1.77,1.43,1.77,2.84s-3.33,2.77-3.33,2.77"/><path class="p10n-10" d="M70.24,59.16a6.07,6.07,0,0,0-.77,2.31c0,1,2.36.89,2.8,2.76.33,1.39-1.17,3.57-1.17,3.57"/></svg>