<?xml version="1.0" encoding="utf-8"?>
<!-- Generator: Adobe Illustrator 24.0.2, SVG Export Plug-In . SVG Version: 6.00 Build 0)  -->
<svg version="1.1" id="Calque_16" xmlns="http://www.w3.org/2000/svg" xmlns:xlink="http://www.w3.org/1999/xlink" width="50" height="50" x="0px" y="0px"
	 viewBox="0 0 85.2 85.2" style="enable-background:new 0 0 85.2 85.2;" xml:space="preserve">
<style type="text/css">
	.p11j-0{opacity:0.3;}
	.p11j-1{fill:#231F20;}
	.p11j-2{fill:#D8D9D8;}
	.p11j-3{fill:#79CCF1;}
	.p11j-4{fill:#FFFFFF;}
	.p11j-5{fill:#CF2E29;}
	.p11j-6{fill:none;stroke:#231F20;stroke-miterlimit:10;}
</style>
<title>16Plan de travail 1</title>
<g class="p11j-0">
	<path class="p11j-1" d="M64,31.6c-4.3-6.9-13.4-9-20.4-4.7c-3.4,2.2-5.8,5.6-6.6,9.6c2.8,0.3,5.2,1.8,6.6,4.2l-1.1,0.6
		c-2-3.4-5.8-3.8-8.5-3.7c-4.4,1.7-6.6,6.6-4.9,11c1.3,3.3,4.4,5.5,7.9,5.5h25.7c6.3-0.3,11.1-5.6,10.8-11.9
		C73.3,37,69.3,32.5,64,31.6L64,31.6z"/>
	<path class="p11j-1" d="M28.2,25.7c-0.8-4.5-4.7-7.7-9.3-7.7c-2.9,0-5.7,1.3-7.5,3.6c2,0.3,4.5,1.2,5.6,3.6l-1.1,0.5
		c-1.4-3-6-3.1-6.7-3.1c-2.8,0.9-4.7,3.5-4.7,6.5c0.1,3.9,3.3,7,7.2,6.9h16.4c2.9,0,5.2-2.3,5.3-5.1C33.4,28,31.1,25.7,28.2,25.7
		L28.2,25.7z"/>
</g>
<path class="p11j-2" d="M61.3,29C57.1,22.1,48,19.9,41,24.2c-3.5,2.2-6,5.7-6.8,9.8c2.8,0.3,5.2,1.8,6.6,4.2l-1.1,0.6
	c-2-3.4-5.8-3.8-8.5-3.7c-4.4,1.7-6.6,6.6-4.9,11c1.3,3.3,4.4,5.5,7.9,5.5h25.8c6.3-0.1,11.3-5.2,11.3-11.5
	C71.3,34.5,67,29.7,61.3,29L61.3,29z"/>
<path class="p11j-2" d="M25.6,23c-0.8-4.5-4.7-7.7-9.3-7.6c-2.9,0-5.7,1.3-7.5,3.6c2,0.3,4.5,1.2,5.6,3.6l-1.2,0.5
	c-1.4-3-6-3.1-6.7-3.1c-2.8,0.9-4.7,3.5-4.7,6.5c0.1,3.9,3.3,7,7.2,6.9h16.5c2.9,0,5.2-2.3,5.3-5.2S28.5,23,25.6,23L25.6,23z"/>
<path class="p11j-3" d="M37.6,63.5l1.9-6.1c0.1-0.3,0.4-0.5,0.7-0.4l0.8,0.2c0.3,0.1,0.5,0.4,0.4,0.7l-1.9,6.1
	c-0.1,0.3-0.4,0.5-0.7,0.4L38,64.2C37.7,64.1,37.5,63.8,37.6,63.5z"/>
<path class="p11j-3" d="M46.1,68.5l1.9-6.1c0.1-0.3,0.4-0.5,0.7-0.4l0.8,0.2c0.3,0.1,0.5,0.4,0.4,0.7L48,69.1c-0.1,0.3-0.4,0.5-0.7,0.4
	l-0.8-0.2C46.2,69.1,46.1,68.8,46.1,68.5z"/>
<path class="p11j-3" d="M27.3,63.5l1.9-6.1c0.1-0.3,0.4-0.5,0.7-0.4l0.8,0.2c0.3,0.1,0.5,0.4,0.4,0.7l-1.9,6.1
	c-0.1,0.3-0.4,0.5-0.7,0.4l-0.8-0.2C27.4,64.1,27.2,63.8,27.3,63.5z"/>
<path class="p11j-3" d="M57.8,62.3l1.8-6.1c0.1-0.3,0.4-0.5,0.7-0.4l0.8,0.2c0.3,0.1,0.5,0.4,0.4,0.7l-1.8,6.1
	c-0.1,0.3-0.4,0.5-0.7,0.4L58.2,63C57.9,62.9,57.7,62.6,57.8,62.3z"/>
<path class="p11j-4" d="M42.7,62.3l1.8-6.1c0.1-0.3,0.4-0.5,0.7-0.4l0.8,0.2c0.3,0.1,0.5,0.4,0.4,0.7l-1.8,6.1
	c-0.1,0.3-0.4,0.5-0.7,0.4L43.1,63C42.8,62.9,42.6,62.6,42.7,62.3z"/>
<path class="p11j-4" d="M51.8,63.6l1.9-6.1c0.1-0.3,0.4-0.5,0.7-0.4l0.8,0.2c0.3,0.1,0.5,0.4,0.4,0.7l-1.9,6.1
	c-0.1,0.3-0.4,0.5-0.7,0.4l-0.8-0.2C51.9,64.1,51.7,63.8,51.8,63.6z"/>
<path class="p11j-4" d="M32.6,62.2l1.9-6.1c0.1-0.3,0.4-0.5,0.7-0.4l0.8,0.2c0.3,0.1,0.5,0.4,0.4,0.7l-1.9,6.1
	c-0.1,0.3-0.4,0.5-0.7,0.4l-0.8-0.2C32.6,62.8,32.5,62.5,32.6,62.2z"/>
<polygon class="p11j-4" points="58.4,65.4 80,65.4 69.2,47.2 "/>
<path class="p11j-5" d="M82.3,66.7H56l13.2-22.2L82.3,66.7z M60.8,64h16.9l-8.4-14.2L60.8,64z"/>
<path class="p11j-6" d="M69.4,53.3c-0.5,0.9-0.8,2-1,3c0,1,1.8,1.4,1.8,2.8s-3.3,2.8-3.3,2.8"/>
<path class="p11j-6" d="M69.5,53.3c-0.4,0.7-0.7,1.5-0.8,2.3c0,1,2.4,0.9,2.8,2.8c0.3,1.4-1.2,3.6-1.2,3.6"/>
</svg>
