<?xml version="1.0" encoding="utf-8"?>
<!-- Generator: Adobe Illustrator 24.0.2, SVG Export Plug-In . SVG Version: 6.00 Build 0)  -->
<svg version="1.1" id="Calque_18" xmlns="http://www.w3.org/2000/svg" xmlns:xlink="http://www.w3.org/1999/xlink" width="50" height="50" x="0px" y="0px"
	 viewBox="0 0 85.2 85.2" style="enable-background:new 0 0 85.2 85.2;" xml:space="preserve">
<style type="text/css">
	.p12bisn-0{opacity:0.25;fill:#44454E;enable-background:new    ;}
	.p12bisn-1{fill:#FFFFFF;}
	.p12bisn-2{opacity:0.18;fill:#636573;enable-background:new    ;}
	.p12bisn-3{fill:#FDFCEA;}
	.p12bisn-4{opacity:0.3;}
	.p12bisn-5{fill:#231F20;}
	.p12bisn-6{fill:#D8D9D8;}
	.p12bisn-7{fill:#79CCF1;}
</style>
<title>18Plan de travail 1</title>
<circle class="p12bisn-0" cx="51.5" cy="33" r="20.2"/>
<path class="p12bisn-1" d="M60.7,35.7c0.4,0,0.8-0.4,0.8-0.8l0,0v-2.6c0-0.4-0.3-0.8-0.7-0.9s-0.8,0.3-0.9,0.7l0,0c0,0.1,0,0.1,0,0.2v2.7
	C59.9,35.4,60.2,35.7,60.7,35.7C60.7,35.7,60.7,35.7,60.7,35.7L60.7,35.7L60.7,35.7z"/>
<path class="p12bisn-1" d="M62.8,33.5c0-0.4-0.4-0.8-0.8-0.8l0,0h-2.6c-0.4,0-0.8,0.3-0.8,0.7c0,0.4,0.3,0.8,0.7,0.8H62
	C62.4,34.3,62.8,34,62.8,33.5L62.8,33.5z"/>
<path class="p12bisn-1" d="M35.3,22.5c0.4,0,0.8-0.4,0.8-0.8l0,0V19c0-0.4-0.3-0.8-0.7-0.9s-0.8,0.3-0.9,0.7c0,0.1,0,0.1,0,0.2v2.6
	C34.5,22.1,34.8,22.4,35.3,22.5C35.2,22.4,35.2,22.4,35.3,22.5L35.3,22.5L35.3,22.5z"/>
<path class="p12bisn-1" d="M37.4,20.3c0-0.4-0.4-0.8-0.8-0.8l0,0H34c-0.4,0-0.8,0.3-0.8,0.7c0,0.4,0.3,0.8,0.7,0.8h2.8
	C37.1,21.1,37.5,20.8,37.4,20.3L37.4,20.3L37.4,20.3z"/>
<path class="p12bisn-1" d="M57.5,20.3c0.4,0,0.8-0.4,0.8-0.8l0,0v-2.6c0-0.4-0.3-0.8-0.7-0.9s-0.8,0.3-0.9,0.7c0,0.1,0,0.1,0,0.2v2.6
	C56.7,20,57.1,20.4,57.5,20.3C57.5,20.4,57.5,20.4,57.5,20.3L57.5,20.3L57.5,20.3z"/>
<path class="p12bisn-1" d="M59.6,18.2c0-0.4-0.4-0.8-0.8-0.8l0,0h-2.6c-0.4-0.1-0.8,0.3-0.9,0.7c-0.1,0.4,0.3,0.8,0.7,0.9l0,0h2.8
	C59.3,19,59.6,18.7,59.6,18.2L59.6,18.2L59.6,18.2z"/>
<path class="p12bisn-2" d="M51.9,18.7c1.6-0.4,3.3-0.5,5-0.3c-6.7,4.3-8.6,13.3-4.2,20C55,42,58.8,44.3,63,44.8c-6.7,4.4-15.6,2.5-20-4.1
	s-2.5-15.6,4.1-20l0,0C48.6,19.8,50.2,19.1,51.9,18.7z"/>
<path class="p12bisn-3" d="M47.9,20c1.6-0.4,3.2-0.4,4.8-0.3c-6.3,4.1-8,12.6-3.9,18.9c2.2,3.3,5.7,5.5,9.7,6c-6.3,4.1-14.8,2.3-18.9-4
	s-2.3-14.8,4-18.9C45,20.9,46.4,20.3,47.9,20L47.9,20z"/>
<g class="p12bisn-4">
	<path class="p12bisn-5" d="M68.9,41.9c-4.3-6.9-13.4-9-20.4-4.7c-3.4,2.2-5.8,5.6-6.6,9.6c2.8,0.3,5.2,1.8,6.6,4.2l-1.1,0.6
		c-2-3.4-5.8-3.8-8.5-3.7c-4.4,1.7-6.6,6.6-4.9,11c1.3,3.3,4.4,5.5,7.9,5.5h25.7c6.3-0.3,11.1-5.7,10.7-12
		C78.1,47.2,74.2,42.8,68.9,41.9L68.9,41.9z"/>
	<path class="p12bisn-5" d="M33.2,35.9c-0.8-4.5-4.8-7.7-9.3-7.6c-2.9,0-5.7,1.3-7.5,3.6c2,0.3,4.5,1.2,5.6,3.6l-1.2,0.5
		c-1.4-3-6-3.1-6.7-3.1c-2.8,0.9-4.7,3.5-4.7,6.5c0.1,3.9,3.3,7,7.2,6.9c0,0,0,0,0,0H33c2.9-0.2,5-2.8,4.8-5.6
		C37.6,38.3,35.6,36.3,33.2,35.9L33.2,35.9z"/>
</g>
<path class="p12bisn-6" d="M66.3,39.3C62,32.4,53,30.2,46,34.5c-3.5,2.2-6,5.7-6.8,9.8c2.8,0.3,5.2,1.8,6.6,4.2l-1.1,0.6
	c-2-3.4-5.8-3.8-8.5-3.7c-4.4,1.7-6.6,6.6-4.9,11c1.3,3.3,4.4,5.5,7.9,5.5H65c6.3-0.3,11.1-5.7,10.7-12
	C75.4,44.6,71.5,40.2,66.3,39.3L66.3,39.3z"/>
<path class="p12bisn-6" d="M30.6,33.3c-0.8-4.5-4.7-7.7-9.3-7.7c-2.9,0-5.7,1.3-7.5,3.6c2,0.3,4.5,1.2,5.6,3.6l-1.2,0.5
	c-1.4-3-6-3.1-6.7-3.1c-2.8,0.9-4.7,3.5-4.7,6.5c0.1,3.9,3.3,7,7.2,6.9c0,0,0,0,0,0h16.5c2.9,0,5.2-2.3,5.3-5.1
	C35.8,35.7,33.5,33.3,30.6,33.3L30.6,33.3z"/>
<path class="p12bisn-7" d="M42.6,71.4l1.9-6.1c0.1-0.3,0.4-0.5,0.7-0.4l0.8,0.2c0.3,0.1,0.5,0.4,0.4,0.7L44.4,72c-0.1,0.3-0.4,0.5-0.7,0.4
	L43,72.1C42.7,72,42.5,71.7,42.6,71.4z"/>
<path class="p12bisn-7" d="M52.9,71.5l1.9-6.1c0.1-0.3,0.4-0.5,0.7-0.4l0.8,0.2c0.3,0.1,0.5,0.4,0.4,0.7L54.7,72c-0.1,0.3-0.4,0.5-0.7,0.4
	l-0.8-0.2C53,72.1,52.8,71.8,52.9,71.5z"/>
<path class="p12bisn-7" d="M32.3,71.4l1.9-6.1c0.1-0.3,0.4-0.5,0.7-0.4l0.8,0.2c0.3,0.1,0.5,0.4,0.4,0.7L34.1,72c-0.1,0.3-0.4,0.5-0.7,0.4
	l-0.8-0.2C32.3,72,32.2,71.7,32.3,71.4z"/>
<path class="p12bisn-7" d="M62.9,71.4l1.9-6.1c0.1-0.3,0.4-0.5,0.7-0.4l0.8,0.2c0.3,0.1,0.5,0.4,0.4,0.7L64.8,72c-0.1,0.3-0.4,0.5-0.7,0.4
	l-0.8-0.2C63,72,62.8,71.7,62.9,71.4z"/>
<path class="p12bisn-7" d="M73,71.4l1.9-6.1c0.1-0.3,0.4-0.5,0.7-0.4l0.8,0.2c0.3,0.1,0.5,0.4,0.4,0.7L74.9,72c-0.1,0.3-0.4,0.5-0.7,0.4
	l-0.8-0.2C73.1,72,73,71.7,73,71.4z"/>
<path class="p12bisn-1" d="M47.8,71.4l1.9-6.1c0.1-0.3,0.4-0.5,0.7-0.4l0.8,0.2c0.3,0.1,0.5,0.4,0.4,0.7L49.7,72c-0.1,0.3-0.4,0.5-0.7,0.4
	l-0.8-0.2C47.9,72,47.7,71.7,47.8,71.4z"/>
<path class="p12bisn-1" d="M37.8,71.1l1.8-6.1c0.1-0.3,0.4-0.5,0.7-0.4l0.8,0.2c0.3,0.1,0.5,0.4,0.4,0.7l-1.8,6.1
	c-0.1,0.3-0.4,0.5-0.7,0.4l-0.8-0.2C37.8,71.7,37.7,71.4,37.8,71.1z"/>
<path class="p12bisn-1" d="M68.3,71.5l1.8-6.1c0.1-0.3,0.4-0.5,0.7-0.4l0.8,0.2c0.3,0.1,0.5,0.4,0.4,0.7L70.2,72c-0.1,0.3-0.4,0.5-0.7,0.4
	l-0.8-0.2C68.4,72.1,68.2,71.8,68.3,71.5z"/>
<path class="p12bisn-1" d="M58.1,71.5l1.8-6.1c0.1-0.3,0.4-0.5,0.7-0.4l0.8,0.2c0.3,0.1,0.5,0.4,0.4,0.7L59.9,72c-0.1,0.3-0.4,0.5-0.7,0.4
	l-0.8-0.2C58.1,72.1,58,71.8,58.1,71.5z"/>
</svg>
