<?xml version="1.0" encoding="utf-8"?>
<!-- Generator: Adobe Illustrator 24.0.2, SVG Export Plug-In . SVG Version: 6.00 Build 0)  -->
<svg version="1.1" id="Calque_17" xmlns="http://www.w3.org/2000/svg" xmlns:xlink="http://www.w3.org/1999/xlink" width="50" height="50" x="0px" y="0px"
	 viewBox="0 0 85.2 85.2" style="enable-background:new 0 0 85.2 85.2;" xml:space="preserve">
<style type="text/css">
	.p12bisj-0{opacity:0.51;fill:#EEEB61;enable-background:new    ;}
	.p12bisj-1{fill:#F5B21A;stroke:#FDE901;stroke-miterlimit:10;}
	.p12bisj-2{opacity:0.3;}
	.p12bisj-3{fill:#231F20;}
	.p12bisj-4{fill:#D8D9D8;}
	.p12bisj-5{fill:#79CCF1;}
	.p12bisj-6{fill:#FFFFFF;}
</style>
<title>17Plan de travail 1</title>
<circle class="p12bisj-0" cx="58.5" cy="32.2" r="20.2"/>
<circle class="p12bisj-1" cx="58.5" cy="32.2" r="15.4"/>
<g class="p12bisj-2">
	<path class="p12bisj-3" d="M68.8,41.9c-4.3-7-13.4-9.1-20.3-4.9c-3.5,2.2-6,5.7-6.8,9.7c2.8,0.3,5.3,1.8,6.7,4.3l-1.1,0.6
		c-2-3.4-5.8-3.8-8.5-3.7c-4.4,1.7-6.6,6.6-4.9,11c1.3,3.3,4.4,5.5,7.9,5.5h25.7c6.3-0.3,11.1-5.6,10.8-11.9
		C78,47.2,74,42.7,68.8,41.9L68.8,41.9z"/>
	<path class="p12bisj-3" d="M33,35.9c-0.8-4.5-4.7-7.7-9.3-7.7c-2.9,0-5.7,1.3-7.5,3.6c2,0.3,4.5,1.2,5.6,3.6L20.6,36
		c-1.4-3-6-3.1-6.7-3.1c-2.8,0.9-4.7,3.5-4.7,6.5c0.1,3.9,3.3,7,7.2,6.9c0,0,0,0,0,0h16.4c2.9,0,5.3-2.3,5.3-5.1S35.9,35.9,33,35.9
		L33,35.9L33,35.9L33,35.9z"/>
</g>
<path class="p12bisj-4" d="M66.1,39.2c-4.3-7-13.4-9.1-20.3-4.9c-3.5,2.2-6,5.7-6.8,9.7c2.8,0.3,5.2,1.8,6.6,4.2L44.5,49
	c-2-3.4-5.8-3.8-8.5-3.7c-4.4,1.7-6.6,6.6-4.9,11c1.3,3.3,4.4,5.5,7.9,5.5h25.8c6.3-0.3,11.1-5.7,10.8-11.9
	C75.4,44.5,71.4,40.1,66.1,39.2L66.1,39.2z"/>
<path class="p12bisj-4" d="M30.4,33.3c-0.8-4.5-4.7-7.7-9.3-7.7c-2.9,0-5.7,1.3-7.5,3.6c2,0.3,4.5,1.2,5.6,3.6L18,33.4
	c-1.4-3-6-3.1-6.7-3.1c-2.8,0.9-4.7,3.5-4.7,6.5c0.1,3.9,3.3,7,7.2,6.9c0,0,0,0,0,0h16.5c2.9,0,5.2-2.3,5.3-5.1
	C35.6,35.6,33.3,33.3,30.4,33.3L30.4,33.3L30.4,33.3z"/>
<path class="p12bisj-5" d="M44,72.2l1.9-6.1c0.1-0.3,0.4-0.5,0.7-0.4l0.8,0.2c0.3,0.1,0.5,0.4,0.4,0.7l-1.9,6.1c-0.1,0.3-0.4,0.5-0.7,0.4
	l-0.8-0.2C44.1,72.8,43.9,72.5,44,72.2z"/>
<path class="p12bisj-5" d="M53.7,72.2l1.8-6.1c0.1-0.3,0.4-0.5,0.7-0.4L57,66c0.3,0.1,0.5,0.4,0.4,0.7l-1.8,6.1c-0.1,0.3-0.4,0.5-0.7,0.4
	L54,72.9C53.7,72.8,53.6,72.5,53.7,72.2z"/>
<path class="p12bisj-5" d="M33.7,72.2l1.9-6.1c0.1-0.3,0.4-0.5,0.7-0.4L37,66c0.3,0.1,0.5,0.4,0.4,0.7l-1.9,6.1c-0.1,0.3-0.4,0.5-0.7,0.4
	l-0.8-0.2C33.8,72.8,33.6,72.5,33.7,72.2z"/>
<path class="p12bisj-5" d="M63.6,72.2l1.8-6.1c0.1-0.3,0.4-0.5,0.7-0.4L67,66c0.3,0.1,0.5,0.4,0.4,0.7l-1.8,6.1c-0.1,0.3-0.4,0.5-0.7,0.4
	L64,72.9C63.7,72.8,63.5,72.5,63.6,72.2z"/>
<path class="p12bisj-5" d="M72.6,72.2l1.8-6.1c0.1-0.3,0.4-0.5,0.7-0.4L76,66c0.3,0.1,0.5,0.4,0.4,0.7l-1.8,6.1c-0.1,0.3-0.4,0.5-0.7,0.4
	L73,72.9C72.7,72.8,72.6,72.5,72.6,72.2z"/>
<path class="p12bisj-6" d="M48.8,71.8l1.8-6.1c0.1-0.3,0.4-0.5,0.7-0.4l0.8,0.2c0.3,0.1,0.5,0.4,0.4,0.7l-1.8,6.1
	c-0.1,0.3-0.4,0.5-0.7,0.4l-0.8-0.2C48.9,72.4,48.7,72.1,48.8,71.8z"/>
<path class="p12bisj-6" d="M58.7,72.2l1.9-6.1c0.1-0.3,0.4-0.5,0.7-0.4L62,66c0.3,0.1,0.5,0.4,0.4,0.7l-1.9,6.1c-0.1,0.3-0.4,0.5-0.7,0.4
	L59,72.9C58.7,72.8,58.6,72.5,58.7,72.2z"/>
<path class="p12bisj-6" d="M38.9,72.2l1.9-6.1c0.1-0.3,0.4-0.5,0.7-0.4l0.8,0.2c0.3,0.1,0.5,0.4,0.4,0.7l-1.9,6.1
	c-0.1,0.3-0.4,0.5-0.7,0.4l-0.8-0.2C39,72.8,38.9,72.5,38.9,72.2z"/>
<path class="p12bisj-6" d="M68.1,72.2l1.9-6.1c0.1-0.3,0.4-0.5,0.7-0.4l0.8,0.2c0.3,0.1,0.5,0.4,0.4,0.7L70,72.7c-0.1,0.3-0.4,0.5-0.7,0.4
	l-0.8-0.2C68.2,72.8,68.1,72.5,68.1,72.2z"/>
</svg>
