<?xml version="1.0" encoding="utf-8"?>
<!-- Generator: Adobe Illustrator 24.0.2, SVG Export Plug-In . SVG Version: 6.00 Build 0)  -->
<svg version="1.1" id="Calque_19" xmlns="http://www.w3.org/2000/svg" xmlns:xlink="http://www.w3.org/1999/xlink" width="50" height="50" x="0px" y="0px"
	 viewBox="0 0 85.2 85.2" style="enable-background:new 0 0 85.2 85.2;" xml:space="preserve">
<style type="text/css">
	.p13n-0{opacity:0.3;}
	.p13n-1{fill:#231F20;}
	.p13n-2{fill:#D8D9D8;}
	.p13n-3{fill:#79CCF1;}
	.p13n-4{fill:#FFFFFF;}
</style>
<title>19Plan de travail 1</title>
<g class="p13n-0">
	<path class="p13n-1" d="M68.9,34.4c-4.3-6.9-13.4-9-20.4-4.7c-3.4,2.2-5.8,5.6-6.6,9.6c2.8,0.3,5.2,1.8,6.6,4.2l-1.1,0.6
		c-2-3.4-5.8-3.8-8.5-3.7c-4.4,1.7-6.6,6.6-4.9,11c1.3,3.3,4.4,5.5,7.9,5.5h25.7c6.3-0.3,11.1-5.7,10.8-11.9
		C78.2,39.7,74.2,35.3,68.9,34.4L68.9,34.4z"/>
	<path class="p13n-1" d="M33.2,28.4c-0.8-4.5-4.8-7.7-9.3-7.6c-2.9,0-5.7,1.3-7.5,3.6c2,0.3,4.5,1.2,5.6,3.6l-1.2,0.5
		c-1.4-3-6-3.1-6.7-3.1c-2.8,0.9-4.7,3.5-4.7,6.5c0.1,3.9,3.3,7,7.2,6.9c0,0,0,0,0,0H33c2.9,0,5.2-2.3,5.3-5.1
		C38.3,30.8,36,28.5,33.2,28.4L33.2,28.4z"/>
</g>
<path class="p13n-2" d="M66.3,31.8c-4.3-7-13.4-9.1-20.3-4.9c-3.5,2.2-6,5.7-6.8,9.7c2.8,0.3,5.2,1.8,6.6,4.2l-1.1,0.6
	c-2-3.4-5.8-3.8-8.5-3.7c-4.4,1.7-6.6,6.6-4.9,11c1.3,3.3,4.4,5.5,7.9,5.5H65c6.3-0.4,11-5.8,10.6-12.1
	C75.3,37.1,71.4,32.7,66.3,31.8z"/>
<path class="p13n-2" d="M30.5,25.8c-0.8-4.5-4.7-7.7-9.3-7.6c-2.9,0-5.7,1.3-7.5,3.6c2,0.3,4.5,1.2,5.6,3.6l-1.2,0.5
	c-1.4-3-6-3.1-6.7-3.1c-2.8,0.9-4.7,3.5-4.7,6.5c0.1,3.9,3.3,7,7.2,6.9c0,0,0,0,0,0h16.4c2.9,0,5.2-2.3,5.3-5.1
	C35.7,28.2,33.4,25.8,30.5,25.8L30.5,25.8L30.5,25.8L30.5,25.8z"/>
<path class="p13n-3" d="M41.3,66.1l1.9-6.1c0.1-0.3,0.4-0.5,0.7-0.4l0.8,0.2c0.3,0.1,0.5,0.4,0.4,0.7l-1.9,6.1
	c-0.1,0.3-0.4,0.5-0.7,0.4l-0.8-0.2C41.4,66.7,41.3,66.4,41.3,66.1z"/>
<path class="p13n-3" d="M51.6,66.1l1.9-6.1c0.1-0.3,0.4-0.5,0.7-0.4l0.8,0.2c0.3,0.1,0.5,0.4,0.4,0.7l-1.9,6.1
	c-0.1,0.3-0.4,0.5-0.7,0.4L52,66.8C51.7,66.7,51.6,66.4,51.6,66.1z"/>
<path class="p13n-3" d="M31,66.1l1.9-6.1c0.1-0.3,0.4-0.5,0.7-0.4l0.8,0.2c0.3,0.1,0.5,0.4,0.4,0.7l-1.9,6.1c-0.1,0.3-0.4,0.5-0.7,0.4
	l-0.8-0.2C31.1,66.7,30.9,66.4,31,66.1z"/>
<path class="p13n-3" d="M61.7,66.1l1.9-6.1c0.1-0.3,0.4-0.5,0.7-0.4l0.8,0.2c0.3,0.1,0.5,0.4,0.4,0.7l-1.9,6.1
	c-0.1,0.3-0.4,0.5-0.7,0.4L62,66.8C61.7,66.7,61.6,66.4,61.7,66.1z"/>
<path class="p13n-3" d="M71.8,66.1l1.9-6.1c0.1-0.3,0.4-0.5,0.7-0.4l0.8,0.2c0.3,0.1,0.5,0.4,0.4,0.7l-1.9,6.1
	c-0.1,0.3-0.4,0.5-0.7,0.4l-0.8-0.2C71.9,66.7,71.7,66.4,71.8,66.1z"/>
<path class="p13n-4" d="M46.6,66.1l1.9-6.1c0.1-0.3,0.4-0.5,0.7-0.4l0.8,0.2c0.3,0.1,0.5,0.4,0.4,0.7l-1.9,6.1
	c-0.1,0.3-0.4,0.5-0.7,0.4l-0.8-0.2C46.6,66.7,46.5,66.4,46.6,66.1z"/>
<path class="p13n-4" d="M36.3,66.1l1.9-6.1c0.1-0.3,0.4-0.5,0.7-0.4l0.8,0.2c0.3,0.1,0.5,0.4,0.4,0.7l-1.9,6.1
	c-0.1,0.3-0.4,0.5-0.7,0.4l-0.8-0.2C36.4,66.7,36.3,66.3,36.3,66.1z"/>
<path class="p13n-4" d="M67.1,66.1l1.8-6.1c0.1-0.3,0.4-0.5,0.7-0.4l0.8,0.2c0.3,0.1,0.5,0.4,0.4,0.7l-1.8,6.1
	c-0.1,0.3-0.4,0.5-0.7,0.4l-0.8-0.2C67.1,66.7,67,66.4,67.1,66.1z"/>
<path class="p13n-4" d="M56.8,66.1l1.8-6.1c0.1-0.3,0.4-0.5,0.7-0.4l0.8,0.2c0.3,0.1,0.5,0.4,0.4,0.7l-1.8,6.1
	c-0.1,0.3-0.4,0.5-0.7,0.4l-0.8-0.2C56.9,66.7,56.7,66.4,56.8,66.1z"/>
</svg>
