<?xml version="1.0" encoding="utf-8"?>
<!-- Generator: Adobe Illustrator 24.0.2, SVG Export Plug-In . SVG Version: 6.00 Build 0)  -->
<svg version="1.1" id="Calque_23" xmlns="http://www.w3.org/2000/svg" xmlns:xlink="http://www.w3.org/1999/xlink" width="50" height="50" x="0px" y="0px"
	 viewBox="0 0 85.2 85.2" style="enable-background:new 0 0 85.2 85.2;" xml:space="preserve">
<style type="text/css">
	.p15n-0{fill:#79CCF1;}
	.p15n-1{fill:#FFFFFF;}
	.p15n-2{fill:#919191;}
</style>
<title>23Plan de travail 1</title>
<path class="p15n-0" d="M39.5,68.1L44.5,54c0.1-0.3,0.4-0.4,0.7-0.3l0.8,0.2c0.3,0.1,0.4,0.3,0.4,0.5l0,0l-4.9,14.1
	c-0.1,0.3-0.4,0.4-0.7,0.3l-0.8-0.2C39.7,68.6,39.5,68.4,39.5,68.1z"/>
<path class="p15n-0" d="M51.7,68.1L56.6,54c0.1-0.3,0.4-0.4,0.7-0.3l0.8,0.2c0.3,0.1,0.4,0.3,0.4,0.5l0,0l-4.9,14.2
	c-0.1,0.3-0.4,0.4-0.7,0.3L52,68.7C51.8,68.7,51.6,68.4,51.7,68.1L51.7,68.1z"/>
<path class="p15n-0" d="M28,68.1L32.9,54c0.1-0.3,0.4-0.4,0.7-0.3l0.8,0.2c0.3,0.1,0.4,0.3,0.4,0.5l0,0l-4.9,14.1
	c-0.1,0.3-0.4,0.4-0.7,0.3l-0.8-0.2C28.1,68.6,28,68.3,28,68.1z"/>
<path class="p15n-0" d="M63.3,68.1L68.2,54c0.1-0.3,0.4-0.4,0.7-0.3l0.8,0.2c0.3,0.1,0.4,0.3,0.4,0.5l0,0l-4.9,14.1
	c-0.1,0.3-0.4,0.4-0.7,0.3l-0.8-0.2C63.4,68.6,63.3,68.4,63.3,68.1z"/>
<path class="p15n-1" d="M45.5,68.1l5-14.1c0.1-0.3,0.4-0.4,0.7-0.3l0.8,0.2c0.3,0.1,0.4,0.3,0.4,0.5l0,0l-4.9,14.1
	c-0.1,0.3-0.4,0.4-0.7,0.3L46,68.7C45.7,68.6,45.5,68.4,45.5,68.1C45.5,68.1,45.5,68.1,45.5,68.1L45.5,68.1z"/>
<path class="p15n-1" d="M57.7,68.1L62.6,54c0.1-0.3,0.4-0.4,0.7-0.3l0.8,0.2c0.3,0.1,0.4,0.3,0.4,0.5l0,0l-4.9,14.2
	c-0.1,0.3-0.4,0.4-0.7,0.3L58,68.7C57.8,68.7,57.6,68.4,57.7,68.1L57.7,68.1L57.7,68.1z"/>
<path class="p15n-1" d="M34,68.1L38.9,54c0.1-0.3,0.4-0.4,0.7-0.3l0.8,0.2c0.3,0.1,0.4,0.3,0.4,0.5l0,0l-4.9,14.1
	c-0.1,0.3-0.4,0.4-0.7,0.3l-0.8-0.2C34.1,68.6,33.9,68.3,34,68.1C34,68.1,34,68.1,34,68.1z"/>
<path class="p15n-1" d="M69.3,68.1L74.3,54c0.1-0.3,0.4-0.4,0.7-0.3l0.8,0.2c0.3,0.1,0.4,0.3,0.4,0.5l0,0l-4.9,14.1
	c-0.1,0.3-0.4,0.4-0.7,0.3l-0.8-0.2C69.5,68.6,69.3,68.4,69.3,68.1z"/>
<path class="p15n-2" d="M67.6,29.9c-4.3-6.9-13.4-9-20.4-4.7c-3.4,2.2-5.8,5.6-6.6,9.6c2.8,0.2,5.2,1.8,6.7,4.2l-1.1,0.6
	c-2-3.4-5.8-3.8-8.5-3.7c-4.4,1.7-6.6,6.6-4.9,11c1.3,3.3,4.4,5.5,7.9,5.5h25.7c6.3-0.3,11.1-5.7,10.8-11.9
	C76.9,35.2,72.9,30.7,67.6,29.9L67.6,29.9z"/>
<path class="p15n-2" d="M31.9,24c-0.8-4.5-4.7-7.7-9.3-7.6c-2.9,0-5.7,1.3-7.5,3.6c2,0.3,4.5,1.2,5.6,3.6l-1.2,0.5
	c-1.4-3-6-3.1-6.7-3.1c-2.8,0.9-4.7,3.5-4.7,6.5c0.1,3.9,3.3,7,7.2,6.9h16.4c2.9,0,5.2-2.3,5.3-5.1C37,26.4,34.7,24,31.9,24L31.9,24
	z"/>
</svg>
