<?xml version="1.0" encoding="utf-8"?>
<!-- Generator: Adobe Illustrator 24.0.2, SVG Export Plug-In . SVG Version: 6.00 Build 0)  -->
<svg version="1.1" id="Calque_27" xmlns="http://www.w3.org/2000/svg" xmlns:xlink="http://www.w3.org/1999/xlink" width="50" height="50" x="0px" y="0px"
	 viewBox="0 0 85.2 85.2" style="enable-background:new 0 0 85.2 85.2;" xml:space="preserve">
<style type="text/css">
	.p17bisj-0{opacity:0.51;fill:#EEEB61;enable-background:new    ;}
	.p17bisj-1{fill:#F5B21A;stroke:#FDE901;stroke-miterlimit:10;}
	.p17bisj-2{opacity:0.3;}
	.p17bisj-3{fill:#231F20;}
	.p17bisj-4{fill:#D8D9D8;}
	.p17bisj-5{opacity:0.8;fill:#FFFFFF;enable-background:new    ;}
	.p17bisj-6{fill:#79CCF1;}
</style>
<title>27Plan de travail 1</title>
<circle class="p17bisj-0" cx="53.1" cy="34.4" r="20"/>
<circle class="p17bisj-1" cx="53.1" cy="34.4" r="15.3"/>
<g class="p17bisj-2">
	<path class="p17bisj-3" d="M69,42.5c-4.3-6.9-13.4-9-20.4-4.7c-3.4,2.1-5.8,5.6-6.6,9.6c2.8,0.3,5.2,1.8,6.6,4.2l-1.1,0.6
		c-2-3.4-5.8-3.8-8.5-3.7c-4.4,1.7-6.6,6.6-4.9,11c1.3,3.3,4.4,5.5,7.9,5.5h25.7c6.3-0.3,11.1-5.6,10.8-11.9
		C78.3,47.8,74.3,43.4,69,42.5L69,42.5z"/>
	<path class="p17bisj-3" d="M33.2,36.5c-0.8-4.5-4.7-7.7-9.3-7.7c-2.9,0-5.7,1.3-7.5,3.6c2,0.3,4.5,1.2,5.6,3.6l-1.1,0.6
		c-1.4-3-6-3.1-6.7-3.1c-2.8,0.9-4.6,3.5-4.7,6.4c0,3.9,3.2,7,7.2,7c0,0,0,0,0.1,0h16.4c2.9,0,5.2-2.3,5.3-5.1
		C38.4,39,36.1,36.6,33.2,36.5L33.2,36.5L33.2,36.5z"/>
</g>
<path class="p17bisj-4" d="M66.3,39.9C62.1,33,53,30.8,46,35.1c-3.5,2.2-6,5.7-6.8,9.8c2.8,0.3,5.2,1.8,6.6,4.2l-1.1,0.6
	c-2-3.4-5.8-3.8-8.5-3.7c-4.4,1.7-6.6,6.6-4.9,11c1.3,3.3,4.4,5.5,7.9,5.5h25.8c6.3-0.3,11.1-5.7,10.8-11.9
	C75.6,45.2,71.6,40.8,66.3,39.9L66.3,39.9z"/>
<path class="p17bisj-4" d="M30.6,34c-0.8-4.5-4.7-7.7-9.3-7.7c-2.9,0-5.7,1.3-7.5,3.6c2,0.3,4.5,1.2,5.6,3.6l-1.2,0.5
	c-1.4-3-6-3.1-6.7-3.1c-2.8,0.9-4.7,3.5-4.7,6.5c0.1,3.9,3.3,7,7.2,6.9h16.5c2.9,0.2,5.3-1.9,5.5-4.8s-1.9-5.3-4.8-5.5
	C31,34,30.8,34,30.6,34L30.6,34z"/>
<circle class="p17bisj-5" cx="40.8" cy="64.5" r="10.1"/>
<path class="p17bisj-6" d="M48.1,67.7l-5.5-3.2l5.5-3.2c0.4-0.2,0.6-0.8,0.3-1.2l0,0c-0.2-0.4-0.8-0.6-1.2-0.3l-5.5,3.1v-6.3
	c-0.1-0.5-0.5-0.8-1-0.8c0,0,0,0,0,0c-0.4,0-0.8,0.4-0.8,0.8v6.3l-5.5-3.1c-0.4-0.2-1,0-1.2,0.4c-0.2,0.3-0.1,0.7,0.2,1l0.2,0.1
	l5.5,3.2l-5.5,3.1c-0.4,0.2-0.6,0.7-0.4,1.2c0.2,0.4,0.7,0.6,1.2,0.4l0.2-0.1L40,66v6.3c-0.1,0.5,0.3,0.9,0.8,1
	c0.5,0.1,0.9-0.3,1-0.8v-6.5l5.5,3.2c0.4,0.2,1,0.1,1.2-0.3l0,0C48.7,68.5,48.6,67.9,48.1,67.7C48.2,67.7,48.2,67.7,48.1,67.7
	L48.1,67.7L48.1,67.7z"/>
</svg>
