<?xml version="1.0" encoding="utf-8"?>
<!-- Generator: Adobe Illustrator 24.0.2, SVG Export Plug-In . SVG Version: 6.00 Build 0)  -->
<svg version="1.1" id="Calque_28" xmlns="http://www.w3.org/2000/svg" xmlns:xlink="http://www.w3.org/1999/xlink" width="50" height="50" x="0px" y="0px"
	 viewBox="0 0 85.2 85.2" style="enable-background:new 0 0 85.2 85.2;" xml:space="preserve">
<style type="text/css">
	.p17bisn-0{opacity:0.25;fill:#44454E;enable-background:new    ;}
	.p17bisn-1{fill:#FFFFFF;}
	.p17bisn-2{opacity:0.18;fill:#636573;enable-background:new    ;}
	.p17bisn-3{fill:#FDFCEA;}
	.p17bisn-4{opacity:0.3;}
	.p17bisn-5{fill:#231F20;}
	.p17bisn-6{fill:#D8D9D8;}
	.p17bisn-7{opacity:0.8;fill:#FFFFFF;enable-background:new    ;}
	.p17bisn-8{fill:#79CCF1;}
</style>
<title>28Plan de travail 1</title>
<circle class="p17bisn-0" cx="53.6" cy="31.8" r="22.9"/>
<path class="p17bisn-1" d="M63.9,34.8c0.5,0,0.9-0.4,0.9-0.9c0,0,0,0,0,0l0,0v-3c0.1-0.5-0.3-0.9-0.8-1c-0.5-0.1-0.9,0.3-1,0.8
	c0,0.1,0,0.2,0,0.2v3C63,34.5,63.4,34.9,63.9,34.8C63.9,34.9,63.9,34.9,63.9,34.8L63.9,34.8L63.9,34.8z"/>
<path class="p17bisn-1" d="M66.3,32.4c0-0.5-0.4-0.9-0.9-0.9h-3c-0.5-0.1-0.9,0.3-1,0.8s0.3,0.9,0.8,1l0,0h3.2
	C65.9,33.3,66.3,32.9,66.3,32.4L66.3,32.4L66.3,32.4z"/>
<path class="p17bisn-1" d="M35.2,19.9c0.5,0,0.9-0.4,0.9-0.9l0,0v-3c0.1-0.5-0.3-0.9-0.8-1c-0.5-0.1-0.9,0.3-1,0.8c0,0.1,0,0.1,0,0.2v3
	C34.3,19.5,34.7,19.9,35.2,19.9C35.2,19.9,35.2,19.9,35.2,19.9L35.2,19.9z"/>
<path class="p17bisn-1" d="M37.6,17.5c0-0.5-0.4-0.9-0.9-0.9h-3c-0.5-0.1-0.9,0.3-1,0.8s0.3,0.9,0.8,1l0,0h3.2
	C37.2,18.4,37.6,18,37.6,17.5L37.6,17.5L37.6,17.5z"/>
<path class="p17bisn-1" d="M60.3,17.5c0.5,0,0.9-0.4,0.9-0.9l0,0v-3c0.1-0.5-0.3-0.9-0.8-1c-0.5-0.1-0.9,0.3-1,0.8c0,0.1,0,0.1,0,0.2v3
	C59.5,17.1,59.8,17.5,60.3,17.5C60.3,17.5,60.3,17.5,60.3,17.5L60.3,17.5L60.3,17.5z"/>
<path class="p17bisn-1" d="M62.8,15.1c0-0.5-0.4-0.9-0.9-0.9h-3c-0.5-0.1-0.9,0.3-1,0.8c-0.1,0.5,0.3,0.9,0.8,1h3.2
	C62.4,16,62.8,15.6,62.8,15.1L62.8,15.1L62.8,15.1z"/>
<path class="p17bisn-2" d="M53.6,16.7c1.8-0.4,3.6-0.5,5.4-0.3c-7.2,4.6-9.3,14.3-4.6,21.4c2.5,3.9,6.7,6.5,11.3,7
	c-7.2,4.7-16.8,2.7-21.5-4.5s-2.7-16.8,4.5-21.5C50.1,17.8,51.8,17.1,53.6,16.7z"/>
<path class="p17bisn-3" d="M49.5,17.1c1.8-0.4,3.6-0.5,5.4-0.3c-7.1,4.7-9.1,14.2-4.4,21.3C52.9,42,57,44.5,61.5,45
	c-7.1,4.6-16.7,2.6-21.3-4.5s-2.6-16.7,4.5-21.3C46.2,18.2,47.8,17.5,49.5,17.1L49.5,17.1z"/>
<g class="p17bisn-4">
	<path class="p17bisn-5" d="M69,44.4c-4.3-6.9-13.4-9-20.4-4.7c-3.4,2.2-5.8,5.6-6.6,9.6c2.8,0.3,5.2,1.8,6.6,4.2l-1.1,0.6
		c-2-3.4-5.8-3.8-8.5-3.7c-4.4,1.7-6.6,6.6-4.9,11c1.3,3.3,4.4,5.5,7.9,5.5h25.7C74,66.6,78.8,61.3,78.5,55
		C78.3,49.7,74.3,45.2,69,44.4L69,44.4z"/>
	<path class="p17bisn-5" d="M33.2,38.4c-0.8-4.5-4.7-7.7-9.3-7.7c-2.9,0-5.7,1.3-7.5,3.6c2,0.3,4.5,1.2,5.6,3.6l-1.2,0.5
		c-1.4-3-6-3.1-6.7-3.1c-2.8,0.9-4.7,3.5-4.7,6.5c0.1,3.9,3.3,7,7.2,6.9h16.4c2.9,0,5.2-2.3,5.3-5.1C38.4,40.7,36.1,38.4,33.2,38.4
		L33.2,38.4z"/>
</g>
<path class="p17bisn-6" d="M66.3,41.7C62.1,34.8,53,32.6,46,36.9c-3.5,2.2-6,5.7-6.8,9.8c2.8,0.3,5.2,1.8,6.6,4.2l-1.1,0.6
	c-2-3.4-5.8-3.8-8.5-3.7c-4.4,1.7-6.6,6.6-4.9,11c1.3,3.3,4.4,5.5,7.9,5.5h25.8c6.3-0.3,11.1-5.7,10.8-11.9
	C75.6,47,71.6,42.6,66.3,41.7L66.3,41.7z"/>
<path class="p17bisn-6" d="M30.6,35.8c-0.8-4.5-4.7-7.7-9.3-7.7c-2.9,0-5.7,1.3-7.5,3.6c2,0.3,4.5,1.2,5.6,3.6l-1.2,0.5
	c-1.4-3-6-3.1-6.7-3.1c-2.8,0.9-4.7,3.6-4.7,6.5c0.1,3.9,3.3,7,7.2,6.9h16.5c2.9,0,5.2-2.3,5.3-5.1C35.8,38.2,33.5,35.8,30.6,35.8
	L30.6,35.8z"/>
<circle class="p17bisn-7" cx="41.3" cy="66.6" r="9.7"/>
<path class="p17bisn-8" d="M48.3,69.6l-5.3-3l5.3-3c0.4-0.2,0.5-0.8,0.3-1.2l0,0c-0.2-0.4-0.8-0.5-1.2-0.3l-5.3,3V59
	c0.1-0.5-0.3-0.9-0.8-0.9s-0.9,0.3-0.9,0.8c0,0.1,0,0.1,0,0.2v6.1L35.1,62c-0.4-0.3-0.9-0.3-1.2,0.1c-0.3,0.3-0.3,0.9,0.1,1.2
	l0.2,0.1l0.2,0.1l0,0l5.3,3l-5.3,3c-0.5,0.1-0.7,0.6-0.6,1c0.1,0.5,0.6,0.7,1,0.6c0.1,0,0.2-0.1,0.3-0.1l0,0h0.1l0,0l5.3-3v6.1
	c0,0.5,0.4,0.8,0.8,0.8c0.5,0,0.9-0.4,0.9-0.8l0,0V68l5.3,3c0.4,0.2,0.9,0.1,1.2-0.3l0,0C48.7,70.3,48.6,69.9,48.3,69.6z"/>
</svg>
