<?xml version="1.0" encoding="utf-8"?>
<!-- Generator: Adobe Illustrator 24.0.2, SVG Export Plug-In . SVG Version: 6.00 Build 0)  -->
<svg version="1.1" id="Calque_30" xmlns="http://www.w3.org/2000/svg" xmlns:xlink="http://www.w3.org/1999/xlink" width="50" height="50" x="0px" y="0px"
	 viewBox="0 0 85.2 85.2" style="enable-background:new 0 0 85.2 85.2;" xml:space="preserve">
<style type="text/css">
	.p19bisj-0{opacity:0.51;fill:#EEEB61;enable-background:new    ;}
	.p19bisj-1{fill:#F5B21A;stroke:#FDE901;stroke-miterlimit:10;}
	.p19bisj-2{opacity:0.3;}
	.p19bisj-3{fill:#231F20;}
	.p19bisj-4{fill:#D8D9D8;}
	.p19bisj-5{fill:#79CCF1;}
	.p19bisj-6{fill:#FFFFFF;}
	.p19bisj-7{opacity:0.8;fill:#FFFFFF;enable-background:new    ;}
</style>
<title>30Plan de travail 1</title>
<circle class="p19bisj-0" cx="53.2" cy="27.9" r="19.9"/>
<circle class="p19bisj-1" cx="53.2" cy="27.9" r="15.2"/>
<g class="p19bisj-2">
	<path class="p19bisj-3" d="M68.9,36.2c-4.3-6.9-13.4-9-20.4-4.7c-3.4,2.2-5.8,5.6-6.6,9.6c2.8,0.3,5.2,1.8,6.6,4.2L47.4,46
		c-2-3.4-5.8-3.8-8.5-3.7c-4.4,1.7-6.6,6.6-4.9,11c1.3,3.3,4.4,5.5,7.9,5.5h25.7c6.3-0.2,11.2-5.5,10.9-11.8
		C78.4,41.5,74.3,37,68.9,36.2L68.9,36.2z"/>
	<path class="p19bisj-3" d="M33.1,30.2c-0.8-4.5-4.8-7.7-9.3-7.6c-2.9,0-5.7,1.3-7.5,3.6c2,0.3,4.5,1.2,5.6,3.6l-1.2,0.5
		c-1.4-3-6-3.1-6.7-3.1c-2.8,0.9-4.7,3.5-4.7,6.5c0.1,3.9,3.3,7,7.2,6.9c0,0,0,0,0,0H33c2.9,0,5.2-2.3,5.3-5.1
		C38.3,32.6,36,30.2,33.1,30.2L33.1,30.2z"/>
</g>
<path class="p19bisj-4" d="M66.3,33.5C62,26.6,52.9,24.4,46,28.7c-3.5,2.2-6,5.7-6.8,9.8c2.8,0.3,5.2,1.8,6.6,4.2l-1.1,0.6
	c-2-3.4-5.8-3.8-8.5-3.7c-4.4,1.7-6.6,6.6-4.9,11c1.3,3.3,4.4,5.5,7.9,5.5H65c6.3-0.3,11.1-5.7,10.8-11.9
	C75.5,38.8,71.5,34.4,66.3,33.5L66.3,33.5z"/>
<path class="p19bisj-4" d="M30.5,27.6c-0.8-4.5-4.7-7.7-9.3-7.6c-2.9,0-5.7,1.3-7.5,3.6c2,0.3,4.5,1.2,5.6,3.6l-1.2,0.5
	c-1.4-3-6-3.1-6.7-3.1c-2.8,0.9-4.7,3.5-4.7,6.5c0.1,3.9,3.3,7,7.2,7c0,0,0,0,0.1,0h16.4c2.9,0,5.2-2.3,5.3-5.1
	C35.7,30,33.4,27.6,30.5,27.6L30.5,27.6L30.5,27.6z"/>
<path class="p19bisj-5" d="M30.8,76.2l4.9-16.1c0.1-0.3,0.4-0.5,0.7-0.4l0.8,0.2c0.3,0.1,0.5,0.4,0.4,0.7l-4.9,16.1
	c-0.1,0.3-0.4,0.5-0.7,0.4l-0.8-0.2C30.8,76.8,30.7,76.5,30.8,76.2z"/>
<path class="p19bisj-5" d="M39.5,76.2l4.9-16.1c0.1-0.3,0.4-0.5,0.7-0.4l0.8,0.2c0.3,0.1,0.5,0.4,0.4,0.7l-4.9,16.1
	c-0.1,0.3-0.4,0.5-0.7,0.4l-0.8-0.2C39.6,76.8,39.4,76.4,39.5,76.2z"/>
<path class="p19bisj-5" d="M48.1,76.3L53,60.1c0.1-0.3,0.4-0.5,0.7-0.4l0.8,0.2c0.3,0.1,0.5,0.4,0.4,0.7L50,76.8c-0.1,0.3-0.4,0.5-0.7,0.4
	L48.5,77C48.2,76.9,48.1,76.6,48.1,76.3z"/>
<path class="p19bisj-5" d="M57.1,76.3L62,60.1c0.1-0.3,0.4-0.5,0.7-0.4l0.8,0.2c0.3,0.1,0.5,0.4,0.4,0.7L59,76.8c-0.1,0.3-0.4,0.5-0.7,0.4
	L57.5,77C57.2,76.9,57.1,76.6,57.1,76.3z"/>
<path class="p19bisj-5" d="M66.3,76.3l4.9-16.2c0.1-0.3,0.4-0.5,0.7-0.4l0.8,0.2c0.3,0.1,0.5,0.4,0.4,0.7l-4.9,16.2
	c-0.1,0.3-0.4,0.5-0.7,0.4L66.7,77C66.4,76.9,66.2,76.6,66.3,76.3z"/>
<path class="p19bisj-6" d="M35.4,76.2l4.9-16.1c0.1-0.3,0.4-0.5,0.7-0.4l0.8,0.2c0.3,0.1,0.5,0.4,0.4,0.7l-4.9,16.1
	c-0.1,0.3-0.4,0.5-0.7,0.4l-0.8-0.2C35.5,76.8,35.3,76.5,35.4,76.2z"/>
<path class="p19bisj-6" d="M44.1,76.1L49,60c0.1-0.3,0.4-0.5,0.7-0.4l0.8,0.2c0.3,0.1,0.5,0.4,0.4,0.7L46,76.7c-0.1,0.3-0.4,0.5-0.7,0.4
	l-0.8-0.2C44.2,76.7,44,76.4,44.1,76.1z"/>
<path class="p19bisj-6" d="M52.8,76.3l4.9-16.2c0.1-0.3,0.4-0.5,0.7-0.4l0.8,0.2c0.3,0.1,0.5,0.4,0.4,0.7l-4.9,16.2
	c-0.1,0.3-0.4,0.5-0.7,0.4L53.2,77C52.9,76.9,52.7,76.6,52.8,76.3z"/>
<path class="p19bisj-6" d="M61.8,76.3l4.9-16.2c0.1-0.3,0.4-0.5,0.7-0.4l0.8,0.2c0.3,0.1,0.5,0.4,0.4,0.7l-4.9,16.2
	c-0.1,0.3-0.4,0.5-0.7,0.4L62.2,77C61.9,76.9,61.7,76.6,61.8,76.3z"/>
<path class="p19bisj-6" d="M71.2,76.3L76,60.1c0.1-0.3,0.4-0.5,0.7-0.4l0.8,0.2c0.3,0.1,0.5,0.4,0.4,0.7L73,76.8c-0.1,0.3-0.4,0.5-0.7,0.4
	L71.5,77C71.2,76.9,71.1,76.6,71.2,76.3z"/>
<circle class="p19bisj-7" cx="44.5" cy="57.8" r="7.4"/>
<path class="p19bisj-5" d="M49.9,60.2l-4.1-2.3l4.1-2.3c0.3-0.2,0.4-0.6,0.2-0.9l0,0c-0.2-0.3-0.6-0.4-0.9-0.2l-4.1,2.3V52
	c0-0.4-0.2-0.7-0.6-0.7c0,0,0,0,0,0c-0.4,0-0.7,0.2-0.7,0.6c0,0,0,0,0,0c0,0.1,0,0.1,0,0.2v4.7l-4-2.3c-0.3-0.2-0.7-0.1-0.9,0.2
	c-0.2,0.3-0.1,0.7,0.2,0.9l0,0l4.1,2.3l-4.1,2.3c-0.3,0.2-0.4,0.6-0.2,0.9c0.2,0.3,0.6,0.4,0.9,0.2l4.1-2.3v4.7
	c0,0.4,0.2,0.7,0.6,0.7c0,0,0,0,0,0c0.4,0,0.7-0.2,0.7-0.6c0-0.1,0-0.1,0-0.2V59l4.1,2.3c0.3,0.2,0.7,0.1,0.9-0.2l0,0
	c0.2-0.3,0.1-0.7-0.2-0.9l0,0L49.9,60.2z"/>
<circle class="p19bisj-7" cx="65.2" cy="58.3" r="7.4"/>
<path class="p19bisj-5" d="M70.5,60.6l-4.1-2.3l4.1-2.3c0.3-0.2,0.4-0.6,0.2-0.9l0,0c-0.2-0.3-0.6-0.4-0.9-0.2l0,0l-4,2.4v-4.7
	c0-0.4-0.2-0.7-0.6-0.7c0,0,0,0,0,0c-0.4,0-0.7,0.2-0.7,0.6c0,0,0,0,0,0c0,0.1,0,0.1,0,0.2v4.7l-4-2.3c-0.3-0.2-0.7-0.1-0.9,0.3
	s-0.1,0.7,0.3,0.9l0,0l4.1,2.3l-4.1,2.3c-0.3,0.2-0.4,0.6-0.2,0.9c0.2,0.3,0.6,0.4,0.9,0.2l0,0l4.1-2.3v4.7c0,0.4,0.2,0.7,0.6,0.7
	c0,0,0,0,0,0c0.4,0,0.7-0.2,0.7-0.6c0-0.1,0-0.1,0-0.2v-4.7l4,2.3c0.3,0.2,0.7,0.1,0.9-0.2l0,0C71,61.3,70.9,60.9,70.5,60.6
	L70.5,60.6L70.5,60.6z"/>
</svg>
