<svg id="Calque_31" data-name="Calque 31" xmlns="http://www.w3.org/2000/svg" viewBox="0 0 85.23 85.24" width="50" height="50"><defs><style>.p19n-1{fill:#44454e;opacity:0.25;}.p19n-1,.p19n-3,.p19n-9{isolation:isolate;}.p19n-2,.p19n-9{fill:#fff;}.p19n-3{fill:#636573;opacity:0.18;}.p19n-4{fill:#fdfcea;}.p19n-5{fill:#79ccf1;}.p19n-6{opacity:0.3;}.p19n-7{fill:#231f20;}.p19n-8{fill:#d8d9d8;}.p19n-9{opacity:0.8;}</style></defs><title>31Plan de travail 1</title><circle class="p19n-1" cx="54.87" cy="30.34" r="22.87"/><path class="p19n-2" d="M65.17,33.35a.89.89,0,0,0,.89-.89h0v-3a.89.89,0,0,0-1.77-.19v3.19a.89.89,0,0,0,.88.9h0Z"/><path class="p19n-2" d="M67.58,30.94a.89.89,0,0,0-.89-.89h-3a.89.89,0,1,0-.19,1.77h3.22A.88.88,0,0,0,67.58,30.94Z"/><path class="p19n-2" d="M36.46,18.41a.89.89,0,0,0,.89-.89h0v-3a.89.89,0,1,0-1.77-.19v3.19a.89.89,0,0,0,.88.9h0Z"/><path class="p19n-2" d="M38.83,16a.89.89,0,0,0-.89-.89h-3a.89.89,0,1,0-.19,1.77H38A.88.88,0,0,0,38.83,16Z"/><path class="p19n-2" d="M61.6,16a.89.89,0,0,0,.89-.89h0v-3a.89.89,0,1,0-1.77-.19V15.1A.89.89,0,0,0,61.6,16Z"/><path class="p19n-2" d="M64,13.58a.89.89,0,0,0-.89-.89H60.08a.89.89,0,1,0-.19,1.77h3.22A.89.89,0,0,0,64,13.6h0Z"/><path class="p19n-3" d="M56.06,14.05a15.69,15.69,0,0,1,5.42-.29A15.51,15.51,0,0,0,68.17,42.2,15.56,15.56,0,1,1,56.06,14.05Z"/><path class="p19n-4" d="M50.76,15.66a15.4,15.4,0,0,1,5.37-.28,15.39,15.39,0,0,0,6.63,28.17,15.41,15.41,0,1,1-12-27.91Z"/><rect class="p19n-5" x="25.21" y="67.94" width="17.94" height="1.93" rx="0.55" ry="0.55" transform="translate(-41.72 81.39) rotate(-72.96)"/><rect class="p19n-5" x="33.94" y="67.93" width="17.94" height="1.93" rx="0.55" ry="0.55" transform="matrix(0.29, -0.96, 0.96, 0.29, -35.54, 89.73)"/><rect class="p19n-5" x="42.55" y="68.02" width="17.99" height="1.94" rx="0.55" ry="0.55" transform="translate(-29.4 98.37) rotate(-73.19)"/><rect class="p19n-5" x="51.55" y="68.02" width="17.99" height="1.94" rx="0.55" ry="0.55" transform="translate(-23.01 107) rotate(-73.19)"/><rect class="p19n-5" x="60.74" y="68.02" width="17.99" height="1.94" rx="0.55" ry="0.55" transform="translate(-16.48 115.79) rotate(-73.19)"/><rect class="p19n-2" x="29.83" y="67.94" width="17.94" height="1.93" rx="0.55" ry="0.55" transform="translate(-38.45 85.81) rotate(-72.96)"/><rect class="p19n-2" x="38.55" y="67.93" width="17.94" height="1.93" rx="0.55" ry="0.55" transform="translate(-32.28 94.14) rotate(-72.96)"/><rect class="p19n-2" x="47.19" y="68.04" width="17.99" height="1.94" rx="0.55" ry="0.55" transform="translate(-26.13 102.83) rotate(-73.19)"/><rect class="p19n-2" x="56.19" y="68.02" width="17.99" height="1.94" rx="0.55" ry="0.55" transform="translate(-19.71 111.44) rotate(-73.19)"/><rect class="p19n-2" x="65.56" y="68.02" width="17.99" height="1.94" rx="0.55" ry="0.55" transform="translate(-13.05 120.41) rotate(-73.19)"/><g class="p19n-6"><path class="p19n-7" d="M68.91,36.33a14.77,14.77,0,0,0-27,4.91,8.64,8.64,0,0,1,6.64,4.21l-1.14.64c-2-3.42-5.82-3.85-8.47-3.67a8.52,8.52,0,0,0,3,16.48H67.67A11.37,11.37,0,0,0,68.9,36.32Z"/><path class="p19n-7" d="M33.15,30.34a9.29,9.29,0,0,0-9.32-7.68,9.59,9.59,0,0,0-7.5,3.57c2,.32,4.53,1.21,5.63,3.64l-1.19.54c-1.36-3-6-3.1-6.71-3.1a6.94,6.94,0,0,0-4.7,6.46,7.08,7.08,0,0,0,7.23,6.93H33a5.21,5.21,0,1,0,.13-10.42Z"/></g><path class="p19n-8" d="M66.29,33.66a14.77,14.77,0,0,0-27.07,5,8.64,8.64,0,0,1,6.64,4.21l-1.14.64c-2-3.42-5.82-3.85-8.47-3.67a8.52,8.52,0,0,0,3,16.48H65a11.37,11.37,0,0,0,1.23-22.58Z"/><path class="p19n-8" d="M30.53,27.73a9.3,9.3,0,0,0-9.3-7.65,9.59,9.59,0,0,0-7.5,3.57c2,.32,4.53,1.21,5.63,3.64l-1.19.54c-1.36-3-6-3.1-6.71-3.1a6.94,6.94,0,0,0-4.7,6.46A7.08,7.08,0,0,0,14,38.12H30.43a5.21,5.21,0,1,0,.13-10.42Z"/><circle class="p19n-9" cx="42.58" cy="54.76" r="8.75"/><path class="p19n-5" d="M48.83,57.53l-4.77-2.75,4.77-2.73a.77.77,0,0,0,.29-1h0a.77.77,0,0,0-1-.29h0l-4.77,2.75V48.05a.77.77,0,1,0-1.54,0v5.5l-4.75-2.78a.77.77,0,0,0-.9,1.25h0l.14.08,4.77,2.75-4.79,2.76a.77.77,0,0,0-.39,1,.76.76,0,0,0,1,.39h0l.14-.08h0l4.79-2.89v5.5a.77.77,0,0,0,1.54,0h0v-5.5l4.77,2.75a.76.76,0,0,0,1-.27h0A.76.76,0,0,0,48.83,57.53Z"/><circle class="p19n-9" cx="65.8" cy="54.76" r="8.75"/><path class="p19n-5" d="M72.1,57.53l-4.77-2.75L72.1,52a.77.77,0,0,0,.29-1h0a.77.77,0,0,0-1-.29h0l-4.77,2.75V48a.77.77,0,1,0-1.54,0v5.5l-4.75-2.78a.77.77,0,0,0-.9,1.25h0l.14.08,4.77,2.75-4.78,2.76a.77.77,0,0,0-.39,1,.76.76,0,0,0,1,.39h0l.14-.08,4.77-2.75v5.5a.77.77,0,0,0,1.54,0h0V56.05L71.4,58.8a.77.77,0,0,0,1-.27h0A.76.76,0,0,0,72.1,57.53Z"/></svg>