
<svg version="1.1" id="Calque_5" xmlns="http://www.w3.org/2000/svg" xmlns:xlink="http://www.w3.org/1999/xlink" x="0px" y="0px"
	 viewBox="0 0 50 50" style="enable-background:new 0 0 50 50;" xml:space="preserve" width="50" height="50">
<style type="text/css">
	.st0{opacity:0.18;fill:#43444D;enable-background:new    ;}
	.st1{fill:#FFFFFF;}
	.st2{opacity:0.18;fill:#626472;enable-background:new    ;}
	.st3{fill:#FDFCE9;}
	.st4{opacity:0.8;fill:#FFFFFF;stroke:#CAD9E8;stroke-width:2;stroke-miterlimit:10;enable-background:new    ;}
</style>
<g>
	<circle class="st0" cx="25.9" cy="24.7" r="15.3"/>
	<path class="st1" d="M32.7,26.8c0.4,0,0.6-0.2,0.6-0.6v-2.1c0-0.4-0.3-0.6-0.6-0.6s-0.6,0.3-0.6,0.6l0,0v2.1
		C32.2,26.5,32.4,26.8,32.7,26.8L32.7,26.8z"/>
	<path class="st1" d="M34.4,25.1c0-0.4-0.2-0.6-0.6-0.6h-2.1c-0.4,0-0.6,0.3-0.6,0.6c0,0.3,0.3,0.6,0.6,0.6h2.1
		C34.1,25.8,34.4,25.5,34.4,25.1L34.4,25.1z"/>
	<path class="st1" d="M13.5,16.7c0.4,0,0.6-0.2,0.6-0.6V14c0-0.4-0.3-0.6-0.6-0.6s-0.6,0.3-0.6,0.6v2.1
		C12.9,16.4,13.1,16.7,13.5,16.7L13.5,16.7z"/>
	<path class="st1" d="M15.1,15.1c0-0.4-0.2-0.6-0.6-0.6h-2.1c-0.4,0-0.6,0.3-0.6,0.6s0.3,0.6,0.6,0.6h2.1
		C14.8,15.7,15.1,15.5,15.1,15.1L15.1,15.1L15.1,15.1z"/>
	<path class="st1" d="M30.4,15.1c0.4,0,0.6-0.2,0.6-0.6v-2.1c0-0.4-0.3-0.6-0.6-0.6c-0.3,0-0.6,0.3-0.6,0.6v2.1
		C29.8,14.8,30,15.1,30.4,15.1L30.4,15.1z"/>
	<path class="st1" d="M32,13.5c0-0.4-0.2-0.6-0.6-0.6h-2.1c-0.4,0-0.6,0.3-0.6,0.6s0.3,0.6,0.6,0.6h2.1C31.7,14.1,32,13.8,32,13.5
		L32,13.5L32,13.5z"/>
	<path class="st2" d="M25.1,15c1.2-0.3,2.4-0.4,3.6-0.2c-4.8,3.1-6.1,9.5-3,14.3c1.7,2.6,4.4,4.3,7.5,4.6
		c-4.8,3.1-11.2,1.6-14.3-3.1c-3.1-4.8-1.6-11.2,3.1-14.3C22.9,15.8,23.9,15.3,25.1,15z"/>
	<path class="st3" d="M23.1,14.8c1.2-0.3,2.4-0.4,3.6-0.2c-4.8,3.1-6.1,9.5-3,14.3c1.7,2.6,4.4,4.3,7.5,4.6
		c-4.8,3.1-11.2,1.7-14.2-3c-3.1-4.8-1.6-11.2,3.1-14.3C21,15.6,22.1,15.1,23.1,14.8z"/>
	<path class="st4" d="M7.3,20c0.9-1.3,2.3-2.1,3.9-2.1c2.2-0.1,4.2,1.6,4.6,3.8c1.4-0.1,2.6,1.1,2.6,2.5c0.1,1.4-1.1,2.6-2.5,2.6
		H7.6c-1.9,0-3.4-1.5-3.5-3.3C4.2,21.7,5.5,20.2,7.3,20L7.3,20z"/>
</g>
</svg>
