<?xml version="1.0" encoding="utf-8"?>
<!-- Generator: Adobe Illustrator 24.0.2, SVG Export Plug-In . SVG Version: 6.00 Build 0)  -->
<svg version="1.1" id="Calque_32" xmlns="http://www.w3.org/2000/svg" xmlns:xlink="http://www.w3.org/1999/xlink" width="50" height="50" x="0px" y="0px"
	 viewBox="0 0 85.2 85.2" style="enable-background:new 0 0 85.2 85.2;" xml:space="preserve">
<style type="text/css">
	.p20n-0{fill:#79CCF1;}
	.p20n-1{fill:#FFFFFF;}
	.p20n-2{opacity:0.3;}
	.p20n-3{fill:#231F20;}
	.p20n-4{fill:#D8D9D8;}
	.p20n-5{opacity:0.8;fill:#FFFFFF;enable-background:new    ;}
</style>
<title>32Plan de travail 1</title>
<path class="p20n-0" d="M29.8,70.7l4.9-16.1c0.1-0.3,0.4-0.5,0.7-0.4l0.8,0.2c0.3,0.1,0.5,0.4,0.4,0.7l-4.9,16.1
	c-0.1,0.3-0.4,0.5-0.7,0.4l-0.8-0.2C29.8,71.2,29.7,70.9,29.8,70.7z"/>
<path class="p20n-0" d="M38.5,70.6l4.9-16.1c0.1-0.3,0.4-0.5,0.7-0.4l0.8,0.2c0.3,0.1,0.5,0.4,0.4,0.7l-4.9,16.1
	c-0.1,0.3-0.4,0.5-0.7,0.4l-0.8-0.2C38.6,71.2,38.4,70.9,38.5,70.6z"/>
<path class="p20n-0" d="M47.2,70.6L52,54.5c0.1-0.3,0.4-0.5,0.7-0.4l0.8,0.2c0.3,0.1,0.5,0.4,0.4,0.7L49,71.2c-0.1,0.3-0.4,0.5-0.7,0.4
	l-0.8-0.2C47.2,71.2,47.1,70.9,47.2,70.6z"/>
<path class="p20n-0" d="M56.2,70.6L61,54.5c0.1-0.3,0.4-0.5,0.7-0.4l0.8,0.2c0.3,0.1,0.5,0.4,0.4,0.7L58,71.2c-0.1,0.3-0.4,0.5-0.7,0.4
	l-0.8-0.2C56.2,71.2,56.1,70.9,56.2,70.6z"/>
<path class="p20n-0" d="M65.3,70.6l4.9-16.2c0.1-0.3,0.4-0.5,0.7-0.4l0.8,0.2c0.3,0.1,0.5,0.4,0.4,0.7l-4.9,16.2
	c-0.1,0.3-0.4,0.5-0.7,0.4l-0.8-0.2C65.4,71.2,65.3,70.9,65.3,70.6z"/>
<path class="p20n-1" d="M34.4,70.7l4.9-16.1c0.1-0.3,0.4-0.5,0.7-0.4l0.8,0.2c0.3,0.1,0.5,0.4,0.4,0.7l-4.9,16.1
	c-0.1,0.3-0.4,0.5-0.7,0.4l-0.8-0.2C34.5,71.2,34.3,70.9,34.4,70.7z"/>
<path class="p20n-1" d="M43.1,70.6L48,54.5c0.1-0.3,0.4-0.5,0.7-0.4l0.8,0.2c0.3,0.1,0.5,0.4,0.4,0.7L45,71.2c-0.1,0.3-0.4,0.5-0.7,0.4
	l-0.8-0.2C43.2,71.2,43,70.9,43.1,70.6z"/>
<path class="p20n-1" d="M51.8,70.6l4.9-16.2c0.1-0.3,0.4-0.5,0.7-0.4l0.8,0.2c0.3,0.1,0.5,0.4,0.4,0.7l-4.9,16.2
	c-0.1,0.3-0.4,0.5-0.7,0.4l-0.8-0.2C51.9,71.2,51.7,70.9,51.8,70.6z"/>
<path class="p20n-1" d="M60.8,70.6l4.9-16.2c0.1-0.3,0.4-0.5,0.7-0.4l0.8,0.2c0.3,0.1,0.5,0.4,0.4,0.7l-4.9,16.2
	c-0.1,0.3-0.4,0.5-0.7,0.4l-0.8-0.2C60.9,71.2,60.7,70.9,60.8,70.6z"/>
<path class="p20n-1" d="M70.2,70.6l4.9-16.2c0.1-0.3,0.4-0.5,0.7-0.4l0.8,0.2c0.3,0.1,0.5,0.4,0.4,0.7L72,71.2
	c-0.1,0.3-0.4,0.5-0.7,0.4l-0.8-0.2C70.2,71.2,70.1,70.9,70.2,70.6z"/>
<g class="p20n-2">
	<path class="p20n-3" d="M68.9,29.8c-4.3-6.9-13.4-9-20.4-4.7c-3.4,2.2-5.8,5.6-6.6,9.6c2.8,0.3,5.3,1.8,6.7,4.3l-1.1,0.6
		c-2-3.4-5.8-3.8-8.5-3.7c-4.4,1.7-6.6,6.6-4.9,11c1.3,3.3,4.4,5.4,7.9,5.5h25.7c6.3-0.3,11.1-5.6,10.8-11.9
		C78.2,35.2,74.2,30.7,68.9,29.8L68.9,29.8z"/>
	<path class="p20n-3" d="M33.1,23.9c-0.8-4.5-4.7-7.7-9.3-7.6c-2.9,0-5.7,1.3-7.5,3.6c2,0.3,4.5,1.2,5.6,3.6L20.8,24
		c-1.4-3-6-3.1-6.7-3.1c-2.8,0.9-4.7,3.5-4.7,6.5c0.1,3.9,3.3,7,7.2,6.9c0,0,0,0,0,0H33c2.9,0,5.2-2.3,5.3-5.1
		C38.3,26.3,36,23.9,33.1,23.9L33.1,23.9L33.1,23.9z"/>
</g>
<path class="p20n-4" d="M66.3,27.3C62,20.3,52.9,18.2,46,22.4c-3.5,2.2-6,5.7-6.8,9.8c2.8,0.3,5.2,1.9,6.6,4.3l-1.1,0.6
	c-2-3.4-5.8-3.8-8.5-3.7c-4.4,1.7-6.6,6.6-4.9,11c1.3,3.3,4.4,5.5,7.9,5.5H65c6.3-0.3,11.1-5.7,10.8-11.9
	C75.5,32.6,71.5,28.2,66.3,27.3L66.3,27.3z"/>
<path class="p20n-4" d="M30.5,21.3c-0.8-4.5-4.7-7.7-9.3-7.6c-2.9,0-5.7,1.3-7.5,3.6c2,0.3,4.5,1.2,5.6,3.6l-1.2,0.5
	c-1.4-3-6-3.1-6.7-3.1c-2.8,0.9-4.7,3.5-4.7,6.5c0.1,3.9,3.3,7,7.2,6.9c0,0,0,0,0,0h16.4c2.9,0,5.2-2.3,5.3-5.1
	C35.7,23.6,33.4,21.3,30.5,21.3L30.5,21.3z"/>
<circle class="p20n-5" cx="42.5" cy="50.5" r="8.4"/>
<path class="p20n-0" d="M48.6,53.2L44,50.5l4.6-2.6c0.4-0.2,0.5-0.6,0.3-1l0,0c-0.2-0.3-0.6-0.5-1-0.3l0,0l-4.6,2.6V44
	c0-0.4-0.3-0.7-0.7-0.7c-0.4,0-0.7,0.3-0.7,0.7v5.3l-4.6-2.6c-0.3-0.2-0.8-0.1-1,0.2c-0.2,0.3-0.2,0.8,0.2,1l0.2,0.1l4.6,2.6
	l-4.6,2.6c-0.4,0.2-0.6,0.6-0.4,1c0.2,0.4,0.6,0.6,1,0.4l0,0l0.2-0.1l0,0l4.5-2.6v5.3c0,0.4,0.3,0.7,0.7,0.7s0.7-0.3,0.7-0.7
	c0,0,0,0,0,0v-5.3l4.5,2.6c0.3,0.2,0.8,0.1,1-0.3c0,0,0,0,0,0l0,0C49,53.9,48.9,53.4,48.6,53.2z"/>
<circle class="p20n-5" cx="64.8" cy="50.5" r="8.4"/>
<path class="p20n-0" d="M70.9,53.2l-4.6-2.6l4.6-2.6c0.4-0.2,0.5-0.6,0.3-1l0,0c-0.2-0.3-0.6-0.5-1-0.3l0,0l-4.6,2.6V44
	c0-0.4-0.3-0.7-0.7-0.7c-0.4,0-0.7,0.3-0.7,0.7l0,0v5.3l-4.6-2.6c-0.3-0.2-0.8-0.1-1,0.2c-0.2,0.3-0.2,0.8,0.2,1l0.2,0.1l4.6,2.6
	l-4.6,2.6c-0.4,0.2-0.6,0.6-0.4,1c0.2,0.4,0.6,0.6,1,0.4l0,0l0.2-0.1l0,0l4.5-2.6v5.3c0,0.4,0.3,0.7,0.7,0.7c0.4,0,0.7-0.3,0.7-0.7
	l0,0l0,0v-5.2l4.6,2.6c0.3,0.2,0.8,0.1,1-0.3c0,0,0,0,0,0l0,0C71.3,53.9,71.2,53.4,70.9,53.2L70.9,53.2z"/>
</svg>
