<svg id="Calque_33" data-name="Calque 33" xmlns="http://www.w3.org/2000/svg" viewBox="0 0 85.23 85.24" width="50" height="50"><defs><style>.p21j-1{fill:#eeeb61;opacity:0.51;}.p21j-1,.p21j-6{isolation:isolate;}.p21j-2{fill:#f5b21a;stroke:#fde901;stroke-miterlimit:10;}.p21j-3{opacity:0.3;}.p21j-4{fill:#231f20;}.p21j-5{fill:#d8d9d8;}.p21j-6{fill:#fff;opacity:0.8;}.p21j-7{fill:#79ccf1;}</style></defs><title>33Plan de travail 1</title><circle class="p21j-1" cx="53.27" cy="30.06" r="19.92"/><circle class="p21j-2" cx="53.27" cy="30.06" r="15.2" transform="translate(-0.3 0.55) rotate(-0.58)"/><g class="p21j-3"><path class="p21j-4" d="M69,38.39A14.77,14.77,0,0,0,42,43.3a8.67,8.67,0,0,1,6.66,4.19l-1.14.64c-2-3.42-5.82-3.85-8.47-3.67a8.52,8.52,0,0,0,3,16.48h25.7A11.37,11.37,0,0,0,69,38.39Z"/><path class="p21j-4" d="M33.2,32.39a9.31,9.31,0,0,0-9.32-7.61,9.56,9.56,0,0,0-7.5,3.57c2,.32,4.53,1.21,5.63,3.64l-1.19.54c-1.36-3-6-3.1-6.71-3.1a6.93,6.93,0,0,0-4.7,6.46,7.08,7.08,0,0,0,7.22,6.93H33a5.21,5.21,0,0,0,.13-10.42h0Z"/></g><path class="p21j-5" d="M66.34,35.69A14.77,14.77,0,0,0,39.26,40.6a8.64,8.64,0,0,1,6.62,4.18l-1.14.64c-2-3.42-5.82-3.85-8.47-3.67a8.52,8.52,0,0,0,3,16.48H65.06a11.37,11.37,0,0,0,1.23-22.58Z"/><path class="p21j-5" d="M30.58,29.72a9.31,9.31,0,0,0-9.3-7.65,9.56,9.56,0,0,0-7.5,3.57c2,.32,4.53,1.21,5.63,3.64l-1.19.54c-1.36-3-6-3.1-6.71-3.1a6.94,6.94,0,0,0-4.73,6.46A7.08,7.08,0,0,0,14,40.11H30.45a5.21,5.21,0,0,0,.13-10.42Z"/><circle class="p21j-6" cx="40.9" cy="63.99" r="10.05"/><path class="p21j-7" d="M48.14,67.15,42.66,64l5.48-3.16a.89.89,0,0,0,.32-1.21h0a.89.89,0,0,0-1.21-.32l-5.48,3.16V56.13A.89.89,0,0,0,40,55.94a.6.6,0,0,0,0,.19v6.33L34.52,59.3a.9.9,0,0,0-1.21.33.88.88,0,0,0,.33,1.2h0L39.12,64l-5.48,3.16a.9.9,0,0,0-.33,1.21.89.89,0,0,0,1.21.32h0L40,65.52v6.33a.89.89,0,0,0,1.77.19v-.19h0V65.52l5.48,3.16a.89.89,0,0,0,1.21-.32h0A.89.89,0,0,0,48.14,67.15Z"/><circle class="p21j-6" cx="67.56" cy="63.99" r="10.05" transform="translate(-0.65 0.69) rotate(-0.58)"/><path class="p21j-7" d="M74.81,67.15,69.33,64l5.48-3.16a.89.89,0,0,0,.32-1.21h0a.89.89,0,0,0-1.21-.32l-5.48,3.16V56.13a.89.89,0,0,0-1.77,0h0v6.33L61.19,59.3a.9.9,0,0,0-1.21.33.88.88,0,0,0,.33,1.2h0L65.79,64l-5.48,3.16A.9.9,0,0,0,60,68.36a.89.89,0,0,0,1.21.32h0l5.48-3.16v6.33a.89.89,0,1,0,1.77,0h0V65.52l5.44,3.16a.89.89,0,0,0,1.21-.32h0A.9.9,0,0,0,74.81,67.15Z"/></svg>