<svg id="Calque_34" data-name="Calque 34" xmlns="http://www.w3.org/2000/svg" viewBox="0 0 85.23 85.24" width="50" height="50"><defs><style>.p21n-1{fill:#44454e;opacity:0.25;}.p21n-1,.p21n-3,.p21n-8{isolation:isolate;}.p21n-2,.p21n-8{fill:#fff;}.p21n-3{fill:#636573;opacity:0.18;}.p21n-4{fill:#fdfcea;}.p21n-5{opacity:0.3;}.p21n-6{fill:#231f20;}.p21n-7{fill:#d8d9d8;}.p21n-8{opacity:0.8;}.p21n-9{fill:#79ccf1;}</style></defs><title>34Plan de travail 1</title><circle class="p21n-1" cx="54.92" cy="34.64" r="22.87"/><path class="p21n-2" d="M65.22,37.63a.89.89,0,0,0,.89-.89h0v-3a.89.89,0,0,0-1.77-.19.6.6,0,0,0,0,.19v3a.89.89,0,0,0,.88.9h0Z"/><path class="p21n-2" d="M67.63,35.26a.89.89,0,0,0-.89-.89h-3a.89.89,0,1,0-.19,1.77h3.22A.89.89,0,0,0,67.63,35.26Z"/><path class="p21n-2" d="M36.51,22.69a.89.89,0,0,0,.89-.89h0V18.72a.89.89,0,1,0-1.77-.19.6.6,0,0,0,0,.19v3.1A.89.89,0,0,0,36.51,22.69Z"/><path class="p21n-2" d="M38.88,20.29A.89.89,0,0,0,38,19.4H35a.89.89,0,1,0-.19,1.77H38A.89.89,0,0,0,38.88,20.29Z"/><path class="p21n-2" d="M61.65,20.29a.89.89,0,0,0,.89-.89h0v-3a.89.89,0,1,0-1.77-.19.6.6,0,0,0,0,.19v3a.89.89,0,0,0,.88.9h0Z"/><path class="p21n-2" d="M64.08,17.87a.89.89,0,0,0-.89-.89H60.13a.89.89,0,1,0-.19,1.77h3.22a.89.89,0,0,0,.92-.86h0Z"/><path class="p21n-3" d="M56.11,18.36a15.68,15.68,0,0,1,5.42-.29,15.51,15.51,0,0,0,6.69,28.44A15.56,15.56,0,1,1,56.11,18.36Z"/><path class="p21n-4" d="M50.81,20a15.4,15.4,0,0,1,5.37-.28,15.39,15.39,0,0,0,6.63,28.17A15.41,15.41,0,1,1,50.81,20Z"/><g class="p21n-5"><path class="p21n-6" d="M69,42.54a14.77,14.77,0,0,0-27,4.91,8.64,8.64,0,0,1,6.64,4.21l-1.14.64c-2-3.42-5.82-3.85-8.47-3.67a8.52,8.52,0,0,0,3,16.48H67.72A11.37,11.37,0,0,0,69,42.53Z"/><path class="p21n-6" d="M33.2,36.57A9.31,9.31,0,0,0,23.88,29a9.56,9.56,0,0,0-7.5,3.57c2,.32,4.53,1.21,5.63,3.64l-1.19.54c-1.36-3-6-3.1-6.71-3.1a6.93,6.93,0,0,0-4.7,6.46A7.08,7.08,0,0,0,16.63,47H33a5.21,5.21,0,0,0,.13-10.42Z"/></g><path class="p21n-7" d="M66.34,40a14.77,14.77,0,0,0-27.08,4.9,8.64,8.64,0,0,1,6.62,4.2l-1.14.64c-2-3.42-5.82-3.85-8.47-3.67a8.52,8.52,0,0,0,3,16.48H65.06A11.37,11.37,0,0,0,66.29,40Z"/><path class="p21n-7" d="M30.58,34a9.31,9.31,0,0,0-9.3-7.65,9.56,9.56,0,0,0-7.5,3.57c2,.32,4.53,1.21,5.63,3.64l-1.19.54c-1.36-3-6-3.1-6.71-3.1a6.93,6.93,0,0,0-4.7,6.46A7.07,7.07,0,0,0,14,44.36H30.48a5.21,5.21,0,0,0,.13-10.42Z"/><circle class="p21n-8" cx="40.9" cy="64.98" r="10.05"/><path class="p21n-9" d="M48.14,68.14,42.66,65l5.48-3.16a.89.89,0,0,0,.32-1.21h0a.89.89,0,0,0-1.21-.32l-5.48,3.16V57.11A.89.89,0,1,0,40,56.92a.6.6,0,0,0,0,.19h0v6.33l-5.48-3.16a.9.9,0,0,0-1.21.33.88.88,0,0,0,.33,1.2L39.12,65l-5.48,3.16a.9.9,0,0,0-.33,1.21.89.89,0,0,0,1.21.32L40,66.5v6.33a.89.89,0,0,0,1.77.19v-.19h0V66.5l5.48,3.16a.89.89,0,0,0,1.21-.32h0A.9.9,0,0,0,48.14,68.14Z"/><circle class="p21n-8" cx="67.56" cy="64.98" r="10.05" transform="translate(-0.66 0.69) rotate(-0.58)"/><path class="p21n-9" d="M74.81,68.14,69.33,65l5.48-3.16a.89.89,0,0,0,.32-1.21h0a.89.89,0,0,0-1.21-.32l-5.48,3.16V57.11a.89.89,0,0,0-1.77,0h0v6.33l-5.48-3.16a.9.9,0,0,0-1.21.33.88.88,0,0,0,.33,1.2L65.79,65l-5.48,3.16A.9.9,0,0,0,60,69.34a.89.89,0,0,0,1.21.32l5.48-3.16v6.33a.89.89,0,1,0,1.77,0h0V66.5l5.44,3.16a.89.89,0,0,0,1.21-.32h0A.89.89,0,0,0,74.81,68.14Z"/></svg>