<svg id="Calque_35" data-name="Calque 35" xmlns="http://www.w3.org/2000/svg" viewBox="0 0 85.23 85.24" width="50" height="50"><defs><style>.p22-1{opacity:0.3;}.p22-2{fill:#231f20;}.p22-3{fill:#d8d9d8;}.p22-4{fill:#fff;opacity:0.8;isolation:isolate;}.p22-5{fill:#79ccf1;}</style></defs><title>35Plan de travail 1</title><g class="p22-1"><path class="p22-2" d="M69,33.05A14.77,14.77,0,0,0,42,38a8.62,8.62,0,0,1,6.64,4.21l-1.14.64c-2-3.42-5.82-3.85-8.47-3.67a8.52,8.52,0,0,0,3,16.48H67.72A11.37,11.37,0,0,0,69,33.05Z"/><path class="p22-2" d="M33.2,27.05a9.3,9.3,0,0,0-9.3-7.65A9.53,9.53,0,0,0,16.4,23c2,.32,4.53,1.21,5.63,3.64l-1.19.54c-1.36-3-6-3.1-6.71-3.1a6.92,6.92,0,0,0-4.7,6.46,7.08,7.08,0,0,0,7.22,6.93H33.06A5.21,5.21,0,0,0,33.19,27Z"/></g><path class="p22-3" d="M66.34,30.45a14.77,14.77,0,0,0-27.08,4.91,8.62,8.62,0,0,1,6.64,4.21l-1.14.64c-2-3.42-5.82-3.85-8.47-3.67a8.52,8.52,0,0,0,3,16.48H65.06a11.37,11.37,0,0,0,1.23-22.58Z"/><path class="p22-3" d="M30.58,24.46a9.3,9.3,0,0,0-9.3-7.65,9.53,9.53,0,0,0-7.5,3.57c2,.32,4.53,1.21,5.63,3.64l-1.19.54c-1.36-3-6-3.1-6.71-3.1a6.93,6.93,0,0,0-4.73,6.59A7.08,7.08,0,0,0,14,35H30.45a5.21,5.21,0,0,0,.13-10.42Z"/><circle class="p22-4" cx="40.9" cy="57.43" r="10.05"/><path class="p22-5" d="M48.14,60.66,42.66,57.5l5.48-3.16a.89.89,0,0,0,.32-1.21h0a.89.89,0,0,0-1.21-.32L41.77,56V49.66A.89.89,0,1,0,40,49.47a.61.61,0,0,0,0,.19v6.39l-5.48-3.16a.88.88,0,1,0-.88,1.53l5.48,3.16L33.64,60.7a.88.88,0,1,0,.88,1.53h0L40,59.07V65.4a.89.89,0,1,0,1.77.19V59.05l5.48,3.16a.89.89,0,0,0,1.21-.32h0a.89.89,0,0,0-.3-1.22Z"/><circle class="p22-4" cx="67.56" cy="57.43" r="10.05" transform="translate(-0.58 0.69) rotate(-0.58)"/><path class="p22-5" d="M74.81,60.66,69.33,57.5l5.48-3.16a.89.89,0,0,0,.32-1.21h0a.89.89,0,0,0-1.21-.32L68.44,56V49.66a.89.89,0,1,0-1.77,0h0v6.39l-5.48-3.16a.88.88,0,1,0-.88,1.53l5.48,3.16L60.32,60.7a.88.88,0,1,0,.88,1.53h0l5.48-3.18v6.33a.89.89,0,0,0,1.77,0V59.05l5.48,3.16a.89.89,0,0,0,1.21-.32h0a.89.89,0,0,0-.26-1.21Z"/></svg>