<svg id="Calque_38" data-name="Calque 38" xmlns="http://www.w3.org/2000/svg" viewBox="0 0 85.23 85.24" width="50" height="50"><defs><style>.p24n-1{fill:#44454e;opacity:0.25;}.p24n-1,.p24n-3{isolation:isolate;}.p24n-2{fill:#fff;}.p24n-3{fill:#636573;opacity:0.18;}.p24n-4{fill:#fdfcea;}.p24n-5{fill:#919191;}.p24n-6{fill:#79ccf1;}.p24n-7{fill:#fdda00;}.p24n-8{fill:#f47a20;}.p24n-9{fill:#cf2e29;}</style></defs><title>38Plan de travail 1</title><circle class="p24n-1" cx="49.31" cy="30.91" r="22.87" transform="translate(-0.06 0.1) rotate(-0.12)"/><path class="p24n-2" d="M59.62,33.93a.89.89,0,0,0,.89-.89h0V30a.89.89,0,1,0-1.77-.19V33a.9.9,0,0,0,.88.9h0Z"/><path class="p24n-2" d="M62,31.54a.89.89,0,0,0-.89-.89h-3A.89.89,0,0,0,58,32.42H61.2A.89.89,0,0,0,62,31.54Z"/><path class="p24n-2" d="M30.9,18.93a.89.89,0,0,0,.89-.89h0V15A.89.89,0,1,0,30,14.85V18a.9.9,0,0,0,.88.9h0Z"/><path class="p24n-2" d="M33.32,16.54a.88.88,0,0,0-.85-.93H29.39a.89.89,0,1,0-.19,1.77h3.22A.89.89,0,0,0,33.32,16.54Z"/><path class="p24n-2" d="M56,16.54a.89.89,0,0,0,.89-.89h0v-3a.89.89,0,1,0-1.77-.19v3.19a.9.9,0,0,0,.85.93h0Z"/><path class="p24n-2" d="M58.46,14.14a.89.89,0,0,0-.89-.89h-3a.89.89,0,0,0-1,.79.9.9,0,0,0,.79,1H57.6A.89.89,0,0,0,58.46,14.14Z"/><path class="p24n-3" d="M49.83,15.45a15.21,15.21,0,0,1,5.42-.29A15.51,15.51,0,0,0,61.94,43.6a15.56,15.56,0,0,1-17.09-26A15.4,15.4,0,0,1,49.83,15.45Z"/><path class="p24n-4" d="M45.2,16.2a15.16,15.16,0,0,1,5.37-.28A15.39,15.39,0,0,0,57.2,44.08,15.41,15.41,0,1,1,40.44,18.22a15.13,15.13,0,0,1,4.76-2Z"/><path class="p24n-5" d="M67.28,35.54a14.77,14.77,0,0,0-27.08,5,8.62,8.62,0,0,1,6.64,4.21l-1.14.64c-2-3.42-5.82-3.85-8.47-3.67a8.52,8.52,0,0,0,3,16.48H66a11.37,11.37,0,0,0,1.23-22.66Z"/><path class="p24n-5" d="M31.52,29.6a9.3,9.3,0,0,0-9.32-7.67,9.56,9.56,0,0,0-7.5,3.57c2,.32,4.53,1.21,5.63,3.64l-1.19.54c-1.36-3-6-3.1-6.71-3.1A6.94,6.94,0,0,0,7.73,33,7.08,7.08,0,0,0,15,40h16.4a5.21,5.21,0,1,0,.13-10.42Z"/><rect class="p24n-6" x="33.52" y="67.47" width="17.99" height="1.94" rx="0.55" ry="0.55" transform="translate(-35.3 89.35) rotate(-73.19)"/><rect class="p24n-6" x="46.17" y="67.47" width="17.99" height="1.94" rx="0.55" ry="0.55" transform="translate(-26.31 101.46) rotate(-73.19)"/><rect class="p24n-6" x="21.96" y="67.47" width="17.94" height="1.93" rx="0.55" ry="0.55" transform="translate(-43.57 77.96) rotate(-72.96)"/><rect class="p24n-6" x="57.31" y="67.48" width="17.94" height="1.93" rx="0.55" ry="0.55" transform="translate(-18.58 111.76) rotate(-72.96)"/><rect class="p24n-2" x="39.57" y="67.48" width="17.94" height="1.93" rx="0.55" ry="0.55" transform="translate(-31.12 94.8) rotate(-72.96)"/><rect class="p24n-2" x="51.72" y="67.48" width="17.94" height="1.93" rx="0.55" ry="0.55" transform="translate(-22.53 106.42) rotate(-72.96)"/><rect class="p24n-2" x="28" y="67.48" width="17.94" height="1.93" rx="0.55" ry="0.55" transform="translate(-39.3 83.74) rotate(-72.96)"/><rect class="p24n-2" x="63.38" y="67.48" width="17.94" height="1.93" rx="0.55" ry="0.55" transform="translate(-14.29 117.56) rotate(-72.96)"/><polygon class="p24n-7" points="48.77 47.7 56.51 47.7 54.2 54.07 58.16 54.07 47.48 74.53 49.95 59.51 46.51 59.51 48.77 47.7"/><polygon class="p24n-8" points="47.23 46.16 54.95 46.16 52.66 52.52 56.61 52.52 45.93 72.98 48.38 57.96 44.97 57.96 47.23 46.16"/><rect class="p24n-9" x="60.51" y="51.27" width="16.98" height="16.98"/><path class="p24n-2" d="M73.51,64.11a11.63,11.63,0,0,1-3.42.58A5.74,5.74,0,0,1,66,63.3a5,5,0,0,1-1.45-3.76c0-3.4,2.49-5.36,5.85-5.36a7.07,7.07,0,0,1,2.84.5l-.49,1.86a5.58,5.58,0,0,0-2.39-.44,3.34,3.34,0,1,0,0,6.68,3.64,3.64,0,0,0,1-.16V60.54H69.7V58.73h3.81Z"/></svg>