<svg id="Calque_37" data-name="Calque 37" xmlns="http://www.w3.org/2000/svg" viewBox="0 0 85.23 85.24" width="50" height="50"><defs><style>.p24j-1{fill:#eeeb61;opacity:0.51;isolation:isolate;}.p24j-2{fill:#f5b21a;stroke:#fde901;stroke-miterlimit:10;}.p24j-3{fill:#919191;}.p24j-4{fill:#79ccf1;}.p24j-5{fill:#fff;}.p24j-6{fill:#fdda00;}.p24j-7{fill:#f47a20;}.p24j-8{fill:#cf2e29;}</style></defs><title>37Plan de travail 1</title><circle class="p24j-1" cx="47.34" cy="26.73" r="16.34" transform="translate(-0.15 0.27) rotate(-0.32)"/><circle class="p24j-2" cx="47.34" cy="26.73" r="12.47"/><path class="p24j-3" d="M67.27,33.35a14.77,14.77,0,0,0-27,4.91,8.62,8.62,0,0,1,6.64,4.21l-1.14.64c-2-3.42-5.82-3.85-8.47-3.67a8.52,8.52,0,0,0,3,16.48H66a11.37,11.37,0,0,0,1.23-22.58Z"/><path class="p24j-3" d="M31.51,27.37a9.29,9.29,0,0,0-9.3-7.65,9.56,9.56,0,0,0-7.5,3.57c2,.32,4.53,1.21,5.63,3.64l-1.19.54c-1.36-3-6-3.1-6.71-3.1a6.94,6.94,0,0,0-4.7,6.46A7.08,7.08,0,0,0,15,37.76h16.4a5.21,5.21,0,1,0,.13-10.42Z"/><rect class="p24j-4" x="33.52" y="65.16" width="17.94" height="1.93" rx="0.55" ry="0.55" transform="matrix(0.29, -0.96, 0.96, 0.29, -33.18, 87.37)"/><rect class="p24j-4" x="45.66" y="65.13" width="17.94" height="1.93" rx="0.55" ry="0.55" transform="translate(-24.58 98.96) rotate(-72.96)"/><rect class="p24j-4" x="21.95" y="65.15" width="17.94" height="1.93" rx="0.55" ry="0.55" transform="translate(-41.35 76.3) rotate(-72.96)"/><rect class="p24j-4" x="57.31" y="65.16" width="17.94" height="1.93" rx="0.55" ry="0.55" transform="translate(-16.37 110.12) rotate(-72.96)"/><rect class="p24j-5" x="39.56" y="65.15" width="17.94" height="1.93" rx="0.55" ry="0.55" transform="translate(-28.91 93.14) rotate(-72.96)"/><rect class="p24j-5" x="51.71" y="65.14" width="17.94" height="1.93" rx="0.55" ry="0.55" transform="translate(-20.31 104.75) rotate(-72.96)"/><rect class="p24j-5" x="28" y="65.16" width="17.94" height="1.93" rx="0.55" ry="0.55" transform="translate(-37.08 82.09) rotate(-72.96)"/><rect class="p24j-5" x="63.35" y="65.16" width="17.94" height="1.93" rx="0.55" ry="0.55" transform="translate(-12.09 115.89) rotate(-72.96)"/><polygon class="p24j-6" points="49.13 43.88 57.62 43.88 55.09 50.86 59.43 50.86 47.72 73.3 50.42 56.83 46.65 56.83 49.13 43.88"/><polygon class="p24j-7" points="47.44 42.17 55.91 42.17 53.4 49.17 57.73 49.17 46.01 71.6 48.7 55.14 44.96 55.14 47.44 42.17"/><rect class="p24j-8" x="60.5" y="48.54" width="16.98" height="16.98"/><path class="p24j-5" d="M73.5,61.68a11.63,11.63,0,0,1-3.42.58,5.74,5.74,0,0,1-4.14-1.39,5,5,0,0,1-1.45-3.73c0-3.4,2.49-5.36,5.85-5.36a7.07,7.07,0,0,1,2.84.5l-.49,1.86a5.58,5.58,0,0,0-2.39-.44,3.34,3.34,0,1,0,1,6.52V58.14H69.69V56.33H73.5Z"/></svg>