<svg id="Calque_39" data-name="Calque 39" xmlns="http://www.w3.org/2000/svg" viewBox="0 0 85.23 85.24" width="50" height="50"><defs><style>.p25-1{fill:#79ccf1;}.p25-2{fill:#fff;}.p25-3{fill:#919191;}.p25-4{fill:#fdda00;}.p25-5{fill:#f47a20;}.p25-6{fill:#cf2e29;}</style></defs><title>39Plan de travail 1</title><rect class="p25-1" x="34.07" y="60.53" width="17.99" height="1.94" rx="0.55" ry="0.55" transform="translate(-28.26 84.94) rotate(-73.19)"/><rect class="p25-1" x="46.71" y="60.53" width="17.99" height="1.94" rx="0.55" ry="0.55" transform="translate(-19.28 97.04) rotate(-73.19)"/><rect class="p25-1" x="22.51" y="60.54" width="17.94" height="1.93" rx="0.55" ry="0.55" transform="translate(-36.55 73.57) rotate(-72.96)"/><rect class="p25-1" x="57.87" y="60.53" width="17.94" height="1.93" rx="0.55" ry="0.55" transform="translate(-11.54 107.38) rotate(-72.96)"/><rect class="p25-2" x="40.12" y="60.53" width="17.94" height="1.93" rx="0.55" ry="0.55" transform="translate(-24.09 90.41) rotate(-72.96)"/><rect class="p25-2" x="52.28" y="60.53" width="17.94" height="1.93" rx="0.55" ry="0.55" transform="translate(-15.5 102.04) rotate(-72.96)"/><rect class="p25-2" x="39.37" y="51.83" width="17.99" height="1.94" rx="0.55" ry="0.55" transform="translate(-16.16 83.82) rotate(-73.19)"/><rect class="p25-2" x="63.93" y="60.54" width="17.94" height="1.93" rx="0.55" ry="0.55" transform="translate(-7.26 113.18) rotate(-72.96)"/><path class="p25-3" d="M65.21,28.61a14.78,14.78,0,0,0-27.07,4.94,8.64,8.64,0,0,1,6.64,4.21l-1.14.64c-2-3.42-5.82-3.85-8.47-3.67a8.52,8.52,0,0,0,3,16.48H63.93a11.37,11.37,0,0,0,1.23-22.58Z"/><path class="p25-3" d="M29.45,22.63A9.3,9.3,0,0,0,20.15,15a9.59,9.59,0,0,0-7.5,3.57c2,.32,4.53,1.21,5.63,3.64l-1.19.54c-1.36-3-6-3.1-6.71-3.1a6.94,6.94,0,0,0-4.7,6.46A7.08,7.08,0,0,0,12.91,33H29.35a5.21,5.21,0,1,0,.13-10.42h0Z"/><polygon class="p25-4" points="48.51 39.49 56.37 39.49 54.04 45.99 58.05 45.99 47.18 66.76 49.68 51.51 46.2 51.51 48.51 39.49"/><polygon class="p25-5" points="46.94 37.91 54.79 37.91 52.46 44.41 56.47 44.41 45.6 65.2 48.11 49.94 44.63 49.94 46.94 37.91"/><rect class="p25-6" x="62.56" y="45.67" width="16.98" height="16.98"/><path class="p25-2" d="M75.55,58.81a11.31,11.31,0,0,1-3.42.58A5.65,5.65,0,0,1,68,58a5,5,0,0,1-1.45-3.72c0-3.4,2.49-5.36,5.85-5.36a7.07,7.07,0,0,1,2.84.5l-.49,1.85a5.9,5.9,0,0,0-2.39-.44A3.34,3.34,0,1,0,72,57.5a3.24,3.24,0,0,0,1.27-.18V55.25H71.75V53.44h3.8Z"/></svg>