<svg id="Calque_41" data-name="Calque 41" xmlns="http://www.w3.org/2000/svg" viewBox="0 0 85.23 85.24" width="50" height="50"><defs><style>.p26n-1{fill:#44454e;opacity:0.25;}.p26n-1,.p26n-3{isolation:isolate;}.p26n-2{fill:#fff;}.p26n-3{fill:#636573;opacity:0.18;}.p26n-4{fill:#fdfcea;}.p26n-5{fill:#919191;}.p26n-6{fill:#fdda00;}.p26n-7{fill:#f47a20;}</style></defs><title>41Plan de travail 1</title><circle class="p26n-1" cx="50.99" cy="33.16" r="22.87" transform="translate(-0.07 0.11) rotate(-0.12)"/><path class="p26n-2" d="M61.3,36.15a.89.89,0,0,0,.89-.89h0v-3a.89.89,0,1,0-1.77-.19.61.61,0,0,0,0,.19v3a.89.89,0,0,0,.88.9h0Z"/><path class="p26n-2" d="M63.71,33.74a.89.89,0,0,0-.89-.89h-3a.89.89,0,0,0-.19,1.77h3.25A.9.9,0,0,0,63.71,33.74Z"/><path class="p26n-2" d="M32.58,21.25a.89.89,0,0,0,.89-.89h0v-3a.89.89,0,1,0-1.77-.19.61.61,0,0,0,0,.19v3a.89.89,0,0,0,.88.9h0Z"/><path class="p26n-2" d="M35,18.86a.89.89,0,0,0-.89-.89h-3a.89.89,0,1,0-.19,1.77h3.22A.9.9,0,0,0,35,18.86Z"/><path class="p26n-2" d="M57.72,18.86a.89.89,0,0,0,.89-.89h0V15a.89.89,0,1,0-1.77-.19.61.61,0,0,0,0,.19v3a.89.89,0,0,0,.88.9h0Z"/><path class="p26n-2" d="M60.14,16.39a.89.89,0,0,0-.89-.89h-3a.89.89,0,1,0-.19,1.77h3.22A.9.9,0,0,0,60.14,16.39Z"/><path class="p26n-3" d="M51.58,16.38A15.43,15.43,0,0,1,57,16.09a15.51,15.51,0,0,0,6.69,28.44,15.56,15.56,0,0,1-17.09-26A15.4,15.4,0,0,1,51.58,16.38Z"/><path class="p26n-4" d="M46.88,18.44a15.16,15.16,0,0,1,5.37-.28,15.39,15.39,0,0,0,6.63,28.17,15.41,15.41,0,1,1-12-27.91Z"/><path class="p26n-5" d="M69,37.86a14.77,14.77,0,0,0-27,4.91A8.62,8.62,0,0,1,48.6,47l-1.14.64c-2-3.42-5.82-3.85-8.47-3.67a8.52,8.52,0,0,0,3,16.48H67.72A11.37,11.37,0,0,0,69,37.86Z"/><path class="p26n-5" d="M33.2,31.86a9.29,9.29,0,0,0-9.32-7.61,9.53,9.53,0,0,0-7.5,3.57c2,.32,4.53,1.21,5.63,3.64L20.82,32c-1.36-3-6-3.1-6.71-3.1a6.92,6.92,0,0,0-4.7,6.46,7.08,7.08,0,0,0,7.22,6.93H33a5.21,5.21,0,0,0,.13-10.42Z"/><polygon class="p26n-6" points="52.42 48.64 60.31 48.64 57.95 55.12 61.99 55.12 51.1 75.98 53.61 60.67 50.11 60.67 52.42 48.64"/><polygon class="p26n-7" points="50.85 47.05 58.72 47.05 56.38 53.55 60.41 53.55 49.52 74.41 52.02 59.1 48.54 59.1 50.85 47.05"/></svg>