<svg id="Calque_40" data-name="Calque 40" xmlns="http://www.w3.org/2000/svg" viewBox="0 0 85.23 85.24" width="50" height="50"><defs><style>.p26j-1{fill:#eeeb61;opacity:0.51;isolation:isolate;}.p26j-2{fill:#f5b21a;stroke:#fde901;stroke-miterlimit:10;}.p26j-3{fill:#919191;}.p26j-4{fill:#fdda00;}.p26j-5{fill:#f47a20;}</style></defs><title>40Plan de travail 1</title><circle class="p26j-1" cx="50" cy="28.6" r="17.77"/><circle class="p26j-2" cx="50" cy="28.6" r="13.55"/><path class="p26j-3" d="M69,34.89A14.77,14.77,0,0,0,42,39.8,8.61,8.61,0,0,1,48.62,44l-1.14.64c-2-3.42-5.82-3.85-8.47-3.67a8.52,8.52,0,0,0,3,16.48h25.7a11.37,11.37,0,0,0,1.23-22.58Z"/><path class="p26j-3" d="M33.2,28.9a9.3,9.3,0,0,0-9.3-7.65,9.53,9.53,0,0,0-7.5,3.57c2,.32,4.53,1.21,5.63,3.64L20.84,29c-1.36-3-6-3.1-6.71-3.1a6.92,6.92,0,0,0-4.7,6.46,7.08,7.08,0,0,0,7.22,6.93H33.06a5.21,5.21,0,0,0,.13-10.42Z"/><polygon class="p26j-4" points="51.49 46.78 59.29 46.78 56.96 53.22 60.95 53.22 50.18 73.83 52.67 58.7 49.2 58.7 51.49 46.78"/><polygon class="p26j-5" points="49.93 45.22 57.71 45.22 55.41 51.66 59.39 51.66 48.62 72.28 51.09 57.14 47.65 57.14 49.93 45.22"/></svg>