<svg id="Calque_42" data-name="Calque 42" xmlns="http://www.w3.org/2000/svg" viewBox="0 0 85.23 85.24" width="50" height="50"><defs><style>.p27-1{fill:#919191;}.p27-2{fill:#fdda00;}.p27-3{fill:#f47a20;}</style></defs><title>42Plan de travail 1</title><path class="p27-1" d="M69,32.55a14.77,14.77,0,0,0-27.08,4.93,8.66,8.66,0,0,1,6.66,4.23l-1.14.64c-2-3.42-5.82-3.85-8.47-3.67a8.52,8.52,0,0,0,3,16.47H67.72A11.37,11.37,0,0,0,69,32.57Z"/><path class="p27-1" d="M33.2,26.57a9.31,9.31,0,0,0-9.3-7.65,9.56,9.56,0,0,0-7.5,3.57c2,.32,4.53,1.21,5.63,3.64l-1.19.54c-1.36-3-6-3.1-6.71-3.1A6.93,6.93,0,0,0,9.43,30,7.08,7.08,0,0,0,16.65,37H33.06a5.21,5.21,0,0,0,.13-10.42h0Z"/><polygon class="p27-2" points="53.94 42.42 61.72 42.42 59.39 48.84 63.38 48.84 52.64 69.4 55.12 54.31 51.66 54.31 53.94 42.42"/><polygon class="p27-3" points="52.39 40.87 60.15 40.87 57.85 47.28 61.81 47.28 51.08 67.84 53.54 52.74 50.11 52.74 52.39 40.87"/></svg>