<svg id="Calque_43" data-name="Calque 43" xmlns="http://www.w3.org/2000/svg" viewBox="0 0 85.23 85.24" width="50" height="50"><defs><style>.p28j-1{fill:#eeeb61;opacity:0.51;isolation:isolate;}.p28j-2{fill:#f5b21a;stroke:#fde901;stroke-miterlimit:10;}.p28j-3{fill:#919191;}.p28j-4{fill:#fdda00;}.p28j-5{fill:#f47a20;}</style></defs><title>43Plan de travail 1</title><circle class="p28j-1" cx="46.51" cy="31.18" r="19.05"/><circle class="p28j-2" cx="46.51" cy="31.18" r="14.55"/><path class="p28j-3" d="M69,34A14.77,14.77,0,0,0,42,38.9a8.62,8.62,0,0,1,6.64,4.21l-1.14.64c-2-3.42-5.82-3.85-8.47-3.67a8.52,8.52,0,0,0,3,16.54H67.72A11.37,11.37,0,0,0,69,34Z"/><path class="p28j-3" d="M33.2,28a9.3,9.3,0,0,0-9.3-7.65,9.53,9.53,0,0,0-7.5,3.57c2,.32,4.53,1.21,5.63,3.64l-1.19.54c-1.36-3-6-3.1-6.71-3.1a6.92,6.92,0,0,0-4.7,6.46,7.08,7.08,0,0,0,7.22,6.93H33.06A5.21,5.21,0,0,0,33.19,28Z"/><polygon class="p28j-4" points="50.63 45.49 58.33 45.49 56.03 51.83 59.97 51.83 49.35 72.16 51.8 57.24 48.38 57.24 50.63 45.49"/><polygon class="p28j-5" points="49.1 43.95 56.77 43.95 54.5 50.29 58.42 50.29 47.81 70.63 50.25 55.7 46.85 55.7 49.1 43.95"/><polygon class="p28j-4" points="64.58 45.49 72.27 45.49 69.99 51.83 73.91 51.83 63.29 72.16 65.74 57.24 62.34 57.24 64.58 45.49"/><polygon class="p28j-5" points="63.05 43.95 70.73 43.95 68.44 50.29 72.38 50.29 61.76 70.63 64.19 55.7 60.79 55.7 63.05 43.95"/></svg>