<?xml version="1.0" encoding="utf-8"?>
<!-- Generator: Adobe Illustrator 24.0.2, SVG Export Plug-In . SVG Version: 6.00 Build 0)  -->
<svg version="1.1" id="orage_de_neige" xmlns="http://www.w3.org/2000/svg" xmlns:xlink="http://www.w3.org/1999/xlink" x="0px"
	 y="0px" viewBox="0 0 85.2 85.2" style="enable-background:new 0 0 85.2 85.2;" xml:space="preserve" width="50" height="50">
<style type="text/css">
	.p30j-0{opacity:0.51;fill:#EFEB60;enable-background:new    ;}
	.p30j-1{fill:#F6B31A;stroke:#FEEA02;stroke-miterlimit:10;}
	.p30j-2{fill:#919191;}
	.p30j-3{fill:#FEDA00;}
	.p30j-4{fill:#F47920;}
	.p30j-5{opacity:0.8;fill:#FFFFFF;enable-background:new    ;}
	.p30j-6{fill:#77CCF2;}
</style>
<circle class="p30j-0" cx="45.6" cy="27.1" r="17.8"/>
<circle class="p30j-1" cx="45.6" cy="27.1" r="13.6"/>
<path class="p30j-2" d="M68.7,33.7c-4.7-7.5-14.6-9.8-22.2-5.1c-3.7,2.4-6.3,6.1-7.2,10.4c3,0.2,5.7,2,7.3,4.6l-1.2,0.7
	c-2.2-3.7-6.3-4.2-9.2-4c-4.8,1.8-7.2,7.2-5.3,12c1.4,3.6,4.8,6,8.6,6h27.9c6.9-0.3,12.1-6.2,11.7-12.9
	C78.7,39.4,74.5,34.6,68.7,33.7L68.7,33.7z"/>
<path class="p30j-2" d="M29.8,27.1c-0.9-4.9-5.1-8.4-10.1-8.3c-3.2,0-6.2,1.4-8.2,3.9c2.2,0.3,4.9,1.3,6.1,3.9l-1.3,0.5
	C14.8,24,9.8,23.9,9,23.9c-3,1-5.1,3.8-5.1,7.1c0.1,4.2,3.6,7.6,7.8,7.5l0,0h17.8c3.2,0,5.7-2.5,5.8-5.5
	C35.4,29.9,32.9,27.1,29.8,27.1L29.8,27.1z"/>
<polygon class="p30j-3" points="49.7,46.6 58.2,46.6 55.7,53.6 60,53.6 48.3,76.1 51,59.5 47.2,59.5 "/>
<polygon class="p30j-4" points="48.1,44.9 56.4,44.9 53.9,51.9 58.3,51.9 46.5,74.3 49.3,57.9 45.6,57.9 "/>
<circle class="p30j-5" cx="33.4" cy="55.6" r="11"/>
<path class="p30j-6" d="M41.2,59.1l-6-3.5l6-3.5c0.4-0.2,0.7-0.9,0.3-1.3l0,0c-0.2-0.4-0.9-0.7-1.3-0.3l-6,3.4V47
	c-0.1-0.5-0.5-0.9-1.1-0.9c-0.4,0-0.8,0.4-0.9,0.9v6.9l-6-3.4c-0.4-0.2-1.1,0-1.3,0.4c-0.2,0.3-0.1,0.8,0.2,1.1l0.1,0.1l6,3.5
	l-6,3.4c-0.4,0.2-0.7,0.8-0.4,1.3c0.2,0.4,0.8,0.7,1.3,0.4l0.2-0.1l6-3.5V64c-0.1,0.5,0.3,1,0.9,1.1c0.5,0.1,1-0.3,1.1-0.9
	c0-0.1,0-0.1,0-0.2v-6.9l6,3.5c0.4,0.2,1.1,0.1,1.3-0.3l0,0C41.9,60,41.8,59.3,41.2,59.1C41.3,59.1,41.3,59.1,41.2,59.1L41.2,59.1
	L41.2,59.1z"/>
<circle class="p30j-5" cx="71.8" cy="56" r="11"/>
<path class="p30j-6" d="M79.7,59.4l-6-3.5l6-3.5c0.4-0.2,0.7-0.9,0.3-1.3l0,0c-0.2-0.4-0.9-0.7-1.3-0.3l-6,3.4v-6.9
	c-0.1-0.5-0.5-0.9-1.1-0.9c-0.4,0-0.8,0.4-0.9,0.9v6.9l-6-3.4c-0.4-0.2-1.1,0-1.3,0.4c-0.2,0.3-0.1,0.8,0.2,1.1l0.1,0.1l6,3.5
	l-6,3.4c-0.4,0.2-0.7,0.8-0.4,1.3c0.2,0.4,0.8,0.7,1.3,0.4l0.2-0.1l6-3.5v6.9c-0.1,0.5,0.3,1,0.9,1.1c0.5,0.1,1-0.3,1.1-0.9
	c0-0.1,0-0.1,0-0.2v-6.9l6,3.5c0.4,0.2,1.1,0.1,1.3-0.3l0,0C80.4,60.3,80.2,59.8,79.7,59.4L79.7,59.4L79.7,59.4L79.7,59.4z"/>
</svg>
