<?xml version="1.0" encoding="utf-8"?>
<!-- Generator: Adobe Illustrator 24.0.2, SVG Export Plug-In . SVG Version: 6.00 Build 0)  -->
<svg version="1.1" id="orage_de_neige" xmlns="http://www.w3.org/2000/svg" xmlns:xlink="http://www.w3.org/1999/xlink" x="0px"
	 y="0px" viewBox="0 0 85.2 85.2" style="enable-background:new 0 0 85.2 85.2;" xml:space="preserve" width="50" height="50">
<style type="text/css">
	.p30n-0{opacity:0.18;fill:#43444D;enable-background:new    ;}
	.p30n-1{fill:#FFFFFF;}
	.p30n-2{opacity:0.18;fill:#626472;enable-background:new    ;}
	.p30n-3{fill:#FDFCE9;}
	.p30n-4{fill:#919191;}
	.p30n-5{fill:#FEDA00;}
	.p30n-6{fill:#F47920;}
	.p30n-7{opacity:0.8;fill:#FFFFFF;enable-background:new    ;}
	.p30n-8{fill:#77CCF2;}
</style>
<circle class="p30n-0" cx="45.5" cy="27.2" r="17.8"/>
<path class="p30n-1" d="M53.5,29.5c0.4,0,0.7-0.3,0.7-0.7v-2.4c0-0.4-0.3-0.7-0.7-0.7c-0.4,0-0.7,0.3-0.7,0.7v2.4
	C52.8,29.2,53.1,29.5,53.5,29.5L53.5,29.5z"/>
<path class="p30n-1" d="M55.4,27.6c0-0.4-0.3-0.7-0.7-0.7h-2.4c-0.4,0-0.7,0.3-0.7,0.7c0,0.4,0.3,0.7,0.7,0.7h2.4
	C55.1,28.4,55.4,28.1,55.4,27.6C55.4,27.7,55.4,27.7,55.4,27.6z"/>
<path class="p30n-1" d="M31.2,18.6c0.4,0,0.7-0.3,0.7-0.7v-2.4c0-0.4-0.3-0.7-0.7-0.7c-0.4,0-0.7,0.3-0.7,0.7v2.4
	C30.5,18.3,30.8,18.6,31.2,18.6L31.2,18.6z"/>
<path class="p30n-1" d="M33.1,16.7c0-0.4-0.3-0.7-0.7-0.7H30c-0.4,0-0.7,0.3-0.7,0.7c0,0.4,0.3,0.7,0.7,0.7h2.4
	C32.7,17.5,33,17.2,33.1,16.7L33.1,16.7L33.1,16.7z"/>
<path class="p30n-1" d="M50.8,16.7c0.4,0,0.7-0.3,0.7-0.7v-2.4c0-0.4-0.3-0.7-0.7-0.7c-0.4,0-0.7,0.3-0.7,0.7V16
	C50,16.4,50.3,16.7,50.8,16.7L50.8,16.7z"/>
<path class="p30n-1" d="M52.6,14.9c0-0.4-0.3-0.7-0.7-0.7h-2.4c-0.4,0-0.7,0.3-0.7,0.7c0,0.4,0.3,0.7,0.7,0.7h2.4
	C52.3,15.5,52.6,15.3,52.6,14.9L52.6,14.9L52.6,14.9z"/>
<path class="p30n-2" d="M46.1,15.6c1.4-0.3,2.8-0.4,4.2-0.2c-5.5,3.6-7.1,11-3.5,16.5c2,3,5.1,5,8.6,5.4c-5.6,3.5-13,1.9-16.5-3.6
	c-3.5-5.6-1.9-12.9,3.6-16.5C43.6,16.4,44.8,16,46.1,15.6z"/>
<path class="p30n-3" d="M42.3,15.8c1.4-0.3,2.8-0.4,4.2-0.2c-5.5,3.6-7.1,11-3.4,16.5c1.9,2.9,5.1,4.9,8.6,5.3
	c-5.6,3.5-13,1.9-16.5-3.6c-3.5-5.6-1.9-12.9,3.6-16.5C39.9,16.6,41.1,16,42.3,15.8L42.3,15.8z"/>
<path class="p30n-4" d="M68.7,33.7c-4.7-7.5-14.6-9.8-22.2-5.1c-3.7,2.4-6.3,6.1-7.2,10.4c3,0.2,5.7,2,7.3,4.6l-1.2,0.7
	c-2.2-3.7-6.3-4.2-9.2-4c-4.8,1.8-7.2,7.2-5.3,12c1.4,3.6,4.8,6,8.6,6h27.9c6.9-0.3,12.1-6.2,11.7-12.9
	C78.7,39.4,74.5,34.6,68.7,33.7L68.7,33.7z"/>
<path class="p30n-4" d="M29.8,27.1c-0.9-4.9-5.1-8.4-10.1-8.3c-3.2,0-6.2,1.4-8.2,3.9c2.2,0.3,4.9,1.3,6.1,3.9l-1.3,0.5
	C14.8,24,9.8,23.9,9,23.9c-3,1-5.1,3.8-5.1,7.1c0.1,4.2,3.6,7.6,7.8,7.5l0,0h17.8c3.2,0,5.7-2.5,5.8-5.5
	C35.4,29.9,32.9,27.1,29.8,27.1L29.8,27.1z"/>
<polygon class="p30n-5" points="49.7,46.6 58.2,46.6 55.7,53.6 60,53.6 48.3,76.1 51,59.5 47.2,59.5 "/>
<polygon class="p30n-6" points="48.1,44.9 56.4,44.9 53.9,51.9 58.3,51.9 46.5,74.3 49.3,57.9 45.6,57.9 "/>
<circle class="p30n-7" cx="33.4" cy="55.6" r="11"/>
<path class="p30n-8" d="M41.2,59.1l-6-3.5l6-3.5c0.4-0.2,0.7-0.9,0.3-1.3l0,0c-0.2-0.4-0.9-0.7-1.3-0.3l-6,3.4V47
	c-0.1-0.5-0.5-0.9-1.1-0.9c-0.4,0-0.8,0.4-0.9,0.9v6.9l-6-3.4c-0.4-0.2-1.1,0-1.3,0.4c-0.2,0.3-0.1,0.8,0.2,1.1l0.1,0.1l6,3.5
	l-6,3.4c-0.4,0.2-0.7,0.8-0.4,1.3c0.2,0.4,0.8,0.7,1.3,0.4l0.2-0.1l6-3.5V64c-0.1,0.5,0.3,1,0.9,1.1c0.5,0.1,1-0.3,1.1-0.9
	c0-0.1,0-0.1,0-0.2v-6.9l6,3.5c0.4,0.2,1.1,0.1,1.3-0.3l0,0C41.9,60,41.8,59.3,41.2,59.1C41.3,59.1,41.3,59.1,41.2,59.1L41.2,59.1
	L41.2,59.1z"/>
<circle class="p30n-7" cx="71.8" cy="56" r="11"/>
<path class="p30n-8" d="M79.7,59.4l-6-3.5l6-3.5c0.4-0.2,0.7-0.9,0.3-1.3l0,0c-0.2-0.4-0.9-0.7-1.3-0.3l-6,3.4v-6.9
	c-0.1-0.5-0.5-0.9-1.1-0.9c-0.4,0-0.8,0.4-0.9,0.9v6.9l-6-3.4c-0.4-0.2-1.1,0-1.3,0.4c-0.2,0.3-0.1,0.8,0.2,1.1l0.1,0.1l6,3.5
	l-6,3.4c-0.4,0.2-0.7,0.8-0.4,1.3c0.2,0.4,0.8,0.7,1.3,0.4l0.2-0.1l6-3.5v6.9c-0.1,0.5,0.3,1,0.9,1.1c0.5,0.1,1-0.3,1.1-0.9
	c0-0.1,0-0.1,0-0.2v-6.9l6,3.5c0.4,0.2,1.1,0.1,1.3-0.3l0,0C80.4,60.3,80.2,59.8,79.7,59.4L79.7,59.4L79.7,59.4L79.7,59.4z"/>
</svg>
