<?xml version="1.0" encoding="utf-8"?>
<!-- Generator: Adobe Illustrator 24.0.2, SVG Export Plug-In . SVG Version: 6.00 Build 0)  -->
<svg version="1.1" id="orage_de_neige" xmlns="http://www.w3.org/2000/svg" xmlns:xlink="http://www.w3.org/1999/xlink" x="0px"
	 y="0px" viewBox="0 0 85.2 85.2" style="enable-background:new 0 0 85.2 85.2;" xml:space="preserve" width="50" height="50">
<style type="text/css">
	.p32j-0{fill:#79B1E8;}
	.p32j-1{fill:none;stroke:#A8C9E5;stroke-linecap:round;stroke-linejoin:round;stroke-miterlimit:10;}
	.p32j-2{fill:#C6C6C6;}
	.p32j-3{fill:#999999;}
	.p32j-4{fill:#727272;}
	.p32j-5{fill:#A8C9E5;}
</style>
<ellipse class="p32j-0" cx="40.4" cy="71.2" rx="35.1" ry="8.4"/>
<path class="p32j-1" d="M42.6,66.3c0.2,0.9,0.9,1.5,1.7,1.6c0.9,0.1,1.8-0.6,2-1.6c0.2,0.8,0.9,1.4,1.8,1.4c0.8,0,1.4-0.6,1.6-1.4
	c0.3,0.8,1.1,1.4,2,1.3c0.8,0,1.5-0.6,1.8-1.3"/>
<path class="p32j-1" d="M58.5,69.2c0.2,0.9,0.9,1.5,1.7,1.6c0.9,0.1,1.8-0.6,2-1.6c0.2,0.8,0.9,1.4,1.8,1.4c0.8,0,1.4-0.6,1.6-1.4
	c0.3,0.8,1.1,1.4,2,1.3c0.8,0,1.5-0.6,1.8-1.3"/>
<path class="p32j-1" d="M47.6,74.8c0.2,0.9,0.9,1.5,1.7,1.6c0.9,0.1,1.8-0.6,2-1.6c0.2,0.8,0.9,1.4,1.8,1.4c0.8,0,1.4-0.6,1.6-1.4
	c0.3,0.8,1.1,1.4,2,1.3c0.8,0,1.5-0.6,1.8-1.3"/>
<path class="p32j-1" d="M10.4,70c0.2,0.9,0.9,1.5,1.7,1.6c0.9,0.1,1.8-0.6,2-1.6c0.2,0.8,0.9,1.4,1.8,1.4c0.8,0,1.4-0.6,1.6-1.4
	c0.3,0.8,1.1,1.4,2,1.3c0.8,0,1.5-0.6,1.8-1.3"/>
<path class="p32j-2" d="M69.9,17c-0.9-5.6-14.1-8.2-29.7-5.8C24.7,13.5,12.8,20,13.7,25.6c0.3,2.2,2.6,3.9,6.1,5.1
	c-0.1,0.5-0.2,0.9-0.1,1.4c0.3,2.1,3,3.7,7.1,4.5c-0.2,0.5-0.3,0.9-0.2,1.4c0.2,1.4,1.9,2.5,4.4,3.2c-0.6,0.7-0.9,1.5-0.8,2.2
	c0.2,1.1,1.4,2.1,3.3,2.7c-1.6,1.1-2.5,2.2-2.4,3.3c0.1,0.9,0.9,1.6,2.2,2.1c-3.7,1.5-6,3.3-5.7,4.9c0,0.3,0.2,0.6,0.4,0.9
	c-2.1,1.1-3.4,2.3-3.2,3.4c0,0.3,0.2,0.5,0.4,0.8c-1.5,0.8-2.3,1.8-2.1,2.6c0.1,0.4,0.4,0.8,0.8,1.1c-1.3,0.7-2,1.5-1.9,2.2
	s1,1.2,2.3,1.5c-0.4,0.4-0.6,0.8-0.6,1.1c0.1,0.6,1,1.1,2.4,1.3c-0.1,0.2-0.2,0.4-0.1,0.5c0.1,0.5,0.6,0.8,1.5,1
	c-0.1,0.1-0.1,0.3-0.1,0.4c0.1,0.4,0.5,0.6,1.1,0.8c-0.3,0.2-0.4,0.5-0.4,0.7c0.1,0.9,2.5,1.3,5.2,0.8c2.7-0.4,4.8-1.5,4.7-2.3
	c0-0.3-0.4-0.5-0.8-0.7c0.4-0.3,0.6-0.6,0.6-0.9c0-0.2-0.2-0.4-0.4-0.5c0.5-0.4,0.8-0.8,0.7-1.1c-0.1-0.3-0.4-0.6-0.9-0.8
	c0.6-0.5,1-0.9,0.9-1.4c0-0.3-0.2-0.5-0.5-0.7c1.6-0.8,2.5-1.7,2.4-2.5v-0.1c2.6-1,4.4-2.2,4.7-3.3c3.2-1.1,5.3-2.6,5.5-4
	c4.5-1.5,7.5-3.6,7.2-5.4c-0.1-0.7-0.7-1.3-1.7-1.8c4.3-1.6,7-3.6,6.7-5.4c-0.1-0.5-0.4-1-1-1.4c3.7-1.7,5.9-3.6,5.6-5.4
	c-0.1-0.9-0.9-1.6-2.1-2.2c1.7-1.3,2.6-2.6,2.4-3.8c-0.1-1-0.9-1.8-2.2-2.4c1.9-1.5,2.9-3.1,2.6-4.6c-0.1-0.7-0.5-1.3-1-1.9
	C69,20.9,70.2,18.9,69.9,17z"/>
<path class="p32j-3" d="M72.4,32.2c-0.3-1.9-2.5-3.4-6-4.3c-0.2,0.3-0.5,0.6-0.8,0.9c2,0.8,3.3,1.9,3.5,3.3c0.6,4-7.8,8.5-18.8,10.2
	s-20.4-0.2-21-4.1c0-0.2,0-0.5,0-0.7c-0.1,0.4-0.2,0.9-0.1,1.3c0.8,4.2,11,6.2,22.9,4.4S73.1,36.4,72.4,32.2z"/>
<path class="p32j-3" d="M59.8,54.7c-0.1-1-1.1-1.8-2.5-2.3c-0.1,0.3-0.3,0.6-0.5,0.9c0.5,0.4,0.8,0.9,0.9,1.4c0.4,2.5-5,5.5-12.1,6.6
	s-13.1-0.1-13.5-2.7c0-0.2,0-0.3,0-0.5C32,58.4,32,58.7,32,59c0.4,2.8,7,4.1,14.6,2.9C54.3,60.7,60.2,57.5,59.8,54.7z"/>
<path class="p32j-3" d="M52.8,50.7c0.1,0.2,0.1,0.3,0.1,0.5c0.2,2.8-6,5.5-13.8,5.9c-7.8,0.5-14.3-1.4-14.4-4.3
	c-0.1-1.9,2.7-3.7,6.9-4.8c0.1-0.1,0.1-0.2,0.2-0.3c-5.6,1.2-9.4,3.4-9.2,5.7c0.2,3,7.2,5.1,15.6,4.6c8.5-0.5,15.2-3.4,15-6.4
	C53,51.3,52.9,51,52.8,50.7z"/>
<path class="p32j-3" d="M37.5,66.4c0,0.1,0.1,0.2,0.1,0.4c0.1,2-4.3,3.9-9.9,4.2c-5.6,0.3-10.2-1-10.3-3c-0.1-1.5,2.3-2.9,5.9-3.7
	c0-0.1,0-0.1,0-0.2c-4.4,0.8-7.6,2.5-7.4,4.2C16,70.5,21,72,27.1,71.6c6.1-0.4,10.9-2.4,10.7-4.6C37.7,66.8,37.7,66.6,37.5,66.4z"/>
<ellipse transform="matrix(0.9885 -0.1511 0.1511 0.9885 -2.7662 6.7916)" class="p32j-3" cx="43.3" cy="21.6" rx="22.7" ry="8.2"/>
<ellipse transform="matrix(0.9885 -0.1511 0.1511 0.9885 -2.7381 6.5614)" class="p32j-4" cx="41.8" cy="21.3" rx="18.7" ry="6.7"/>
<circle class="p32j-5" cx="41.7" cy="72.9" r="0.6"/>
<circle class="p32j-5" cx="20.5" cy="75" r="0.6"/>
<circle class="p32j-5" cx="40" cy="73.3" r="0.6"/>
<circle class="p32j-5" cx="37.7" cy="74.4" r="0.6"/>
<circle class="p32j-5" cx="35.2" cy="74.6" r="0.6"/>
<circle class="p32j-5" cx="33.1" cy="75.5" r="0.6"/>
<circle class="p32j-5" cx="30.9" cy="75.1" r="0.6"/>
<circle class="p32j-5" cx="24.6" cy="74.6" r="0.6"/>
<circle class="p32j-5" cx="24.6" cy="72.5" r="0.6"/>
<circle class="p32j-5" cx="17.6" cy="71.9" r="0.6"/>
<circle class="p32j-5" cx="43.4" cy="71.9" r="0.6"/>
<circle class="p32j-5" cx="44.3" cy="68.9" r="0.6"/>
<circle class="p32j-5" cx="39.4" cy="71.9" r="0.6"/>
<circle class="p32j-5" cx="26.2" cy="73.5" r="0.6"/>
<circle class="p32j-5" cx="26.8" cy="75.1" r="0.6"/>
<circle class="p32j-5" cx="29.1" cy="75.5" r="0.6"/>
<circle class="p32j-5" cx="41.7" cy="70.8" r="0.6"/>
<circle class="p32j-5" cx="38.3" cy="70.6" r="0.6"/>
<circle class="p32j-5" cx="22.4" cy="73.3" r="0.6"/>
</svg>
