<?xml version="1.0" encoding="utf-8"?>
<!-- Generator: Adobe Illustrator 24.0.2, SVG Export Plug-In . SVG Version: 6.00 Build 0)  -->
<svg version="1.1" id="Calque_7" xmlns="http://www.w3.org/2000/svg" xmlns:xlink="http://www.w3.org/1999/xlink" width="50" height="50" x="0px" y="0px"
	 viewBox="0 0 85.2 85.2" style="enable-background:new 0 0 85.2 85.2;" xml:space="preserve">
<style type="text/css">
	.p3bisn-0{opacity:0.3;}
	.p3bisn-1{fill:#231F20;}
	.p3bisn-2{fill:#D8D9D8;}
</style>
<title>7Plan de travail 1</title>
<g class="p3bisn-0">
	<path class="p3bisn-1" d="M69.5,40c-4.3-7-13.4-9.1-20.3-4.9c-3.5,2.2-6,5.7-6.8,9.8c2.8,0.3,5.2,1.8,6.6,4.2l-1.1,0.6
		c-2-3.4-5.8-3.8-8.5-3.7c-4.4,1.7-6.6,6.6-4.9,11c1.3,3.3,4.4,5.5,7.9,5.5h25.8c6.3-0.3,11.1-5.7,10.7-12
		C78.7,45.3,74.7,40.9,69.5,40L69.5,40z"/>
	<path class="p3bisn-1" d="M33.7,34c-0.8-4.5-4.7-7.7-9.3-7.7c-2.9,0-5.7,1.3-7.5,3.6c2,0.3,4.5,1.2,5.6,3.6l-1.2,0.5
		c-1.4-3-6-3.1-6.7-3.1c-2.8,0.9-4.7,3.5-4.7,6.5c0.1,3.9,3.3,7,7.2,6.9h16.4c2.9,0,5.2-2.3,5.3-5.1C38.9,36.4,36.6,34.1,33.7,34
		L33.7,34z"/>
</g>
<path class="p3bisn-2" d="M66.9,37.4c-4.3-6.9-13.4-9-20.4-4.7c-3.4,2.2-5.8,5.6-6.6,9.6c2.8,0.3,5.2,1.8,6.6,4.2l-1.1,0.6
	c-2-3.4-5.8-3.8-8.5-3.7c-4.4,1.7-6.6,6.6-5,11c1.3,3.3,4.4,5.5,8,5.5h25.7c6.3-0.2,11.2-5.5,10.9-11.8
	C76.3,42.7,72.3,38.2,66.9,37.4z"/>
<path class="p3bisn-2" d="M31.1,31.4c-0.8-4.5-4.7-7.7-9.3-7.6c-2.9,0-5.7,1.3-7.5,3.6c2,0.3,4.5,1.2,5.6,3.6l-1.2,0.5
	c-1.4-3-6-3.1-6.7-3.1c-2.8,0.9-4.7,3.5-4.7,6.5c0.1,3.9,3.3,7,7.2,6.9H31c2.9,0,5.2-2.3,5.3-5.1C36.3,33.8,34,31.4,31.1,31.4
	L31.1,31.4z"/>
</svg>
