<?xml version="1.0" encoding="utf-8"?>
<!-- Generator: Adobe Illustrator 24.0.2, SVG Export Plug-In . SVG Version: 6.00 Build 0)  -->
<svg version="1.1" id="Calque_8" xmlns="http://www.w3.org/2000/svg" xmlns:xlink="http://www.w3.org/1999/xlink" width="50" height="50" x="0px" y="0px"
	 viewBox="0 0 85.2 85.2" style="enable-background:new 0 0 85.2 85.2;" xml:space="preserve">
<style type="text/css">
	.p5bisj-0{opacity:0.51;fill:#EEEB61;enable-background:new    ;}
	.p5bisj-1{fill:#F5B21A;stroke:#FDE901;stroke-miterlimit:10;}
	.p5bisj-2{fill:#BCBCBC;}
	.p5bisj-3{fill:#F4F4F4;}
</style>
<title>8Plan de travail 1</title>
<circle class="p5bisj-0" cx="42.6" cy="41.1" r="26.1"/>
<circle class="p5bisj-1" cx="42.6" cy="41.1" r="19.9"/>
<path class="p5bisj-2" d="M16.2,45.8h41.4c0.9,0,1.7,0.7,1.7,1.7v2.6c0,0.9-0.7,1.7-1.7,1.7H16.2c-0.9,0-1.7-0.7-1.7-1.7v-2.6
	C14.5,46.6,15.2,45.8,16.2,45.8z"/>
<path class="p5bisj-2" d="M19.6,61.5H61c0.9,0,1.7,0.7,1.7,1.7v2.6c0,0.9-0.7,1.7-1.7,1.7H19.6c-0.9,0-1.7-0.7-1.7-1.7v-2.6
	C18,62.2,18.7,61.5,19.6,61.5z"/>
<path class="p5bisj-2" d="M30.3,53.7h41.4c0.9,0,1.7,0.7,1.7,1.7V58c0,0.9-0.7,1.7-1.7,1.7H30.3c-0.9,0-1.7-0.7-1.7-1.7v-2.6
	C28.6,54.5,29.4,53.7,30.3,53.7z"/>
<path class="p5bisj-3" d="M13.5,43.2H55c0.9,0,1.7,0.7,1.7,1.7v2.6c0,0.9-0.7,1.7-1.7,1.7H13.5c-0.9,0-1.7-0.7-1.7-1.7v-2.6
	C11.9,43.9,12.6,43.2,13.5,43.2z"/>
<path class="p5bisj-3" d="M17,58.9h41.4c0.9,0,1.7,0.7,1.7,1.7v2.6c0,0.9-0.7,1.7-1.7,1.7H17c-0.9,0-1.7-0.7-1.7-1.7v-2.6
	C15.3,59.6,16.1,58.9,17,58.9z"/>
<path class="p5bisj-3" d="M27.7,51.1h41.4c0.9,0,1.7,0.7,1.7,1.7v2.6c0,0.9-0.7,1.7-1.7,1.7H27.7c-0.9,0-1.7-0.7-1.7-1.7v-2.6
	C26,51.8,26.7,51.1,27.7,51.1z"/>
</svg>
