<?xml version="1.0" encoding="utf-8"?>
<!-- Generator: Adobe Illustrator 24.0.2, SVG Export Plug-In . SVG Version: 6.00 Build 0)  -->
<svg version="1.1" id="Calque_9" xmlns="http://www.w3.org/2000/svg" xmlns:xlink="http://www.w3.org/1999/xlink" width="50" height="50" x="0px" y="0px"
	 viewBox="0 0 85.2 85.2" style="enable-background:new 0 0 85.2 85.2;" xml:space="preserve">
<style type="text/css">
	.p5bisn-0{opacity:0.18;fill:#44454E;enable-background:new    ;}
	.p5bisn-1{fill:#FFFFFF;}
	.p5bisn-2{opacity:0.18;fill:#636573;enable-background:new    ;}
	.p5bisn-3{fill:#FDFCEA;}
	.p5bisn-4{fill:#BCBCBC;}
	.p5bisn-5{fill:#F4F4F4;}
</style>
<title>9Plan de travail 1</title>
<circle class="p5bisn-0" cx="43.8" cy="39.7" r="24"/>
<path class="p5bisn-1" d="M54.7,42.9c0.5,0,0.9-0.4,0.9-0.9l0,0l0,0v-3.2c0-0.5-0.4-0.9-0.9-0.9s-0.9,0.4-0.9,0.9l0,0v3.2
	C53.7,42.4,54.1,42.9,54.7,42.9C54.6,42.9,54.6,42.9,54.7,42.9L54.7,42.9L54.7,42.9z"/>
<path class="p5bisn-1" d="M57.2,40.3c0-0.5-0.4-0.9-0.9-0.9l0,0H53c-0.5,0-0.9,0.4-0.9,0.9s0.4,0.9,0.9,0.9h3.2
	C56.7,41.3,57.1,40.9,57.2,40.3L57.2,40.3L57.2,40.3z"/>
<path class="p5bisn-1" d="M24.5,30.2c0.5,0,0.9-0.4,0.9-0.9l0,0l0,0v-3.2c0-0.5-0.4-0.9-0.9-0.9s-0.9,0.4-0.9,0.9l0,0v3.2
	C23.6,29.8,24,30.2,24.5,30.2C24.5,30.2,24.5,30.2,24.5,30.2L24.5,30.2L24.5,30.2z"/>
<path class="p5bisn-1" d="M27,27.7c0-0.5-0.4-0.9-0.9-0.9l0,0h-3.2c-0.5,0-0.9,0.4-0.9,0.9s0.4,0.9,0.9,0.9h3.2
	C26.6,28.7,27,28.3,27,27.7L27,27.7L27,27.7z"/>
<path class="p5bisn-2" d="M42.8,23.7c1.9-0.4,3.8-0.5,5.7-0.3c-7.5,4.9-9.7,15-4.7,22.6c2.6,4,6.9,6.7,11.7,7.3
	c-7.5,4.9-17.7,2.8-22.6-4.7S30,30.9,37.5,26C39.1,24.9,40.9,24.2,42.8,23.7L42.8,23.7z"/>
<path class="p5bisn-1" d="M50.9,27.7c0.5,0,0.9-0.4,0.9-0.9l0,0l0,0v-3.2c0-0.5-0.4-0.9-0.9-0.9S50,23.1,50,23.6l0,0v3.1
	C49.9,27.3,50.3,27.7,50.9,27.7L50.9,27.7z"/>
<path class="p5bisn-1" d="M53.4,25.1c0-0.5-0.4-0.9-0.9-0.9l0,0h-3.2c-0.5,0-0.9,0.4-0.9,0.9s0.4,0.9,0.9,0.9h3.2
	C53,26.1,53.4,25.7,53.4,25.1L53.4,25.1L53.4,25.1z"/>
<path class="p5bisn-3" d="M39.5,24.3c1.8-0.4,3.8-0.5,5.6-0.3c-7.5,4.9-9.5,14.9-4.6,22.4c2.6,4,6.9,6.6,11.6,7.2
	c-7.5,4.9-17.5,2.8-22.4-4.6s-2.8-17.5,4.6-22.4C35.9,25.5,37.7,24.8,39.5,24.3z"/>
<path class="p5bisn-4" d="M18.3,47.5h38c0.9,0,1.5,0.7,1.5,1.5v2.4c0,0.9-0.7,1.5-1.5,1.5h-38c-0.9,0-1.5-0.7-1.5-1.5V49
	C16.8,48.2,17.5,47.5,18.3,47.5z"/>
<path class="p5bisn-4" d="M21.5,61.9h38c0.9,0,1.5,0.7,1.5,1.5v2.4c0,0.9-0.7,1.5-1.5,1.5h-38c-0.9,0-1.5-0.7-1.5-1.5v-2.4
	C20,62.6,20.7,61.9,21.5,61.9z"/>
<path class="p5bisn-4" d="M31.3,54.8h38c0.9,0,1.5,0.7,1.5,1.5v2.4c0,0.9-0.7,1.5-1.5,1.5h-38c-0.9,0-1.5-0.7-1.5-1.5v-2.4
	C29.8,55.4,30.5,54.8,31.3,54.8z"/>
<path class="p5bisn-5" d="M15.9,45.1h38c0.9,0,1.5,0.7,1.5,1.5V49c0,0.9-0.7,1.5-1.5,1.5h-38c-0.9,0-1.5-0.7-1.5-1.5v-2.4
	C14.4,45.8,15.1,45.1,15.9,45.1z"/>
<path class="p5bisn-5" d="M19.1,59.5h38c0.9,0,1.5,0.7,1.5,1.5v2.4c0,0.9-0.7,1.5-1.5,1.5h-38c-0.9,0-1.5-0.7-1.5-1.5V61
	C17.6,60.2,18.3,59.5,19.1,59.5z"/>
<path class="p5bisn-5" d="M28.9,52.4h38c0.9,0,1.5,0.7,1.5,1.5v2.4c0,0.9-0.7,1.5-1.5,1.5h-38c-0.9,0-1.5-0.7-1.5-1.5v-2.4
	C27.4,53,28.1,52.4,28.9,52.4z"/>
</svg>
