<svg id="Calque_9" data-name="Calque 9" xmlns="http://www.w3.org/2000/svg" viewBox="0 0 85.23 85.24" width="50" height="50"><defs><style>.p5n-1{fill:#44454e;}.p5n-1,.p5n-3{opacity:0.18;isolation:isolate;}.p5n-2{fill:#fff;}.p5n-3{fill:#636573;}.p5n-4{fill:#fdfcea;}.p5n-5{fill:#bcbcbc;}.p5n-6{fill:#f4f4f4;}</style></defs><title>9Plan de travail 1</title><circle class="p5n-1" cx="43.82" cy="39.74" r="23.98"/><path class="p5n-2" d="M54.66,42.88a.93.93,0,0,0,.93-.93h0V38.74a.93.93,0,1,0-1.86,0h0v3.18a.93.93,0,0,0,.92.94h0Z"/><path class="p5n-2" d="M57.16,40.35a.93.93,0,0,0-.93-.93H53a.93.93,0,1,0,0,1.86h3.2a.94.94,0,0,0,.94-.92h0Z"/><path class="p5n-2" d="M24.51,30.21a.93.93,0,0,0,.93-.93h0V26.1a.93.93,0,1,0-1.86,0h0v3.18a.93.93,0,0,0,.92.94h0Z"/><path class="p5n-2" d="M27,27.74a.93.93,0,0,0-.93-.93H22.88a.93.93,0,0,0,0,1.86h3.19a.93.93,0,0,0,1-.85h0Z"/><path class="p5n-3" d="M42.76,23.74a16,16,0,0,1,5.69-.3,16.3,16.3,0,0,0,7,29.83,16.32,16.32,0,1,1-12.7-29.53Z"/><path class="p5n-2" d="M50.88,27.74a.93.93,0,0,0,.93-.93h0V23.63a.93.93,0,1,0-1.86,0h0v3.11a.93.93,0,0,0,.85,1Z"/><path class="p5n-2" d="M53.39,25.15a.93.93,0,0,0-.93-.93h-3.2a.93.93,0,0,0,0,1.86h3.2a.93.93,0,0,0,1-.85h0Z"/><path class="p5n-4" d="M39.52,24.35a16.15,16.15,0,0,1,5.63-.3,16.15,16.15,0,0,0,7,29.54A16.17,16.17,0,1,1,39.52,24.35Z"/><rect class="p5n-5" x="16.81" y="47.51" width="41.06" height="5.47" rx="1.54" ry="1.54"/><rect class="p5n-5" x="20" y="61.9" width="41.06" height="5.47" rx="1.54" ry="1.54"/><rect class="p5n-5" x="29.77" y="54.76" width="41.06" height="5.47" rx="1.54" ry="1.54"/><rect class="p5n-6" x="14.41" y="45.12" width="41.06" height="5.47" rx="1.54" ry="1.54"/><rect class="p5n-6" x="17.6" y="59.51" width="41.06" height="5.47" rx="1.54" ry="1.54"/><rect class="p5n-6" x="27.37" y="52.36" width="41.06" height="5.47" rx="1.54" ry="1.54"/></svg>