<?xml version="1.0" encoding="utf-8"?>
<!-- Generator: Adobe Illustrator 24.0.2, SVG Export Plug-In . SVG Version: 6.00 Build 0)  -->
<svg version="1.1" id="Calque_12" xmlns="http://www.w3.org/2000/svg" xmlns:xlink="http://www.w3.org/1999/xlink" width="50" height="50" x="0px" y="0px"
	 viewBox="0 0 85.2 85.2" style="enable-background:new 0 0 85.2 85.2;" xml:space="preserve">
<style type="text/css">
	.p8bisj-0{fill:#BCBCBC;}
	.p8bisj-1{fill:#F4F4F4;}
	.p8bisj-2{fill:#CF2E29;}
	.p8bisj-3{fill:#FFFFFF;}
</style>
<title>12Plan de travail 1</title>
<path class="p8bisj-0" d="M16,21.6h41.8c0.8,0,1.5,0.7,1.5,1.5v2.3c0,0.8-0.7,1.5-1.5,1.5H16c-0.8,0-1.5-0.7-1.5-1.5V23
	C14.5,22.2,15.1,21.6,16,21.6z"/>
<path class="p8bisj-0" d="M19.4,35.3h41.8c0.8,0,1.5,0.7,1.5,1.5v2.3c0,0.8-0.7,1.5-1.5,1.5H19.4c-0.8,0-1.5-0.7-1.5-1.5v-2.3
	C18,36,18.6,35.3,19.4,35.3z"/>
<path class="p8bisj-0" d="M30.1,28.5h41.8c0.8,0,1.5,0.7,1.5,1.5v2.3c0,0.8-0.7,1.5-1.5,1.5H30.1c-0.8,0-1.5-0.7-1.5-1.5V30
	C28.6,29.2,29.3,28.5,30.1,28.5z"/>
<path class="p8bisj-1" d="M13.3,19.3h41.8c0.8,0,1.5,0.7,1.5,1.5V23c0,0.8-0.7,1.5-1.5,1.5H13.3c-0.8,0-1.5-0.7-1.5-1.5v-2.3
	C11.9,19.9,12.5,19.3,13.3,19.3z"/>
<path class="p8bisj-1" d="M16.8,33.1h41.8c0.8,0,1.5,0.7,1.5,1.5v2.3c0,0.8-0.7,1.5-1.5,1.5H16.8c-0.8,0-1.5-0.7-1.5-1.5v-2.3
	C15.3,33.7,16,33.1,16.8,33.1z"/>
<path class="p8bisj-1" d="M27.5,26.2h41.8c0.8,0,1.5,0.7,1.5,1.5V30c0,0.8-0.7,1.5-1.5,1.5H27.5c-0.8,0-1.5-0.7-1.5-1.5v-2.3
	C26,26.9,26.6,26.2,27.5,26.2z"/>
<path class="p8bisj-0" d="M16,43.4h41.8c0.8,0,1.5,0.7,1.5,1.5v2.3c0,0.8-0.7,1.5-1.5,1.5H16c-0.8,0-1.5-0.7-1.5-1.5v-2.3
	C14.5,44.1,15.1,43.4,16,43.4z"/>
<path class="p8bisj-0" d="M19.4,57.2h41.8c0.8,0,1.5,0.7,1.5,1.5v2.3c0,0.8-0.7,1.5-1.5,1.5H19.4c-0.8,0-1.5-0.7-1.5-1.5v-2.3
	C18,57.8,18.6,57.2,19.4,57.2z"/>
<path class="p8bisj-0" d="M30.1,50.3h41.8c0.8,0,1.5,0.7,1.5,1.5v2.3c0,0.8-0.7,1.5-1.5,1.5H30.1c-0.8,0-1.5-0.7-1.5-1.5v-2.3
	C28.6,51,29.3,50.3,30.1,50.3z"/>
<path class="p8bisj-1" d="M13.3,41.1h41.8c0.8,0,1.5,0.7,1.5,1.5v2.3c0,0.8-0.7,1.5-1.5,1.5H13.3c-0.8,0-1.5-0.7-1.5-1.5v-2.3
	C11.9,41.8,12.5,41.1,13.3,41.1z"/>
<path class="p8bisj-1" d="M16.8,54.9h41.8c0.8,0,1.5,0.7,1.5,1.5v2.3c0,0.8-0.7,1.5-1.5,1.5H16.8c-0.8,0-1.5-0.7-1.5-1.5v-2.3
	C15.3,55.5,16,54.9,16.8,54.9z"/>
<path class="p8bisj-1" d="M27.5,48h41.8c0.8,0,1.5,0.7,1.5,1.5v2.3c0,0.8-0.7,1.5-1.5,1.5H27.5c-0.8,0-1.5-0.7-1.5-1.5v-2.3
	C26,48.7,26.6,48,27.5,48z"/>
<rect x="35.9" y="48.5" class="p8bisj-2" width="36" height="17.1"/>
<path class="p8bisj-3" d="M50.4,62.9c-1.3,0.5-2.6,0.7-4,0.7c-3.3,0.3-6.2-2-6.6-5.3c0,0,0,0,0,0c0-0.4,0-0.8,0-1.1c0-3.8,2.7-6.6,7-6.6
	c1.1,0,2.2,0.1,3.2,0.5l-0.4,1.3c-0.9-0.4-1.9-0.6-2.8-0.5c-2.6-0.2-5,1.8-5.2,4.4c0,0,0,0,0,0c0,0.2,0,0.5,0,0.8c0,3.3,2,5.2,5,5.2
	c0.8,0,1.5-0.1,2.2-0.3v-3.8h-2.7v-1.3h4.2L50.4,62.9z"/>
<path class="p8bisj-3" d="M54.6,50.6v12.8h-1.7V50.6H54.6z"/>
<path class="p8bisj-3" d="M60.3,63.4l-4.2-12.8h1.8l2,6.3c0.5,1.7,1,3.3,1.4,4.8l0,0c0.4-1.5,0.9-3.1,1.5-4.8l2.2-6.3h1.8l-4.5,12.8H60.3
	z"/>
<path class="p8bisj-3" d="M66.6,62.4c0-0.6,0.4-1.1,1-1.2h0.1c0.7,0,1.2,0.5,1.2,1.2c0,0.7-0.5,1.2-1.2,1.2
	C67.1,63.7,66.6,63.2,66.6,62.4L66.6,62.4z"/>
</svg>
